<?xml version="1.0" encoding="us-ascii" standalone="no"?><svg xmlns="http://www.w3.org/2000/svg" xmlns:xlink="http://www.w3.org/1999/xlink" contentStyleType="text/css" height="887px" preserveAspectRatio="none" style="width:3522px;height:887px;background:#FFFFFF;" version="1.1" viewBox="0 0 3522 887" width="3522px" zoomAndPan="magnify"><defs/><g><!--cluster main--><g id="cluster_main"><rect fill="none" height="106" rx="2.5" ry="2.5" style="stroke:#808080;stroke-width:1.5;" width="306" x="7" y="340"/><path d="M57,340 L57,349.2969 L47,359.2969 L7,359.2969 " fill="none" style="stroke:#808080;stroke-width:1.5;"/><text fill="#000000" font-family="sans-serif" font-size="14" font-weight="bold" lengthAdjust="spacing" textLength="40" x="10" y="353.9951">main</text></g><!--cluster data--><g id="cluster_data"><rect fill="none" height="343" rx="2.5" ry="2.5" style="stroke:#808080;stroke-width:1.5;" width="2959" x="557" y="7"/><path d="M605,7 L605,16.2969 L595,26.2969 L557,26.2969 " fill="none" style="stroke:#808080;stroke-width:1.5;"/><text fill="#000000" font-family="sans-serif" font-size="14" font-weight="bold" lengthAdjust="spacing" textLength="38" x="560" y="20.9951">data</text></g><!--cluster SourceFile--><g id="cluster_SourceFile"><rect fill="none" height="260" rx="2.5" ry="2.5" style="stroke:#808080;stroke-width:1.5;" width="448" x="1259" y="58"/><path d="M1352,58 L1352,67.2969 L1342,77.2969 L1259,77.2969 " fill="none" style="stroke:#808080;stroke-width:1.5;"/><text fill="#000000" font-family="sans-serif" font-size="14" font-weight="bold" lengthAdjust="spacing" textLength="83" x="1262" y="71.9951">SourceFile</text></g><!--cluster SourceFunction--><g id="cluster_SourceFunction"><rect fill="none" height="191" rx="2.5" ry="2.5" style="stroke:#808080;stroke-width:1.5;" width="300" x="2067" y="135"/><path d="M2203,135 L2203,144.2969 L2193,154.2969 L2067,154.2969 " fill="none" style="stroke:#808080;stroke-width:1.5;"/><text fill="#000000" font-family="sans-serif" font-size="14" font-weight="bold" lengthAdjust="spacing" textLength="126" x="2070" y="148.9951">SourceFunction</text></g><!--cluster SourceClass--><g id="cluster_SourceClass"><rect fill="none" height="191" rx="2.5" ry="2.5" style="stroke:#808080;stroke-width:1.5;" width="300" x="1739" y="135"/><path d="M1847,135 L1847,144.2969 L1837,154.2969 L1739,154.2969 " fill="none" style="stroke:#808080;stroke-width:1.5;"/><text fill="#000000" font-family="sans-serif" font-size="14" font-weight="bold" lengthAdjust="spacing" textLength="98" x="1742" y="148.9951">SourceClass</text></g><!--cluster SourceType--><g id="cluster_SourceType"><rect fill="none" height="159" rx="2.5" ry="2.5" style="stroke:#808080;stroke-width:1.5;" width="524" x="2968" y="167"/><path d="M3072,167 L3072,176.2969 L3062,186.2969 L2968,186.2969 " fill="none" style="stroke:#808080;stroke-width:1.5;"/><text fill="#000000" font-family="sans-serif" font-size="14" font-weight="bold" lengthAdjust="spacing" textLength="94" x="2971" y="180.9951">SourceType</text></g><!--cluster SourceVariable--><g id="cluster_SourceVariable"><rect fill="none" height="191" rx="2.5" ry="2.5" style="stroke:#808080;stroke-width:1.5;" width="545" x="2395" y="50"/><path d="M2527,50 L2527,59.2969 L2517,69.2969 L2395,69.2969 " fill="none" style="stroke:#808080;stroke-width:1.5;"/><text fill="#000000" font-family="sans-serif" font-size="14" font-weight="bold" lengthAdjust="spacing" textLength="122" x="2398" y="63.9951">SourceVariable</text></g><!--cluster UMLFile--><g id="cluster_UMLFile"><rect fill="none" height="159" rx="2.5" ry="2.5" style="stroke:#808080;stroke-width:1.5;" width="410" x="581" y="111"/><path d="M653,111 L653,120.2969 L643,130.2969 L581,130.2969 " fill="none" style="stroke:#808080;stroke-width:1.5;"/><text fill="#000000" font-family="sans-serif" font-size="14" font-weight="bold" lengthAdjust="spacing" textLength="62" x="584" y="124.9951">UMLFile</text></g><!--cluster utils--><g id="cluster_utils"><rect fill="none" height="489" rx="2.5" ry="2.5" style="stroke:#808080;stroke-width:1.5;" width="882" x="345" y="374"/><path d="M392,374 L392,383.2969 L382,393.2969 L345,393.2969 " fill="none" style="stroke:#808080;stroke-width:1.5;"/><text fill="#000000" font-family="sans-serif" font-size="14" font-weight="bold" lengthAdjust="spacing" textLength="37" x="348" y="387.9951">utils</text></g><!--cluster PackageTools--><g id="cluster_PackageTools"><rect fill="none" height="71" rx="2.5" ry="2.5" style="stroke:#808080;stroke-width:1.5;" width="520" x="526" y="417"/><path d="M648,417 L648,426.2969 L638,436.2969 L526,436.2969 " fill="none" style="stroke:#808080;stroke-width:1.5;"/><text fill="#000000" font-family="sans-serif" font-size="14" font-weight="bold" lengthAdjust="spacing" textLength="112" x="529" y="430.9951">PackageTools</text></g><!--cluster PlantEncoder--><g id="cluster_PlantEncoder"><rect fill="none" height="71" rx="2.5" ry="2.5" style="stroke:#808080;stroke-width:1.5;" width="362" x="605" y="512"/><path d="M722,512 L722,521.2969 L712,531.2969 L605,531.2969 " fill="none" style="stroke:#808080;stroke-width:1.5;"/><text fill="#000000" font-family="sans-serif" font-size="14" font-weight="bold" lengthAdjust="spacing" textLength="107" x="608" y="525.9951">PlantEncoder</text></g><!--cluster ModuleParser--><g id="cluster_ModuleParser"><rect fill="none" height="216" rx="2.5" ry="2.5" style="stroke:#808080;stroke-width:1.5;" width="818" x="377" y="615"/><path d="M497,615 L497,624.2969 L487,634.2969 L377,634.2969 " fill="none" style="stroke:#808080;stroke-width:1.5;"/><text fill="#000000" font-family="sans-serif" font-size="14" font-weight="bold" lengthAdjust="spacing" textLength="110" x="380" y="628.9951">ModuleParser</text></g><g id="elem_generate_uml"><rect fill="#FFFFFF" height="20.2969" style="stroke:#181818;stroke-width:0.5;" width="258" x="31" y="383"/><text fill="#8B0000" font-family="sans-serif" font-size="14" lengthAdjust="spacing" textLength="99" x="38" y="397.9951">generate_uml</text><text fill="#000000" font-family="sans-serif" font-size="14" lengthAdjust="spacing" textLength="76" x="137" y="397.9951">(directory:</text><text fill="#191970" font-family="sans-serif" font-size="14" lengthAdjust="spacing" textLength="20" x="217" y="397.9951">str</text><text fill="#000000" font-family="sans-serif" font-size="14" lengthAdjust="spacing" textLength="21" x="237" y="397.9951">) &#8594;</text><text fill="#191970" font-family="sans-serif" font-size="14" lengthAdjust="spacing" textLength="20" x="262" y="397.9951">str</text></g><!--class SourceFile--><g id="elem_SourceFile"><rect codeLine="12" fill="#FFFFFF" height="172.6719" id="SourceFile" rx="2.5" ry="2.5" style="stroke:#181818;stroke-width:0.5;" width="400" x="1283" y="101.5"/><text fill="#000000" font-family="sans-serif" font-size="14" lengthAdjust="spacing" textLength="74" x="1446" y="119.4951">SourceFile</text><line style="stroke:#181818;stroke-width:0.5;" x1="1284" x2="1682" y1="127.7969" y2="127.7969"/><ellipse cx="1294" cy="141.4453" fill="none" rx="3" ry="3" style="stroke:#038048;stroke-width:1.0;"/><text fill="#000000" font-family="sans-serif" font-size="14" lengthAdjust="spacing" textLength="55" x="1303" y="144.792">classes:</text><text fill="#191970" font-family="sans-serif" font-size="14" lengthAdjust="spacing" textLength="117" x="1362" y="144.792">list[SourceClass]</text><ellipse cx="1294" cy="157.7422" fill="none" rx="3" ry="3" style="stroke:#038048;stroke-width:1.0;"/><text fill="#000000" font-family="sans-serif" font-size="14" lengthAdjust="spacing" textLength="72" x="1303" y="161.0889">functions:</text><text fill="#191970" font-family="sans-serif" font-size="14" lengthAdjust="spacing" textLength="143" x="1379" y="161.0889">list[SourceFunction]</text><ellipse cx="1294" cy="174.0391" fill="none" rx="3" ry="3" style="stroke:#038048;stroke-width:1.0;"/><text fill="#000000" font-family="sans-serif" font-size="14" lengthAdjust="spacing" textLength="62" x="1303" y="177.3857">imports:</text><text fill="#191970" font-family="sans-serif" font-size="14" lengthAdjust="spacing" textLength="52" x="1369" y="177.3857">list[str]</text><ellipse cx="1294" cy="190.3359" fill="none" rx="3" ry="3" style="stroke:#038048;stroke-width:1.0;"/><text fill="#000000" font-family="sans-serif" font-size="14" lengthAdjust="spacing" textLength="45" x="1303" y="193.6826">name:</text><text fill="#191970" font-family="sans-serif" font-size="14" lengthAdjust="spacing" textLength="20" x="1352" y="193.6826">str</text><ellipse cx="1294" cy="206.6328" fill="none" rx="3" ry="3" style="stroke:#038048;stroke-width:1.0;"/><text fill="#000000" font-family="sans-serif" font-size="14" lengthAdjust="spacing" textLength="69" x="1303" y="209.9795">variables:</text><text fill="#191970" font-family="sans-serif" font-size="14" lengthAdjust="spacing" textLength="140" x="1376" y="209.9795">list[SourceVariable]</text><line style="stroke:#181818;stroke-width:0.5;" x1="1284" x2="1682" y1="217.2813" y2="217.2813"/><ellipse cx="1294" cy="230.9297" fill="#84BE84" rx="3" ry="3" style="stroke:#038048;stroke-width:1.0;"/><text fill="#8B0000" font-family="sans-serif" font-size="14" lengthAdjust="spacing" textLength="52" x="1303" y="234.2764">__init__</text><text fill="#000000" font-family="sans-serif" font-size="14" lengthAdjust="spacing" textLength="52" x="1355" y="234.2764">(self) &#8594;</text><text fill="#191970" font-family="sans-serif" font-size="14" lengthAdjust="spacing" textLength="37" x="1411" y="234.2764">None</text><ellipse cx="1294" cy="247.2266" fill="#84BE84" rx="3" ry="3" style="stroke:#038048;stroke-width:1.0;"/><text fill="#8B0000" font-family="sans-serif" font-size="14" lengthAdjust="spacing" textLength="48" x="1303" y="250.5732">__str__</text><text fill="#000000" font-family="sans-serif" font-size="14" lengthAdjust="spacing" textLength="52" x="1351" y="250.5732">(self) &#8594;</text><text fill="#191970" font-family="sans-serif" font-size="14" lengthAdjust="spacing" textLength="20" x="1407" y="250.5732">str</text><ellipse cx="1294" cy="263.5234" fill="#84BE84" rx="3" ry="3" style="stroke:#038048;stroke-width:1.0;"/><text fill="#8B0000" font-family="sans-serif" font-size="14" lengthAdjust="spacing" textLength="169" x="1303" y="266.8701">get_connection_strings</text><text fill="#000000" font-family="sans-serif" font-size="14" lengthAdjust="spacing" textLength="104" x="1472" y="266.8701">(self, modules:</text><text fill="#191970" font-family="sans-serif" font-size="14" lengthAdjust="spacing" textLength="52" x="1580" y="266.8701">list[str]</text><text fill="#000000" font-family="sans-serif" font-size="14" lengthAdjust="spacing" textLength="21" x="1632" y="266.8701">) &#8594;</text><text fill="#191970" font-family="sans-serif" font-size="14" lengthAdjust="spacing" textLength="20" x="1657" y="266.8701">str</text></g><!--class SourceFunction--><g id="elem_SourceFunction"><rect codeLine="25" fill="#FFFFFF" height="140.0781" id="SourceFunction" rx="2.5" ry="2.5" style="stroke:#181818;stroke-width:0.5;" width="268" x="2083" y="170"/><text fill="#000000" font-family="sans-serif" font-size="14" lengthAdjust="spacing" textLength="111" x="2161.5" y="187.9951">SourceFunction</text><line style="stroke:#181818;stroke-width:0.5;" x1="2084" x2="2350" y1="196.2969" y2="196.2969"/><ellipse cx="2094" cy="209.9453" fill="none" rx="3" ry="3" style="stroke:#038048;stroke-width:1.0;"/><text fill="#000000" font-family="sans-serif" font-size="14" lengthAdjust="spacing" textLength="45" x="2103" y="213.292">name:</text><text fill="#191970" font-family="sans-serif" font-size="14" lengthAdjust="spacing" textLength="20" x="2152" y="213.292">str</text><ellipse cx="2094" cy="226.2422" fill="none" rx="3" ry="3" style="stroke:#038048;stroke-width:1.0;"/><text fill="#000000" font-family="sans-serif" font-size="14" lengthAdjust="spacing" textLength="58" x="2103" y="229.5889">params:</text><text fill="#191970" font-family="sans-serif" font-size="14" lengthAdjust="spacing" textLength="140" x="2165" y="229.5889">list[SourceVariable]</text><ellipse cx="2094" cy="242.5391" fill="none" rx="3" ry="3" style="stroke:#038048;stroke-width:1.0;"/><text fill="#000000" font-family="sans-serif" font-size="14" lengthAdjust="spacing" textLength="57" x="2103" y="245.8857">returns:</text><text fill="#191970" font-family="sans-serif" font-size="14" lengthAdjust="spacing" textLength="85" x="2164" y="245.8857">SourceType</text><line style="stroke:#181818;stroke-width:0.5;" x1="2084" x2="2350" y1="253.1875" y2="253.1875"/><ellipse cx="2094" cy="266.8359" fill="#84BE84" rx="3" ry="3" style="stroke:#038048;stroke-width:1.0;"/><text fill="#8B0000" font-family="sans-serif" font-size="14" lengthAdjust="spacing" textLength="52" x="2103" y="270.1826">__init__</text><text fill="#000000" font-family="sans-serif" font-size="14" lengthAdjust="spacing" textLength="52" x="2155" y="270.1826">(self) &#8594;</text><text fill="#191970" font-family="sans-serif" font-size="14" lengthAdjust="spacing" textLength="37" x="2211" y="270.1826">None</text><ellipse cx="2094" cy="283.1328" fill="#84BE84" rx="3" ry="3" style="stroke:#038048;stroke-width:1.0;"/><text fill="#8B0000" font-family="sans-serif" font-size="14" lengthAdjust="spacing" textLength="48" x="2103" y="286.4795">__str__</text><text fill="#000000" font-family="sans-serif" font-size="14" lengthAdjust="spacing" textLength="52" x="2151" y="286.4795">(self) &#8594;</text><text fill="#191970" font-family="sans-serif" font-size="14" lengthAdjust="spacing" textLength="20" x="2207" y="286.4795">str</text><ellipse cx="2094" cy="299.4297" fill="#84BE84" rx="3" ry="3" style="stroke:#038048;stroke-width:1.0;"/><text fill="#8B0000" font-family="sans-serif" font-size="14" lengthAdjust="spacing" textLength="133" x="2103" y="302.7764">get_dependencies</text><text fill="#000000" font-family="sans-serif" font-size="14" lengthAdjust="spacing" textLength="52" x="2236" y="302.7764">(self) &#8594;</text><text fill="#191970" font-family="sans-serif" font-size="14" lengthAdjust="spacing" textLength="53" x="2292" y="302.7764">set[str]</text></g><!--class SourceClass--><g id="elem_SourceClass"><rect codeLine="36" fill="#FFFFFF" height="140.0781" id="SourceClass" rx="2.5" ry="2.5" style="stroke:#181818;stroke-width:0.5;" width="268" x="1755" y="170"/><text fill="#000000" font-family="sans-serif" font-size="14" lengthAdjust="spacing" textLength="85" x="1846.5" y="187.9951">SourceClass</text><line style="stroke:#181818;stroke-width:0.5;" x1="1756" x2="2022" y1="196.2969" y2="196.2969"/><ellipse cx="1766" cy="209.9453" fill="none" rx="3" ry="3" style="stroke:#038048;stroke-width:1.0;"/><text fill="#000000" font-family="sans-serif" font-size="14" lengthAdjust="spacing" textLength="69" x="1775" y="213.292">methods:</text><text fill="#191970" font-family="sans-serif" font-size="14" lengthAdjust="spacing" textLength="143" x="1848" y="213.292">list[SourceFunction]</text><ellipse cx="1766" cy="226.2422" fill="none" rx="3" ry="3" style="stroke:#038048;stroke-width:1.0;"/><text fill="#000000" font-family="sans-serif" font-size="14" lengthAdjust="spacing" textLength="45" x="1775" y="229.5889">name:</text><text fill="#191970" font-family="sans-serif" font-size="14" lengthAdjust="spacing" textLength="20" x="1824" y="229.5889">str</text><ellipse cx="1766" cy="242.5391" fill="none" rx="3" ry="3" style="stroke:#038048;stroke-width:1.0;"/><text fill="#000000" font-family="sans-serif" font-size="14" lengthAdjust="spacing" textLength="69" x="1775" y="245.8857">variables:</text><text fill="#191970" font-family="sans-serif" font-size="14" lengthAdjust="spacing" textLength="140" x="1848" y="245.8857">list[SourceVariable]</text><line style="stroke:#181818;stroke-width:0.5;" x1="1756" x2="2022" y1="253.1875" y2="253.1875"/><ellipse cx="1766" cy="266.8359" fill="#84BE84" rx="3" ry="3" style="stroke:#038048;stroke-width:1.0;"/><text fill="#8B0000" font-family="sans-serif" font-size="14" lengthAdjust="spacing" textLength="52" x="1775" y="270.1826">__init__</text><text fill="#000000" font-family="sans-serif" font-size="14" lengthAdjust="spacing" textLength="52" x="1827" y="270.1826">(self) &#8594;</text><text fill="#191970" font-family="sans-serif" font-size="14" lengthAdjust="spacing" textLength="37" x="1883" y="270.1826">None</text><ellipse cx="1766" cy="283.1328" fill="#84BE84" rx="3" ry="3" style="stroke:#038048;stroke-width:1.0;"/><text fill="#8B0000" font-family="sans-serif" font-size="14" lengthAdjust="spacing" textLength="48" x="1775" y="286.4795">__str__</text><text fill="#000000" font-family="sans-serif" font-size="14" lengthAdjust="spacing" textLength="52" x="1823" y="286.4795">(self) &#8594;</text><text fill="#191970" font-family="sans-serif" font-size="14" lengthAdjust="spacing" textLength="20" x="1879" y="286.4795">str</text><ellipse cx="1766" cy="299.4297" fill="#84BE84" rx="3" ry="3" style="stroke:#038048;stroke-width:1.0;"/><text fill="#8B0000" font-family="sans-serif" font-size="14" lengthAdjust="spacing" textLength="133" x="1775" y="302.7764">get_dependencies</text><text fill="#000000" font-family="sans-serif" font-size="14" lengthAdjust="spacing" textLength="52" x="1908" y="302.7764">(self) &#8594;</text><text fill="#191970" font-family="sans-serif" font-size="14" lengthAdjust="spacing" textLength="53" x="1964" y="302.7764">set[str]</text></g><!--class SourceType--><g id="elem_SourceType"><rect codeLine="47" fill="#FFFFFF" height="107.4844" id="SourceType" rx="2.5" ry="2.5" style="stroke:#181818;stroke-width:0.5;" width="492" x="2984" y="202.5"/><text fill="#000000" font-family="sans-serif" font-size="14" lengthAdjust="spacing" textLength="85" x="3187.5" y="220.4951">SourceType</text><line style="stroke:#181818;stroke-width:0.5;" x1="2985" x2="3475" y1="228.7969" y2="228.7969"/><ellipse cx="2995" cy="242.4453" fill="none" rx="3" ry="3" style="stroke:#038048;stroke-width:1.0;"/><text fill="#000000" font-family="sans-serif" font-size="14" lengthAdjust="spacing" textLength="106" x="3004" y="245.792">dependencies:</text><text fill="#191970" font-family="sans-serif" font-size="14" lengthAdjust="spacing" textLength="53" x="3114" y="245.792">set[str]</text><ellipse cx="2995" cy="258.7422" fill="none" rx="3" ry="3" style="stroke:#038048;stroke-width:1.0;"/><text fill="#000000" font-family="sans-serif" font-size="14" lengthAdjust="spacing" textLength="68" x="3004" y="262.0889">readable:</text><text fill="#191970" font-family="sans-serif" font-size="14" lengthAdjust="spacing" textLength="20" x="3076" y="262.0889">str</text><line style="stroke:#181818;stroke-width:0.5;" x1="2985" x2="3475" y1="269.3906" y2="269.3906"/><ellipse cx="2995" cy="283.0391" fill="#84BE84" rx="3" ry="3" style="stroke:#038048;stroke-width:1.0;"/><text fill="#8B0000" font-family="sans-serif" font-size="14" lengthAdjust="spacing" textLength="52" x="3004" y="286.3857">__init__</text><text fill="#000000" font-family="sans-serif" font-size="14" lengthAdjust="spacing" textLength="107" x="3056" y="286.3857">(self, readable:</text><text fill="#191970" font-family="sans-serif" font-size="14" lengthAdjust="spacing" textLength="20" x="3167" y="286.3857">str</text><text fill="#000000" font-family="sans-serif" font-size="14" lengthAdjust="spacing" textLength="114" x="3187" y="286.3857">, dependencies:</text><text fill="#191970" font-family="sans-serif" font-size="14" lengthAdjust="spacing" textLength="103" x="3305" y="286.3857">set[str] | None</text><text fill="#000000" font-family="sans-serif" font-size="14" lengthAdjust="spacing" textLength="21" x="3408" y="286.3857">) &#8594;</text><text fill="#191970" font-family="sans-serif" font-size="14" lengthAdjust="spacing" textLength="37" x="3433" y="286.3857">None</text><ellipse cx="2995" cy="299.3359" fill="#84BE84" rx="3" ry="3" style="stroke:#038048;stroke-width:1.0;"/><text fill="#8B0000" font-family="sans-serif" font-size="14" lengthAdjust="spacing" textLength="48" x="3004" y="302.6826">__str__</text><text fill="#000000" font-family="sans-serif" font-size="14" lengthAdjust="spacing" textLength="52" x="3052" y="302.6826">(self) &#8594;</text><text fill="#191970" font-family="sans-serif" font-size="14" lengthAdjust="spacing" textLength="20" x="3108" y="302.6826">str</text></g><!--class SourceVariable--><g id="elem_SourceVariable"><rect codeLine="56" fill="#FFFFFF" height="140.0781" id="SourceVariable" rx="2.5" ry="2.5" style="stroke:#181818;stroke-width:0.5;" width="513" x="2411" y="85"/><text fill="#000000" font-family="sans-serif" font-size="14" lengthAdjust="spacing" textLength="108" x="2613.5" y="102.9951">SourceVariable</text><line style="stroke:#181818;stroke-width:0.5;" x1="2412" x2="2923" y1="111.2969" y2="111.2969"/><ellipse cx="2422" cy="124.9453" fill="none" rx="3" ry="3" style="stroke:#038048;stroke-width:1.0;"/><text fill="#000000" font-family="sans-serif" font-size="14" lengthAdjust="spacing" textLength="45" x="2431" y="128.292">name:</text><text fill="#191970" font-family="sans-serif" font-size="14" lengthAdjust="spacing" textLength="20" x="2480" y="128.292">str</text><ellipse cx="2422" cy="141.2422" fill="none" rx="3" ry="3" style="stroke:#038048;stroke-width:1.0;"/><text fill="#000000" font-family="sans-serif" font-size="14" lengthAdjust="spacing" textLength="46" x="2431" y="144.5889">static:</text><text fill="#191970" font-family="sans-serif" font-size="14" lengthAdjust="spacing" textLength="32" x="2481" y="144.5889">bool</text><ellipse cx="2422" cy="157.5391" fill="none" rx="3" ry="3" style="stroke:#038048;stroke-width:1.0;"/><text fill="#000000" font-family="sans-serif" font-size="14" lengthAdjust="spacing" textLength="39" x="2431" y="160.8857">type:</text><text fill="#191970" font-family="sans-serif" font-size="14" lengthAdjust="spacing" textLength="85" x="2474" y="160.8857">SourceType</text><line style="stroke:#181818;stroke-width:0.5;" x1="2412" x2="2923" y1="168.1875" y2="168.1875"/><ellipse cx="2422" cy="181.8359" fill="#84BE84" rx="3" ry="3" style="stroke:#038048;stroke-width:1.0;"/><text fill="#8B0000" font-family="sans-serif" font-size="14" lengthAdjust="spacing" textLength="52" x="2431" y="185.1826">__init__</text><text fill="#000000" font-family="sans-serif" font-size="14" lengthAdjust="spacing" textLength="84" x="2483" y="185.1826">(self, name:</text><text fill="#191970" font-family="sans-serif" font-size="14" lengthAdjust="spacing" textLength="20" x="2571" y="185.1826">str</text><text fill="#000000" font-family="sans-serif" font-size="14" lengthAdjust="spacing" textLength="86" x="2591" y="185.1826">, data_type:</text><text fill="#191970" font-family="sans-serif" font-size="14" lengthAdjust="spacing" textLength="85" x="2681" y="185.1826">SourceType</text><text fill="#000000" font-family="sans-serif" font-size="14" lengthAdjust="spacing" textLength="54" x="2766" y="185.1826">, static:</text><text fill="#191970" font-family="sans-serif" font-size="14" lengthAdjust="spacing" textLength="32" x="2824" y="185.1826">bool</text><text fill="#000000" font-family="sans-serif" font-size="14" lengthAdjust="spacing" textLength="21" x="2856" y="185.1826">) &#8594;</text><text fill="#191970" font-family="sans-serif" font-size="14" lengthAdjust="spacing" textLength="37" x="2881" y="185.1826">None</text><ellipse cx="2422" cy="198.1328" fill="#84BE84" rx="3" ry="3" style="stroke:#038048;stroke-width:1.0;"/><text fill="#8B0000" font-family="sans-serif" font-size="14" lengthAdjust="spacing" textLength="48" x="2431" y="201.4795">__str__</text><text fill="#000000" font-family="sans-serif" font-size="14" lengthAdjust="spacing" textLength="52" x="2479" y="201.4795">(self) &#8594;</text><text fill="#191970" font-family="sans-serif" font-size="14" lengthAdjust="spacing" textLength="20" x="2535" y="201.4795">str</text><ellipse cx="2422" cy="214.4297" fill="#84BE84" rx="3" ry="3" style="stroke:#038048;stroke-width:1.0;"/><text fill="#8B0000" font-family="sans-serif" font-size="14" lengthAdjust="spacing" textLength="133" x="2431" y="217.7764">get_dependencies</text><text fill="#000000" font-family="sans-serif" font-size="14" lengthAdjust="spacing" textLength="52" x="2564" y="217.7764">(self) &#8594;</text><text fill="#191970" font-family="sans-serif" font-size="14" lengthAdjust="spacing" textLength="53" x="2620" y="217.7764">set[str]</text></g><!--class UMLFile--><g id="elem_UMLFile"><rect codeLine="67" fill="#FFFFFF" height="107.4844" id="UMLFile" rx="2.5" ry="2.5" style="stroke:#181818;stroke-width:0.5;" width="378" x="597" y="146.5"/><text fill="#000000" font-family="sans-serif" font-size="14" lengthAdjust="spacing" textLength="54" x="759" y="164.4951">UMLFile</text><line style="stroke:#181818;stroke-width:0.5;" x1="598" x2="974" y1="172.7969" y2="172.7969"/><ellipse cx="608" cy="186.4453" fill="none" rx="3" ry="3" style="stroke:#038048;stroke-width:1.0;"/><text fill="#000000" font-family="sans-serif" font-size="14" lengthAdjust="spacing" textLength="89" x="617" y="189.792">source_files:</text><text fill="#191970" font-family="sans-serif" font-size="14" lengthAdjust="spacing" textLength="106" x="710" y="189.792">list[SourceFile]</text><line style="stroke:#181818;stroke-width:0.5;" x1="598" x2="974" y1="197.0938" y2="197.0938"/><ellipse cx="608" cy="210.7422" fill="#84BE84" rx="3" ry="3" style="stroke:#038048;stroke-width:1.0;"/><text fill="#8B0000" font-family="sans-serif" font-size="14" lengthAdjust="spacing" textLength="52" x="617" y="214.0889">__init__</text><text fill="#000000" font-family="sans-serif" font-size="14" lengthAdjust="spacing" textLength="128" x="669" y="214.0889">(self, source_files:</text><text fill="#191970" font-family="sans-serif" font-size="14" lengthAdjust="spacing" textLength="106" x="801" y="214.0889">list[SourceFile]</text><text fill="#000000" font-family="sans-serif" font-size="14" lengthAdjust="spacing" textLength="21" x="907" y="214.0889">) &#8594;</text><text fill="#191970" font-family="sans-serif" font-size="14" lengthAdjust="spacing" textLength="37" x="932" y="214.0889">None</text><ellipse cx="608" cy="227.0391" fill="#84BE84" rx="3" ry="3" style="stroke:#038048;stroke-width:1.0;"/><text fill="#8B0000" font-family="sans-serif" font-size="14" lengthAdjust="spacing" textLength="48" x="617" y="230.3857">__str__</text><text fill="#000000" font-family="sans-serif" font-size="14" lengthAdjust="spacing" textLength="52" x="665" y="230.3857">(self) &#8594;</text><text fill="#191970" font-family="sans-serif" font-size="14" lengthAdjust="spacing" textLength="20" x="721" y="230.3857">str</text><ellipse cx="608" cy="243.3359" fill="#84BE84" rx="3" ry="3" style="stroke:#038048;stroke-width:1.0;"/><text fill="#8B0000" font-family="sans-serif" font-size="14" lengthAdjust="spacing" textLength="146" x="617" y="246.6826">get_known_modules</text><text fill="#000000" font-family="sans-serif" font-size="14" lengthAdjust="spacing" textLength="52" x="763" y="246.6826">(self) &#8594;</text><text fill="#191970" font-family="sans-serif" font-size="14" lengthAdjust="spacing" textLength="52" x="819" y="246.6826">list[str]</text></g><g id="elem_get_matching_module"><rect fill="#FFFFFF" height="20.2969" style="stroke:#181818;stroke-width:0.5;" width="488" x="542" y="452"/><text fill="#8B0000" font-family="sans-serif" font-size="14" lengthAdjust="spacing" textLength="160" x="549" y="466.9951">get_matching_module</text><text fill="#000000" font-family="sans-serif" font-size="14" lengthAdjust="spacing" textLength="70" x="709" y="466.9951">(modules:</text><text fill="#191970" font-family="sans-serif" font-size="14" lengthAdjust="spacing" textLength="52" x="783" y="466.9951">list[str]</text><text fill="#000000" font-family="sans-serif" font-size="14" lengthAdjust="spacing" textLength="69" x="835" y="466.9951">, snippet:</text><text fill="#191970" font-family="sans-serif" font-size="14" lengthAdjust="spacing" textLength="20" x="908" y="466.9951">str</text><text fill="#000000" font-family="sans-serif" font-size="14" lengthAdjust="spacing" textLength="21" x="928" y="466.9951">) &#8594;</text><text fill="#191970" font-family="sans-serif" font-size="14" lengthAdjust="spacing" textLength="70" x="953" y="466.9951">str | None</text></g><g id="elem_encode"><rect fill="#FFFFFF" height="20.2969" style="stroke:#181818;stroke-width:0.5;" width="330" x="621" y="547"/><text fill="#8B0000" font-family="sans-serif" font-size="14" lengthAdjust="spacing" textLength="53" x="628" y="561.9951">encode</text><text fill="#000000" font-family="sans-serif" font-size="14" lengthAdjust="spacing" textLength="68" x="681" y="561.9951">(diagram:</text><text fill="#191970" font-family="sans-serif" font-size="14" lengthAdjust="spacing" textLength="20" x="753" y="561.9951">str</text><text fill="#000000" font-family="sans-serif" font-size="14" lengthAdjust="spacing" textLength="102" x="773" y="561.9951">, render_type:</text><text fill="#191970" font-family="sans-serif" font-size="14" lengthAdjust="spacing" textLength="20" x="879" y="561.9951">str</text><text fill="#000000" font-family="sans-serif" font-size="14" lengthAdjust="spacing" textLength="21" x="899" y="561.9951">) &#8594;</text><text fill="#191970" font-family="sans-serif" font-size="14" lengthAdjust="spacing" textLength="20" x="924" y="561.9951">str</text></g><g id="elem_annotation_to_string"><rect fill="#FFFFFF" height="20.2969" style="stroke:#181818;stroke-width:0.5;" width="433" x="569.5" y="768"/><text fill="#8B0000" font-family="sans-serif" font-size="14" lengthAdjust="spacing" textLength="151" x="576.5" y="782.9951">annotation_to_string</text><text fill="#000000" font-family="sans-serif" font-size="14" lengthAdjust="spacing" textLength="46" x="727.5" y="782.9951">(node:</text><text fill="#191970" font-family="sans-serif" font-size="14" lengthAdjust="spacing" textLength="108" x="777.5" y="782.9951">NodeNG | None</text><text fill="#000000" font-family="sans-serif" font-size="14" lengthAdjust="spacing" textLength="21" x="885.5" y="782.9951">) &#8594;</text><text fill="#191970" font-family="sans-serif" font-size="14" lengthAdjust="spacing" textLength="85" x="910.5" y="782.9951">SourceType</text></g><g id="elem_get_function"><rect fill="#FFFFFF" height="20.2969" style="stroke:#181818;stroke-width:0.5;" width="380" x="596" y="713"/><text fill="#8B0000" font-family="sans-serif" font-size="14" lengthAdjust="spacing" textLength="92" x="603" y="727.9951">get_function</text><text fill="#000000" font-family="sans-serif" font-size="14" lengthAdjust="spacing" textLength="46" x="695" y="727.9951">(node:</text><text fill="#191970" font-family="sans-serif" font-size="14" lengthAdjust="spacing" textLength="88" x="745" y="727.9951">FunctionDef</text><text fill="#000000" font-family="sans-serif" font-size="14" lengthAdjust="spacing" textLength="21" x="833" y="727.9951">) &#8594;</text><text fill="#191970" font-family="sans-serif" font-size="14" lengthAdjust="spacing" textLength="111" x="858" y="727.9951">SourceFunction</text></g><g id="elem_get_module_info"><rect fill="#FFFFFF" height="20.2969" style="stroke:#181818;stroke-width:0.5;" width="770" x="401" y="658"/><text fill="#8B0000" font-family="sans-serif" font-size="14" lengthAdjust="spacing" textLength="120" x="408" y="672.9951">get_module_info</text><text fill="#000000" font-family="sans-serif" font-size="14" lengthAdjust="spacing" textLength="41" x="528" y="672.9951">(root:</text><text fill="#191970" font-family="sans-serif" font-size="14" lengthAdjust="spacing" textLength="20" x="573" y="672.9951">str</text><text fill="#000000" font-family="sans-serif" font-size="14" lengthAdjust="spacing" textLength="77" x="593" y="672.9951">, file_path:</text><text fill="#191970" font-family="sans-serif" font-size="14" lengthAdjust="spacing" textLength="20" x="674" y="672.9951">str</text><text fill="#000000" font-family="sans-serif" font-size="14" lengthAdjust="spacing" textLength="127" x="694" y="672.9951">, known_modules:</text><text fill="#191970" font-family="sans-serif" font-size="14" lengthAdjust="spacing" textLength="52" x="825" y="672.9951">list[str]</text><text fill="#000000" font-family="sans-serif" font-size="14" lengthAdjust="spacing" textLength="152" x="877" y="672.9951">, with_dependencies:</text><text fill="#191970" font-family="sans-serif" font-size="14" lengthAdjust="spacing" textLength="32" x="1033" y="672.9951">bool</text><text fill="#000000" font-family="sans-serif" font-size="14" lengthAdjust="spacing" textLength="21" x="1065" y="672.9951">) &#8594;</text><text fill="#191970" font-family="sans-serif" font-size="14" lengthAdjust="spacing" textLength="74" x="1090" y="672.9951">SourceFile</text></g><!--link main to SourceFile--><g id="link_main_SourceFile"><path codeLine="86" d="M313.4378,422.5738 C315.7939,422.3141 318.1725,422.0509 320.5733,421.7844 C339.7798,419.6525 360.407,417.3058 382.2782,414.7419 C426.0208,409.614 474.7396,403.6167 527.0216,396.7293 C736.1498,369.1793 1002.289,327.3845 1235,270 C1249.09,266.525 1263.53,262.632 1278.02,258.479 " fill="none" id="main-to-SourceFile" style="stroke:#181818;stroke-width:1.0;stroke-dasharray:7.0,7.0;"/><polygon fill="#181818" points="1282.93,257.061,1273.174,255.7119,1278.1258,258.4467,1275.3911,263.3985,1282.93,257.061" style="stroke:#181818;stroke-width:1.0;"/></g><!--link main to UMLFile--><g id="link_main_UMLFile"><path codeLine="87" d="M198.7593,446.0844 C198.9932,446.1197 199.2278,446.1547 199.4631,446.1897 C200.4045,446.3294 201.3576,446.4665 202.3217,446.6006 C210.0347,447.6734 218.455,448.5527 227.246,449.0051 C262.41,450.8148 303.506,445.7935 329,419 C348.493,398.514 318.448,313.342 337,292 C399.245,220.395 500.987,195.592 591.793,189.499 " fill="none" id="main-to-UMLFile" style="stroke:#181818;stroke-width:1.0;stroke-dasharray:7.0,7.0;"/><polygon fill="#181818" points="596.931,189.174,587.6964,185.7503,591.941,189.4897,588.2015,193.7343,596.931,189.174" style="stroke:#181818;stroke-width:1.0;"/></g><!--link main to get_module_info--><g id="link_main_get_module_info"><path codeLine="88" d="M167.881,446.0005 C168.6913,446.9215 169.569,447.9132 170.5119,448.9709 C172.3977,451.0863 174.5442,453.4657 176.9336,456.0717 C186.4911,466.4958 199.9341,480.5452 216.1197,495.8209 C248.491,526.3723 291.8325,561.829 337,583 C427.754,625.538 538.316,646.791 626.897,657.408 " fill="none" id="main-to-get_module_info" style="stroke:#181818;stroke-width:1.0;stroke-dasharray:7.0,7.0;"/><polygon fill="#181818" points="631.898,657.999,623.4299,652.9699,626.9326,657.4119,622.4906,660.9145,631.898,657.999" style="stroke:#181818;stroke-width:1.0;"/></g><!--link main to encode--><g id="link_main_encode"><path codeLine="89" d="M185.7009,446.068 C185.8899,446.1284 186.0798,446.189 186.2706,446.2499 C186.6522,446.3717 187.0373,446.4945 187.426,446.6184 C190.5357,447.6091 193.8717,448.6647 197.4077,449.7741 C204.4796,451.9928 212.3513,454.4265 220.811,456.9858 C254.6498,467.2228 297.8965,479.4685 337,488 C459.433,514.712 602.893,534.89 693.849,546.328 " fill="none" id="main-to-encode" style="stroke:#181818;stroke-width:1.0;stroke-dasharray:7.0,7.0;"/><polygon fill="#181818" points="698.951,546.967,690.5181,541.8792,693.9898,546.3454,689.5236,549.8171,698.951,546.967" style="stroke:#181818;stroke-width:1.0;"/></g><!--link SourceFile to SourceFunction--><g id="link_SourceFile_SourceFunction"><path codeLine="90" d="M1696.41,146.04 C1802.94,132.311 1933.2,126.709 2047,154 C2058.76,156.82 2070.63,160.602 2082.33,165.012 " fill="none" id="SourceFile-SourceFunction" style="stroke:#181818;stroke-width:1.0;"/><polygon fill="none" points="1683.2,147.799,1689.6751,150.9728,1695.0952,146.2165,1688.6201,143.0427,1683.2,147.799" style="stroke:#181818;stroke-width:1.0;"/><polygon fill="#181818" points="2094.44,169.82,2087.5526,162.7799,2089.7932,167.974,2084.5991,170.2147,2094.44,169.82" style="stroke:#181818;stroke-width:1.0;"/><line style="stroke:#181818;stroke-width:1.0;" x1="2089.7932" x2="2082.36" y1="167.974" y2="165.026"/></g><!--link SourceFile to SourceVariable--><g id="link_SourceFile_SourceVariable"><path codeLine="91" d="M1696.47,139.604 C1708.11,137.829 1719.68,136.271 1731,135 C1954.58,109.903 2210.06,117.814 2397.47,130.365 " fill="none" id="SourceFile-SourceVariable" style="stroke:#181818;stroke-width:1.0;"/><polygon fill="none" points="1683.29,141.696,1689.844,144.7036,1695.1409,139.8105,1688.587,136.8029,1683.29,141.696" style="stroke:#181818;stroke-width:1.0;"/><polygon fill="#181818" points="2410.56,131.257,2401.8484,126.6627,2405.5712,130.9218,2401.3121,134.6447,2410.56,131.257" style="stroke:#181818;stroke-width:1.0;"/><line style="stroke:#181818;stroke-width:1.0;" x1="2405.5712" x2="2397.595" y1="130.9218" y2="130.3735"/></g><!--link SourceFile to SourceClass--><g id="link_SourceFile_SourceClass"><path codeLine="92" d="M1696.19,215.312 C1711.65,217.302 1727.04,219.282 1741.98,221.205 " fill="none" id="SourceFile-SourceClass" style="stroke:#181818;stroke-width:1.0;"/><polygon fill="none" points="1683.04,213.619,1688.476,218.3571,1694.9404,215.1616,1689.5044,210.4235,1683.04,213.619" style="stroke:#181818;stroke-width:1.0;"/><polygon fill="#181818" points="1754.99,222.879,1746.5734,217.7643,1750.0308,222.2416,1745.5535,225.699,1754.99,222.879" style="stroke:#181818;stroke-width:1.0;"/><line style="stroke:#181818;stroke-width:1.0;" x1="1750.0308" x2="1742.09" y1="222.2416" y2="221.2195"/></g><!--link SourceFile to get_matching_module--><g id="link_SourceFile_get_matching_module"><path codeLine="93" d="M1331.6318,318.0778 C1328.3077,318.5693 1324.9729,319.0881 1321.6325,319.6355 C1294.9094,324.0149 1267.8275,330.2265 1243,339 C1239.05,340.397 1238.85,342.336 1235,344 C1105.12,400.151 942.182,434.853 852.955,451.069 " fill="none" id="SourceFile-to-get_matching_module" style="stroke:#181818;stroke-width:1.0;stroke-dasharray:7.0,7.0;"/><polygon fill="#181818" points="847.974,451.968,857.5422,454.3026,852.8942,451.0782,856.1185,446.4302,847.974,451.968" style="stroke:#181818;stroke-width:1.0;"/></g><!--link SourceFunction to SourceType--><g id="link_SourceFunction_SourceType"><path codeLine="94" d="M2364.63,242.321 C2523.04,244.828 2778.52,248.871 2970.74,251.913 " fill="none" id="SourceFunction-SourceType" style="stroke:#181818;stroke-width:1.0;"/><polygon fill="none" points="2351.21,242.108,2357.1477,246.1998,2363.2086,242.2926,2357.2708,238.2008,2351.21,242.108" style="stroke:#181818;stroke-width:1.0;"/><polygon fill="#181818" points="2983.88,252.121,2974.9472,247.9732,2978.8807,252.0386,2974.8153,255.9721,2983.88,252.121" style="stroke:#181818;stroke-width:1.0;"/><line style="stroke:#181818;stroke-width:1.0;" x1="2978.8807" x2="2970.885" y1="252.0386" y2="251.915"/></g><!--link SourceFunction to SourceVariable--><g id="link_SourceFunction_SourceVariable"><path codeLine="95" d="M2364.19,212.293 C2375.18,210.211 2386.46,208.073 2397.9,205.906 " fill="none" id="SourceFunction-SourceVariable" style="stroke:#181818;stroke-width:1.0;"/><polygon fill="none" points="2351.05,214.785,2357.6916,217.5937,2362.8388,212.5433,2356.1971,209.7346,2351.05,214.785" style="stroke:#181818;stroke-width:1.0;"/><polygon fill="#181818" points="2410.87,203.447,2401.2836,201.1883,2405.957,204.3757,2402.7696,209.0491,2410.87,203.447" style="stroke:#181818;stroke-width:1.0;"/><line style="stroke:#181818;stroke-width:1.0;" x1="2405.957" x2="2398.095" y1="204.3757" y2="205.868"/></g><!--link SourceClass to SourceFunction--><g id="link_SourceClass_SourceFunction"><path codeLine="96" d="M2036.08,240 C2047.27,240 2058.57,240 2069.76,240 " fill="none" id="SourceClass-SourceFunction" style="stroke:#181818;stroke-width:1.0;"/><polygon fill="none" points="2023.07,240,2029.07,244,2035.07,240,2029.07,236,2023.07,240" style="stroke:#181818;stroke-width:1.0;"/><polygon fill="#181818" points="2082.83,240,2073.83,236,2077.83,240,2073.83,244,2082.83,240" style="stroke:#181818;stroke-width:1.0;"/><line style="stroke:#181818;stroke-width:1.0;" x1="2077.83" x2="2069.83" y1="240" y2="240"/></g><!--link SourceClass to SourceVariable--><g id="link_SourceClass_SourceVariable"><path codeLine="97" d="M2023.67,165.012 C2035.37,160.602 2047.24,156.82 2059,154 C2167.79,127.911 2290.73,123.614 2397.41,127.529 " fill="none" id="SourceClass-SourceVariable" style="stroke:#181818;stroke-width:1.0;"/><polygon fill="none" points="2011.56,169.82,2018.6129,171.3223,2022.7122,165.3897,2015.6594,163.8874,2011.56,169.82" style="stroke:#181818;stroke-width:1.0;"/><polygon fill="#181818" points="2410.67,128.061,2401.8401,123.6984,2405.6741,127.8577,2401.5148,131.6918,2410.67,128.061" style="stroke:#181818;stroke-width:1.0;"/><line style="stroke:#181818;stroke-width:1.0;" x1="2405.6741" x2="2397.685" y1="127.8577" y2="127.5395"/></g><!--link SourceVariable to SourceType--><g id="link_SourceVariable_SourceType"><path codeLine="98" d="M2937.15,203.409 C2948.28,205.415 2959.44,207.426 2970.55,209.429 " fill="none" id="SourceVariable-SourceType" style="stroke:#181818;stroke-width:1.0;"/><polygon fill="none" points="2924.15,201.067,2929.3422,206.0711,2935.9584,203.2029,2930.7662,198.1988,2924.15,201.067" style="stroke:#181818;stroke-width:1.0;"/><polygon fill="#181818" points="2983.58,211.775,2975.4357,206.2369,2978.6598,210.885,2974.0117,214.1092,2983.58,211.775" style="stroke:#181818;stroke-width:1.0;"/><line style="stroke:#181818;stroke-width:1.0;" x1="2978.6598" x2="2970.78" y1="210.885" y2="209.47"/></g><!--link UMLFile to SourceFile--><g id="link_UMLFile_SourceFile"><path codeLine="99" d="M988.32,196.524 C1076.59,195 1180.25,193.21 1269.73,191.665 " fill="none" id="UMLFile-SourceFile" style="stroke:#181818;stroke-width:1.0;"/><polygon fill="none" points="975.077,196.753,981.1421,200.6535,987.0754,196.5552,981.0102,192.6546,975.077,196.753" style="stroke:#181818;stroke-width:1.0;"/><polygon fill="#181818" points="1282.83,191.439,1273.7611,187.5979,1277.8308,191.5269,1273.9017,195.5966,1282.83,191.439" style="stroke:#181818;stroke-width:1.0;"/><line style="stroke:#181818;stroke-width:1.0;" x1="1277.8308" x2="1269.83" y1="191.5269" y2="191.6635"/></g><!--link annotation_to_string to SourceType--><g id="link_annotation_to_string_SourceType"><path codeLine="100" d="M929.189,788.6315 C1043.74,793.8233 1192.48,791.822 1235,751 C1247.73,738.78 1231.29,685.204 1243,672 C1437.91,452.132 1594.18,527 1888,527 C1888,527 1888,527 2218,527 C2543.4,527 2908.24,394.405 3098.13,314.712 " fill="none" id="annotation_to_string-SourceType" style="stroke:#181818;stroke-width:1.0;"/><polygon fill="none" points="916.105,788.0009,921.9055,792.2851,928.0911,788.5785,922.2906,784.2943,916.105,788.0009" style="stroke:#181818;stroke-width:1.0;"/><polygon fill="#181818" points="3110.38,309.541,3100.5329,309.3568,3105.7738,311.4859,3103.6447,316.7268,3110.38,309.541" style="stroke:#181818;stroke-width:1.0;"/><line style="stroke:#181818;stroke-width:1.0;" x1="3105.7738" x2="3098.4" y1="311.4859" y2="314.595"/></g><!--link get_function to SourceFunction--><g id="link_get_function_SourceFunction"><path codeLine="101" d="M919.754,733.75 C1035.9,739.92 1192.51,739.316 1235,696 C1250.19,680.52 1229.05,517.603 1243,501 C1478.24,221.001 1702.54,448.825 2047,326 C2056.06,322.771 2065.24,319.16 2074.42,315.295 " fill="none" id="get_function-SourceFunction" style="stroke:#181818;stroke-width:1.0;"/><polygon fill="none" points="906.515,733.008,912.2819,737.3373,918.4962,733.6792,912.7293,729.3499,906.515,733.008" style="stroke:#181818;stroke-width:1.0;"/><polygon fill="#181818" points="2086.46,310.08,2076.6116,309.9899,2081.8726,312.0688,2079.7936,317.3298,2086.46,310.08" style="stroke:#181818;stroke-width:1.0;"/><line style="stroke:#181818;stroke-width:1.0;" x1="2081.8726" x2="2074.53" y1="312.0688" y2="315.248"/></g><!--link get_module_info to SourceFile--><g id="link_get_module_info_SourceFile"><path codeLine="102" d="M864.819,679.415 C967.247,689.509 1144.84,689.01 1235,583 C1256.89,557.261 1223.46,306.566 1243,279 C1251.26,267.352 1261.21,257.195 1272.3,248.338 " fill="none" id="get_module_info-SourceFile" style="stroke:#181818;stroke-width:1.0;"/><polygon fill="none" points="851.797,678.035,857.3421,682.645,863.7302,679.2995,858.1851,674.6895,851.797,678.035" style="stroke:#181818;stroke-width:1.0;"/><polygon fill="#181818" points="1282.8,240.563,1273.1878,242.709,1278.7832,243.5405,1277.9517,249.1359,1282.8,240.563" style="stroke:#181818;stroke-width:1.0;"/><line style="stroke:#181818;stroke-width:1.0;" x1="1278.7832" x2="1272.35" y1="243.5405" y2="248.303"/></g><!--link ModuleParser to SourceFile--><g id="link_ModuleParser_SourceFile"><path codeLine="103" d="M809.5134,831.1641 C812.2399,832.0934 815.1885,833.0806 818.3449,834.1141 C824.6577,836.181 831.8017,838.4331 839.6626,840.7771 C871.1064,850.1532 914.0215,861.0008 961.0975,867.361 C1055.2495,880.0813 1166.045,874.8517 1235,804 C1255.34,783.0956 1226.26,302.891 1243,279 C1252.75,265.077 1264.94,253.283 1278.6,243.293 " fill="none" id="ModuleParser-to-SourceFile" style="stroke:#181818;stroke-width:1.0;stroke-dasharray:7.0,7.0;"/><polygon fill="#181818" points="1282.89,240.25,1273.2372,242.2054,1278.8151,243.1474,1277.8731,248.7253,1282.89,240.25" style="stroke:#181818;stroke-width:1.0;"/></g><!--link ModuleParser to SourceClass--><g id="link_ModuleParser_SourceClass"><path codeLine="104" d="M809.4202,831.0725 C812.136,831.9913 815.0732,832.9673 818.2176,833.9891 C824.5065,836.0326 831.6243,838.259 839.4579,840.5762 C870.792,849.8447 913.5775,860.5652 960.568,866.8414 C1054.549,879.3939 1165.35,874.1697 1235,804 C1252.94,785.93 1229.4,596.522 1243,575 C1371.39,371.839 1509.77,436.873 1723,326 C1731.87,321.389 1741,316.637 1750.21,311.845 " fill="none" id="ModuleParser-to-SourceClass" style="stroke:#181818;stroke-width:1.0;stroke-dasharray:7.0,7.0;"/><polygon fill="#181818" points="1754.73,309.49,1744.8989,310.0818,1750.2912,311.7916,1748.5815,317.1839,1754.73,309.49" style="stroke:#181818;stroke-width:1.0;"/></g><!--link ModuleParser to SourceFunction--><g id="link_ModuleParser_SourceFunction"><path codeLine="105" d="M810.3692,831.3398 C810.7144,831.4553 811.0631,831.5717 811.4152,831.6889 C812.1193,831.9233 812.8371,832.1611 813.5681,832.402 C815.0303,832.884 816.5459,833.3786 818.1133,833.8846 C824.3825,835.9085 831.4789,838.1135 839.29,840.4081 C870.5342,849.5867 913.2134,860.2008 960.1338,866.4069 C1053.9745,878.819 1164.78,873.5992 1235,804 C1247.33,791.7818 1231.3,660.821 1243,648 C1315.63,568.394 1621.94,616.412 1723,579 C1883.03,519.759 1907.78,471.668 2047,373 C2073.31,354.352 2101.11,333.146 2126.39,313.232 " fill="none" id="ModuleParser-to-SourceFunction" style="stroke:#181818;stroke-width:1.0;stroke-dasharray:7.0,7.0;"/><polygon fill="#181818" points="2130.43,310.047,2120.8882,312.4871,2126.5065,313.1464,2125.8472,318.7647,2130.43,310.047" style="stroke:#181818;stroke-width:1.0;"/></g><!--link ModuleParser to SourceType--><g id="link_ModuleParser_SourceType"><path codeLine="106" d="M1195.0866,805.8322 C1195.8785,805.7963 1196.6701,805.7604 1197.4612,805.7244 C1210.1183,805.1493 1222.655,804.5737 1235,804 C1525.28,790.51 1597.41,771 1888,771 C1888,771 1888,771 2218,771 C2560.51,771 2654.93,701.27 2948,524 C3042.26,466.984 3130.68,373.557 3182.31,313.436 " fill="none" id="ModuleParser-to-SourceType" style="stroke:#181818;stroke-width:1.0;stroke-dasharray:7.0,7.0;"/><polygon fill="#181818" points="3185.66,309.525,3176.7695,313.7629,3182.4093,313.3241,3182.8481,318.9639,3185.66,309.525" style="stroke:#181818;stroke-width:1.0;"/></g><!--link ModuleParser to SourceVariable--><g id="link_ModuleParser_SourceVariable"><path codeLine="107" d="M810.9999,831.252 C811.6928,831.4746 812.399,831.7003 813.1185,831.929 C814.5575,832.3865 816.0492,832.8561 817.5921,833.3364 C823.7636,835.2574 830.7529,837.3498 838.4518,839.5265 C869.2475,848.2333 911.3961,858.2892 957.9665,864.1271 C1051.1073,875.8029 1161.935,870.6065 1235,804 C1254.56,786.1724 1224.83,764.234 1243,745 C1392.24,587.058 1510.19,695.927 1723,652 C1867.37,622.2 1911.75,639.634 2047,581 C2256.78,490.056 2469.54,324.109 2582.97,228.386 " fill="none" id="ModuleParser-to-SourceVariable" style="stroke:#181818;stroke-width:1.0;stroke-dasharray:7.0,7.0;"/><polygon fill="#181818" points="2586.96,225.01,2577.5047,227.7663,2583.1418,228.2382,2582.6699,233.8754,2586.96,225.01" style="stroke:#181818;stroke-width:1.0;"/></g><!--SRC=[xLZDRjD04BxdALQSG4dDFQfoQ4kvqAgYXGkgh8qzZfVOkzRkcYeglV80F29FmlelsQpjU69G1OXJxVNyV3FVp6Id2KIQQ44aMyMQX4n2e9dW4xLcFAEIfYIZmPgku5Pl4Y2HEO7snpCXGv3d8X6Ih2JTM191GfKwCs8hAN8ULZ8FCTEs6R7yRFnsIyKi109ffZSaXNG9KbL70PD10fCQ0V5IoZXvd5Ico8lJeB0nlw1o_Hx2nGeuIAh1pzFaz7NvRV6o2bV8pPpKubSiv4Kcpf8S5ahBHlGL-V7j-v3G2q8LiHrDddRmGggfTojo6S0bCvbyd9IP8Nj7qofTeBe19KpfJvN2UI5tttWsYb7EI-Q6LIzhILkRfPcG-f2kYTDMuAOE1hDcvBvGoUWoGKJqiPRSUV5zOy3XqVSPPzhtjnmgIA9-Tgu51mjDovW1YxQr7rYhlhGV2CwhzYdiChvIUvPd91LXVZWLTfPnI9xwYgncsIsqtJ6UnB99np0u9H9qBlkAibAxssJmrt8UGWOy11umK5YRu7HJ7uLbZplyDMTJCmnrBC9nxVw_Uv-NoQB47IBheocn_SvnRegsec6Hxc4IqJJCy4PdHu0cNubDu_EJtST9Kx4EBzOnla-Kffe5tP9B8H9BL1lUV_yqdE6W6k9C0lnZCCpGmVtJVVpXwjtUjMttRjWla-P733Ce2wtxCGIFz_A74BFcue7xzHq8QRHzzToZ9jSiKTvDzNfdQb4TsW2qdr8TnEPYLgFOWZZkOcQuu2pBGF_Qsk1CndfxQ87iY3UXNB_XWJ0xLt-yK0fOkmurcrcA616oQ1zvO4YCseigEErWhieWRwXKXuAXd8jY39chjHRrxNeR6ZU6vptr7SBrM_HFK7lwbT2xd1-gicOLGm1iBcSN467XNJhMjtNJk3tO06MspO29n1QT548Zog8OF7v6TOoGtMjrT5SzC1txmpSBt6_ERWws6soN15EFrJyEF6z1d1NTUdI5wkdV_BK-julQSrswmdOxUtMRUFrOY3WvMNIkUixhSKQQUu_pUfoHSZkndrlgTjpMsFQw1XyYnZQ4edkjnt56CCbenJgE68GP39eU6Mn-d8Bk2CLjY8v2xvgJ200zBHFrijERrk7c6nNOu70OLkbe38GVV9okAYB9hafF1Vq4]--></g></svg>