<?xml version="1.0" encoding="us-ascii" standalone="no"?><svg xmlns="http://www.w3.org/2000/svg" xmlns:xlink="http://www.w3.org/1999/xlink" contentStyleType="text/css" height="1554px" preserveAspectRatio="none" style="width:2327px;height:1554px;background:#FFFFFF;" version="1.1" viewBox="0 0 2327 1554" width="2327px" zoomAndPan="magnify"><defs/><g><!--cluster main--><g id="cluster_main"><rect fill="none" height="132" rx="2.5" ry="2.5" style="stroke:#808080;stroke-width:1.5;" width="290" x="180.5004" y="1043"/><path d="M230.5004,1043 L230.5004,1052.2969 L220.5004,1062.2969 L180.5004,1062.2969 " fill="none" style="stroke:#808080;stroke-width:1.5;"/><text fill="#000000" font-family="sans-serif" font-size="14" font-weight="bold" lengthAdjust="spacing" textLength="40" x="183.5004" y="1056.9951">main</text></g><!--cluster data--><g id="cluster_data"><rect fill="none" height="1012" rx="2.5" ry="2.5" style="stroke:#808080;stroke-width:1.5;" width="637.0004" x="7" y="7"/><path d="M55,7 L55,16.2969 L45,26.2969 L7,26.2969 " fill="none" style="stroke:#808080;stroke-width:1.5;"/><text fill="#000000" font-family="sans-serif" font-size="14" font-weight="bold" lengthAdjust="spacing" textLength="38" x="10" y="20.9951">data</text></g><!--cluster SourceFile--><g id="cluster_SourceFile"><rect fill="none" height="189" rx="2.5" ry="2.5" style="stroke:#808080;stroke-width:1.5;" width="589.0004" x="31" y="50"/><path d="M124,50 L124,59.2969 L114,69.2969 L31,69.2969 " fill="none" style="stroke:#808080;stroke-width:1.5;"/><text fill="#000000" font-family="sans-serif" font-size="14" font-weight="bold" lengthAdjust="spacing" textLength="83" x="34" y="63.9951">SourceFile</text></g><!--cluster SourceFunction--><g id="cluster_SourceFunction"><rect fill="none" height="189" rx="2.5" ry="2.5" style="stroke:#808080;stroke-width:1.5;" width="203" x="224.0004" y="263"/><path d="M360.0004,263 L360.0004,272.2969 L350.0004,282.2969 L224.0004,282.2969 " fill="none" style="stroke:#808080;stroke-width:1.5;"/><text fill="#000000" font-family="sans-serif" font-size="14" font-weight="bold" lengthAdjust="spacing" textLength="126" x="227.0004" y="276.9951">SourceFunction</text></g><!--cluster SourceClass--><g id="cluster_SourceClass"><rect fill="none" height="157" rx="2.5" ry="2.5" style="stroke:#808080;stroke-width:1.5;" width="203" x="224.0004" y="476"/><path d="M332.0004,476 L332.0004,485.2969 L322.0004,495.2969 L224.0004,495.2969 " fill="none" style="stroke:#808080;stroke-width:1.5;"/><text fill="#000000" font-family="sans-serif" font-size="14" font-weight="bold" lengthAdjust="spacing" textLength="98" x="227.0004" y="489.9951">SourceClass</text></g><!--cluster SourceVariable--><g id="cluster_SourceVariable"><rect fill="none" height="173" rx="2.5" ry="2.5" style="stroke:#808080;stroke-width:1.5;" width="390" x="130.5004" y="657"/><path d="M262.5004,657 L262.5004,666.2969 L252.5004,676.2969 L130.5004,676.2969 " fill="none" style="stroke:#808080;stroke-width:1.5;"/><text fill="#000000" font-family="sans-serif" font-size="14" font-weight="bold" lengthAdjust="spacing" textLength="122" x="133.5004" y="670.9951">SourceVariable</text></g><!--cluster UMLFile--><g id="cluster_UMLFile"><rect fill="none" height="141" rx="2.5" ry="2.5" style="stroke:#808080;stroke-width:1.5;" width="295" x="178.0004" y="854"/><path d="M250.0004,854 L250.0004,863.2969 L240.0004,873.2969 L178.0004,873.2969 " fill="none" style="stroke:#808080;stroke-width:1.5;"/><text fill="#000000" font-family="sans-serif" font-size="14" font-weight="bold" lengthAdjust="spacing" textLength="62" x="181.0004" y="867.9951">UMLFile</text></g><!--cluster utils--><g id="cluster_utils"><rect fill="none" height="349" rx="2.5" ry="2.5" style="stroke:#808080;stroke-width:1.5;" width="2200.502" x="120.5004" y="1199"/><path d="M167.5004,1199 L167.5004,1208.2969 L157.5004,1218.2969 L120.5004,1218.2969 " fill="none" style="stroke:#808080;stroke-width:1.5;"/><text fill="#000000" font-family="sans-serif" font-size="14" font-weight="bold" lengthAdjust="spacing" textLength="37" x="123.5004" y="1212.9951">utils</text></g><!--cluster VariableParser--><g id="cluster_VariableParser"><rect fill="none" height="126" rx="2.5" ry="2.5" style="stroke:#808080;stroke-width:1.5;" width="1005.502" x="205.5004" y="1242"/><path d="M334.5004,1242 L334.5004,1251.2969 L324.5004,1261.2969 L205.5004,1261.2969 " fill="none" style="stroke:#808080;stroke-width:1.5;"/><text fill="#000000" font-family="sans-serif" font-size="14" font-weight="bold" lengthAdjust="spacing" textLength="119" x="208.5004" y="1255.9951">VariableParser</text></g><!--cluster PlantEncoder--><g id="cluster_PlantEncoder"><rect fill="none" height="132" rx="2.5" ry="2.5" style="stroke:#808080;stroke-width:1.5;" width="883.502" x="144.5004" y="1392"/><path d="M261.5004,1392 L261.5004,1401.2969 L251.5004,1411.2969 L144.5004,1411.2969 " fill="none" style="stroke:#808080;stroke-width:1.5;"/><text fill="#000000" font-family="sans-serif" font-size="14" font-weight="bold" lengthAdjust="spacing" textLength="107" x="147.5004" y="1405.9951">PlantEncoder</text></g><!--cluster ModuleParser--><g id="cluster_ModuleParser"><rect fill="none" height="126" rx="2.5" ry="2.5" style="stroke:#808080;stroke-width:1.5;" width="1058" x="1239.0024" y="1242"/><path d="M1359.0024,1242 L1359.0024,1251.2969 L1349.0024,1261.2969 L1239.0024,1261.2969 " fill="none" style="stroke:#808080;stroke-width:1.5;"/><text fill="#000000" font-family="sans-serif" font-size="14" font-weight="bold" lengthAdjust="spacing" textLength="110" x="1242.0024" y="1255.9951">ModuleParser</text></g><g id="elem_generate_uml"><rect fill="#FFFFFF" height="20.2969" style="stroke:#181818;stroke-width:0.5;" width="258" x="196.5004" y="1078"/><text fill="#8B0000" font-family="sans-serif" font-size="14" lengthAdjust="spacing" textLength="99" x="203.5004" y="1092.9951">generate_uml</text><text fill="#000000" font-family="sans-serif" font-size="14" lengthAdjust="spacing" textLength="76" x="302.5004" y="1092.9951">(directory:</text><text fill="#191970" font-family="sans-serif" font-size="14" lengthAdjust="spacing" textLength="20" x="382.5004" y="1092.9951">str</text><text fill="#000000" font-family="sans-serif" font-size="14" lengthAdjust="spacing" textLength="21" x="402.5004" y="1092.9951">) &#8594;</text><text fill="#191970" font-family="sans-serif" font-size="14" lengthAdjust="spacing" textLength="20" x="427.5004" y="1092.9951">str</text></g><!--class uml--><g id="elem_uml"><rect codeLine="9" fill="#FFFFFF" height="26.2969" id="uml" rx="2.5" ry="2.5" style="stroke:#181818;stroke-width:0.5;" width="61" x="295.0004" y="1133"/><text fill="#000000" font-family="sans-serif" font-size="14" lengthAdjust="spacing" textLength="31" x="298.0004" y="1150.9951">uml:</text><text fill="#191970" font-family="sans-serif" font-size="14" lengthAdjust="spacing" textLength="20" x="333.0004" y="1150.9951">str</text></g><!--class SourceFile--><g id="elem_SourceFile"><rect codeLine="13" fill="#FFFFFF" height="137.4844" id="SourceFile" rx="2.5" ry="2.5" style="stroke:#181818;stroke-width:0.5;" width="557" x="47.0004" y="85.5"/><ellipse cx="284.2504" cy="101.5" fill="#ADD1B2" rx="11" ry="11" style="stroke:#181818;stroke-width:1.0;"/><path d="M286.5942,97.1719 C285.6567,96.7344 285.0629,96.5938 284.1879,96.5938 C281.5629,96.5938 279.5629,98.6719 279.5629,101.3906 L279.5629,102.5156 C279.5629,105.0938 281.6723,106.9844 284.5629,106.9844 C285.7817,106.9844 286.9379,106.6875 287.6879,106.1406 C288.266,105.7344 288.5942,105.2813 288.5942,104.8906 C288.5942,104.4375 288.2035,104.0469 287.7348,104.0469 C287.516,104.0469 287.3129,104.125 287.1254,104.3125 C286.6723,104.7969 286.6723,104.7969 286.4848,104.8906 C286.0629,105.1563 285.3754,105.2813 284.6098,105.2813 C282.5629,105.2813 281.266,104.1875 281.266,102.4844 L281.266,101.3906 C281.266,99.6094 282.516,98.2969 284.2504,98.2969 C284.8285,98.2969 285.4379,98.4531 285.9067,98.7031 C286.391,98.9844 286.5629,99.2031 286.6567,99.6094 C286.7192,100.0156 286.7504,100.1406 286.891,100.2656 C287.0317,100.4063 287.266,100.5156 287.4848,100.5156 C287.7504,100.5156 288.016,100.375 288.1879,100.1563 C288.2973,100 288.3285,99.8125 288.3285,99.3906 L288.3285,97.9688 C288.3285,97.5313 288.3129,97.4063 288.2192,97.25 C288.0629,96.9844 287.7817,96.8438 287.4848,96.8438 C287.1879,96.8438 286.9848,96.9375 286.766,97.25 L286.5942,97.1719 Z " fill="#000000"/><text fill="#000000" font-family="sans-serif" font-size="14" lengthAdjust="spacing" textLength="74" x="304.7504" y="106.3467">SourceFile</text><line style="stroke:#181818;stroke-width:0.5;" x1="48.0004" x2="603.0004" y1="117.5" y2="117.5"/><ellipse cx="58.0004" cy="131.1484" fill="none" rx="3" ry="3" style="stroke:#038048;stroke-width:1.0;"/><text fill="#000000" font-family="sans-serif" font-size="14" lengthAdjust="spacing" textLength="45" x="67.0004" y="134.4951">name:</text><text fill="#191970" font-family="sans-serif" font-size="14" lengthAdjust="spacing" textLength="20" x="116.0004" y="134.4951">str</text><line style="stroke:#181818;stroke-width:0.5;" x1="48.0004" x2="603.0004" y1="141.7969" y2="141.7969"/><line style="stroke:#181818;stroke-width:0.5;" x1="48.0004" x2="603.0004" y1="149.7969" y2="149.7969"/><ellipse cx="58.0004" cy="163.4453" fill="#84BE84" rx="3" ry="3" style="stroke:#038048;stroke-width:1.0;"/><text fill="#8B0000" font-family="sans-serif" font-size="14" lengthAdjust="spacing" textLength="52" x="67.0004" y="166.792">__init__</text><text fill="#000000" font-family="sans-serif" font-size="14" lengthAdjust="spacing" textLength="52" x="119.0004" y="166.792">(self) &#8594;</text><text fill="#191970" font-family="sans-serif" font-size="14" lengthAdjust="spacing" textLength="37" x="175.0004" y="166.792">None</text><ellipse cx="58.0004" cy="179.7422" fill="#84BE84" rx="3" ry="3" style="stroke:#038048;stroke-width:1.0;"/><text fill="#8B0000" font-family="sans-serif" font-size="14" lengthAdjust="spacing" textLength="48" x="67.0004" y="183.0889">__str__</text><text fill="#000000" font-family="sans-serif" font-size="14" lengthAdjust="spacing" textLength="52" x="115.0004" y="183.0889">(self) &#8594;</text><text fill="#191970" font-family="sans-serif" font-size="14" lengthAdjust="spacing" textLength="20" x="171.0004" y="183.0889">str</text><ellipse cx="58.0004" cy="196.0391" fill="#84BE84" rx="3" ry="3" style="stroke:#038048;stroke-width:1.0;"/><text fill="#8B0000" font-family="sans-serif" font-size="14" lengthAdjust="spacing" textLength="131" x="67.0004" y="199.3857">add_class_variable</text><text fill="#000000" font-family="sans-serif" font-size="14" lengthAdjust="spacing" textLength="132" x="198.0004" y="199.3857">(self, source_class:</text><text fill="#191970" font-family="sans-serif" font-size="14" lengthAdjust="spacing" textLength="20" x="334.0004" y="199.3857">str</text><text fill="#000000" font-family="sans-serif" font-size="14" lengthAdjust="spacing" textLength="70" x="354.0004" y="199.3857">, variable:</text><text fill="#191970" font-family="sans-serif" font-size="14" lengthAdjust="spacing" textLength="108" x="428.0004" y="199.3857">SourceVariable</text><text fill="#000000" font-family="sans-serif" font-size="14" lengthAdjust="spacing" textLength="21" x="536.0004" y="199.3857">) &#8594;</text><text fill="#191970" font-family="sans-serif" font-size="14" lengthAdjust="spacing" textLength="37" x="561.0004" y="199.3857">None</text><ellipse cx="58.0004" cy="212.3359" fill="#84BE84" rx="3" ry="3" style="stroke:#038048;stroke-width:1.0;"/><text fill="#8B0000" font-family="sans-serif" font-size="14" lengthAdjust="spacing" textLength="169" x="67.0004" y="215.6826">get_connection_strings</text><text fill="#000000" font-family="sans-serif" font-size="14" lengthAdjust="spacing" textLength="52" x="236.0004" y="215.6826">(self) &#8594;</text><text fill="#191970" font-family="sans-serif" font-size="14" lengthAdjust="spacing" textLength="20" x="292.0004" y="215.6826">str</text></g><!--class SourceFunction--><g id="elem_SourceFunction"><rect codeLine="24" fill="#FFFFFF" height="137.4844" id="SourceFunction" rx="2.5" ry="2.5" style="stroke:#181818;stroke-width:0.5;" width="171" x="240.0004" y="298.5"/><ellipse cx="267.6004" cy="314.5" fill="#ADD1B2" rx="11" ry="11" style="stroke:#181818;stroke-width:1.0;"/><path d="M269.9442,310.1719 C269.0067,309.7344 268.4129,309.5938 267.5379,309.5938 C264.9129,309.5938 262.9129,311.6719 262.9129,314.3906 L262.9129,315.5156 C262.9129,318.0938 265.0223,319.9844 267.9129,319.9844 C269.1317,319.9844 270.2879,319.6875 271.0379,319.1406 C271.616,318.7344 271.9442,318.2813 271.9442,317.8906 C271.9442,317.4375 271.5535,317.0469 271.0848,317.0469 C270.866,317.0469 270.6629,317.125 270.4754,317.3125 C270.0223,317.7969 270.0223,317.7969 269.8348,317.8906 C269.4129,318.1563 268.7254,318.2813 267.9598,318.2813 C265.9129,318.2813 264.616,317.1875 264.616,315.4844 L264.616,314.3906 C264.616,312.6094 265.866,311.2969 267.6004,311.2969 C268.1785,311.2969 268.7879,311.4531 269.2567,311.7031 C269.741,311.9844 269.9129,312.2031 270.0067,312.6094 C270.0692,313.0156 270.1004,313.1406 270.241,313.2656 C270.3817,313.4063 270.616,313.5156 270.8348,313.5156 C271.1004,313.5156 271.366,313.375 271.5379,313.1563 C271.6473,313 271.6785,312.8125 271.6785,312.3906 L271.6785,310.9688 C271.6785,310.5313 271.6629,310.4063 271.5692,310.25 C271.4129,309.9844 271.1317,309.8438 270.8348,309.8438 C270.5379,309.8438 270.3348,309.9375 270.116,310.25 L269.9442,310.1719 Z " fill="#000000"/><text fill="#000000" font-family="sans-serif" font-size="14" lengthAdjust="spacing" textLength="111" x="284.4004" y="319.3467">SourceFunction</text><line style="stroke:#181818;stroke-width:0.5;" x1="241.0004" x2="410.0004" y1="330.5" y2="330.5"/><ellipse cx="251.0004" cy="344.1484" fill="none" rx="3" ry="3" style="stroke:#038048;stroke-width:1.0;"/><text fill="#000000" font-family="sans-serif" font-size="14" lengthAdjust="spacing" textLength="45" x="260.0004" y="347.4951">name:</text><text fill="#191970" font-family="sans-serif" font-size="14" lengthAdjust="spacing" textLength="20" x="309.0004" y="347.4951">str</text><ellipse cx="251.0004" cy="360.4453" fill="none" rx="3" ry="3" style="stroke:#038048;stroke-width:1.0;"/><text fill="#000000" font-family="sans-serif" font-size="14" lengthAdjust="spacing" textLength="57" x="260.0004" y="363.792">returns:</text><text fill="#191970" font-family="sans-serif" font-size="14" lengthAdjust="spacing" textLength="20" x="321.0004" y="363.792">str</text><ellipse cx="251.0004" cy="376.7422" fill="none" rx="3" ry="3" style="stroke:#038048;stroke-width:1.0;"/><text fill="#000000" font-family="sans-serif" font-size="14" lengthAdjust="spacing" textLength="46" x="260.0004" y="380.0889">static:</text><text fill="#191970" font-family="sans-serif" font-size="14" lengthAdjust="spacing" textLength="27" x="310.0004" y="380.0889">Any</text><line style="stroke:#181818;stroke-width:0.5;" x1="241.0004" x2="410.0004" y1="387.3906" y2="387.3906"/><line style="stroke:#181818;stroke-width:0.5;" x1="241.0004" x2="410.0004" y1="395.3906" y2="395.3906"/><ellipse cx="251.0004" cy="409.0391" fill="#84BE84" rx="3" ry="3" style="stroke:#038048;stroke-width:1.0;"/><text fill="#8B0000" font-family="sans-serif" font-size="14" lengthAdjust="spacing" textLength="52" x="260.0004" y="412.3857">__init__</text><text fill="#000000" font-family="sans-serif" font-size="14" lengthAdjust="spacing" textLength="52" x="312.0004" y="412.3857">(self) &#8594;</text><text fill="#191970" font-family="sans-serif" font-size="14" lengthAdjust="spacing" textLength="37" x="368.0004" y="412.3857">None</text><ellipse cx="251.0004" cy="425.3359" fill="#84BE84" rx="3" ry="3" style="stroke:#038048;stroke-width:1.0;"/><text fill="#8B0000" font-family="sans-serif" font-size="14" lengthAdjust="spacing" textLength="48" x="260.0004" y="428.6826">__str__</text><text fill="#000000" font-family="sans-serif" font-size="14" lengthAdjust="spacing" textLength="52" x="308.0004" y="428.6826">(self) &#8594;</text><text fill="#191970" font-family="sans-serif" font-size="14" lengthAdjust="spacing" textLength="20" x="364.0004" y="428.6826">str</text></g><!--class SourceClass--><g id="elem_SourceClass"><rect codeLine="35" fill="#FFFFFF" height="104.8906" id="SourceClass" rx="2.5" ry="2.5" style="stroke:#181818;stroke-width:0.5;" width="171" x="240.0004" y="511.5"/><ellipse cx="279.3004" cy="527.5" fill="#ADD1B2" rx="11" ry="11" style="stroke:#181818;stroke-width:1.0;"/><path d="M281.6441,523.1719 C280.7066,522.7344 280.1129,522.5938 279.2379,522.5938 C276.6129,522.5938 274.6129,524.6719 274.6129,527.3906 L274.6129,528.5156 C274.6129,531.0938 276.7223,532.9844 279.6129,532.9844 C280.8316,532.9844 281.9879,532.6875 282.7379,532.1406 C283.316,531.7344 283.6441,531.2813 283.6441,530.8906 C283.6441,530.4375 283.2535,530.0469 282.7848,530.0469 C282.566,530.0469 282.3629,530.125 282.1754,530.3125 C281.7223,530.7969 281.7223,530.7969 281.5348,530.8906 C281.1129,531.1563 280.4254,531.2813 279.6598,531.2813 C277.6129,531.2813 276.316,530.1875 276.316,528.4844 L276.316,527.3906 C276.316,525.6094 277.566,524.2969 279.3004,524.2969 C279.8785,524.2969 280.4879,524.4531 280.9566,524.7031 C281.441,524.9844 281.6129,525.2031 281.7066,525.6094 C281.7691,526.0156 281.8004,526.1406 281.941,526.2656 C282.0816,526.4063 282.316,526.5156 282.5348,526.5156 C282.8004,526.5156 283.066,526.375 283.2379,526.1563 C283.3473,526 283.3785,525.8125 283.3785,525.3906 L283.3785,523.9688 C283.3785,523.5313 283.3629,523.4063 283.2691,523.25 C283.1129,522.9844 282.8316,522.8438 282.5348,522.8438 C282.2379,522.8438 282.0348,522.9375 281.816,523.25 L281.6441,523.1719 Z " fill="#000000"/><text fill="#000000" font-family="sans-serif" font-size="14" lengthAdjust="spacing" textLength="85" x="298.7004" y="532.3467">SourceClass</text><line style="stroke:#181818;stroke-width:0.5;" x1="241.0004" x2="410.0004" y1="543.5" y2="543.5"/><ellipse cx="251.0004" cy="557.1484" fill="none" rx="3" ry="3" style="stroke:#038048;stroke-width:1.0;"/><text fill="#000000" font-family="sans-serif" font-size="14" lengthAdjust="spacing" textLength="45" x="260.0004" y="560.4951">name:</text><text fill="#191970" font-family="sans-serif" font-size="14" lengthAdjust="spacing" textLength="20" x="309.0004" y="560.4951">str</text><line style="stroke:#181818;stroke-width:0.5;" x1="241.0004" x2="410.0004" y1="567.7969" y2="567.7969"/><line style="stroke:#181818;stroke-width:0.5;" x1="241.0004" x2="410.0004" y1="575.7969" y2="575.7969"/><ellipse cx="251.0004" cy="589.4453" fill="#84BE84" rx="3" ry="3" style="stroke:#038048;stroke-width:1.0;"/><text fill="#8B0000" font-family="sans-serif" font-size="14" lengthAdjust="spacing" textLength="52" x="260.0004" y="592.792">__init__</text><text fill="#000000" font-family="sans-serif" font-size="14" lengthAdjust="spacing" textLength="52" x="312.0004" y="592.792">(self) &#8594;</text><text fill="#191970" font-family="sans-serif" font-size="14" lengthAdjust="spacing" textLength="37" x="368.0004" y="592.792">None</text><ellipse cx="251.0004" cy="605.7422" fill="#84BE84" rx="3" ry="3" style="stroke:#038048;stroke-width:1.0;"/><text fill="#8B0000" font-family="sans-serif" font-size="14" lengthAdjust="spacing" textLength="48" x="260.0004" y="609.0889">__str__</text><text fill="#000000" font-family="sans-serif" font-size="14" lengthAdjust="spacing" textLength="52" x="308.0004" y="609.0889">(self) &#8594;</text><text fill="#191970" font-family="sans-serif" font-size="14" lengthAdjust="spacing" textLength="20" x="364.0004" y="609.0889">str</text></g><!--class SourceVariable--><g id="elem_SourceVariable"><rect codeLine="44" fill="#FFFFFF" height="121.1875" id="SourceVariable" rx="2.5" ry="2.5" style="stroke:#181818;stroke-width:0.5;" width="358" x="146.5004" y="692.5"/><ellipse cx="267.2504" cy="708.5" fill="#ADD1B2" rx="11" ry="11" style="stroke:#181818;stroke-width:1.0;"/><path d="M269.5942,704.1719 C268.6567,703.7344 268.0629,703.5938 267.1879,703.5938 C264.5629,703.5938 262.5629,705.6719 262.5629,708.3906 L262.5629,709.5156 C262.5629,712.0938 264.6723,713.9844 267.5629,713.9844 C268.7817,713.9844 269.9379,713.6875 270.6879,713.1406 C271.266,712.7344 271.5942,712.2813 271.5942,711.8906 C271.5942,711.4375 271.2035,711.0469 270.7348,711.0469 C270.516,711.0469 270.3129,711.125 270.1254,711.3125 C269.6723,711.7969 269.6723,711.7969 269.4848,711.8906 C269.0629,712.1563 268.3754,712.2813 267.6098,712.2813 C265.5629,712.2813 264.266,711.1875 264.266,709.4844 L264.266,708.3906 C264.266,706.6094 265.516,705.2969 267.2504,705.2969 C267.8285,705.2969 268.4379,705.4531 268.9067,705.7031 C269.391,705.9844 269.5629,706.2031 269.6567,706.6094 C269.7192,707.0156 269.7504,707.1406 269.891,707.2656 C270.0317,707.4063 270.266,707.5156 270.4848,707.5156 C270.7504,707.5156 271.016,707.375 271.1879,707.1563 C271.2973,707 271.3285,706.8125 271.3285,706.3906 L271.3285,704.9688 C271.3285,704.5313 271.3129,704.4063 271.2192,704.25 C271.0629,703.9844 270.7817,703.8438 270.4848,703.8438 C270.1879,703.8438 269.9848,703.9375 269.766,704.25 L269.5942,704.1719 Z " fill="#000000"/><text fill="#000000" font-family="sans-serif" font-size="14" lengthAdjust="spacing" textLength="108" x="287.7504" y="713.3467">SourceVariable</text><line style="stroke:#181818;stroke-width:0.5;" x1="147.5004" x2="503.5004" y1="724.5" y2="724.5"/><ellipse cx="157.5004" cy="738.1484" fill="none" rx="3" ry="3" style="stroke:#038048;stroke-width:1.0;"/><text fill="#000000" font-family="sans-serif" font-size="14" lengthAdjust="spacing" textLength="45" x="166.5004" y="741.4951">name:</text><text fill="#191970" font-family="sans-serif" font-size="14" lengthAdjust="spacing" textLength="20" x="215.5004" y="741.4951">str</text><ellipse cx="157.5004" cy="754.4453" fill="none" rx="3" ry="3" style="stroke:#038048;stroke-width:1.0;"/><text fill="#000000" font-family="sans-serif" font-size="14" lengthAdjust="spacing" textLength="39" x="166.5004" y="757.792">type:</text><text fill="#191970" font-family="sans-serif" font-size="14" lengthAdjust="spacing" textLength="20" x="209.5004" y="757.792">str</text><line style="stroke:#181818;stroke-width:0.5;" x1="147.5004" x2="503.5004" y1="765.0938" y2="765.0938"/><line style="stroke:#181818;stroke-width:0.5;" x1="147.5004" x2="503.5004" y1="773.0938" y2="773.0938"/><ellipse cx="157.5004" cy="786.7422" fill="#84BE84" rx="3" ry="3" style="stroke:#038048;stroke-width:1.0;"/><text fill="#8B0000" font-family="sans-serif" font-size="14" lengthAdjust="spacing" textLength="52" x="166.5004" y="790.0889">__init__</text><text fill="#000000" font-family="sans-serif" font-size="14" lengthAdjust="spacing" textLength="84" x="218.5004" y="790.0889">(self, name:</text><text fill="#191970" font-family="sans-serif" font-size="14" lengthAdjust="spacing" textLength="20" x="306.5004" y="790.0889">str</text><text fill="#000000" font-family="sans-serif" font-size="14" lengthAdjust="spacing" textLength="86" x="326.5004" y="790.0889">, data_type:</text><text fill="#191970" font-family="sans-serif" font-size="14" lengthAdjust="spacing" textLength="20" x="416.5004" y="790.0889">str</text><text fill="#000000" font-family="sans-serif" font-size="14" lengthAdjust="spacing" textLength="21" x="436.5004" y="790.0889">) &#8594;</text><text fill="#191970" font-family="sans-serif" font-size="14" lengthAdjust="spacing" textLength="37" x="461.5004" y="790.0889">None</text><ellipse cx="157.5004" cy="803.0391" fill="#84BE84" rx="3" ry="3" style="stroke:#038048;stroke-width:1.0;"/><text fill="#8B0000" font-family="sans-serif" font-size="14" lengthAdjust="spacing" textLength="48" x="166.5004" y="806.3857">__str__</text><text fill="#000000" font-family="sans-serif" font-size="14" lengthAdjust="spacing" textLength="52" x="214.5004" y="806.3857">(self) &#8594;</text><text fill="#191970" font-family="sans-serif" font-size="14" lengthAdjust="spacing" textLength="20" x="270.5004" y="806.3857">str</text></g><!--class UMLFile--><g id="elem_UMLFile"><rect codeLine="54" fill="#FFFFFF" height="88.5938" id="UMLFile" rx="2.5" ry="2.5" style="stroke:#181818;stroke-width:0.5;" width="263" x="194.0004" y="889.5"/><ellipse cx="294.2504" cy="905.5" fill="#ADD1B2" rx="11" ry="11" style="stroke:#181818;stroke-width:1.0;"/><path d="M296.5942,901.1719 C295.6567,900.7344 295.0629,900.5938 294.1879,900.5938 C291.5629,900.5938 289.5629,902.6719 289.5629,905.3906 L289.5629,906.5156 C289.5629,909.0938 291.6723,910.9844 294.5629,910.9844 C295.7817,910.9844 296.9379,910.6875 297.6879,910.1406 C298.266,909.7344 298.5942,909.2813 298.5942,908.8906 C298.5942,908.4375 298.2035,908.0469 297.7348,908.0469 C297.516,908.0469 297.3129,908.125 297.1254,908.3125 C296.6723,908.7969 296.6723,908.7969 296.4848,908.8906 C296.0629,909.1563 295.3754,909.2813 294.6098,909.2813 C292.5629,909.2813 291.266,908.1875 291.266,906.4844 L291.266,905.3906 C291.266,903.6094 292.516,902.2969 294.2504,902.2969 C294.8285,902.2969 295.4379,902.4531 295.9067,902.7031 C296.391,902.9844 296.5629,903.2031 296.6567,903.6094 C296.7192,904.0156 296.7504,904.1406 296.891,904.2656 C297.0317,904.4063 297.266,904.5156 297.4848,904.5156 C297.7504,904.5156 298.016,904.375 298.1879,904.1563 C298.2973,904 298.3285,903.8125 298.3285,903.3906 L298.3285,901.9688 C298.3285,901.5313 298.3129,901.4063 298.2192,901.25 C298.0629,900.9844 297.7817,900.8438 297.4848,900.8438 C297.1879,900.8438 296.9848,900.9375 296.766,901.25 L296.5942,901.1719 Z " fill="#000000"/><text fill="#000000" font-family="sans-serif" font-size="14" lengthAdjust="spacing" textLength="54" x="314.7504" y="910.3467">UMLFile</text><line style="stroke:#181818;stroke-width:0.5;" x1="195.0004" x2="456.0004" y1="921.5" y2="921.5"/><line style="stroke:#181818;stroke-width:0.5;" x1="195.0004" x2="456.0004" y1="929.5" y2="929.5"/><line style="stroke:#181818;stroke-width:0.5;" x1="195.0004" x2="456.0004" y1="937.5" y2="937.5"/><ellipse cx="205.0004" cy="951.1484" fill="#84BE84" rx="3" ry="3" style="stroke:#038048;stroke-width:1.0;"/><text fill="#8B0000" font-family="sans-serif" font-size="14" lengthAdjust="spacing" textLength="52" x="214.0004" y="954.4951">__init__</text><text fill="#000000" font-family="sans-serif" font-size="14" lengthAdjust="spacing" textLength="144" x="266.0004" y="954.4951">(self, source_files) &#8594;</text><text fill="#191970" font-family="sans-serif" font-size="14" lengthAdjust="spacing" textLength="37" x="414.0004" y="954.4951">None</text><ellipse cx="205.0004" cy="967.4453" fill="#84BE84" rx="3" ry="3" style="stroke:#038048;stroke-width:1.0;"/><text fill="#8B0000" font-family="sans-serif" font-size="14" lengthAdjust="spacing" textLength="48" x="214.0004" y="970.792">__str__</text><text fill="#000000" font-family="sans-serif" font-size="14" lengthAdjust="spacing" textLength="52" x="262.0004" y="970.792">(self) &#8594;</text><text fill="#191970" font-family="sans-serif" font-size="14" lengthAdjust="spacing" textLength="20" x="318.0004" y="970.792">str</text></g><g id="elem_prefilter_file"><rect fill="#FFFFFF" height="20.2969" style="stroke:#181818;stroke-width:0.5;" width="208" x="221.5004" y="1332"/><text fill="#8B0000" font-family="sans-serif" font-size="14" lengthAdjust="spacing" textLength="91" x="228.5004" y="1346.9951">prefilter_file</text><text fill="#000000" font-family="sans-serif" font-size="14" lengthAdjust="spacing" textLength="74" x="319.5004" y="1346.9951">(file_path:</text><text fill="#191970" font-family="sans-serif" font-size="14" lengthAdjust="spacing" textLength="20" x="397.5004" y="1346.9951">str</text><text fill="#000000" font-family="sans-serif" font-size="14" lengthAdjust="spacing" textLength="5" x="417.5004" y="1346.9951">)</text></g><g id="elem_get_variables"><rect fill="#FFFFFF" height="20.2969" style="stroke:#181818;stroke-width:0.5;" width="153" x="249.0004" y="1277"/><text fill="#8B0000" font-family="sans-serif" font-size="14" lengthAdjust="spacing" textLength="96" x="256.0004" y="1291.9951">get_variables</text><text fill="#000000" font-family="sans-serif" font-size="14" lengthAdjust="spacing" textLength="43" x="352.0004" y="1291.9951">(lines)</text></g><g id="elem_add_variable_information"><rect fill="#FFFFFF" height="20.2969" style="stroke:#181818;stroke-width:0.5;" width="531" x="664.0004" y="1332"/><text fill="#8B0000" font-family="sans-serif" font-size="14" lengthAdjust="spacing" textLength="182" x="671.0004" y="1346.9951">add_variable_information</text><text fill="#000000" font-family="sans-serif" font-size="14" lengthAdjust="spacing" textLength="44" x="853.0004" y="1346.9951">(path:</text><text fill="#191970" font-family="sans-serif" font-size="14" lengthAdjust="spacing" textLength="20" x="901.0004" y="1346.9951">str</text><text fill="#000000" font-family="sans-serif" font-size="14" lengthAdjust="spacing" textLength="90" x="921.0004" y="1346.9951">, source_file:</text><text fill="#191970" font-family="sans-serif" font-size="14" lengthAdjust="spacing" textLength="74" x="1015.0004" y="1346.9951">SourceFile</text><text fill="#000000" font-family="sans-serif" font-size="14" lengthAdjust="spacing" textLength="21" x="1089.0004" y="1346.9951">) &#8594;</text><text fill="#191970" font-family="sans-serif" font-size="14" lengthAdjust="spacing" textLength="74" x="1114.0004" y="1346.9951">SourceFile</text></g><g id="elem_substring_between"><rect fill="#FFFFFF" height="20.2969" style="stroke:#181818;stroke-width:0.5;" width="432" x="713.5004" y="1277"/><text fill="#8B0000" font-family="sans-serif" font-size="14" lengthAdjust="spacing" textLength="138" x="720.5004" y="1291.9951">substring_between</text><text fill="#000000" font-family="sans-serif" font-size="14" lengthAdjust="spacing" textLength="52" x="858.5004" y="1291.9951">(string:</text><text fill="#191970" font-family="sans-serif" font-size="14" lengthAdjust="spacing" textLength="20" x="914.5004" y="1291.9951">str</text><text fill="#000000" font-family="sans-serif" font-size="14" lengthAdjust="spacing" textLength="62" x="934.5004" y="1291.9951">, before:</text><text fill="#191970" font-family="sans-serif" font-size="14" lengthAdjust="spacing" textLength="20" x="1000.5004" y="1291.9951">str</text><text fill="#000000" font-family="sans-serif" font-size="14" lengthAdjust="spacing" textLength="49" x="1020.5004" y="1291.9951">, after:</text><text fill="#191970" font-family="sans-serif" font-size="14" lengthAdjust="spacing" textLength="20" x="1073.5004" y="1291.9951">str</text><text fill="#000000" font-family="sans-serif" font-size="14" lengthAdjust="spacing" textLength="21" x="1093.5004" y="1291.9951">) &#8594;</text><text fill="#191970" font-family="sans-serif" font-size="14" lengthAdjust="spacing" textLength="20" x="1118.5004" y="1291.9951">str</text></g><g id="elem_encode"><rect fill="#FFFFFF" height="20.2969" style="stroke:#181818;stroke-width:0.5;" width="330" x="160.5004" y="1488"/><text fill="#8B0000" font-family="sans-serif" font-size="14" lengthAdjust="spacing" textLength="53" x="167.5004" y="1502.9951">encode</text><text fill="#000000" font-family="sans-serif" font-size="14" lengthAdjust="spacing" textLength="68" x="220.5004" y="1502.9951">(diagram:</text><text fill="#191970" font-family="sans-serif" font-size="14" lengthAdjust="spacing" textLength="20" x="292.5004" y="1502.9951">str</text><text fill="#000000" font-family="sans-serif" font-size="14" lengthAdjust="spacing" textLength="102" x="312.5004" y="1502.9951">, render_type:</text><text fill="#191970" font-family="sans-serif" font-size="14" lengthAdjust="spacing" textLength="20" x="418.5004" y="1502.9951">str</text><text fill="#000000" font-family="sans-serif" font-size="14" lengthAdjust="spacing" textLength="21" x="438.5004" y="1502.9951">) &#8594;</text><text fill="#191970" font-family="sans-serif" font-size="14" lengthAdjust="spacing" textLength="20" x="463.5004" y="1502.9951">str</text></g><!--class plantuml_alphabet--><g id="elem_plantuml_alphabet"><rect codeLine="69" fill="#FFFFFF" height="26.2969" id="plantuml_alphabet" rx="2.5" ry="2.5" style="stroke:#181818;stroke-width:0.5;" width="178" x="236.5004" y="1427"/><text fill="#000000" font-family="sans-serif" font-size="14" lengthAdjust="spacing" textLength="141" x="239.5004" y="1444.9951">plantuml_alphabet:</text><text fill="#191970" font-family="sans-serif" font-size="14" lengthAdjust="spacing" textLength="27" x="384.5004" y="1444.9951">Any</text></g><!--class base64_alphabet--><g id="elem_base64_alphabet"><rect codeLine="70" fill="#FFFFFF" height="26.2969" id="base64_alphabet" rx="2.5" ry="2.5" style="stroke:#181818;stroke-width:0.5;" width="165" x="847.0004" y="1482"/><text fill="#000000" font-family="sans-serif" font-size="14" lengthAdjust="spacing" textLength="128" x="850.0004" y="1499.9951">base64_alphabet:</text><text fill="#191970" font-family="sans-serif" font-size="14" lengthAdjust="spacing" textLength="27" x="982.0004" y="1499.9951">Any</text></g><g id="elem_annotation_to_string"><rect fill="#FFFFFF" height="20.2969" style="stroke:#181818;stroke-width:0.5;" width="447" x="1255.0024" y="1332"/><text fill="#8B0000" font-family="sans-serif" font-size="14" lengthAdjust="spacing" textLength="151" x="1262.0024" y="1346.9951">annotation_to_string</text><text fill="#000000" font-family="sans-serif" font-size="14" lengthAdjust="spacing" textLength="46" x="1413.0024" y="1346.9951">(node:</text><text fill="#191970" font-family="sans-serif" font-size="14" lengthAdjust="spacing" textLength="108" x="1463.0024" y="1346.9951">NodeNG | None</text><text fill="#000000" font-family="sans-serif" font-size="14" lengthAdjust="spacing" textLength="55" x="1571.0024" y="1346.9951">, string:</text><text fill="#191970" font-family="sans-serif" font-size="14" lengthAdjust="spacing" textLength="20" x="1630.0024" y="1346.9951">str</text><text fill="#000000" font-family="sans-serif" font-size="14" lengthAdjust="spacing" textLength="21" x="1650.0024" y="1346.9951">) &#8594;</text><text fill="#191970" font-family="sans-serif" font-size="14" lengthAdjust="spacing" textLength="20" x="1675.0024" y="1346.9951">str</text></g><g id="elem_get_function"><rect fill="#FFFFFF" height="20.2969" style="stroke:#181818;stroke-width:0.5;" width="380" x="1288.5024" y="1277"/><text fill="#8B0000" font-family="sans-serif" font-size="14" lengthAdjust="spacing" textLength="92" x="1295.5024" y="1291.9951">get_function</text><text fill="#000000" font-family="sans-serif" font-size="14" lengthAdjust="spacing" textLength="46" x="1387.5024" y="1291.9951">(node:</text><text fill="#191970" font-family="sans-serif" font-size="14" lengthAdjust="spacing" textLength="88" x="1437.5024" y="1291.9951">FunctionDef</text><text fill="#000000" font-family="sans-serif" font-size="14" lengthAdjust="spacing" textLength="21" x="1525.5024" y="1291.9951">) &#8594;</text><text fill="#191970" font-family="sans-serif" font-size="14" lengthAdjust="spacing" textLength="111" x="1550.5024" y="1291.9951">SourceFunction</text></g><g id="elem_get_module_info"><rect fill="#FFFFFF" height="20.2969" style="stroke:#181818;stroke-width:0.5;" width="519" x="1762.0024" y="1332"/><text fill="#8B0000" font-family="sans-serif" font-size="14" lengthAdjust="spacing" textLength="120" x="1769.0024" y="1346.9951">get_module_info</text><text fill="#000000" font-family="sans-serif" font-size="14" lengthAdjust="spacing" textLength="74" x="1889.0024" y="1346.9951">(file_path:</text><text fill="#191970" font-family="sans-serif" font-size="14" lengthAdjust="spacing" textLength="20" x="1967.0024" y="1346.9951">str</text><text fill="#000000" font-family="sans-serif" font-size="14" lengthAdjust="spacing" textLength="152" x="1987.0024" y="1346.9951">, with_dependencies:</text><text fill="#191970" font-family="sans-serif" font-size="14" lengthAdjust="spacing" textLength="32" x="2143.0024" y="1346.9951">bool</text><text fill="#000000" font-family="sans-serif" font-size="14" lengthAdjust="spacing" textLength="21" x="2175.0024" y="1346.9951">) &#8594;</text><text fill="#191970" font-family="sans-serif" font-size="14" lengthAdjust="spacing" textLength="74" x="2200.0024" y="1346.9951">SourceFile</text></g><!--SRC=[tLRDRjim3BxxAOYUDYJeBiCEGL5WQTTTrg9OiLq5sQ8ThR9aIFA2eEjr3x17t9DCbd_YE76YPWNs0_XWo-H7VYH5Kc1gmIhGF5jOO5nZOhcIaRddig2Qvb3Gv9vcU6TN0Y5r9xZzSwuqGtsXXDAGQRhgIII26ZDtOfbMfMIrp7B1RHz6nL-StTrI2yuGC2_i2dBCOzGcQgp2QKwvX8UeLeUJiwJIcrrIVVyHsNc64ZMrICfSdBto_yvVr1ILNisW4R_cJ5RivwB4SsDrA_eIVdx_SKZe1AY1lg784uOJzpeBKgvqF4Vt0WdNYS3eSKsHKKjFxrIf4xpYBWCFZO6Demb8bvU3zY92gcS2Wq0HmYMtX7H1CYZISVetIc87kGFCMGp6wdkt1KKP8vuj-Kerfx703TGf61-4MkOW-ocqABj5wuX-7bWwDWmPMf8eAUlxLCM4oymS4PN7iMeefOSULiJwEBGg9g3HbbgQ455ZgUN9RictSlMFbDfOK2zy93SZsfxz7vTiZ7bRzmFolUFmShAhufdZD0spFOMA4Gco_pU4_jFrXuscllv-Md2QFfWwNVE7UPMM2tFQbiqjrGRr-8WkD3gdBMhlUsUx-Y05jOl3MVGpT1DcV1-mtI1PTsB1fGjQCyTx0cCerL1gXLmsKgLpMZNS3Z38xusSxPj7Lpna5ctBUa9ZlevnCsLS3oeIerqYhadLnm6qOdHMGcugJLs-dd49s_9zkofl1PNsdKmKsrUJw0Lw2oDrAsqUm4YZTC2_sts6l6ftshMog2YuJP5GKIoeOtfm4jSNPAZMuiNKu9lNJqGRADNhwvQ9TfdrVmSgEnRTEaNNYfM7smQLKbbVoSIgPhVg4YPTk6OZ3P3XpNlu1lrEw6vYM6s7fsoNU_kQKjhiR04KslNk4jFWhZ10xrfTQtQVQxdFX-yTHtJdAIovNH26HNKrPC9nPCUCbH97Txc1dz7ZBm00]--></g></svg>