<?xml version="1.0" encoding="us-ascii" standalone="no"?><svg xmlns="http://www.w3.org/2000/svg" xmlns:xlink="http://www.w3.org/1999/xlink" contentStyleType="text/css" height="882px" preserveAspectRatio="none" style="width:2863px;height:882px;background:#FFFFFF;" version="1.1" viewBox="0 0 2863 882" width="2863px" zoomAndPan="magnify"><defs/><g><!--cluster main--><g id="cluster_main"><rect fill="none" height="106" rx="2.5" ry="2.5" style="stroke:#808080;stroke-width:1.5;" width="306" x="7" y="343.392"/><path d="M57,343.392 L57,352.6889 L47,362.6889 L7,362.6889 " fill="none" style="stroke:#808080;stroke-width:1.5;"/><text fill="#000000" font-family="sans-serif" font-size="14" font-weight="bold" lengthAdjust="spacing" textLength="40" x="10" y="357.3871">main</text></g><!--cluster data--><g id="cluster_data"><rect fill="none" height="359" rx="2.5" ry="2.5" style="stroke:#808080;stroke-width:1.5;" width="2289" x="568" y="86.392"/><path d="M616,86.392 L616,95.6889 L606,105.6889 L568,105.6889 " fill="none" style="stroke:#808080;stroke-width:1.5;"/><text fill="#000000" font-family="sans-serif" font-size="14" font-weight="bold" lengthAdjust="spacing" textLength="38" x="571" y="100.3871">data</text></g><!--cluster SourceFile--><g id="cluster_SourceFile"><rect fill="none" height="276" rx="2.5" ry="2.5" style="stroke:#808080;stroke-width:1.5;" width="605" x="1198" y="137.392"/><path d="M1291,137.392 L1291,146.6889 L1281,156.6889 L1198,156.6889 " fill="none" style="stroke:#808080;stroke-width:1.5;"/><text fill="#000000" font-family="sans-serif" font-size="14" font-weight="bold" lengthAdjust="spacing" textLength="83" x="1201" y="151.3871">SourceFile</text></g><!--cluster SourceFunction--><g id="cluster_SourceFunction"><rect fill="none" height="210" rx="2.5" ry="2.5" style="stroke:#808080;stroke-width:1.5;" width="219" x="2102" y="166.392"/><path d="M2238,166.392 L2238,175.6889 L2228,185.6889 L2102,185.6889 " fill="none" style="stroke:#808080;stroke-width:1.5;"/><text fill="#000000" font-family="sans-serif" font-size="14" font-weight="bold" lengthAdjust="spacing" textLength="126" x="2105" y="180.3871">SourceFunction</text></g><!--cluster SourceClass--><g id="cluster_SourceClass"><rect fill="none" height="210" rx="2.5" ry="2.5" style="stroke:#808080;stroke-width:1.5;" width="219" x="1843" y="203.392"/><path d="M1951,203.392 L1951,212.6889 L1941,222.6889 L1843,222.6889 " fill="none" style="stroke:#808080;stroke-width:1.5;"/><text fill="#000000" font-family="sans-serif" font-size="14" font-weight="bold" lengthAdjust="spacing" textLength="98" x="1846" y="217.3871">SourceClass</text></g><!--cluster SourceVariable--><g id="cluster_SourceVariable"><rect fill="none" height="159" rx="2.5" ry="2.5" style="stroke:#808080;stroke-width:1.5;" width="480" x="2353" y="262.392"/><path d="M2485,262.392 L2485,271.6889 L2475,281.6889 L2353,281.6889 " fill="none" style="stroke:#808080;stroke-width:1.5;"/><text fill="#000000" font-family="sans-serif" font-size="14" font-weight="bold" lengthAdjust="spacing" textLength="122" x="2356" y="276.3871">SourceVariable</text></g><!--cluster UMLFile--><g id="cluster_UMLFile"><rect fill="none" height="178" rx="2.5" ry="2.5" style="stroke:#808080;stroke-width:1.5;" width="311" x="600" y="235.392"/><path d="M672,235.392 L672,244.6889 L662,254.6889 L600,254.6889 " fill="none" style="stroke:#808080;stroke-width:1.5;"/><text fill="#000000" font-family="sans-serif" font-size="14" font-weight="bold" lengthAdjust="spacing" textLength="62" x="603" y="249.3871">UMLFile</text></g><!--cluster utils--><g id="cluster_utils"><rect fill="none" height="394" rx="2.5" ry="2.5" style="stroke:#808080;stroke-width:1.5;" width="821" x="345" y="469.392"/><path d="M392,469.392 L392,478.6889 L382,488.6889 L345,488.6889 " fill="none" style="stroke:#808080;stroke-width:1.5;"/><text fill="#000000" font-family="sans-serif" font-size="14" font-weight="bold" lengthAdjust="spacing" textLength="37" x="348" y="483.3871">utils</text></g><!--cluster PlantEncoder--><g id="cluster_PlantEncoder"><rect fill="none" height="71" rx="2.5" ry="2.5" style="stroke:#808080;stroke-width:1.5;" width="362" x="574.5" y="512.392"/><path d="M691.5,512.392 L691.5,521.6889 L681.5,531.6889 L574.5,531.6889 " fill="none" style="stroke:#808080;stroke-width:1.5;"/><text fill="#000000" font-family="sans-serif" font-size="14" font-weight="bold" lengthAdjust="spacing" textLength="107" x="577.5" y="526.3871">PlantEncoder</text></g><!--cluster ModuleParser--><g id="cluster_ModuleParser"><rect fill="none" height="216" rx="2.5" ry="2.5" style="stroke:#808080;stroke-width:1.5;" width="757" x="377" y="615.392"/><path d="M497,615.392 L497,624.6889 L487,634.6889 L377,634.6889 " fill="none" style="stroke:#808080;stroke-width:1.5;"/><text fill="#000000" font-family="sans-serif" font-size="14" font-weight="bold" lengthAdjust="spacing" textLength="110" x="380" y="629.3871">ModuleParser</text></g><g id="elem_generate_uml"><rect fill="#FFFFFF" height="20.2969" style="stroke:#181818;stroke-width:0.5;" width="258" x="31" y="386.392"/><text fill="#8B0000" font-family="sans-serif" font-size="14" lengthAdjust="spacing" textLength="99" x="38" y="401.3871">generate_uml</text><text fill="#000000" font-family="sans-serif" font-size="14" lengthAdjust="spacing" textLength="76" x="137" y="401.3871">(directory:</text><text fill="#191970" font-family="sans-serif" font-size="14" lengthAdjust="spacing" textLength="20" x="217" y="401.3871">str</text><text fill="#000000" font-family="sans-serif" font-size="14" lengthAdjust="spacing" textLength="21" x="237" y="401.3871">) &#8594;</text><text fill="#191970" font-family="sans-serif" font-size="14" lengthAdjust="spacing" textLength="20" x="262" y="401.3871">str</text></g><!--class SourceFile--><g id="elem_SourceFile"><rect codeLine="12" fill="#FFFFFF" height="188.9688" id="SourceFile" rx="2.5" ry="2.5" style="stroke:#181818;stroke-width:0.5;" width="557" x="1222" y="180.892"/><text fill="#000000" font-family="sans-serif" font-size="14" lengthAdjust="spacing" textLength="74" x="1463.5" y="198.8871">SourceFile</text><line style="stroke:#181818;stroke-width:0.5;" x1="1223" x2="1778" y1="207.1889" y2="207.1889"/><ellipse cx="1233" cy="220.8373" fill="none" rx="3" ry="3" style="stroke:#038048;stroke-width:1.0;"/><text fill="#000000" font-family="sans-serif" font-size="14" lengthAdjust="spacing" textLength="50" x="1242" y="224.184">classes</text><ellipse cx="1233" cy="237.1342" fill="none" rx="3" ry="3" style="stroke:#038048;stroke-width:1.0;"/><text fill="#000000" font-family="sans-serif" font-size="14" lengthAdjust="spacing" textLength="67" x="1242" y="240.4809">functions</text><ellipse cx="1233" cy="253.4311" fill="none" rx="3" ry="3" style="stroke:#038048;stroke-width:1.0;"/><text fill="#000000" font-family="sans-serif" font-size="14" lengthAdjust="spacing" textLength="57" x="1242" y="256.7777">imports</text><ellipse cx="1233" cy="269.7279" fill="none" rx="3" ry="3" style="stroke:#038048;stroke-width:1.0;"/><text fill="#000000" font-family="sans-serif" font-size="14" lengthAdjust="spacing" textLength="45" x="1242" y="273.0746">name:</text><text fill="#191970" font-family="sans-serif" font-size="14" lengthAdjust="spacing" textLength="20" x="1291" y="273.0746">str</text><ellipse cx="1233" cy="286.0248" fill="none" rx="3" ry="3" style="stroke:#038048;stroke-width:1.0;"/><text fill="#000000" font-family="sans-serif" font-size="14" lengthAdjust="spacing" textLength="64" x="1242" y="289.3715">variables</text><line style="stroke:#181818;stroke-width:0.5;" x1="1223" x2="1778" y1="296.6733" y2="296.6733"/><ellipse cx="1233" cy="310.3217" fill="#84BE84" rx="3" ry="3" style="stroke:#038048;stroke-width:1.0;"/><text fill="#8B0000" font-family="sans-serif" font-size="14" lengthAdjust="spacing" textLength="52" x="1242" y="313.6684">__init__</text><text fill="#000000" font-family="sans-serif" font-size="14" lengthAdjust="spacing" textLength="52" x="1294" y="313.6684">(self) &#8594;</text><text fill="#191970" font-family="sans-serif" font-size="14" lengthAdjust="spacing" textLength="37" x="1350" y="313.6684">None</text><ellipse cx="1233" cy="326.6186" fill="#84BE84" rx="3" ry="3" style="stroke:#038048;stroke-width:1.0;"/><text fill="#8B0000" font-family="sans-serif" font-size="14" lengthAdjust="spacing" textLength="48" x="1242" y="329.9652">__str__</text><text fill="#000000" font-family="sans-serif" font-size="14" lengthAdjust="spacing" textLength="52" x="1290" y="329.9652">(self) &#8594;</text><text fill="#191970" font-family="sans-serif" font-size="14" lengthAdjust="spacing" textLength="20" x="1346" y="329.9652">str</text><ellipse cx="1233" cy="342.9154" fill="#84BE84" rx="3" ry="3" style="stroke:#038048;stroke-width:1.0;"/><text fill="#8B0000" font-family="sans-serif" font-size="14" lengthAdjust="spacing" textLength="131" x="1242" y="346.2621">add_class_variable</text><text fill="#000000" font-family="sans-serif" font-size="14" lengthAdjust="spacing" textLength="132" x="1373" y="346.2621">(self, source_class:</text><text fill="#191970" font-family="sans-serif" font-size="14" lengthAdjust="spacing" textLength="20" x="1509" y="346.2621">str</text><text fill="#000000" font-family="sans-serif" font-size="14" lengthAdjust="spacing" textLength="70" x="1529" y="346.2621">, variable:</text><text fill="#191970" font-family="sans-serif" font-size="14" lengthAdjust="spacing" textLength="108" x="1603" y="346.2621">SourceVariable</text><text fill="#000000" font-family="sans-serif" font-size="14" lengthAdjust="spacing" textLength="21" x="1711" y="346.2621">) &#8594;</text><text fill="#191970" font-family="sans-serif" font-size="14" lengthAdjust="spacing" textLength="37" x="1736" y="346.2621">None</text><ellipse cx="1233" cy="359.2123" fill="#84BE84" rx="3" ry="3" style="stroke:#038048;stroke-width:1.0;"/><text fill="#8B0000" font-family="sans-serif" font-size="14" lengthAdjust="spacing" textLength="169" x="1242" y="362.559">get_connection_strings</text><text fill="#000000" font-family="sans-serif" font-size="14" lengthAdjust="spacing" textLength="52" x="1411" y="362.559">(self) &#8594;</text><text fill="#191970" font-family="sans-serif" font-size="14" lengthAdjust="spacing" textLength="20" x="1467" y="362.559">str</text></g><!--class SourceFunction--><g id="elem_SourceFunction"><rect codeLine="26" fill="#FFFFFF" height="123.7813" id="SourceFunction" rx="2.5" ry="2.5" style="stroke:#181818;stroke-width:0.5;" width="171" x="2126" y="209.392"/><text fill="#000000" font-family="sans-serif" font-size="14" lengthAdjust="spacing" textLength="111" x="2156" y="227.3871">SourceFunction</text><line style="stroke:#181818;stroke-width:0.5;" x1="2127" x2="2296" y1="235.6889" y2="235.6889"/><ellipse cx="2137" cy="249.3373" fill="none" rx="3" ry="3" style="stroke:#038048;stroke-width:1.0;"/><text fill="#000000" font-family="sans-serif" font-size="14" lengthAdjust="spacing" textLength="45" x="2146" y="252.684">name:</text><text fill="#191970" font-family="sans-serif" font-size="14" lengthAdjust="spacing" textLength="20" x="2195" y="252.684">str</text><ellipse cx="2137" cy="265.6342" fill="none" rx="3" ry="3" style="stroke:#038048;stroke-width:1.0;"/><text fill="#000000" font-family="sans-serif" font-size="14" lengthAdjust="spacing" textLength="53" x="2146" y="268.9809">params</text><ellipse cx="2137" cy="281.9311" fill="none" rx="3" ry="3" style="stroke:#038048;stroke-width:1.0;"/><text fill="#000000" font-family="sans-serif" font-size="14" lengthAdjust="spacing" textLength="57" x="2146" y="285.2777">returns:</text><text fill="#191970" font-family="sans-serif" font-size="14" lengthAdjust="spacing" textLength="20" x="2207" y="285.2777">str</text><line style="stroke:#181818;stroke-width:0.5;" x1="2127" x2="2296" y1="292.5795" y2="292.5795"/><ellipse cx="2137" cy="306.2279" fill="#84BE84" rx="3" ry="3" style="stroke:#038048;stroke-width:1.0;"/><text fill="#8B0000" font-family="sans-serif" font-size="14" lengthAdjust="spacing" textLength="52" x="2146" y="309.5746">__init__</text><text fill="#000000" font-family="sans-serif" font-size="14" lengthAdjust="spacing" textLength="52" x="2198" y="309.5746">(self) &#8594;</text><text fill="#191970" font-family="sans-serif" font-size="14" lengthAdjust="spacing" textLength="37" x="2254" y="309.5746">None</text><ellipse cx="2137" cy="322.5248" fill="#84BE84" rx="3" ry="3" style="stroke:#038048;stroke-width:1.0;"/><text fill="#8B0000" font-family="sans-serif" font-size="14" lengthAdjust="spacing" textLength="48" x="2146" y="325.8715">__str__</text><text fill="#000000" font-family="sans-serif" font-size="14" lengthAdjust="spacing" textLength="52" x="2194" y="325.8715">(self) &#8594;</text><text fill="#191970" font-family="sans-serif" font-size="14" lengthAdjust="spacing" textLength="20" x="2250" y="325.8715">str</text></g><!--class SourceClass--><g id="elem_SourceClass"><rect codeLine="36" fill="#FFFFFF" height="123.7813" id="SourceClass" rx="2.5" ry="2.5" style="stroke:#181818;stroke-width:0.5;" width="171" x="1867" y="246.392"/><text fill="#000000" font-family="sans-serif" font-size="14" lengthAdjust="spacing" textLength="85" x="1910" y="264.3871">SourceClass</text><line style="stroke:#181818;stroke-width:0.5;" x1="1868" x2="2037" y1="272.6889" y2="272.6889"/><ellipse cx="1878" cy="286.3373" fill="none" rx="3" ry="3" style="stroke:#038048;stroke-width:1.0;"/><text fill="#000000" font-family="sans-serif" font-size="14" lengthAdjust="spacing" textLength="64" x="1887" y="289.684">methods</text><ellipse cx="1878" cy="302.6342" fill="none" rx="3" ry="3" style="stroke:#038048;stroke-width:1.0;"/><text fill="#000000" font-family="sans-serif" font-size="14" lengthAdjust="spacing" textLength="45" x="1887" y="305.9809">name:</text><text fill="#191970" font-family="sans-serif" font-size="14" lengthAdjust="spacing" textLength="20" x="1936" y="305.9809">str</text><ellipse cx="1878" cy="318.9311" fill="none" rx="3" ry="3" style="stroke:#038048;stroke-width:1.0;"/><text fill="#000000" font-family="sans-serif" font-size="14" lengthAdjust="spacing" textLength="64" x="1887" y="322.2777">variables</text><line style="stroke:#181818;stroke-width:0.5;" x1="1868" x2="2037" y1="329.5795" y2="329.5795"/><ellipse cx="1878" cy="343.2279" fill="#84BE84" rx="3" ry="3" style="stroke:#038048;stroke-width:1.0;"/><text fill="#8B0000" font-family="sans-serif" font-size="14" lengthAdjust="spacing" textLength="52" x="1887" y="346.5746">__init__</text><text fill="#000000" font-family="sans-serif" font-size="14" lengthAdjust="spacing" textLength="52" x="1939" y="346.5746">(self) &#8594;</text><text fill="#191970" font-family="sans-serif" font-size="14" lengthAdjust="spacing" textLength="37" x="1995" y="346.5746">None</text><ellipse cx="1878" cy="359.5248" fill="#84BE84" rx="3" ry="3" style="stroke:#038048;stroke-width:1.0;"/><text fill="#8B0000" font-family="sans-serif" font-size="14" lengthAdjust="spacing" textLength="48" x="1887" y="362.8715">__str__</text><text fill="#000000" font-family="sans-serif" font-size="14" lengthAdjust="spacing" textLength="52" x="1935" y="362.8715">(self) &#8594;</text><text fill="#191970" font-family="sans-serif" font-size="14" lengthAdjust="spacing" textLength="20" x="1991" y="362.8715">str</text></g><!--class SourceVariable--><g id="elem_SourceVariable"><rect codeLine="46" fill="#FFFFFF" height="107.4844" id="SourceVariable" rx="2.5" ry="2.5" style="stroke:#181818;stroke-width:0.5;" width="448" x="2369" y="297.892"/><text fill="#000000" font-family="sans-serif" font-size="14" lengthAdjust="spacing" textLength="108" x="2539" y="315.8871">SourceVariable</text><line style="stroke:#181818;stroke-width:0.5;" x1="2370" x2="2816" y1="324.1889" y2="324.1889"/><ellipse cx="2380" cy="337.8373" fill="none" rx="3" ry="3" style="stroke:#038048;stroke-width:1.0;"/><text fill="#000000" font-family="sans-serif" font-size="14" lengthAdjust="spacing" textLength="45" x="2389" y="341.184">name:</text><text fill="#191970" font-family="sans-serif" font-size="14" lengthAdjust="spacing" textLength="20" x="2438" y="341.184">str</text><ellipse cx="2380" cy="354.1342" fill="none" rx="3" ry="3" style="stroke:#038048;stroke-width:1.0;"/><text fill="#000000" font-family="sans-serif" font-size="14" lengthAdjust="spacing" textLength="39" x="2389" y="357.4809">type:</text><text fill="#191970" font-family="sans-serif" font-size="14" lengthAdjust="spacing" textLength="20" x="2432" y="357.4809">str</text><line style="stroke:#181818;stroke-width:0.5;" x1="2370" x2="2816" y1="364.7826" y2="364.7826"/><ellipse cx="2380" cy="378.4311" fill="#84BE84" rx="3" ry="3" style="stroke:#038048;stroke-width:1.0;"/><text fill="#8B0000" font-family="sans-serif" font-size="14" lengthAdjust="spacing" textLength="52" x="2389" y="381.7777">__init__</text><text fill="#000000" font-family="sans-serif" font-size="14" lengthAdjust="spacing" textLength="84" x="2441" y="381.7777">(self, name:</text><text fill="#191970" font-family="sans-serif" font-size="14" lengthAdjust="spacing" textLength="20" x="2529" y="381.7777">str</text><text fill="#000000" font-family="sans-serif" font-size="14" lengthAdjust="spacing" textLength="86" x="2549" y="381.7777">, data_type:</text><text fill="#191970" font-family="sans-serif" font-size="14" lengthAdjust="spacing" textLength="20" x="2639" y="381.7777">str</text><text fill="#000000" font-family="sans-serif" font-size="14" lengthAdjust="spacing" textLength="54" x="2659" y="381.7777">, static:</text><text fill="#191970" font-family="sans-serif" font-size="14" lengthAdjust="spacing" textLength="32" x="2717" y="381.7777">bool</text><text fill="#000000" font-family="sans-serif" font-size="14" lengthAdjust="spacing" textLength="21" x="2749" y="381.7777">) &#8594;</text><text fill="#191970" font-family="sans-serif" font-size="14" lengthAdjust="spacing" textLength="37" x="2774" y="381.7777">None</text><ellipse cx="2380" cy="394.7279" fill="#84BE84" rx="3" ry="3" style="stroke:#038048;stroke-width:1.0;"/><text fill="#8B0000" font-family="sans-serif" font-size="14" lengthAdjust="spacing" textLength="48" x="2389" y="398.0746">__str__</text><text fill="#000000" font-family="sans-serif" font-size="14" lengthAdjust="spacing" textLength="52" x="2437" y="398.0746">(self) &#8594;</text><text fill="#191970" font-family="sans-serif" font-size="14" lengthAdjust="spacing" textLength="20" x="2493" y="398.0746">str</text></g><!--class UMLFile--><g id="elem_UMLFile"><rect codeLine="55" fill="#FFFFFF" height="91.1875" id="UMLFile" rx="2.5" ry="2.5" style="stroke:#181818;stroke-width:0.5;" width="263" x="624" y="278.892"/><text fill="#000000" font-family="sans-serif" font-size="14" lengthAdjust="spacing" textLength="54" x="728.5" y="296.8871">UMLFile</text><line style="stroke:#181818;stroke-width:0.5;" x1="625" x2="886" y1="305.1889" y2="305.1889"/><ellipse cx="635" cy="318.8373" fill="none" rx="3" ry="3" style="stroke:#038048;stroke-width:1.0;"/><text fill="#000000" font-family="sans-serif" font-size="14" lengthAdjust="spacing" textLength="84" x="644" y="322.184">source_files</text><line style="stroke:#181818;stroke-width:0.5;" x1="625" x2="886" y1="329.4858" y2="329.4858"/><ellipse cx="635" cy="343.1342" fill="#84BE84" rx="3" ry="3" style="stroke:#038048;stroke-width:1.0;"/><text fill="#8B0000" font-family="sans-serif" font-size="14" lengthAdjust="spacing" textLength="52" x="644" y="346.4809">__init__</text><text fill="#000000" font-family="sans-serif" font-size="14" lengthAdjust="spacing" textLength="144" x="696" y="346.4809">(self, source_files) &#8594;</text><text fill="#191970" font-family="sans-serif" font-size="14" lengthAdjust="spacing" textLength="37" x="844" y="346.4809">None</text><ellipse cx="635" cy="359.4311" fill="#84BE84" rx="3" ry="3" style="stroke:#038048;stroke-width:1.0;"/><text fill="#8B0000" font-family="sans-serif" font-size="14" lengthAdjust="spacing" textLength="48" x="644" y="362.7777">__str__</text><text fill="#000000" font-family="sans-serif" font-size="14" lengthAdjust="spacing" textLength="52" x="692" y="362.7777">(self) &#8594;</text><text fill="#191970" font-family="sans-serif" font-size="14" lengthAdjust="spacing" textLength="20" x="748" y="362.7777">str</text></g><g id="elem_encode"><rect fill="#FFFFFF" height="20.2969" style="stroke:#181818;stroke-width:0.5;" width="330" x="590.5" y="547.392"/><text fill="#8B0000" font-family="sans-serif" font-size="14" lengthAdjust="spacing" textLength="53" x="597.5" y="562.3871">encode</text><text fill="#000000" font-family="sans-serif" font-size="14" lengthAdjust="spacing" textLength="68" x="650.5" y="562.3871">(diagram:</text><text fill="#191970" font-family="sans-serif" font-size="14" lengthAdjust="spacing" textLength="20" x="722.5" y="562.3871">str</text><text fill="#000000" font-family="sans-serif" font-size="14" lengthAdjust="spacing" textLength="102" x="742.5" y="562.3871">, render_type:</text><text fill="#191970" font-family="sans-serif" font-size="14" lengthAdjust="spacing" textLength="20" x="848.5" y="562.3871">str</text><text fill="#000000" font-family="sans-serif" font-size="14" lengthAdjust="spacing" textLength="21" x="868.5" y="562.3871">) &#8594;</text><text fill="#191970" font-family="sans-serif" font-size="14" lengthAdjust="spacing" textLength="20" x="893.5" y="562.3871">str</text></g><g id="elem_annotation_to_string"><rect fill="#FFFFFF" height="20.2969" style="stroke:#181818;stroke-width:0.5;" width="447" x="532" y="658.392"/><text fill="#8B0000" font-family="sans-serif" font-size="14" lengthAdjust="spacing" textLength="151" x="539" y="673.3871">annotation_to_string</text><text fill="#000000" font-family="sans-serif" font-size="14" lengthAdjust="spacing" textLength="46" x="690" y="673.3871">(node:</text><text fill="#191970" font-family="sans-serif" font-size="14" lengthAdjust="spacing" textLength="108" x="740" y="673.3871">NodeNG | None</text><text fill="#000000" font-family="sans-serif" font-size="14" lengthAdjust="spacing" textLength="55" x="848" y="673.3871">, string:</text><text fill="#191970" font-family="sans-serif" font-size="14" lengthAdjust="spacing" textLength="20" x="907" y="673.3871">str</text><text fill="#000000" font-family="sans-serif" font-size="14" lengthAdjust="spacing" textLength="21" x="927" y="673.3871">) &#8594;</text><text fill="#191970" font-family="sans-serif" font-size="14" lengthAdjust="spacing" textLength="20" x="952" y="673.3871">str</text></g><g id="elem_get_function"><rect fill="#FFFFFF" height="20.2969" style="stroke:#181818;stroke-width:0.5;" width="380" x="565.5" y="713.392"/><text fill="#8B0000" font-family="sans-serif" font-size="14" lengthAdjust="spacing" textLength="92" x="572.5" y="728.3871">get_function</text><text fill="#000000" font-family="sans-serif" font-size="14" lengthAdjust="spacing" textLength="46" x="664.5" y="728.3871">(node:</text><text fill="#191970" font-family="sans-serif" font-size="14" lengthAdjust="spacing" textLength="88" x="714.5" y="728.3871">FunctionDef</text><text fill="#000000" font-family="sans-serif" font-size="14" lengthAdjust="spacing" textLength="21" x="802.5" y="728.3871">) &#8594;</text><text fill="#191970" font-family="sans-serif" font-size="14" lengthAdjust="spacing" textLength="111" x="827.5" y="728.3871">SourceFunction</text></g><g id="elem_get_module_info"><rect fill="#FFFFFF" height="20.2969" style="stroke:#181818;stroke-width:0.5;" width="709" x="401" y="768.392"/><text fill="#8B0000" font-family="sans-serif" font-size="14" lengthAdjust="spacing" textLength="120" x="408" y="783.3871">get_module_info</text><text fill="#000000" font-family="sans-serif" font-size="14" lengthAdjust="spacing" textLength="41" x="528" y="783.3871">(root:</text><text fill="#191970" font-family="sans-serif" font-size="14" lengthAdjust="spacing" textLength="20" x="573" y="783.3871">str</text><text fill="#000000" font-family="sans-serif" font-size="14" lengthAdjust="spacing" textLength="77" x="593" y="783.3871">, file_path:</text><text fill="#191970" font-family="sans-serif" font-size="14" lengthAdjust="spacing" textLength="20" x="674" y="783.3871">str</text><text fill="#000000" font-family="sans-serif" font-size="14" lengthAdjust="spacing" textLength="274" x="694" y="783.3871">, known_modules, with_dependencies:</text><text fill="#191970" font-family="sans-serif" font-size="14" lengthAdjust="spacing" textLength="32" x="972" y="783.3871">bool</text><text fill="#000000" font-family="sans-serif" font-size="14" lengthAdjust="spacing" textLength="21" x="1004" y="783.3871">) &#8594;</text><text fill="#191970" font-family="sans-serif" font-size="14" lengthAdjust="spacing" textLength="74" x="1029" y="783.3871">SourceFile</text></g><!--link main to SourceFile--><g id="link_main_SourceFile"><path codeLine="70" d="M198.1483,449.4545 C198.614,449.5264 199.0826,449.5978 199.5542,449.6685 C200.4974,449.8098 201.4522,449.9486 202.4181,450.0844 C210.1453,451.1705 218.5788,452.0624 227.3804,452.5248 C262.5865,454.374 303.68,449.35 329,422.392 C341.186,409.417 324.103,274.66 337,262.392 C606.532,6 802.074,254.968 1174,262.392 C1187.85,262.668 1202.03,263.011 1216.35,263.404 " fill="none" id="main-to-SourceFile" style="stroke:#181818;stroke-width:1.0;stroke-dasharray:7.0,7.0;"/><polygon fill="#181818" points="1221.63,263.552,1212.7479,259.2965,1216.632,263.4092,1212.5194,267.2933,1221.63,263.552" style="stroke:#181818;stroke-width:1.0;"/></g><!--link main to UMLFile--><g id="link_main_UMLFile"><path codeLine="71" d="M203.0142,449.429 C203.4949,449.4878 203.9784,449.5457 204.4645,449.6028 C205.4367,449.717 206.4195,449.8279 207.4121,449.935 C209.3974,450.1492 211.4222,450.3483 213.4817,450.5288 C217.6005,450.89 221.8575,451.177 226.2126,451.3628 C261.0535,452.8485 302.1705,447.848 329,422.392 C344.689,407.506 321.36,389.33 337,374.392 C410.444,304.248 527.361,295.576 618.812,302.278 " fill="none" id="main-to-UMLFile" style="stroke:#181818;stroke-width:1.0;stroke-dasharray:7.0,7.0;"/><polygon fill="#181818" points="623.971,302.674,615.3051,297.994,618.9858,302.2896,614.6901,305.9703,623.971,302.674" style="stroke:#181818;stroke-width:1.0;"/></g><!--link main to get_module_info--><g id="link_main_get_module_info"><path codeLine="72" d="M162.7513,449.8807 C162.8307,450.2445 162.9129,450.6193 162.998,451.0047 C163.1681,451.7755 163.3496,452.589 163.5426,453.4439 C165.0867,460.2832 167.3693,469.7709 170.485,481.2217 C176.7163,504.1234 186.2803,534.8781 199.9344,568.0051 C227.2425,634.2593 270.911,710.003 337,751.392 C350.201,759.66 370.699,765.915 395.676,770.6 " fill="none" id="main-to-get_module_info" style="stroke:#181818;stroke-width:1.0;stroke-dasharray:7.0,7.0;"/><polygon fill="#181818" points="400.731,771.516,392.5883,765.9755,395.8111,770.6246,391.1621,773.8474,400.731,771.516" style="stroke:#181818;stroke-width:1.0;"/></g><!--link main to encode--><g id="link_main_encode"><path codeLine="73" d="M202.3062,449.4651 C202.8087,449.5633 203.3152,449.6623 203.8257,449.762 C204.8465,449.9616 205.8829,450.1641 206.9346,450.3697 C209.0382,450.7808 211.203,451.204 213.4268,451.6386 C217.8745,452.5079 222.5581,453.4233 227.459,454.3812 C266.6661,462.0443 319.7803,472.4255 377.2524,483.6585 C492.1965,506.1245 624.572,531.9975 697.985,546.346 " fill="none" id="main-to-encode" style="stroke:#181818;stroke-width:1.0;stroke-dasharray:7.0,7.0;"/><polygon fill="#181818" points="703.107,547.347,695.0424,541.6935,698.2,546.387,693.5065,549.5446,703.107,547.347" style="stroke:#181818;stroke-width:1.0;"/></g><!--link SourceFile to SourceClass--><g id="link_SourceFile_SourceClass"><path codeLine="74" d="M1540.7108,413.5464 C1542.0567,413.78 1543.4311,414.0144 1544.8332,414.249 C1547.6373,414.7181 1550.5519,415.1879 1553.5692,415.6534 C1559.6039,416.5843 1566.0493,417.4979 1572.8434,418.3538 C1586.4314,420.0656 1601.4138,421.5467 1617.2925,422.4744 C1680.8075,426.185 1758.665,421.041 1819,386.392 C1824.56,383.2 1822.25,378.691 1827,374.392 C1837.5,364.894 1849.63,356.316 1862.09,348.729 " fill="none" id="SourceFile-to-SourceClass" style="stroke:#181818;stroke-width:1.0;stroke-dasharray:7.0,7.0;"/><polygon fill="#181818" points="1866.7,345.978,1856.9208,347.1473,1862.4044,348.5368,1861.0149,354.0204,1866.7,345.978" style="stroke:#181818;stroke-width:1.0;"/></g><!--link SourceFile to SourceFunction--><g id="link_SourceFile_SourceFunction"><path codeLine="75" d="M1526.7367,413.5795 C1527.3218,413.7523 1527.9157,413.9266 1528.5182,414.1024 C1529.7231,414.454 1530.9625,414.8114 1532.235,415.1737 C1534.7801,415.8983 1537.458,416.6425 1540.2588,417.3984 C1562.665,423.446 1592.94,430.2514 1626.07,433.8925 C1692.33,441.1748 1770.01,435.8 1819,386.392 C1831.22,374.067 1814.42,242.346 1827,230.392 C1904.5,156.766 2034.48,190.912 2121.34,227.047 " fill="none" id="SourceFile-to-SourceFunction" style="stroke:#181818;stroke-width:1.0;stroke-dasharray:7.0,7.0;"/><polygon fill="#181818" points="2125.97,228.988,2119.211,221.8245,2121.3574,227.0583,2116.1235,229.2047,2125.97,228.988" style="stroke:#181818;stroke-width:1.0;"/></g><!--link SourceFile to SourceVariable--><g id="link_SourceFile_SourceVariable"><path codeLine="76" d="M1526.783,413.6227 C1527.3691,413.7964 1527.9639,413.9716 1528.5674,414.1484 C1529.7743,414.5019 1531.0156,414.8612 1532.2902,415.2255 C1534.8393,415.954 1537.5213,416.7022 1540.3263,417.4623 C1562.7663,423.5429 1593.08,430.3868 1626.235,434.053 C1692.545,441.3855 1770.22,436.0075 1819,386.392 C1833.58,371.562 1812.15,213.953 1827,199.392 C1909.21,118.776 1970.87,194.725 2086,193.392 C2197.55,192.1 2229.71,162.847 2337,193.392 C2406.43,213.157 2475.42,257.835 2524.11,294.656 " fill="none" id="SourceFile-to-SourceVariable" style="stroke:#181818;stroke-width:1.0;stroke-dasharray:7.0,7.0;"/><polygon fill="#181818" points="2528.16,297.742,2523.4004,289.1196,2524.1741,294.7233,2518.5704,295.497,2528.16,297.742" style="stroke:#181818;stroke-width:1.0;"/></g><!--link SourceFunction to SourceVariable--><g id="link_SourceFunction_SourceVariable"><path codeLine="77" d="M2321.4033,363.5137 C2321.6906,363.5009 2321.9782,363.488 2322.2661,363.4751 C2322.8419,363.4493 2323.4189,363.4235 2323.997,363.3976 C2325.1534,363.3458 2326.3144,363.2938 2327.48,363.2415 C2329.811,363.1371 2332.16,363.0319 2334.5252,362.926 C2343.9858,362.5022 2353.705,362.0669 2363.57,361.625 " fill="none" id="SourceFunction-to-SourceVariable" style="stroke:#181818;stroke-width:1.0;stroke-dasharray:7.0,7.0;"/><polygon fill="#181818" points="2368.78,361.391,2359.6168,357.7805,2363.7846,361.6053,2359.9597,365.7731,2368.78,361.391" style="stroke:#181818;stroke-width:1.0;"/></g><!--link SourceClass to SourceFunction--><g id="link_SourceClass_SourceFunction"><path codeLine="78" d="M2062.0781,398.0609 C2062.2652,397.9599 2062.4518,397.8582 2062.638,397.7557 C2063.0104,397.5507 2063.381,397.3427 2063.7498,397.1317 C2064.4874,396.7097 2065.2177,396.2756 2065.9401,395.8292 C2067.385,394.9362 2068.7987,393.9937 2070.1775,392.9993 C2072.9349,391.0106 2075.5525,388.8144 2078,386.392 C2093.68,370.87 2073.13,355.318 2086,337.392 C2095.31,324.424 2107.96,313.779 2121.65,305.116 " fill="none" id="SourceClass-to-SourceFunction" style="stroke:#181818;stroke-width:1.0;stroke-dasharray:7.0,7.0;"/><polygon fill="#181818" points="2125.92,302.49,2116.1569,303.7867,2121.6581,305.1046,2120.3402,310.6058,2125.92,302.49" style="stroke:#181818;stroke-width:1.0;"/></g><!--link SourceClass to SourceVariable--><g id="link_SourceClass_SourceVariable"><path codeLine="79" d="M2063.0937,401.5466 C2063.6383,401.5237 2064.1843,401.5008 2064.7317,401.4777 C2066.9213,401.3854 2069.1334,401.2913 2071.3669,401.1954 C2075.834,401.0036 2080.3871,400.8044 2085.0188,400.5979 C2159.125,397.293 2253.335,392.0855 2337,384.392 C2345.81,383.581 2354.79,382.699 2363.86,381.759 " fill="none" id="SourceClass-to-SourceVariable" style="stroke:#181818;stroke-width:1.0;stroke-dasharray:7.0,7.0;"/><polygon fill="#181818" points="2368.9,381.232,2359.5363,378.179,2363.9265,381.7463,2360.3592,386.1366,2368.9,381.232" style="stroke:#181818;stroke-width:1.0;"/></g><!--link UMLFile to SourceFile--><g id="link_UMLFile_SourceFile"><path codeLine="80" d="M790.1939,413.4432 C790.5658,413.5224 790.9404,413.602 791.3176,413.6818 C794.3356,414.3206 797.5238,414.9779 800.8718,415.6466 C827.6562,420.9968 864.6705,427.0826 906.5763,430.3014 C990.3877,436.739 1093.765,431.709 1174,386.392 C1179.58,383.24 1176.87,378.233 1182,374.392 C1193.12,366.072 1204.94,358.442 1217.25,351.445 " fill="none" id="UMLFile-to-SourceFile" style="stroke:#181818;stroke-width:1.0;stroke-dasharray:7.0,7.0;"/><polygon fill="#181818" points="1221.81,348.896,1212.003,349.8028,1217.4473,351.3388,1215.9114,356.7831,1221.81,348.896" style="stroke:#181818;stroke-width:1.0;"/></g><!--link ModuleParser to SourceFile--><g id="link_ModuleParser_SourceFile"><path codeLine="81" d="M779.4231,831.5597 C780.084,831.7799 780.7575,832.0033 781.4436,832.2297 C782.8157,832.6825 784.2379,833.1472 785.7085,833.6225 C791.591,835.5237 798.248,837.5943 805.5732,839.7482 C834.8738,848.3638 874.8645,858.3119 918.7338,864.0787 C1006.4723,875.6122 1109.725,870.4203 1174,804.392 C1190.67,787.2716 1167.66,393.505 1182,374.392 C1192.2,360.788 1204.26,349.004 1217.62,338.801 " fill="none" id="ModuleParser-to-SourceFile" style="stroke:#181818;stroke-width:1.0;stroke-dasharray:7.0,7.0;"/><polygon fill="#181818" points="1221.8,335.685,1212.1924,337.8515,1217.7896,338.671,1216.97,344.2682,1221.8,335.685" style="stroke:#181818;stroke-width:1.0;"/></g><!--link ModuleParser to SourceClass--><g id="link_ModuleParser_SourceClass"><path codeLine="82" d="M779.3354,831.4737 C779.9938,831.6916 780.6649,831.9126 781.3486,832.1366 C782.7158,832.5846 784.133,833.0443 785.5985,833.5146 C791.4604,835.3955 798.0949,837.444 805.3964,839.5746 C834.6026,848.0974 874.4814,857.9356 918.2769,863.6299 C1005.8678,875.0184 1109.125,869.8311 1174,804.392 C1190.99,787.2578 1166.9,606.208 1182,587.392 C1365.13,359.232 1621.24,637.002 1819,421.392 C1833.32,405.776 1814.59,391.564 1827,374.392 C1836.35,361.456 1849.03,350.826 1862.72,342.168 " fill="none" id="ModuleParser-to-SourceClass" style="stroke:#181818;stroke-width:1.0;stroke-dasharray:7.0,7.0;"/><polygon fill="#181818" points="1867,339.544,1857.2367,340.8393,1862.7377,342.1579,1861.419,347.659,1867,339.544" style="stroke:#181818;stroke-width:1.0;"/></g><!--link ModuleParser to SourceFunction--><g id="link_ModuleParser_SourceFunction"><path codeLine="83" d="M780.1798,831.6496 C780.5133,831.7581 780.85,831.8673 781.1897,831.9772 C782.5488,832.4169 783.9575,832.8682 785.4144,833.3298 C791.2417,835.1761 797.8384,837.1866 805.1003,839.2776 C834.1479,847.6413 873.8393,857.2915 917.5111,862.8618 C1004.8548,874.0023 1108.12,868.8229 1174,804.392 C1192.79,786.0151 1164.18,705.708 1182,686.392 C1279.06,581.207 1685.28,642.405 1819,591.392 C1947.65,542.314 2006.92,539.318 2078,421.392 C2097.36,389.273 2065.16,368.572 2086,337.392 C2094.99,323.936 2107.65,313.027 2121.48,304.247 " fill="none" id="ModuleParser-to-SourceFunction" style="stroke:#181818;stroke-width:1.0;stroke-dasharray:7.0,7.0;"/><polygon fill="#181818" points="2125.81,301.591,2116.0471,302.8892,2121.5485,304.2062,2120.2314,309.7076,2125.81,301.591" style="stroke:#181818;stroke-width:1.0;"/></g><!--link ModuleParser to SourceVariable--><g id="link_ModuleParser_SourceVariable"><path codeLine="84" d="M1134.7514,808.3564 C1136.224,808.2208 1137.695,808.084 1139.1641,807.946 C1150.9169,806.8417 1162.5513,805.6589 1174,804.392 C1583.97,759.026 1697.81,754.368 2078,594.392 C2218.97,535.075 2377.59,458.542 2480.85,407.363 " fill="none" id="ModuleParser-to-SourceVariable" style="stroke:#181818;stroke-width:1.0;stroke-dasharray:7.0,7.0;"/><polygon fill="#181818" points="2485.42,405.098,2475.5793,405.4999,2480.9376,407.3135,2479.1241,412.6717,2485.42,405.098" style="stroke:#181818;stroke-width:1.0;"/></g><!--SRC=[tLRDZjCm4BxtAQmzWLg5UxNgON_WmgvMhE1gkV4aDNNio9vGLSjUUG0UaIV1-MiJDsb2Mmd4AROpdfzlll6CX0W9Qc94l4B2XO4GXLOJknOgPOOb96NXciNmZ5i9978dSFZpHXiEvbPBRKXisBOX4KfcxOqJYutE52zbDYk1JJLw-TNPxPPQ2Gu4aXIt985a2SQMHw4meOH9vG494YOKUPcKgiZLTPZhcDyni_u4V1630iCGQ9R8wtV5lyMRCbnjjdDIYJy8hd8aRcG62ukc5drBVltuEIHqHPWbJKEJrxrxd24BddLcGdWl798lam8PqZgQbd21TQieKqKgyhL8KcqmNoc7_w2tJkuRCu8jfTD4gTjwQ50gb41ATqXOa55_Z8zQGKFtWJ9dUhIkjfkUAiOvBH2WjVyjhJDY2xHAcK4OPZiKkaLBwBzubaw58GQaeLQgBA0S4w5YUm8ghtsqgGZXKsT_F9uUHTdbV3A0cL73MFxBDEe3xBP0gOrMVJPrZmckDF_lQgeFZ9hc7XwDu_50u3Q52p9cDixmZEJXq576tKk134NOBRZKMfvRxfVCqEU7ZwsUiDzFwnSl4d_4krdhtb-ECKCXRV0acS9x5MetAVJtQIW46XsQkNaY6P5l0yef7iUEyTsyTESmc0VDCmbFpDXZmJ2bT4v3rmvGLnrX5vfoYkSzIU7m-85y9ytiv8pExrymk2xt-kSdfFL4CYA4kYdTGJJiLxkFUTFKtkmnrv8Y7wuI8htppcYD8uYJLmXD6Qv6oAwLtgZAc9sHZS0LvP3cr5EX07lESxCV10yGQ4Jdg5XEka6m8DvCsLZwGjMBKdyRlm_v7FWcVU5c9GTLXHpCjvv_HTzjhWTlr7pmjeFtwexcRIUTezG9Tyi9uWHdEoyUjrWtWg5aTpnAvr_fIDa8Etr035_jWU8t]--></g></svg>