<?xml version="1.0" encoding="us-ascii" standalone="no"?><svg xmlns="http://www.w3.org/2000/svg" xmlns:xlink="http://www.w3.org/1999/xlink" contentStyleType="text/css" height="1279px" preserveAspectRatio="none" style="width:2681px;height:1279px;background:#FFFFFF;" version="1.1" viewBox="0 0 2681 1279" width="2681px" zoomAndPan="magnify"><defs/><g><!--cluster main--><g id="cluster_main"><rect fill="none" height="167" rx="2.5" ry="2.5" style="stroke:#808080;stroke-width:1.5;" width="306" x="7" y="654.92"/><path d="M57,654.92 L57,664.2169 L47,674.2169 L7,674.2169 " fill="none" style="stroke:#808080;stroke-width:1.5;"/><text fill="#000000" font-family="sans-serif" font-size="14" font-weight="bold" lengthAdjust="spacing" textLength="40" x="10" y="668.9151">main</text></g><!--cluster data--><g id="cluster_data"><rect fill="none" height="351" rx="2.5" ry="2.5" style="stroke:#808080;stroke-width:1.5;" width="2141" x="534" y="922.92"/><path d="M582,922.92 L582,932.2169 L572,942.2169 L534,942.2169 " fill="none" style="stroke:#808080;stroke-width:1.5;"/><text fill="#000000" font-family="sans-serif" font-size="14" font-weight="bold" lengthAdjust="spacing" textLength="38" x="537" y="936.9151">data</text></g><!--cluster SourceFile--><g id="cluster_SourceFile"><rect fill="none" height="218" rx="2.5" ry="2.5" style="stroke:#808080;stroke-width:1.5;" width="605" x="1106" y="973.92"/><path d="M1199,973.92 L1199,983.2169 L1189,993.2169 L1106,993.2169 " fill="none" style="stroke:#808080;stroke-width:1.5;"/><text fill="#000000" font-family="sans-serif" font-size="14" font-weight="bold" lengthAdjust="spacing" textLength="83" x="1109" y="987.9151">SourceFile</text></g><!--cluster SourceFunction--><g id="cluster_SourceFunction"><rect fill="none" height="218" rx="2.5" ry="2.5" style="stroke:#808080;stroke-width:1.5;" width="219" x="2010" y="973.92"/><path d="M2146,973.92 L2146,983.2169 L2136,993.2169 L2010,993.2169 " fill="none" style="stroke:#808080;stroke-width:1.5;"/><text fill="#000000" font-family="sans-serif" font-size="14" font-weight="bold" lengthAdjust="spacing" textLength="126" x="2013" y="987.9151">SourceFunction</text></g><!--cluster SourceClass--><g id="cluster_SourceClass"><rect fill="none" height="186" rx="2.5" ry="2.5" style="stroke:#808080;stroke-width:1.5;" width="219" x="1751" y="973.92"/><path d="M1859,973.92 L1859,983.2169 L1849,993.2169 L1751,993.2169 " fill="none" style="stroke:#808080;stroke-width:1.5;"/><text fill="#000000" font-family="sans-serif" font-size="14" font-weight="bold" lengthAdjust="spacing" textLength="98" x="1754" y="987.9151">SourceClass</text></g><!--cluster SourceVariable--><g id="cluster_SourceVariable"><rect fill="none" height="167" rx="2.5" ry="2.5" style="stroke:#808080;stroke-width:1.5;" width="390" x="2261" y="1082.92"/><path d="M2393,1082.92 L2393,1092.2169 L2383,1102.2169 L2261,1102.2169 " fill="none" style="stroke:#808080;stroke-width:1.5;"/><text fill="#000000" font-family="sans-serif" font-size="14" font-weight="bold" lengthAdjust="spacing" textLength="122" x="2264" y="1096.9151">SourceVariable</text></g><!--cluster UMLFile--><g id="cluster_UMLFile"><rect fill="none" height="170" rx="2.5" ry="2.5" style="stroke:#808080;stroke-width:1.5;" width="311" x="566" y="974.92"/><path d="M638,974.92 L638,984.2169 L628,994.2169 L566,994.2169 " fill="none" style="stroke:#808080;stroke-width:1.5;"/><text fill="#000000" font-family="sans-serif" font-size="14" font-weight="bold" lengthAdjust="spacing" textLength="62" x="569" y="988.9151">UMLFile</text></g><!--cluster utils--><g id="cluster_utils"><rect fill="none" height="772" rx="2.5" ry="2.5" style="stroke:#808080;stroke-width:1.5;" width="1335.5" x="345" y="126.92"/><path d="M392,126.92 L392,136.2169 L382,146.2169 L345,146.2169 " fill="none" style="stroke:#808080;stroke-width:1.5;"/><text fill="#000000" font-family="sans-serif" font-size="14" font-weight="bold" lengthAdjust="spacing" textLength="37" x="348" y="140.9151">utils</text></g><!--cluster VariableParser--><g id="cluster_VariableParser"><rect fill="none" height="216" rx="2.5" ry="2.5" style="stroke:#808080;stroke-width:1.5;" width="1216.5" x="432" y="177.92"/><path d="M561,177.92 L561,187.2169 L551,197.2169 L432,197.2169 " fill="none" style="stroke:#808080;stroke-width:1.5;"/><text fill="#000000" font-family="sans-serif" font-size="14" font-weight="bold" lengthAdjust="spacing" textLength="119" x="435" y="191.9151">VariableParser</text></g><!--cluster PlantEncoder--><g id="cluster_PlantEncoder"><rect fill="none" height="193" rx="2.5" ry="2.5" style="stroke:#808080;stroke-width:1.5;" width="362" x="540.5" y="425.92"/><path d="M657.5,425.92 L657.5,435.2169 L647.5,445.2169 L540.5,445.2169 " fill="none" style="stroke:#808080;stroke-width:1.5;"/><text fill="#000000" font-family="sans-serif" font-size="14" font-weight="bold" lengthAdjust="spacing" textLength="107" x="543.5" y="439.9151">PlantEncoder</text></g><!--cluster ModuleParser--><g id="cluster_ModuleParser"><rect fill="none" height="216" rx="2.5" ry="2.5" style="stroke:#808080;stroke-width:1.5;" width="689" x="377" y="650.92"/><path d="M497,650.92 L497,660.2169 L487,670.2169 L377,670.2169 " fill="none" style="stroke:#808080;stroke-width:1.5;"/><text fill="#000000" font-family="sans-serif" font-size="14" font-weight="bold" lengthAdjust="spacing" textLength="110" x="380" y="664.9151">ModuleParser</text></g><g id="elem_generate_uml"><rect fill="#FFFFFF" height="20.2969" style="stroke:#181818;stroke-width:0.5;" width="258" x="31" y="697.92"/><text fill="#8B0000" font-family="sans-serif" font-size="14" lengthAdjust="spacing" textLength="99" x="38" y="712.9151">generate_uml</text><text fill="#000000" font-family="sans-serif" font-size="14" lengthAdjust="spacing" textLength="76" x="137" y="712.9151">(directory:</text><text fill="#191970" font-family="sans-serif" font-size="14" lengthAdjust="spacing" textLength="20" x="217" y="712.9151">str</text><text fill="#000000" font-family="sans-serif" font-size="14" lengthAdjust="spacing" textLength="21" x="237" y="712.9151">) &#8594;</text><text fill="#191970" font-family="sans-serif" font-size="14" lengthAdjust="spacing" textLength="20" x="262" y="712.9151">str</text></g><!--class uml--><g id="elem_uml"><rect codeLine="10" fill="#FFFFFF" height="26.2969" id="uml" rx="2.5" ry="2.5" style="stroke:#181818;stroke-width:0.5;" width="61" x="129.5" y="752.92"/><text fill="#000000" font-family="sans-serif" font-size="14" lengthAdjust="spacing" textLength="31" x="132.5" y="770.9151">uml:</text><text fill="#191970" font-family="sans-serif" font-size="14" lengthAdjust="spacing" textLength="20" x="167.5" y="770.9151">str</text></g><!--class SourceFile--><g id="elem_SourceFile"><rect codeLine="13" fill="#FFFFFF" height="131.7813" id="SourceFile" rx="2.5" ry="2.5" style="stroke:#181818;stroke-width:0.5;" width="557" x="1130" y="1016.92"/><text fill="#000000" font-family="sans-serif" font-size="14" lengthAdjust="spacing" textLength="74" x="1371.5" y="1034.9151">SourceFile</text><line style="stroke:#181818;stroke-width:0.5;" x1="1131" x2="1686" y1="1043.2169" y2="1043.2169"/><ellipse cx="1141" cy="1056.8653" fill="none" rx="3" ry="3" style="stroke:#038048;stroke-width:1.0;"/><text fill="#000000" font-family="sans-serif" font-size="14" lengthAdjust="spacing" textLength="45" x="1150" y="1060.212">name:</text><text fill="#191970" font-family="sans-serif" font-size="14" lengthAdjust="spacing" textLength="20" x="1199" y="1060.212">str</text><line style="stroke:#181818;stroke-width:0.5;" x1="1131" x2="1686" y1="1067.5138" y2="1067.5138"/><line style="stroke:#181818;stroke-width:0.5;" x1="1131" x2="1686" y1="1075.5138" y2="1075.5138"/><ellipse cx="1141" cy="1089.1622" fill="#84BE84" rx="3" ry="3" style="stroke:#038048;stroke-width:1.0;"/><text fill="#8B0000" font-family="sans-serif" font-size="14" lengthAdjust="spacing" textLength="52" x="1150" y="1092.5089">__init__</text><text fill="#000000" font-family="sans-serif" font-size="14" lengthAdjust="spacing" textLength="52" x="1202" y="1092.5089">(self) &#8594;</text><text fill="#191970" font-family="sans-serif" font-size="14" lengthAdjust="spacing" textLength="37" x="1258" y="1092.5089">None</text><ellipse cx="1141" cy="1105.4591" fill="#84BE84" rx="3" ry="3" style="stroke:#038048;stroke-width:1.0;"/><text fill="#8B0000" font-family="sans-serif" font-size="14" lengthAdjust="spacing" textLength="48" x="1150" y="1108.8057">__str__</text><text fill="#000000" font-family="sans-serif" font-size="14" lengthAdjust="spacing" textLength="52" x="1198" y="1108.8057">(self) &#8594;</text><text fill="#191970" font-family="sans-serif" font-size="14" lengthAdjust="spacing" textLength="20" x="1254" y="1108.8057">str</text><ellipse cx="1141" cy="1121.7559" fill="#84BE84" rx="3" ry="3" style="stroke:#038048;stroke-width:1.0;"/><text fill="#8B0000" font-family="sans-serif" font-size="14" lengthAdjust="spacing" textLength="131" x="1150" y="1125.1026">add_class_variable</text><text fill="#000000" font-family="sans-serif" font-size="14" lengthAdjust="spacing" textLength="132" x="1281" y="1125.1026">(self, source_class:</text><text fill="#191970" font-family="sans-serif" font-size="14" lengthAdjust="spacing" textLength="20" x="1417" y="1125.1026">str</text><text fill="#000000" font-family="sans-serif" font-size="14" lengthAdjust="spacing" textLength="70" x="1437" y="1125.1026">, variable:</text><text fill="#191970" font-family="sans-serif" font-size="14" lengthAdjust="spacing" textLength="108" x="1511" y="1125.1026">SourceVariable</text><text fill="#000000" font-family="sans-serif" font-size="14" lengthAdjust="spacing" textLength="21" x="1619" y="1125.1026">) &#8594;</text><text fill="#191970" font-family="sans-serif" font-size="14" lengthAdjust="spacing" textLength="37" x="1644" y="1125.1026">None</text><ellipse cx="1141" cy="1138.0528" fill="#84BE84" rx="3" ry="3" style="stroke:#038048;stroke-width:1.0;"/><text fill="#8B0000" font-family="sans-serif" font-size="14" lengthAdjust="spacing" textLength="169" x="1150" y="1141.3995">get_connection_strings</text><text fill="#000000" font-family="sans-serif" font-size="14" lengthAdjust="spacing" textLength="52" x="1319" y="1141.3995">(self) &#8594;</text><text fill="#191970" font-family="sans-serif" font-size="14" lengthAdjust="spacing" textLength="20" x="1375" y="1141.3995">str</text></g><!--class SourceFunction--><g id="elem_SourceFunction"><rect codeLine="24" fill="#FFFFFF" height="131.7813" id="SourceFunction" rx="2.5" ry="2.5" style="stroke:#181818;stroke-width:0.5;" width="171" x="2034" y="1016.92"/><text fill="#000000" font-family="sans-serif" font-size="14" lengthAdjust="spacing" textLength="111" x="2064" y="1034.9151">SourceFunction</text><line style="stroke:#181818;stroke-width:0.5;" x1="2035" x2="2204" y1="1043.2169" y2="1043.2169"/><ellipse cx="2045" cy="1056.8653" fill="none" rx="3" ry="3" style="stroke:#038048;stroke-width:1.0;"/><text fill="#000000" font-family="sans-serif" font-size="14" lengthAdjust="spacing" textLength="45" x="2054" y="1060.212">name:</text><text fill="#191970" font-family="sans-serif" font-size="14" lengthAdjust="spacing" textLength="20" x="2103" y="1060.212">str</text><ellipse cx="2045" cy="1073.1622" fill="none" rx="3" ry="3" style="stroke:#038048;stroke-width:1.0;"/><text fill="#000000" font-family="sans-serif" font-size="14" lengthAdjust="spacing" textLength="57" x="2054" y="1076.5089">returns:</text><text fill="#191970" font-family="sans-serif" font-size="14" lengthAdjust="spacing" textLength="20" x="2115" y="1076.5089">str</text><ellipse cx="2045" cy="1089.4591" fill="none" rx="3" ry="3" style="stroke:#038048;stroke-width:1.0;"/><text fill="#000000" font-family="sans-serif" font-size="14" lengthAdjust="spacing" textLength="46" x="2054" y="1092.8057">static:</text><text fill="#191970" font-family="sans-serif" font-size="14" lengthAdjust="spacing" textLength="27" x="2104" y="1092.8057">Any</text><line style="stroke:#181818;stroke-width:0.5;" x1="2035" x2="2204" y1="1100.1075" y2="1100.1075"/><line style="stroke:#181818;stroke-width:0.5;" x1="2035" x2="2204" y1="1108.1075" y2="1108.1075"/><ellipse cx="2045" cy="1121.7559" fill="#84BE84" rx="3" ry="3" style="stroke:#038048;stroke-width:1.0;"/><text fill="#8B0000" font-family="sans-serif" font-size="14" lengthAdjust="spacing" textLength="52" x="2054" y="1125.1026">__init__</text><text fill="#000000" font-family="sans-serif" font-size="14" lengthAdjust="spacing" textLength="52" x="2106" y="1125.1026">(self) &#8594;</text><text fill="#191970" font-family="sans-serif" font-size="14" lengthAdjust="spacing" textLength="37" x="2162" y="1125.1026">None</text><ellipse cx="2045" cy="1138.0528" fill="#84BE84" rx="3" ry="3" style="stroke:#038048;stroke-width:1.0;"/><text fill="#8B0000" font-family="sans-serif" font-size="14" lengthAdjust="spacing" textLength="48" x="2054" y="1141.3995">__str__</text><text fill="#000000" font-family="sans-serif" font-size="14" lengthAdjust="spacing" textLength="52" x="2102" y="1141.3995">(self) &#8594;</text><text fill="#191970" font-family="sans-serif" font-size="14" lengthAdjust="spacing" textLength="20" x="2158" y="1141.3995">str</text></g><!--class SourceClass--><g id="elem_SourceClass"><rect codeLine="35" fill="#FFFFFF" height="99.1875" id="SourceClass" rx="2.5" ry="2.5" style="stroke:#181818;stroke-width:0.5;" width="171" x="1775" y="1017.42"/><text fill="#000000" font-family="sans-serif" font-size="14" lengthAdjust="spacing" textLength="85" x="1818" y="1035.4151">SourceClass</text><line style="stroke:#181818;stroke-width:0.5;" x1="1776" x2="1945" y1="1043.7169" y2="1043.7169"/><ellipse cx="1786" cy="1057.3653" fill="none" rx="3" ry="3" style="stroke:#038048;stroke-width:1.0;"/><text fill="#000000" font-family="sans-serif" font-size="14" lengthAdjust="spacing" textLength="45" x="1795" y="1060.712">name:</text><text fill="#191970" font-family="sans-serif" font-size="14" lengthAdjust="spacing" textLength="20" x="1844" y="1060.712">str</text><line style="stroke:#181818;stroke-width:0.5;" x1="1776" x2="1945" y1="1068.0138" y2="1068.0138"/><line style="stroke:#181818;stroke-width:0.5;" x1="1776" x2="1945" y1="1076.0138" y2="1076.0138"/><ellipse cx="1786" cy="1089.6622" fill="#84BE84" rx="3" ry="3" style="stroke:#038048;stroke-width:1.0;"/><text fill="#8B0000" font-family="sans-serif" font-size="14" lengthAdjust="spacing" textLength="52" x="1795" y="1093.0089">__init__</text><text fill="#000000" font-family="sans-serif" font-size="14" lengthAdjust="spacing" textLength="52" x="1847" y="1093.0089">(self) &#8594;</text><text fill="#191970" font-family="sans-serif" font-size="14" lengthAdjust="spacing" textLength="37" x="1903" y="1093.0089">None</text><ellipse cx="1786" cy="1105.9591" fill="#84BE84" rx="3" ry="3" style="stroke:#038048;stroke-width:1.0;"/><text fill="#8B0000" font-family="sans-serif" font-size="14" lengthAdjust="spacing" textLength="48" x="1795" y="1109.3057">__str__</text><text fill="#000000" font-family="sans-serif" font-size="14" lengthAdjust="spacing" textLength="52" x="1843" y="1109.3057">(self) &#8594;</text><text fill="#191970" font-family="sans-serif" font-size="14" lengthAdjust="spacing" textLength="20" x="1899" y="1109.3057">str</text></g><!--class SourceVariable--><g id="elem_SourceVariable"><rect codeLine="44" fill="#FFFFFF" height="115.4844" id="SourceVariable" rx="2.5" ry="2.5" style="stroke:#181818;stroke-width:0.5;" width="358" x="2277" y="1118.42"/><text fill="#000000" font-family="sans-serif" font-size="14" lengthAdjust="spacing" textLength="108" x="2402" y="1136.4151">SourceVariable</text><line style="stroke:#181818;stroke-width:0.5;" x1="2278" x2="2634" y1="1144.7169" y2="1144.7169"/><ellipse cx="2288" cy="1158.3653" fill="none" rx="3" ry="3" style="stroke:#038048;stroke-width:1.0;"/><text fill="#000000" font-family="sans-serif" font-size="14" lengthAdjust="spacing" textLength="45" x="2297" y="1161.712">name:</text><text fill="#191970" font-family="sans-serif" font-size="14" lengthAdjust="spacing" textLength="20" x="2346" y="1161.712">str</text><ellipse cx="2288" cy="1174.6622" fill="none" rx="3" ry="3" style="stroke:#038048;stroke-width:1.0;"/><text fill="#000000" font-family="sans-serif" font-size="14" lengthAdjust="spacing" textLength="39" x="2297" y="1178.0089">type:</text><text fill="#191970" font-family="sans-serif" font-size="14" lengthAdjust="spacing" textLength="20" x="2340" y="1178.0089">str</text><line style="stroke:#181818;stroke-width:0.5;" x1="2278" x2="2634" y1="1185.3106" y2="1185.3106"/><line style="stroke:#181818;stroke-width:0.5;" x1="2278" x2="2634" y1="1193.3106" y2="1193.3106"/><ellipse cx="2288" cy="1206.9591" fill="#84BE84" rx="3" ry="3" style="stroke:#038048;stroke-width:1.0;"/><text fill="#8B0000" font-family="sans-serif" font-size="14" lengthAdjust="spacing" textLength="52" x="2297" y="1210.3057">__init__</text><text fill="#000000" font-family="sans-serif" font-size="14" lengthAdjust="spacing" textLength="84" x="2349" y="1210.3057">(self, name:</text><text fill="#191970" font-family="sans-serif" font-size="14" lengthAdjust="spacing" textLength="20" x="2437" y="1210.3057">str</text><text fill="#000000" font-family="sans-serif" font-size="14" lengthAdjust="spacing" textLength="86" x="2457" y="1210.3057">, data_type:</text><text fill="#191970" font-family="sans-serif" font-size="14" lengthAdjust="spacing" textLength="20" x="2547" y="1210.3057">str</text><text fill="#000000" font-family="sans-serif" font-size="14" lengthAdjust="spacing" textLength="21" x="2567" y="1210.3057">) &#8594;</text><text fill="#191970" font-family="sans-serif" font-size="14" lengthAdjust="spacing" textLength="37" x="2592" y="1210.3057">None</text><ellipse cx="2288" cy="1223.2559" fill="#84BE84" rx="3" ry="3" style="stroke:#038048;stroke-width:1.0;"/><text fill="#8B0000" font-family="sans-serif" font-size="14" lengthAdjust="spacing" textLength="48" x="2297" y="1226.6026">__str__</text><text fill="#000000" font-family="sans-serif" font-size="14" lengthAdjust="spacing" textLength="52" x="2345" y="1226.6026">(self) &#8594;</text><text fill="#191970" font-family="sans-serif" font-size="14" lengthAdjust="spacing" textLength="20" x="2401" y="1226.6026">str</text></g><!--class UMLFile--><g id="elem_UMLFile"><rect codeLine="54" fill="#FFFFFF" height="82.8906" id="UMLFile" rx="2.5" ry="2.5" style="stroke:#181818;stroke-width:0.5;" width="263" x="590" y="1018.42"/><text fill="#000000" font-family="sans-serif" font-size="14" lengthAdjust="spacing" textLength="54" x="694.5" y="1036.4151">UMLFile</text><line style="stroke:#181818;stroke-width:0.5;" x1="591" x2="852" y1="1044.7169" y2="1044.7169"/><line style="stroke:#181818;stroke-width:0.5;" x1="591" x2="852" y1="1052.7169" y2="1052.7169"/><line style="stroke:#181818;stroke-width:0.5;" x1="591" x2="852" y1="1060.7169" y2="1060.7169"/><ellipse cx="601" cy="1074.3653" fill="#84BE84" rx="3" ry="3" style="stroke:#038048;stroke-width:1.0;"/><text fill="#8B0000" font-family="sans-serif" font-size="14" lengthAdjust="spacing" textLength="52" x="610" y="1077.712">__init__</text><text fill="#000000" font-family="sans-serif" font-size="14" lengthAdjust="spacing" textLength="144" x="662" y="1077.712">(self, source_files) &#8594;</text><text fill="#191970" font-family="sans-serif" font-size="14" lengthAdjust="spacing" textLength="37" x="810" y="1077.712">None</text><ellipse cx="601" cy="1090.6622" fill="#84BE84" rx="3" ry="3" style="stroke:#038048;stroke-width:1.0;"/><text fill="#8B0000" font-family="sans-serif" font-size="14" lengthAdjust="spacing" textLength="48" x="610" y="1094.0089">__str__</text><text fill="#000000" font-family="sans-serif" font-size="14" lengthAdjust="spacing" textLength="52" x="658" y="1094.0089">(self) &#8594;</text><text fill="#191970" font-family="sans-serif" font-size="14" lengthAdjust="spacing" textLength="20" x="714" y="1094.0089">str</text></g><g id="elem_prefilter_file"><rect fill="#FFFFFF" height="20.2969" style="stroke:#181818;stroke-width:0.5;" width="208" x="617.5" y="275.92"/><text fill="#8B0000" font-family="sans-serif" font-size="14" lengthAdjust="spacing" textLength="91" x="624.5" y="290.9151">prefilter_file</text><text fill="#000000" font-family="sans-serif" font-size="14" lengthAdjust="spacing" textLength="74" x="715.5" y="290.9151">(file_path:</text><text fill="#191970" font-family="sans-serif" font-size="14" lengthAdjust="spacing" textLength="20" x="793.5" y="290.9151">str</text><text fill="#000000" font-family="sans-serif" font-size="14" lengthAdjust="spacing" textLength="5" x="813.5" y="290.9151">)</text></g><g id="elem_get_variables"><rect fill="#FFFFFF" height="20.2969" style="stroke:#181818;stroke-width:0.5;" width="153" x="645" y="220.92"/><text fill="#8B0000" font-family="sans-serif" font-size="14" lengthAdjust="spacing" textLength="96" x="652" y="235.9151">get_variables</text><text fill="#000000" font-family="sans-serif" font-size="14" lengthAdjust="spacing" textLength="43" x="748" y="235.9151">(lines)</text></g><g id="elem_add_variable_information"><rect fill="#FFFFFF" height="20.2969" style="stroke:#181818;stroke-width:0.5;" width="531" x="456" y="330.92"/><text fill="#8B0000" font-family="sans-serif" font-size="14" lengthAdjust="spacing" textLength="182" x="463" y="345.9151">add_variable_information</text><text fill="#000000" font-family="sans-serif" font-size="14" lengthAdjust="spacing" textLength="44" x="645" y="345.9151">(path:</text><text fill="#191970" font-family="sans-serif" font-size="14" lengthAdjust="spacing" textLength="20" x="693" y="345.9151">str</text><text fill="#000000" font-family="sans-serif" font-size="14" lengthAdjust="spacing" textLength="90" x="713" y="345.9151">, source_file:</text><text fill="#191970" font-family="sans-serif" font-size="14" lengthAdjust="spacing" textLength="74" x="807" y="345.9151">SourceFile</text><text fill="#000000" font-family="sans-serif" font-size="14" lengthAdjust="spacing" textLength="21" x="881" y="345.9151">) &#8594;</text><text fill="#191970" font-family="sans-serif" font-size="14" lengthAdjust="spacing" textLength="74" x="906" y="345.9151">SourceFile</text></g><g id="elem_substring_between"><rect fill="#FFFFFF" height="20.2969" style="stroke:#181818;stroke-width:0.5;" width="432" x="1192.5" y="275.92"/><text fill="#8B0000" font-family="sans-serif" font-size="14" lengthAdjust="spacing" textLength="138" x="1199.5" y="290.9151">substring_between</text><text fill="#000000" font-family="sans-serif" font-size="14" lengthAdjust="spacing" textLength="52" x="1337.5" y="290.9151">(string:</text><text fill="#191970" font-family="sans-serif" font-size="14" lengthAdjust="spacing" textLength="20" x="1393.5" y="290.9151">str</text><text fill="#000000" font-family="sans-serif" font-size="14" lengthAdjust="spacing" textLength="62" x="1413.5" y="290.9151">, before:</text><text fill="#191970" font-family="sans-serif" font-size="14" lengthAdjust="spacing" textLength="20" x="1479.5" y="290.9151">str</text><text fill="#000000" font-family="sans-serif" font-size="14" lengthAdjust="spacing" textLength="49" x="1499.5" y="290.9151">, after:</text><text fill="#191970" font-family="sans-serif" font-size="14" lengthAdjust="spacing" textLength="20" x="1552.5" y="290.9151">str</text><text fill="#000000" font-family="sans-serif" font-size="14" lengthAdjust="spacing" textLength="21" x="1572.5" y="290.9151">) &#8594;</text><text fill="#191970" font-family="sans-serif" font-size="14" lengthAdjust="spacing" textLength="20" x="1597.5" y="290.9151">str</text></g><g id="elem_encode"><rect fill="#FFFFFF" height="20.2969" style="stroke:#181818;stroke-width:0.5;" width="330" x="556.5" y="460.92"/><text fill="#8B0000" font-family="sans-serif" font-size="14" lengthAdjust="spacing" textLength="53" x="563.5" y="475.9151">encode</text><text fill="#000000" font-family="sans-serif" font-size="14" lengthAdjust="spacing" textLength="68" x="616.5" y="475.9151">(diagram:</text><text fill="#191970" font-family="sans-serif" font-size="14" lengthAdjust="spacing" textLength="20" x="688.5" y="475.9151">str</text><text fill="#000000" font-family="sans-serif" font-size="14" lengthAdjust="spacing" textLength="102" x="708.5" y="475.9151">, render_type:</text><text fill="#191970" font-family="sans-serif" font-size="14" lengthAdjust="spacing" textLength="20" x="814.5" y="475.9151">str</text><text fill="#000000" font-family="sans-serif" font-size="14" lengthAdjust="spacing" textLength="21" x="834.5" y="475.9151">) &#8594;</text><text fill="#191970" font-family="sans-serif" font-size="14" lengthAdjust="spacing" textLength="20" x="859.5" y="475.9151">str</text></g><!--class plantuml_alphabet--><g id="elem_plantuml_alphabet"><rect codeLine="69" fill="#FFFFFF" height="26.2969" id="plantuml_alphabet" rx="2.5" ry="2.5" style="stroke:#181818;stroke-width:0.5;" width="178" x="632.5" y="515.92"/><text fill="#000000" font-family="sans-serif" font-size="14" lengthAdjust="spacing" textLength="141" x="635.5" y="533.9151">plantuml_alphabet:</text><text fill="#191970" font-family="sans-serif" font-size="14" lengthAdjust="spacing" textLength="27" x="780.5" y="533.9151">Any</text></g><!--class base64_alphabet--><g id="elem_base64_alphabet"><rect codeLine="70" fill="#FFFFFF" height="26.2969" id="base64_alphabet" rx="2.5" ry="2.5" style="stroke:#181818;stroke-width:0.5;" width="165" x="639" y="576.92"/><text fill="#000000" font-family="sans-serif" font-size="14" lengthAdjust="spacing" textLength="128" x="642" y="594.9151">base64_alphabet:</text><text fill="#191970" font-family="sans-serif" font-size="14" lengthAdjust="spacing" textLength="27" x="774" y="594.9151">Any</text></g><g id="elem_annotation_to_string"><rect fill="#FFFFFF" height="20.2969" style="stroke:#181818;stroke-width:0.5;" width="447" x="498" y="693.92"/><text fill="#8B0000" font-family="sans-serif" font-size="14" lengthAdjust="spacing" textLength="151" x="505" y="708.9151">annotation_to_string</text><text fill="#000000" font-family="sans-serif" font-size="14" lengthAdjust="spacing" textLength="46" x="656" y="708.9151">(node:</text><text fill="#191970" font-family="sans-serif" font-size="14" lengthAdjust="spacing" textLength="108" x="706" y="708.9151">NodeNG | None</text><text fill="#000000" font-family="sans-serif" font-size="14" lengthAdjust="spacing" textLength="55" x="814" y="708.9151">, string:</text><text fill="#191970" font-family="sans-serif" font-size="14" lengthAdjust="spacing" textLength="20" x="873" y="708.9151">str</text><text fill="#000000" font-family="sans-serif" font-size="14" lengthAdjust="spacing" textLength="21" x="893" y="708.9151">) &#8594;</text><text fill="#191970" font-family="sans-serif" font-size="14" lengthAdjust="spacing" textLength="20" x="918" y="708.9151">str</text></g><g id="elem_get_function"><rect fill="#FFFFFF" height="20.2969" style="stroke:#181818;stroke-width:0.5;" width="380" x="531.5" y="748.92"/><text fill="#8B0000" font-family="sans-serif" font-size="14" lengthAdjust="spacing" textLength="92" x="538.5" y="763.9151">get_function</text><text fill="#000000" font-family="sans-serif" font-size="14" lengthAdjust="spacing" textLength="46" x="630.5" y="763.9151">(node:</text><text fill="#191970" font-family="sans-serif" font-size="14" lengthAdjust="spacing" textLength="88" x="680.5" y="763.9151">FunctionDef</text><text fill="#000000" font-family="sans-serif" font-size="14" lengthAdjust="spacing" textLength="21" x="768.5" y="763.9151">) &#8594;</text><text fill="#191970" font-family="sans-serif" font-size="14" lengthAdjust="spacing" textLength="111" x="793.5" y="763.9151">SourceFunction</text></g><g id="elem_get_module_info"><rect fill="#FFFFFF" height="20.2969" style="stroke:#181818;stroke-width:0.5;" width="641" x="401" y="803.92"/><text fill="#8B0000" font-family="sans-serif" font-size="14" lengthAdjust="spacing" textLength="120" x="408" y="818.9151">get_module_info</text><text fill="#000000" font-family="sans-serif" font-size="14" lengthAdjust="spacing" textLength="74" x="528" y="818.9151">(file_path:</text><text fill="#191970" font-family="sans-serif" font-size="14" lengthAdjust="spacing" textLength="20" x="606" y="818.9151">str</text><text fill="#000000" font-family="sans-serif" font-size="14" lengthAdjust="spacing" textLength="274" x="626" y="818.9151">, known_modules, with_dependencies:</text><text fill="#191970" font-family="sans-serif" font-size="14" lengthAdjust="spacing" textLength="32" x="904" y="818.9151">bool</text><text fill="#000000" font-family="sans-serif" font-size="14" lengthAdjust="spacing" textLength="21" x="936" y="818.9151">) &#8594;</text><text fill="#191970" font-family="sans-serif" font-size="14" lengthAdjust="spacing" textLength="74" x="961" y="818.9151">SourceFile</text></g><!--link main to SourceFile--><g id="link_main_SourceFile"><path codeLine="77" d="M180.6995,821.9482 C181.3846,822.2216 182.0851,822.5005 182.8005,822.7849 C184.2313,823.3537 185.722,823.944 187.2692,824.5541 C190.3637,825.7744 193.6845,827.0739 197.2056,828.4387 C204.2479,831.1682 212.0917,834.1587 220.5294,837.2979 C254.28,849.8545 297.5325,864.79 337,874.92 C662.342,958.424 778.656,857.687 1082,1001.92 C1086.27,1003.949 1085.8,1006.764 1090,1008.92 C1101.23,1014.678 1112.9,1019.994 1124.87,1024.902 " fill="none" id="main-to-SourceFile" style="stroke:#181818;stroke-width:1.0;stroke-dasharray:7.0,7.0;"/><polygon fill="#181818" points="1129.65,1026.834,1122.8025,1019.755,1125.0138,1024.9618,1119.807,1027.173,1129.65,1026.834" style="stroke:#181818;stroke-width:1.0;"/></g><!--link main to UMLFile--><g id="link_main_UMLFile"><path codeLine="78" d="M168.3048,822.0321 C168.4097,822.1463 168.5157,822.2616 168.6227,822.3779 C168.8368,822.6105 169.0551,822.8474 169.2776,823.0885 C169.7226,823.5706 170.1843,824.0696 170.6625,824.5847 C172.5752,826.6451 174.7509,828.9648 177.1708,831.5085 C186.8503,841.6833 200.4358,855.4419 216.7144,870.5279 C249.2715,900.6998 292.601,936.181 337,958.92 C414.504,998.613 509.03,1023.738 584.842,1039.001 " fill="none" id="main-to-UMLFile" style="stroke:#181818;stroke-width:1.0;stroke-dasharray:7.0,7.0;"/><polygon fill="#181818" points="589.808,1039.992,581.7647,1034.3082,584.9047,1039.0136,580.1993,1042.1536,589.808,1039.992" style="stroke:#181818;stroke-width:1.0;"/></g><!--link main to get_module_info--><g id="link_main_get_module_info"><path codeLine="79" d="M313.5419,813.92 C315.2691,813.92 317.0045,813.92 318.7478,813.92 C322.2343,813.92 325.7523,813.92 329.2989,813.92 C336.392,813.92 343.5994,813.92 350.8981,813.92 C365.4955,813.92 380.4581,813.92 395.602,813.92 " fill="none" id="main-to-get_module_info" style="stroke:#181818;stroke-width:1.0;stroke-dasharray:7.0,7.0;"/><polygon fill="#181818" points="400.647,813.92,391.647,809.92,395.647,813.92,391.647,817.92,400.647,813.92" style="stroke:#181818;stroke-width:1.0;"/></g><!--link main to encode--><g id="link_main_encode"><path codeLine="80" d="M197.6081,822.0189 C197.8402,822.0559 198.0731,822.0928 198.3067,822.1295 C198.774,822.2029 199.2443,822.2757 199.7174,822.3479 C200.6638,822.4922 201.6218,822.634 202.5909,822.7727 C210.3434,823.8824 218.8008,824.7964 227.6211,825.2763 C262.9025,827.1955 303.991,822.167 329,794.92 C351.248,770.681 314.275,522.712 337,498.92 C427.802,403.855 605.837,438.478 683.167,459.519 " fill="none" id="main-to-encode" style="stroke:#181818;stroke-width:1.0;stroke-dasharray:7.0,7.0;"/><polygon fill="#181818" points="688.113,460.883,680.5012,454.6332,683.2931,459.553,678.3733,462.345,688.113,460.883" style="stroke:#181818;stroke-width:1.0;"/></g><!--link main to add_variable_information--><g id="link_main_add_variable_information"><path codeLine="81" d="M196.9732,821.9618 C198.8204,822.2622 200.717,822.5541 202.6575,822.8338 C210.4198,823.9524 218.8865,824.8749 227.7141,825.3614 C263.0248,827.3073 304.1115,822.277 329,794.92 C345.452,776.836 319.871,372.365 337,354.92 C376.017,315.182 527.622,321.374 628.127,330.455 " fill="none" id="main-to-add_variable_information" style="stroke:#181818;stroke-width:1.0;stroke-dasharray:7.0,7.0;"/><polygon fill="#181818" points="633.173,330.917,624.5751,326.1133,628.1938,330.4612,623.8459,334.08,633.173,330.917" style="stroke:#181818;stroke-width:1.0;"/></g><!--link SourceFile to SourceClass--><g id="link_SourceFile_SourceClass"><path codeLine="82" d="M1436.7231,1192.1506 C1437.0216,1192.2317 1437.3221,1192.3132 1437.6248,1192.395 C1438.2301,1192.5585 1438.8437,1192.7232 1439.4656,1192.889 C1441.9528,1193.5523 1444.5711,1194.2332 1447.3109,1194.9245 C1469.23,1200.4555 1498.9363,1206.6583 1531.695,1209.9061 C1597.2125,1216.4018 1674.94,1211.0778 1727,1164.92 C1741.87,1151.734 1722.65,1136.491 1735,1120.92 C1744.34,1109.147 1756.76,1099.888 1770.14,1092.621 " fill="none" id="SourceFile-to-SourceClass" style="stroke:#181818;stroke-width:1.0;stroke-dasharray:7.0,7.0;"/><polygon fill="#181818" points="1774.71,1090.233,1764.8823,1090.8785,1770.2839,1092.5588,1768.6036,1097.9603,1774.71,1090.233" style="stroke:#181818;stroke-width:1.0;"/></g><!--link SourceFile to SourceFunction--><g id="link_SourceFile_SourceFunction"><path codeLine="83" d="M1437.0863,1192.1086 C1437.4959,1192.2221 1437.9096,1192.3365 1438.3274,1192.4517 C1439.1631,1192.6821 1440.0151,1192.9158 1440.8834,1193.1527 C1442.6199,1193.6265 1444.4212,1194.1128 1446.2854,1194.6104 C1453.7422,1196.6007 1462.2059,1198.7704 1471.5572,1201.0306 C1508.9625,1210.0716 1560.5713,1220.5612 1618.765,1226.8108 C1735.1525,1239.31 1877.88,1234.8493 1986,1167.92 C1992.42,1163.943 1988.72,1158.322 1994,1152.92 C2004.36,1142.328 2016.66,1132.868 2029.44,1124.587 " fill="none" id="SourceFile-to-SourceFunction" style="stroke:#181818;stroke-width:1.0;stroke-dasharray:7.0,7.0;"/><polygon fill="#181818" points="2033.79,1121.824,2024.0496,1123.2817,2029.5718,1124.5086,2028.3449,1130.0308,2033.79,1121.824" style="stroke:#181818;stroke-width:1.0;"/></g><!--link SourceFile to SourceVariable--><g id="link_SourceFile_SourceVariable"><path codeLine="84" d="M1445.3272,1191.9991 C1445.643,1192.0679 1445.9606,1192.137 1446.28,1192.2065 C1447.5574,1192.4843 1448.8634,1192.7675 1450.1971,1193.0556 C1452.8645,1193.632 1455.6428,1194.2285 1458.5258,1194.8431 C1464.2919,1196.0722 1470.4767,1197.3736 1477.0309,1198.7301 C1490.1392,1201.443 1504.725,1204.3766 1520.3925,1207.3943 C1583.0625,1219.4653 1663.04,1232.8833 1735,1238.92 C1961.05,1257.8833 2020.36,1250.466 2245,1218.92 C2253.78,1217.6864 2262.75,1216.3098 2271.8,1214.8274 " fill="none" id="SourceFile-to-SourceVariable" style="stroke:#181818;stroke-width:1.0;stroke-dasharray:7.0,7.0;"/><polygon fill="#181818" points="2276.83,1213.9932,2267.2987,1211.5125,2271.8968,1214.8076,2268.6017,1219.4057,2276.83,1213.9932" style="stroke:#181818;stroke-width:1.0;"/></g><!--link SourceFunction to SourceVariable--><g id="link_SourceFunction_SourceVariable"><path codeLine="85" d="M2229.3708,1181.3163 C2233.9073,1181.2078 2238.5092,1181.0977 2243.1609,1180.9865 C2252.4642,1180.7641 2261.9663,1180.5369 2271.54,1180.308 " fill="none" id="SourceFunction-to-SourceVariable" style="stroke:#181818;stroke-width:1.0;stroke-dasharray:7.0,7.0;"/><polygon fill="#181818" points="2276.59,1180.187,2267.5009,1176.3938,2271.5913,1180.3013,2267.6838,1184.3917,2276.59,1180.187" style="stroke:#181818;stroke-width:1.0;"/></g><!--link SourceClass to SourceFunction--><g id="link_SourceClass_SourceFunction"><path codeLine="86" d="M1970.0122,1136.7541 C1970.2293,1136.7063 1970.4463,1136.6584 1970.6632,1136.6104 C1972.3982,1136.2261 1974.1254,1135.8334 1975.8423,1135.4321 C1979.2761,1134.6294 1982.6688,1133.7924 1986,1132.92 C2000.1,1129.226 2014.78,1124.561 2029.01,1119.573 " fill="none" id="SourceClass-to-SourceFunction" style="stroke:#181818;stroke-width:1.0;stroke-dasharray:7.0,7.0;"/><polygon fill="#181818" points="2033.82,1117.87,2024.0006,1117.1084,2029.1076,1119.5413,2026.6747,1124.6482,2033.82,1117.87" style="stroke:#181818;stroke-width:1.0;"/></g><!--link SourceClass to SourceVariable--><g id="link_SourceClass_SourceVariable"><path codeLine="87" d="M1878.072,1160.059 C1878.2063,1160.1222 1878.3414,1160.1857 1878.4772,1160.2495 C1878.7487,1160.3771 1879.023,1160.5058 1879.3,1160.6355 C1879.8541,1160.895 1880.4191,1161.1586 1880.9947,1161.4261 C1883.2973,1162.4962 1885.77,1163.6293 1888.3944,1164.8107 C1893.6432,1167.1733 1899.4984,1169.7287 1905.8113,1172.3586 C1931.0625,1182.8783 1963.635,1194.5895 1994,1199.92 C2084.65,1215.8333 2186.74,1212.6402 2271.76,1204.2802 " fill="none" id="SourceClass-to-SourceVariable" style="stroke:#181818;stroke-width:1.0;stroke-dasharray:7.0,7.0;"/><polygon fill="#181818" points="2276.82,1203.7746,2267.4651,1200.6946,2271.8451,1204.2746,2268.2651,1208.6545,2276.82,1203.7746" style="stroke:#181818;stroke-width:1.0;"/></g><!--link UMLFile to SourceFile--><g id="link_UMLFile_SourceFile"><path codeLine="88" d="M877.8149,1130.5571 C878.3963,1130.5289 878.9786,1130.5005 879.5618,1130.4721 C881.8945,1130.3585 884.2412,1130.2433 886.6012,1130.1266 C891.321,1129.8932 896.0935,1129.6537 900.9117,1129.4081 C920.1845,1128.4258 940.1881,1127.3461 960.4744,1126.1683 C1001.047,1123.8128 1042.7505,1121.065 1082,1117.92 C1095.88,1116.808 1110.08,1115.589 1124.41,1114.292 " fill="none" id="UMLFile-to-SourceFile" style="stroke:#181818;stroke-width:1.0;stroke-dasharray:7.0,7.0;"/><polygon fill="#181818" points="1129.7,1113.811,1120.372,1110.6507,1124.7209,1114.2682,1121.1035,1118.6172,1129.7,1113.811" style="stroke:#181818;stroke-width:1.0;"/></g><!--link VariableParser to SourceFile--><g id="link_VariableParser_SourceFile"><path codeLine="89" d="M1007.7783,394.1248 C1008.3525,394.3585 1008.9256,394.5943 1009.4976,394.8322 C1018.6503,398.6379 1027.5318,402.9718 1036.0477,407.8922 C1053.0795,417.733 1068.6488,429.9199 1082,444.92 C1094.72,459.211 1083.94,598.773 1090,616.92 C1142.55,774.293 1264.68,927.536 1341.22,1013.142 " fill="none" id="VariableParser-to-SourceFile" style="stroke:#181818;stroke-width:1.0;stroke-dasharray:7.0,7.0;"/><polygon fill="#181818" points="1344.61,1016.915,1341.5685,1007.5476,1341.2675,1013.1964,1335.6187,1012.8955,1344.61,1016.915" style="stroke:#181818;stroke-width:1.0;"/></g><!--link VariableParser to SourceVariable--><g id="link_VariableParser_SourceVariable"><path codeLine="90" d="M816.2591,393.9646 C818.2469,394.1823 820.2572,394.4052 822.2889,394.6335 C830.416,395.5468 838.8873,396.5463 847.6435,397.6385 C917.6928,406.3758 1005.969,421.0415 1082,444.92 C1628.6,616.587 1762.76,691.587 2245,1000.92 C2297.05,1034.307 2350.52,1079.042 2390.47,1114.925 " fill="none" id="VariableParser-to-SourceVariable" style="stroke:#181818;stroke-width:1.0;stroke-dasharray:7.0,7.0;"/><polygon fill="#181818" points="2394.3,1118.369,2390.2845,1109.3759,2390.5829,1115.0249,2384.9339,1115.3233,2394.3,1118.369" style="stroke:#181818;stroke-width:1.0;"/></g><!--link ModuleParser to SourceFile--><g id="link_ModuleParser_SourceFile"><path codeLine="91" d="M1022.1204,867.205 C1022.6855,867.455 1023.2495,867.7071 1023.8125,867.9614 C1024.9384,868.4699 1026.0598,868.9868 1027.1766,869.5125 C1029.4103,870.5637 1031.6256,871.6493 1033.8211,872.7703 C1051.3849,881.7382 1067.6815,892.9679 1082,906.92 C1098.12,922.626 1075.92,939.362 1090,956.92 C1108.5,979.992 1131.84,998.856 1157.43,1014.276 " fill="none" id="ModuleParser-to-SourceFile" style="stroke:#181818;stroke-width:1.0;stroke-dasharray:7.0,7.0;"/><polygon fill="#181818" points="1161.89,1016.918,1156.1769,1008.8955,1157.5855,1014.3742,1152.1068,1015.7827,1161.89,1016.918" style="stroke:#181818;stroke-width:1.0;"/></g><!--link ModuleParser to SourceClass--><g id="link_ModuleParser_SourceClass"><path codeLine="92" d="M804.5388,867.0411 C805.542,867.143 806.553,867.2459 807.5717,867.3496 C809.6092,867.5571 811.6775,867.7681 813.7762,867.9825 C817.9735,868.4113 822.2919,868.854 826.7264,869.3101 C835.5953,870.2224 844.9283,871.1888 854.6847,872.2068 C932.7363,880.3506 1037.8891,891.7971 1149.3326,905.2963 C1372.2198,932.2945 1620.27,967.503 1727,1000.92 C1741.32,1005.404 1756.01,1011.277 1770.14,1017.672 " fill="none" id="ModuleParser-to-SourceClass" style="stroke:#181818;stroke-width:1.0;stroke-dasharray:7.0,7.0;"/><polygon fill="#181818" points="1774.91,1019.859,1768.3789,1012.4871,1770.3601,1017.7857,1765.0616,1019.7669,1774.91,1019.859" style="stroke:#181818;stroke-width:1.0;"/></g><!--link ModuleParser to SourceFunction--><g id="link_ModuleParser_SourceFunction"><path codeLine="93" d="M1068.8405,861.4965 C1070.3736,861.5462 1071.9099,861.5965 1073.4494,861.6473 C1076.5284,861.7491 1079.6202,861.8533 1082.7244,861.9601 C1088.9328,862.1735 1095.1909,862.397 1101.4962,862.631 C1114.1066,863.0988 1126.9056,863.6085 1139.8727,864.1632 C1165.8067,865.2725 1192.4129,866.5621 1219.5271,868.058 C1273.7554,871.0498 1330.0157,874.8669 1386.9952,879.7187 C1500.9543,889.4223 1617.79,903.2645 1727,922.92 C1845.32,944.215 1876.4,951.533 1986,1000.92 C2000.42,1007.416 2015.16,1015.221 2029.32,1023.398 " fill="none" id="ModuleParser-to-SourceFunction" style="stroke:#181818;stroke-width:1.0;stroke-dasharray:7.0,7.0;"/><polygon fill="#181818" points="2033.7,1025.947,2027.9324,1017.9636,2029.3783,1023.4325,2023.9093,1024.8784,2033.7,1025.947" style="stroke:#181818;stroke-width:1.0;"/></g><!--link ModuleParser to SourceVariable--><g id="link_ModuleParser_SourceVariable"><path codeLine="94" d="M745.8436,866.9485 C746.4572,867.1438 747.0815,867.3415 747.7162,867.5414 C752.7938,869.1406 758.5396,870.8808 764.8612,872.6884 C790.148,879.9189 824.6499,888.2288 862.4689,892.9148 C938.1068,902.2868 1027.0125,897.1635 1082,839.92 C1094.22,827.198 1077.45,217.31 1090,204.92 C1291.45,6 1456.84,120.26 1727,204.92 C1994.53,288.76 2075.94,341.263 2245,564.92 C2374.96,736.851 2428.14,994.894 2446.58,1112.929 " fill="none" id="ModuleParser-to-SourceVariable" style="stroke:#181818;stroke-width:1.0;stroke-dasharray:7.0,7.0;"/><polygon fill="#181818" points="2447.38,1118.1,2449.9577,1108.5945,2446.616,1113.1587,2442.0517,1109.8169,2447.38,1118.1" style="stroke:#181818;stroke-width:1.0;"/></g><!--SRC=[tLVDRjim3BxdAOIUDZJmBiCEGH5WQTTTrg9OiLq5sQOJBRPaIFA2eEjr3x17t9DC_f5ZorQiPWNs0mI89PCV-L4KIQUGAAGu4dIzKIYc0Y95EPl9BMKv4IH3EOcsP0ttQfy2IlGE35-kk8X1NFAK2xGMPD-HY58YvKgBhGKlM5pBx3PKTM5u-4NR7PVQq1WGPBdQemoo48Iijo8geXHcZGSeo0Xbw65MGw6pYwZ4M5mHiVq8yN8D30HHW8iilNXLlLk-gEboiL-WHlo6ngoCn2ejO2cLCA8lqS_lFwQ4pX2Hg6jeLf57P_fnuQLSwZmUACL4aU2U5oA2QwgZ_z00zhRE4TDdCea_mxZydIChC1XJHXN6RL0af8cRxYrdq4AEW6cBtbXTxmPG98vnnHP_9OAIC8KUwXp9AWYrp2JxEJ8euw9rH3zRbauDmneKZZXZzLqgOqBPMfuGbKTNDXIiWhOpuh3jcnNdI80g19C-eb8HHQDnoRTi_u-acYkebrKa-n4rU__79NCnDtblaUzi-wUJskVF7AUvd-qvAXbXB_j_G-W_tNpe5VN3-cd1QUfWedNb7-PLA9hAmAJD7H4IXBibvmAqqmf4vNjhkrpWdAZDz2bMFRCFu-x_gcqaXqgSKgQ3rlJjZe0BfMnAHaYVHi95Hig2sm9w-TqxisFzw9hwzAAXR4N8vQkBcop2kb7X4DGEu42gtlQW5OAsudDJIQBFwnc7he7lmwoyImbJxrZ4usCv2PL0Pq0aUfpDF1W9O1huTwkFpQjsnuoHUKb1ZuYOfFc6QAQJdRY-8BQQmGk9X3UlduXcAGq3VSFZOlho4yQugl8HAzvCI6tOcIQzS9In66xVes-eMy_qVVBBKF_0ZxbthBGapUJbGS4CQLUGUDzj2xqjMCRiCTUowZog2d12ZPsZBUCxrg38ETfHjS4nv6M-iuY2Ot0CEKzFBbsMsph7wg-x85WYwvkeysWBDGtL_7TU3nCri4tQmjto4JJNqfRfDxx0MO07ttKMhshex3vFQfW4iPQJUiPZQpaR_TOuGRSUdqzmTbJnk4KpFqqboUYGyXnAJlT6wgAVlMCg8qdYOSSL-cbL1xjV]--></g></svg>