<?xml version="1.0" encoding="us-ascii" standalone="no"?><svg xmlns="http://www.w3.org/2000/svg" xmlns:xlink="http://www.w3.org/1999/xlink" contentStyleType="text/css" height="930px" preserveAspectRatio="none" style="width:3494px;height:930px;background:#FFFFFF;" version="1.1" viewBox="0 0 3494 930" width="3494px" zoomAndPan="magnify"><defs/><g><!--cluster main--><g id="cluster_main"><rect fill="none" height="106" rx="2.5" ry="2.5" style="stroke:#808080;stroke-width:1.5;" width="300" x="7" y="276.51"/><path d="M56,276.51 L56,285.8069 L46,295.8069 L7,295.8069 " fill="none" style="stroke:#808080;stroke-width:1.5;"/><text fill="#000000" font-family="sans-serif" font-size="14" font-weight="bold" lengthAdjust="spacing" textLength="39" x="10" y="290.5051">main</text></g><!--cluster data--><g id="cluster_data"><rect fill="none" height="343" rx="2.5" ry="2.5" style="stroke:#808080;stroke-width:1.5;" width="3149" x="339" y="13.51"/><path d="M384,13.51 L384,22.8069 L374,32.8069 L339,32.8069 " fill="none" style="stroke:#808080;stroke-width:1.5;"/><text fill="#000000" font-family="sans-serif" font-size="14" font-weight="bold" lengthAdjust="spacing" textLength="35" x="342" y="27.5051">data</text></g><!--cluster SourceFile--><g id="cluster_SourceFile"><rect fill="none" height="260" rx="2.5" ry="2.5" style="stroke:#808080;stroke-width:1.5;" width="310" x="1103" y="64.51"/><path d="M1198,64.51 L1198,73.8069 L1188,83.8069 L1103,83.8069 " fill="none" style="stroke:#808080;stroke-width:1.5;"/><text fill="#000000" font-family="sans-serif" font-size="14" font-weight="bold" lengthAdjust="spacing" textLength="85" x="1106" y="78.5051">SourceFile</text></g><!--cluster SourceFunction--><g id="cluster_SourceFunction"><rect fill="none" height="191" rx="2.5" ry="2.5" style="stroke:#808080;stroke-width:1.5;" width="292" x="2067" y="141.51"/><path d="M2202,141.51 L2202,150.8069 L2192,160.8069 L2067,160.8069 " fill="none" style="stroke:#808080;stroke-width:1.5;"/><text fill="#000000" font-family="sans-serif" font-size="14" font-weight="bold" lengthAdjust="spacing" textLength="125" x="2070" y="155.5051">SourceFunction</text></g><!--cluster SourceClass--><g id="cluster_SourceClass"><rect fill="none" height="207" rx="2.5" ry="2.5" style="stroke:#808080;stroke-width:1.5;" width="292" x="1747" y="125.51"/><path d="M1852,125.51 L1852,134.8069 L1842,144.8069 L1747,144.8069 " fill="none" style="stroke:#808080;stroke-width:1.5;"/><text fill="#000000" font-family="sans-serif" font-size="14" font-weight="bold" lengthAdjust="spacing" textLength="95" x="1750" y="139.5051">SourceClass</text></g><!--cluster SourceType--><g id="cluster_SourceType"><rect fill="none" height="157" rx="2.5" ry="2.5" style="stroke:#808080;stroke-width:1.5;" width="515" x="2949" y="175.51"/><path d="M3053,175.51 L3053,184.8069 L3043,194.8069 L2949,194.8069 " fill="none" style="stroke:#808080;stroke-width:1.5;"/><text fill="#000000" font-family="sans-serif" font-size="14" font-weight="bold" lengthAdjust="spacing" textLength="94" x="2952" y="189.5051">SourceType</text></g><!--cluster SourceVariable--><g id="cluster_SourceVariable"><rect fill="none" height="191" rx="2.5" ry="2.5" style="stroke:#808080;stroke-width:1.5;" width="534" x="2387" y="56.51"/><path d="M2518,56.51 L2518,65.8069 L2508,75.8069 L2387,75.8069 " fill="none" style="stroke:#808080;stroke-width:1.5;"/><text fill="#000000" font-family="sans-serif" font-size="14" font-weight="bold" lengthAdjust="spacing" textLength="121" x="2390" y="70.5051">SourceVariable</text></g><!--cluster UMLFile--><g id="cluster_UMLFile"><rect fill="none" height="143" rx="2.5" ry="2.5" style="stroke:#808080;stroke-width:1.5;" width="406" x="363" y="189.51"/><path d="M437,189.51 L437,198.8069 L427,208.8069 L363,208.8069 " fill="none" style="stroke:#808080;stroke-width:1.5;"/><text fill="#000000" font-family="sans-serif" font-size="14" font-weight="bold" lengthAdjust="spacing" textLength="64" x="366" y="203.5051">UMLFile</text></g><!--cluster utils--><g id="cluster_utils"><rect fill="none" height="544" rx="2.5" ry="2.5" style="stroke:#808080;stroke-width:1.5;" width="930" x="793" y="380.51"/><path d="M838,380.51 L838,389.8069 L828,399.8069 L793,399.8069 " fill="none" style="stroke:#808080;stroke-width:1.5;"/><text fill="#000000" font-family="sans-serif" font-size="14" font-weight="bold" lengthAdjust="spacing" textLength="35" x="796" y="394.5051">utils</text></g><!--cluster PackageTools--><g id="cluster_PackageTools"><rect fill="none" height="71" rx="2.5" ry="2.5" style="stroke:#808080;stroke-width:1.5;" width="507" x="1004.5" y="423.51"/><path d="M1122.5,423.51 L1122.5,432.8069 L1112.5,442.8069 L1004.5,442.8069 " fill="none" style="stroke:#808080;stroke-width:1.5;"/><text fill="#000000" font-family="sans-serif" font-size="14" font-weight="bold" lengthAdjust="spacing" textLength="108" x="1007.5" y="437.5051">PackageTools</text></g><!--cluster PlantEncoder--><g id="cluster_PlantEncoder"><rect fill="none" height="71" rx="2.5" ry="2.5" style="stroke:#808080;stroke-width:1.5;" width="355" x="1080.5" y="518.51"/><path d="M1196.5,518.51 L1196.5,527.8069 L1186.5,537.8069 L1080.5,537.8069 " fill="none" style="stroke:#808080;stroke-width:1.5;"/><text fill="#000000" font-family="sans-serif" font-size="14" font-weight="bold" lengthAdjust="spacing" textLength="106" x="1083.5" y="532.5051">PlantEncoder</text></g><!--cluster ModuleParser--><g id="cluster_ModuleParser"><rect fill="none" height="271" rx="2.5" ry="2.5" style="stroke:#808080;stroke-width:1.5;" width="866" x="825" y="621.51"/><path d="M945,621.51 L945,630.8069 L935,640.8069 L825,640.8069 " fill="none" style="stroke:#808080;stroke-width:1.5;"/><text fill="#000000" font-family="sans-serif" font-size="14" font-weight="bold" lengthAdjust="spacing" textLength="110" x="828" y="635.5051">ModuleParser</text></g><g id="elem_generate_uml"><rect fill="#FFFFFF" height="20.2969" style="stroke:#181818;stroke-width:0.5;" width="252" x="31" y="319.51"/><text fill="#8B0000" font-family="sans-serif" font-size="14" lengthAdjust="spacing" textLength="99" x="38" y="334.5051">generate_uml</text><text fill="#000000" font-family="sans-serif" font-size="14" lengthAdjust="spacing" textLength="74" x="137" y="334.5051">(directory:</text><text fill="#191970" font-family="sans-serif" font-size="14" lengthAdjust="spacing" textLength="18" x="215" y="334.5051">str</text><text fill="#000000" font-family="sans-serif" font-size="14" lengthAdjust="spacing" textLength="21" x="233" y="334.5051">) &#8594;</text><text fill="#191970" font-family="sans-serif" font-size="14" lengthAdjust="spacing" textLength="18" x="258" y="334.5051">str</text></g><!--class SourceFile--><g id="elem_SourceFile"><rect codeLine="12" fill="#FFFFFF" height="172.6719" id="SourceFile" rx="2.5" ry="2.5" style="stroke:#181818;stroke-width:0.5;" width="262" x="1127" y="108.01"/><text fill="#000000" font-family="sans-serif" font-size="14" lengthAdjust="spacing" textLength="75" x="1220.5" y="126.0051">SourceFile</text><line style="stroke:#181818;stroke-width:0.5;" x1="1128" x2="1388" y1="134.3069" y2="134.3069"/><ellipse cx="1138" cy="147.9553" fill="none" rx="3" ry="3" style="stroke:#038048;stroke-width:1.0;"/><text fill="#000000" font-family="sans-serif" font-size="14" lengthAdjust="spacing" textLength="56" x="1147" y="151.302">classes:</text><text fill="#191970" font-family="sans-serif" font-size="14" lengthAdjust="spacing" textLength="117" x="1207" y="151.302">list[SourceClass]</text><ellipse cx="1138" cy="164.2522" fill="none" rx="3" ry="3" style="stroke:#038048;stroke-width:1.0;"/><text fill="#000000" font-family="sans-serif" font-size="14" lengthAdjust="spacing" textLength="70" x="1147" y="167.5989">functions:</text><text fill="#191970" font-family="sans-serif" font-size="14" lengthAdjust="spacing" textLength="141" x="1221" y="167.5989">list[SourceFunction]</text><ellipse cx="1138" cy="180.5491" fill="none" rx="3" ry="3" style="stroke:#038048;stroke-width:1.0;"/><text fill="#000000" font-family="sans-serif" font-size="14" lengthAdjust="spacing" textLength="59" x="1147" y="183.8957">imports:</text><text fill="#191970" font-family="sans-serif" font-size="14" lengthAdjust="spacing" textLength="48" x="1210" y="183.8957">list[str]</text><ellipse cx="1138" cy="196.8459" fill="none" rx="3" ry="3" style="stroke:#038048;stroke-width:1.0;"/><text fill="#000000" font-family="sans-serif" font-size="14" lengthAdjust="spacing" textLength="46" x="1147" y="200.1926">name:</text><text fill="#191970" font-family="sans-serif" font-size="14" lengthAdjust="spacing" textLength="18" x="1197" y="200.1926">str</text><ellipse cx="1138" cy="213.1428" fill="none" rx="3" ry="3" style="stroke:#038048;stroke-width:1.0;"/><text fill="#000000" font-family="sans-serif" font-size="14" lengthAdjust="spacing" textLength="70" x="1147" y="216.4895">variables:</text><text fill="#191970" font-family="sans-serif" font-size="14" lengthAdjust="spacing" textLength="140" x="1221" y="216.4895">list[SourceVariable]</text><line style="stroke:#181818;stroke-width:0.5;" x1="1128" x2="1388" y1="223.7913" y2="223.7913"/><ellipse cx="1138" cy="237.4397" fill="#84BE84" rx="3" ry="3" style="stroke:#038048;stroke-width:1.0;"/><text fill="#8B0000" font-family="sans-serif" font-size="14" lengthAdjust="spacing" textLength="50" x="1147" y="240.7864">__init__</text><text fill="#000000" font-family="sans-serif" font-size="14" lengthAdjust="spacing" textLength="51" x="1197" y="240.7864">(self) &#8594;</text><text fill="#191970" font-family="sans-serif" font-size="14" lengthAdjust="spacing" textLength="37" x="1252" y="240.7864">None</text><ellipse cx="1138" cy="253.7366" fill="#84BE84" rx="3" ry="3" style="stroke:#038048;stroke-width:1.0;"/><text fill="#8B0000" font-family="sans-serif" font-size="14" lengthAdjust="spacing" textLength="46" x="1147" y="257.0832">__str__</text><text fill="#000000" font-family="sans-serif" font-size="14" lengthAdjust="spacing" textLength="51" x="1193" y="257.0832">(self) &#8594;</text><text fill="#191970" font-family="sans-serif" font-size="14" lengthAdjust="spacing" textLength="18" x="1248" y="257.0832">str</text><ellipse cx="1138" cy="270.0334" fill="#84BE84" rx="3" ry="3" style="stroke:#038048;stroke-width:1.0;"/><text fill="#8B0000" font-family="sans-serif" font-size="14" lengthAdjust="spacing" textLength="163" x="1147" y="273.3801">get_connection_strings</text><text fill="#000000" font-family="sans-serif" font-size="14" lengthAdjust="spacing" textLength="51" x="1310" y="273.3801">(self) &#8594;</text><text fill="#191970" font-family="sans-serif" font-size="14" lengthAdjust="spacing" textLength="18" x="1365" y="273.3801">str</text></g><!--class SourceFunction--><g id="elem_SourceFunction"><rect codeLine="25" fill="#FFFFFF" height="140.0781" id="SourceFunction" rx="2.5" ry="2.5" style="stroke:#181818;stroke-width:0.5;" width="260" x="2083" y="176.51"/><text fill="#000000" font-family="sans-serif" font-size="14" lengthAdjust="spacing" textLength="111" x="2157.5" y="194.5051">SourceFunction</text><line style="stroke:#181818;stroke-width:0.5;" x1="2084" x2="2342" y1="202.8069" y2="202.8069"/><ellipse cx="2094" cy="216.4553" fill="none" rx="3" ry="3" style="stroke:#038048;stroke-width:1.0;"/><text fill="#000000" font-family="sans-serif" font-size="14" lengthAdjust="spacing" textLength="46" x="2103" y="219.802">name:</text><text fill="#191970" font-family="sans-serif" font-size="14" lengthAdjust="spacing" textLength="18" x="2153" y="219.802">str</text><ellipse cx="2094" cy="232.7522" fill="none" rx="3" ry="3" style="stroke:#038048;stroke-width:1.0;"/><text fill="#000000" font-family="sans-serif" font-size="14" lengthAdjust="spacing" textLength="59" x="2103" y="236.0989">params:</text><text fill="#191970" font-family="sans-serif" font-size="14" lengthAdjust="spacing" textLength="140" x="2166" y="236.0989">list[SourceVariable]</text><ellipse cx="2094" cy="249.0491" fill="none" rx="3" ry="3" style="stroke:#038048;stroke-width:1.0;"/><text fill="#000000" font-family="sans-serif" font-size="14" lengthAdjust="spacing" textLength="56" x="2103" y="252.3957">returns:</text><text fill="#191970" font-family="sans-serif" font-size="14" lengthAdjust="spacing" textLength="85" x="2163" y="252.3957">SourceType</text><line style="stroke:#181818;stroke-width:0.5;" x1="2084" x2="2342" y1="259.6975" y2="259.6975"/><ellipse cx="2094" cy="273.3459" fill="#84BE84" rx="3" ry="3" style="stroke:#038048;stroke-width:1.0;"/><text fill="#8B0000" font-family="sans-serif" font-size="14" lengthAdjust="spacing" textLength="50" x="2103" y="276.6926">__init__</text><text fill="#000000" font-family="sans-serif" font-size="14" lengthAdjust="spacing" textLength="51" x="2153" y="276.6926">(self) &#8594;</text><text fill="#191970" font-family="sans-serif" font-size="14" lengthAdjust="spacing" textLength="37" x="2208" y="276.6926">None</text><ellipse cx="2094" cy="289.6428" fill="#84BE84" rx="3" ry="3" style="stroke:#038048;stroke-width:1.0;"/><text fill="#8B0000" font-family="sans-serif" font-size="14" lengthAdjust="spacing" textLength="46" x="2103" y="292.9895">__str__</text><text fill="#000000" font-family="sans-serif" font-size="14" lengthAdjust="spacing" textLength="51" x="2149" y="292.9895">(self) &#8594;</text><text fill="#191970" font-family="sans-serif" font-size="14" lengthAdjust="spacing" textLength="18" x="2204" y="292.9895">str</text><ellipse cx="2094" cy="305.9397" fill="#84BE84" rx="3" ry="3" style="stroke:#038048;stroke-width:1.0;"/><text fill="#8B0000" font-family="sans-serif" font-size="14" lengthAdjust="spacing" textLength="130" x="2103" y="309.2864">get_dependencies</text><text fill="#000000" font-family="sans-serif" font-size="14" lengthAdjust="spacing" textLength="51" x="2233" y="309.2864">(self) &#8594;</text><text fill="#191970" font-family="sans-serif" font-size="14" lengthAdjust="spacing" textLength="49" x="2288" y="309.2864">set[str]</text></g><!--class SourceClass--><g id="elem_SourceClass"><rect codeLine="36" fill="#FFFFFF" height="156.375" id="SourceClass" rx="2.5" ry="2.5" style="stroke:#181818;stroke-width:0.5;" width="260" x="1763" y="160.51"/><text fill="#000000" font-family="sans-serif" font-size="14" lengthAdjust="spacing" textLength="87" x="1849.5" y="178.5051">SourceClass</text><line style="stroke:#181818;stroke-width:0.5;" x1="1764" x2="2022" y1="186.8069" y2="186.8069"/><ellipse cx="1774" cy="200.4553" fill="none" rx="3" ry="3" style="stroke:#038048;stroke-width:1.0;"/><text fill="#000000" font-family="sans-serif" font-size="14" lengthAdjust="spacing" textLength="46" x="1783" y="203.802">bases:</text><text fill="#191970" font-family="sans-serif" font-size="14" lengthAdjust="spacing" textLength="48" x="1833" y="203.802">list[str]</text><ellipse cx="1774" cy="216.7522" fill="none" rx="3" ry="3" style="stroke:#038048;stroke-width:1.0;"/><text fill="#000000" font-family="sans-serif" font-size="14" lengthAdjust="spacing" textLength="67" x="1783" y="220.0989">methods:</text><text fill="#191970" font-family="sans-serif" font-size="14" lengthAdjust="spacing" textLength="141" x="1854" y="220.0989">list[SourceFunction]</text><ellipse cx="1774" cy="233.0491" fill="none" rx="3" ry="3" style="stroke:#038048;stroke-width:1.0;"/><text fill="#000000" font-family="sans-serif" font-size="14" lengthAdjust="spacing" textLength="46" x="1783" y="236.3957">name:</text><text fill="#191970" font-family="sans-serif" font-size="14" lengthAdjust="spacing" textLength="18" x="1833" y="236.3957">str</text><ellipse cx="1774" cy="249.3459" fill="none" rx="3" ry="3" style="stroke:#038048;stroke-width:1.0;"/><text fill="#000000" font-family="sans-serif" font-size="14" lengthAdjust="spacing" textLength="70" x="1783" y="252.6926">variables:</text><text fill="#191970" font-family="sans-serif" font-size="14" lengthAdjust="spacing" textLength="140" x="1857" y="252.6926">list[SourceVariable]</text><line style="stroke:#181818;stroke-width:0.5;" x1="1764" x2="2022" y1="259.9944" y2="259.9944"/><ellipse cx="1774" cy="273.6428" fill="#84BE84" rx="3" ry="3" style="stroke:#038048;stroke-width:1.0;"/><text fill="#8B0000" font-family="sans-serif" font-size="14" lengthAdjust="spacing" textLength="50" x="1783" y="276.9895">__init__</text><text fill="#000000" font-family="sans-serif" font-size="14" lengthAdjust="spacing" textLength="51" x="1833" y="276.9895">(self) &#8594;</text><text fill="#191970" font-family="sans-serif" font-size="14" lengthAdjust="spacing" textLength="37" x="1888" y="276.9895">None</text><ellipse cx="1774" cy="289.9397" fill="#84BE84" rx="3" ry="3" style="stroke:#038048;stroke-width:1.0;"/><text fill="#8B0000" font-family="sans-serif" font-size="14" lengthAdjust="spacing" textLength="46" x="1783" y="293.2864">__str__</text><text fill="#000000" font-family="sans-serif" font-size="14" lengthAdjust="spacing" textLength="51" x="1829" y="293.2864">(self) &#8594;</text><text fill="#191970" font-family="sans-serif" font-size="14" lengthAdjust="spacing" textLength="18" x="1884" y="293.2864">str</text><ellipse cx="1774" cy="306.2366" fill="#84BE84" rx="3" ry="3" style="stroke:#038048;stroke-width:1.0;"/><text fill="#8B0000" font-family="sans-serif" font-size="14" lengthAdjust="spacing" textLength="130" x="1783" y="309.5832">get_dependencies</text><text fill="#000000" font-family="sans-serif" font-size="14" lengthAdjust="spacing" textLength="51" x="1913" y="309.5832">(self) &#8594;</text><text fill="#191970" font-family="sans-serif" font-size="14" lengthAdjust="spacing" textLength="49" x="1968" y="309.5832">set[str]</text></g><!--class SourceType--><g id="elem_SourceType"><rect codeLine="48" fill="#FFFFFF" height="107.4844" id="SourceType" rx="2.5" ry="2.5" style="stroke:#181818;stroke-width:0.5;" width="483" x="2965" y="210.01"/><text fill="#000000" font-family="sans-serif" font-size="14" lengthAdjust="spacing" textLength="85" x="3164" y="228.0051">SourceType</text><line style="stroke:#181818;stroke-width:0.5;" x1="2966" x2="3447" y1="236.3069" y2="236.3069"/><ellipse cx="2976" cy="249.9553" fill="none" rx="3" ry="3" style="stroke:#038048;stroke-width:1.0;"/><text fill="#000000" font-family="sans-serif" font-size="14" lengthAdjust="spacing" textLength="105" x="2985" y="253.302">dependencies:</text><text fill="#191970" font-family="sans-serif" font-size="14" lengthAdjust="spacing" textLength="49" x="3094" y="253.302">set[str]</text><ellipse cx="2976" cy="266.2522" fill="none" rx="3" ry="3" style="stroke:#038048;stroke-width:1.0;"/><text fill="#000000" font-family="sans-serif" font-size="14" lengthAdjust="spacing" textLength="69" x="2985" y="269.5989">readable:</text><text fill="#191970" font-family="sans-serif" font-size="14" lengthAdjust="spacing" textLength="18" x="3058" y="269.5989">str</text><line style="stroke:#181818;stroke-width:0.5;" x1="2966" x2="3447" y1="276.9006" y2="276.9006"/><ellipse cx="2976" cy="290.5491" fill="#84BE84" rx="3" ry="3" style="stroke:#038048;stroke-width:1.0;"/><text fill="#8B0000" font-family="sans-serif" font-size="14" lengthAdjust="spacing" textLength="50" x="2985" y="293.8957">__init__</text><text fill="#000000" font-family="sans-serif" font-size="14" lengthAdjust="spacing" textLength="107" x="3035" y="293.8957">(self, readable:</text><text fill="#191970" font-family="sans-serif" font-size="14" lengthAdjust="spacing" textLength="18" x="3146" y="293.8957">str</text><text fill="#000000" font-family="sans-serif" font-size="14" lengthAdjust="spacing" textLength="113" x="3164" y="293.8957">, dependencies:</text><text fill="#191970" font-family="sans-serif" font-size="14" lengthAdjust="spacing" textLength="99" x="3281" y="293.8957">set[str] | None</text><text fill="#000000" font-family="sans-serif" font-size="14" lengthAdjust="spacing" textLength="21" x="3380" y="293.8957">) &#8594;</text><text fill="#191970" font-family="sans-serif" font-size="14" lengthAdjust="spacing" textLength="37" x="3405" y="293.8957">None</text><ellipse cx="2976" cy="306.8459" fill="#84BE84" rx="3" ry="3" style="stroke:#038048;stroke-width:1.0;"/><text fill="#8B0000" font-family="sans-serif" font-size="14" lengthAdjust="spacing" textLength="46" x="2985" y="310.1926">__str__</text><text fill="#000000" font-family="sans-serif" font-size="14" lengthAdjust="spacing" textLength="51" x="3031" y="310.1926">(self) &#8594;</text><text fill="#191970" font-family="sans-serif" font-size="14" lengthAdjust="spacing" textLength="18" x="3086" y="310.1926">str</text></g><!--class SourceVariable--><g id="elem_SourceVariable"><rect codeLine="57" fill="#FFFFFF" height="140.0781" id="SourceVariable" rx="2.5" ry="2.5" style="stroke:#181818;stroke-width:0.5;" width="502" x="2403" y="91.51"/><text fill="#000000" font-family="sans-serif" font-size="14" lengthAdjust="spacing" textLength="110" x="2599" y="109.5051">SourceVariable</text><line style="stroke:#181818;stroke-width:0.5;" x1="2404" x2="2904" y1="117.8069" y2="117.8069"/><ellipse cx="2414" cy="131.4553" fill="none" rx="3" ry="3" style="stroke:#038048;stroke-width:1.0;"/><text fill="#000000" font-family="sans-serif" font-size="14" lengthAdjust="spacing" textLength="46" x="2423" y="134.802">name:</text><text fill="#191970" font-family="sans-serif" font-size="14" lengthAdjust="spacing" textLength="18" x="2473" y="134.802">str</text><ellipse cx="2414" cy="147.7522" fill="none" rx="3" ry="3" style="stroke:#038048;stroke-width:1.0;"/><text fill="#000000" font-family="sans-serif" font-size="14" lengthAdjust="spacing" textLength="43" x="2423" y="151.0989">static:</text><text fill="#191970" font-family="sans-serif" font-size="14" lengthAdjust="spacing" textLength="31" x="2470" y="151.0989">bool</text><ellipse cx="2414" cy="164.0491" fill="none" rx="3" ry="3" style="stroke:#038048;stroke-width:1.0;"/><text fill="#000000" font-family="sans-serif" font-size="14" lengthAdjust="spacing" textLength="36" x="2423" y="167.3957">type:</text><text fill="#191970" font-family="sans-serif" font-size="14" lengthAdjust="spacing" textLength="85" x="2463" y="167.3957">SourceType</text><line style="stroke:#181818;stroke-width:0.5;" x1="2404" x2="2904" y1="174.6975" y2="174.6975"/><ellipse cx="2414" cy="188.3459" fill="#84BE84" rx="3" ry="3" style="stroke:#038048;stroke-width:1.0;"/><text fill="#8B0000" font-family="sans-serif" font-size="14" lengthAdjust="spacing" textLength="50" x="2423" y="191.6926">__init__</text><text fill="#000000" font-family="sans-serif" font-size="14" lengthAdjust="spacing" textLength="84" x="2473" y="191.6926">(self, name:</text><text fill="#191970" font-family="sans-serif" font-size="14" lengthAdjust="spacing" textLength="18" x="2561" y="191.6926">str</text><text fill="#000000" font-family="sans-serif" font-size="14" lengthAdjust="spacing" textLength="83" x="2579" y="191.6926">, data_type:</text><text fill="#191970" font-family="sans-serif" font-size="14" lengthAdjust="spacing" textLength="85" x="2666" y="191.6926">SourceType</text><text fill="#000000" font-family="sans-serif" font-size="14" lengthAdjust="spacing" textLength="51" x="2751" y="191.6926">, static:</text><text fill="#191970" font-family="sans-serif" font-size="14" lengthAdjust="spacing" textLength="31" x="2806" y="191.6926">bool</text><text fill="#000000" font-family="sans-serif" font-size="14" lengthAdjust="spacing" textLength="21" x="2837" y="191.6926">) &#8594;</text><text fill="#191970" font-family="sans-serif" font-size="14" lengthAdjust="spacing" textLength="37" x="2862" y="191.6926">None</text><ellipse cx="2414" cy="204.6428" fill="#84BE84" rx="3" ry="3" style="stroke:#038048;stroke-width:1.0;"/><text fill="#8B0000" font-family="sans-serif" font-size="14" lengthAdjust="spacing" textLength="46" x="2423" y="207.9895">__str__</text><text fill="#000000" font-family="sans-serif" font-size="14" lengthAdjust="spacing" textLength="51" x="2469" y="207.9895">(self) &#8594;</text><text fill="#191970" font-family="sans-serif" font-size="14" lengthAdjust="spacing" textLength="18" x="2524" y="207.9895">str</text><ellipse cx="2414" cy="220.9397" fill="#84BE84" rx="3" ry="3" style="stroke:#038048;stroke-width:1.0;"/><text fill="#8B0000" font-family="sans-serif" font-size="14" lengthAdjust="spacing" textLength="130" x="2423" y="224.2864">get_dependencies</text><text fill="#000000" font-family="sans-serif" font-size="14" lengthAdjust="spacing" textLength="51" x="2553" y="224.2864">(self) &#8594;</text><text fill="#191970" font-family="sans-serif" font-size="14" lengthAdjust="spacing" textLength="49" x="2608" y="224.2864">set[str]</text></g><!--class UMLFile--><g id="elem_UMLFile"><rect codeLine="68" fill="#FFFFFF" height="91.1875" id="UMLFile" rx="2.5" ry="2.5" style="stroke:#181818;stroke-width:0.5;" width="374" x="379" y="225.01"/><text fill="#000000" font-family="sans-serif" font-size="14" lengthAdjust="spacing" textLength="55" x="538.5" y="243.0051">UMLFile</text><line style="stroke:#181818;stroke-width:0.5;" x1="380" x2="752" y1="251.3069" y2="251.3069"/><ellipse cx="390" cy="264.9553" fill="none" rx="3" ry="3" style="stroke:#038048;stroke-width:1.0;"/><text fill="#000000" font-family="sans-serif" font-size="14" lengthAdjust="spacing" textLength="89" x="399" y="268.302">source_files:</text><text fill="#191970" font-family="sans-serif" font-size="14" lengthAdjust="spacing" textLength="105" x="492" y="268.302">list[SourceFile]</text><line style="stroke:#181818;stroke-width:0.5;" x1="380" x2="752" y1="275.6038" y2="275.6038"/><ellipse cx="390" cy="289.2522" fill="#84BE84" rx="3" ry="3" style="stroke:#038048;stroke-width:1.0;"/><text fill="#8B0000" font-family="sans-serif" font-size="14" lengthAdjust="spacing" textLength="50" x="399" y="292.5989">__init__</text><text fill="#000000" font-family="sans-serif" font-size="14" lengthAdjust="spacing" textLength="127" x="449" y="292.5989">(self, source_files:</text><text fill="#191970" font-family="sans-serif" font-size="14" lengthAdjust="spacing" textLength="105" x="580" y="292.5989">list[SourceFile]</text><text fill="#000000" font-family="sans-serif" font-size="14" lengthAdjust="spacing" textLength="21" x="685" y="292.5989">) &#8594;</text><text fill="#191970" font-family="sans-serif" font-size="14" lengthAdjust="spacing" textLength="37" x="710" y="292.5989">None</text><ellipse cx="390" cy="305.5491" fill="#84BE84" rx="3" ry="3" style="stroke:#038048;stroke-width:1.0;"/><text fill="#8B0000" font-family="sans-serif" font-size="14" lengthAdjust="spacing" textLength="46" x="399" y="308.8957">__str__</text><text fill="#000000" font-family="sans-serif" font-size="14" lengthAdjust="spacing" textLength="51" x="445" y="308.8957">(self) &#8594;</text><text fill="#191970" font-family="sans-serif" font-size="14" lengthAdjust="spacing" textLength="18" x="500" y="308.8957">str</text></g><g id="elem_get_matching_module"><rect fill="#FFFFFF" height="20.2969" style="stroke:#181818;stroke-width:0.5;" width="475" x="1020.5" y="458.51"/><text fill="#8B0000" font-family="sans-serif" font-size="14" lengthAdjust="spacing" textLength="158" x="1027.5" y="473.5051">get_matching_module</text><text fill="#000000" font-family="sans-serif" font-size="14" lengthAdjust="spacing" textLength="71" x="1185.5" y="473.5051">(modules:</text><text fill="#191970" font-family="sans-serif" font-size="14" lengthAdjust="spacing" textLength="48" x="1260.5" y="473.5051">list[str]</text><text fill="#000000" font-family="sans-serif" font-size="14" lengthAdjust="spacing" textLength="65" x="1308.5" y="473.5051">, snippet:</text><text fill="#191970" font-family="sans-serif" font-size="14" lengthAdjust="spacing" textLength="18" x="1377.5" y="473.5051">str</text><text fill="#000000" font-family="sans-serif" font-size="14" lengthAdjust="spacing" textLength="21" x="1395.5" y="473.5051">) &#8594;</text><text fill="#191970" font-family="sans-serif" font-size="14" lengthAdjust="spacing" textLength="68" x="1420.5" y="473.5051">str | None</text></g><g id="elem_encode"><rect fill="#FFFFFF" height="20.2969" style="stroke:#181818;stroke-width:0.5;" width="323" x="1096.5" y="553.51"/><text fill="#8B0000" font-family="sans-serif" font-size="14" lengthAdjust="spacing" textLength="53" x="1103.5" y="568.5051">encode</text><text fill="#000000" font-family="sans-serif" font-size="14" lengthAdjust="spacing" textLength="70" x="1156.5" y="568.5051">(diagram:</text><text fill="#191970" font-family="sans-serif" font-size="14" lengthAdjust="spacing" textLength="18" x="1230.5" y="568.5051">str</text><text fill="#000000" font-family="sans-serif" font-size="14" lengthAdjust="spacing" textLength="99" x="1248.5" y="568.5051">, render_type:</text><text fill="#191970" font-family="sans-serif" font-size="14" lengthAdjust="spacing" textLength="18" x="1351.5" y="568.5051">str</text><text fill="#000000" font-family="sans-serif" font-size="14" lengthAdjust="spacing" textLength="21" x="1369.5" y="568.5051">) &#8594;</text><text fill="#191970" font-family="sans-serif" font-size="14" lengthAdjust="spacing" textLength="18" x="1394.5" y="568.5051">str</text></g><g id="elem_annotation_to_type"><rect fill="#FFFFFF" height="20.2969" style="stroke:#181818;stroke-width:0.5;" width="418" x="1049" y="774.51"/><text fill="#8B0000" font-family="sans-serif" font-size="14" lengthAdjust="spacing" textLength="136" x="1056" y="789.5051">annotation_to_type</text><text fill="#000000" font-family="sans-serif" font-size="14" lengthAdjust="spacing" textLength="46" x="1192" y="789.5051">(node:</text><text fill="#191970" font-family="sans-serif" font-size="14" lengthAdjust="spacing" textLength="108" x="1242" y="789.5051">NodeNG | None</text><text fill="#000000" font-family="sans-serif" font-size="14" lengthAdjust="spacing" textLength="21" x="1350" y="789.5051">) &#8594;</text><text fill="#191970" font-family="sans-serif" font-size="14" lengthAdjust="spacing" textLength="85" x="1375" y="789.5051">SourceType</text></g><g id="elem_get_function"><rect fill="#FFFFFF" height="20.2969" style="stroke:#181818;stroke-width:0.5;" width="374" x="1071" y="719.51"/><text fill="#8B0000" font-family="sans-serif" font-size="14" lengthAdjust="spacing" textLength="88" x="1078" y="734.5051">get_function</text><text fill="#000000" font-family="sans-serif" font-size="14" lengthAdjust="spacing" textLength="46" x="1166" y="734.5051">(node:</text><text fill="#191970" font-family="sans-serif" font-size="14" lengthAdjust="spacing" textLength="86" x="1216" y="734.5051">FunctionDef</text><text fill="#000000" font-family="sans-serif" font-size="14" lengthAdjust="spacing" textLength="21" x="1302" y="734.5051">) &#8594;</text><text fill="#191970" font-family="sans-serif" font-size="14" lengthAdjust="spacing" textLength="111" x="1327" y="734.5051">SourceFunction</text></g><g id="elem_get_class"><rect fill="#FFFFFF" height="20.2969" style="stroke:#181818;stroke-width:0.5;" width="303" x="1106.5" y="664.51"/><text fill="#8B0000" font-family="sans-serif" font-size="14" lengthAdjust="spacing" textLength="65" x="1113.5" y="679.5051">get_class</text><text fill="#000000" font-family="sans-serif" font-size="14" lengthAdjust="spacing" textLength="46" x="1178.5" y="679.5051">(node:</text><text fill="#191970" font-family="sans-serif" font-size="14" lengthAdjust="spacing" textLength="62" x="1228.5" y="679.5051">ClassDef</text><text fill="#000000" font-family="sans-serif" font-size="14" lengthAdjust="spacing" textLength="21" x="1290.5" y="679.5051">) &#8594;</text><text fill="#191970" font-family="sans-serif" font-size="14" lengthAdjust="spacing" textLength="87" x="1315.5" y="679.5051">SourceClass</text></g><g id="elem_get_module_info"><rect fill="#FFFFFF" height="20.2969" style="stroke:#181818;stroke-width:0.5;" width="818" x="849" y="829.51"/><text fill="#8B0000" font-family="sans-serif" font-size="14" lengthAdjust="spacing" textLength="118" x="856" y="844.5051">get_module_info</text><text fill="#000000" font-family="sans-serif" font-size="14" lengthAdjust="spacing" textLength="39" x="974" y="844.5051">(root:</text><text fill="#191970" font-family="sans-serif" font-size="14" lengthAdjust="spacing" textLength="18" x="1017" y="844.5051">str</text><text fill="#000000" font-family="sans-serif" font-size="14" lengthAdjust="spacing" textLength="74" x="1035" y="844.5051">, file_path:</text><text fill="#191970" font-family="sans-serif" font-size="14" lengthAdjust="spacing" textLength="18" x="1113" y="844.5051">str</text><text fill="#000000" font-family="sans-serif" font-size="14" lengthAdjust="spacing" textLength="127" x="1131" y="844.5051">, known_modules:</text><text fill="#191970" font-family="sans-serif" font-size="14" lengthAdjust="spacing" textLength="48" x="1262" y="844.5051">list[str]</text><text fill="#000000" font-family="sans-serif" font-size="14" lengthAdjust="spacing" textLength="215" x="1310" y="844.5051">, with_external_dependencies:</text><text fill="#191970" font-family="sans-serif" font-size="14" lengthAdjust="spacing" textLength="31" x="1529" y="844.5051">bool</text><text fill="#000000" font-family="sans-serif" font-size="14" lengthAdjust="spacing" textLength="21" x="1560" y="844.5051">) &#8594;</text><text fill="#191970" font-family="sans-serif" font-size="14" lengthAdjust="spacing" textLength="75" x="1585" y="844.5051">SourceFile</text></g><!--link main to SourceFile--><g id="link_main_SourceFile"><path codeLine="87" d="M195.8458,382.5192 C196.7718,382.6555 197.7092,382.7892 198.6575,382.9199 C206.2438,383.9654 214.5241,384.8191 223.1663,385.2512 C257.735,386.98 298.095,381.965 323,355.51 C334.21,343.6 319.21,219.85 331,208.51 C541.62,6 919.85,83.95 1121.58,146.22 " fill="none" id="main-to-SourceFile" style="stroke:#181818;stroke-width:1.0;stroke-dasharray:7.0,7.0;"/><polygon fill="#181818" points="1126.61,147.78,1119.2061,141.2852,1121.8361,146.2935,1116.8277,148.9235,1126.61,147.78" style="stroke:#181818;stroke-width:1.0;"/></g><!--link main to UMLFile--><g id="link_main_UMLFile"><path codeLine="88" d="M307.7976,358.7493 C308.3691,358.6365 308.9398,358.523 309.5097,358.4087 C314.0688,357.4941 318.5744,356.5288 323,355.51 C364.28,346.01 408.3,331.83 447.32,317.76 " fill="none" id="main-to-UMLFile" style="stroke:#181818;stroke-width:1.0;stroke-dasharray:7.0,7.0;"/><polygon fill="#181818" points="452.06,316.05,442.2361,315.3497,447.3581,317.7507,444.9572,322.8727,452.06,316.05" style="stroke:#181818;stroke-width:1.0;"/></g><!--link main to get_module_info--><g id="link_main_get_module_info"><path codeLine="89" d="M165.7142,382.5705 C166.1357,383.0058 166.5741,383.4576 167.029,383.9259 C168.8487,385.7988 170.9341,387.9334 173.2766,390.3133 C182.6466,399.833 196.13,413.2788 213.1738,429.6133 C247.2613,462.2822 295.59,506.5056 353.735,553.9837 C470.025,648.94 625.58,756.915 785,811.51 C900.02,850.9 1039.92,854.08 1137.43,849.77 " fill="none" id="main-to-get_module_info" style="stroke:#181818;stroke-width:1.0;stroke-dasharray:7.0,7.0;"/><polygon fill="#181818" points="1142.62,849.53,1133.4467,845.9452,1137.6252,849.7583,1133.8121,853.9368,1142.62,849.53" style="stroke:#181818;stroke-width:1.0;"/></g><!--link main to encode--><g id="link_main_encode"><path codeLine="90" d="M196.936,382.58 C197.8906,382.7765 198.8611,382.9763 199.8471,383.1791 C201.8193,383.5849 203.854,384.0032 205.9498,384.4337 C210.1413,385.2946 214.577,386.2043 219.2445,387.1597 C256.5847,394.8031 308.7606,405.3763 369.4437,417.3775 C490.81,441.38 646.205,471.095 785,494.51 C921.99,517.62 1082.11,540.07 1176.23,552.8 " fill="none" id="main-to-encode" style="stroke:#181818;stroke-width:1.0;stroke-dasharray:7.0,7.0;"/><polygon fill="#181818" points="1181.22,553.48,1172.8383,548.3082,1176.2652,552.8089,1171.7646,556.2358,1181.22,553.48" style="stroke:#181818;stroke-width:1.0;"/></g><!--link SourceFile to SourceClass--><g id="link_SourceFile_SourceClass"><path codeLine="91" d="M1402.03,204.45 C1506,211.68 1646.11,221.42 1749.87,228.63 " fill="none" id="SourceFile-SourceClass" style="stroke:#181818;stroke-width:1.0;"/><polygon fill="none" points="1389.01,203.55,1394.7187,207.9557,1400.9812,204.3806,1395.2725,199.9749,1389.01,203.55" style="stroke:#181818;stroke-width:1.0;"/><polygon fill="#181818" points="1762.98,229.54,1754.2785,224.9266,1757.992,229.1939,1753.7247,232.9075,1762.98,229.54" style="stroke:#181818;stroke-width:1.0;"/><line style="stroke:#181818;stroke-width:1.0;" x1="1757.992" x2="1750.005" y1="229.1939" y2="228.64"/></g><!--link SourceFile to SourceVariable--><g id="link_SourceFile_SourceVariable"><path codeLine="92" d="M1402.15,166.19 C1497.22,148.86 1625.04,128.36 1739,119.51 C2017.41,97.89 2088.42,120.09 2367,139.51 C2374.39,140.02 2381.88,140.55 2389.45,141.09 " fill="none" id="SourceFile-SourceVariable" style="stroke:#181818;stroke-width:1.0;"/><polygon fill="none" points="1389.25,168.56,1395.8727,171.4131,1401.0535,166.3971,1394.4308,163.5441,1389.25,168.56" style="stroke:#181818;stroke-width:1.0;"/><polygon fill="#181818" points="2402.68,142.05,2393.994,137.4074,2397.6932,141.6871,2393.4134,145.3863,2402.68,142.05" style="stroke:#181818;stroke-width:1.0;"/><line style="stroke:#181818;stroke-width:1.0;" x1="2397.6932" x2="2389.71" y1="141.6871" y2="141.115"/></g><!--link SourceFile to SourceFunction--><g id="link_SourceFile_SourceFunction"><path codeLine="93" d="M1401.88,157.18 C1562.14,121.75 1828.27,82.36 2047,144.51 C2067.35,150.29 2087.65,159.38 2106.69,169.8 " fill="none" id="SourceFile-SourceFunction" style="stroke:#181818;stroke-width:1.0;"/><polygon fill="none" points="1389.1,160.05,1395.8323,162.6339,1400.8068,157.4133,1394.0745,154.8294,1389.1,160.05" style="stroke:#181818;stroke-width:1.0;"/><polygon fill="#181818" points="2118.07,176.26,2112.2177,168.3385,2113.7217,173.7917,2108.2685,175.2958,2118.07,176.26" style="stroke:#181818;stroke-width:1.0;"/><line style="stroke:#181818;stroke-width:1.0;" x1="2113.7217" x2="2106.765" y1="173.7917" y2="169.835"/></g><!--link SourceFile to get_matching_module--><g id="link_SourceFile_get_matching_module"><path codeLine="94" d="M1258,325.0352 C1258,325.2124 1258,325.3896 1258,325.5669 C1258,328.4025 1258,331.2381 1258,334.0737 C1258,339.745 1258,345.4163 1258,351.0875 C1258,362.43 1258,373.7725 1258,385.115 C1258,407.8 1258,430.485 1258,453.17 " fill="none" id="SourceFile-to-get_matching_module" style="stroke:#181818;stroke-width:1.0;stroke-dasharray:7.0,7.0;"/><polygon fill="#181818" points="1258,458.42,1262,449.42,1258,453.42,1254,449.42,1258,458.42" style="stroke:#181818;stroke-width:1.0;"/></g><!--link SourceFunction to SourceVariable--><g id="link_SourceFunction_SourceVariable"><path codeLine="95" d="M2356.19,218.98 C2367.18,216.85 2378.47,214.67 2389.92,212.45 " fill="none" id="SourceFunction-SourceVariable" style="stroke:#181818;stroke-width:1.0;"/><polygon fill="none" points="2343.04,221.52,2349.6913,224.3058,2354.821,219.2377,2348.1697,216.4519,2343.04,221.52" style="stroke:#181818;stroke-width:1.0;"/><polygon fill="#181818" points="2402.92,209.93,2393.3235,207.7147,2398.0113,210.881,2394.8451,215.5687,2402.92,209.93" style="stroke:#181818;stroke-width:1.0;"/><line style="stroke:#181818;stroke-width:1.0;" x1="2398.0113" x2="2390.155" y1="210.881" y2="212.405"/></g><!--link SourceFunction to SourceType--><g id="link_SourceFunction_SourceType"><path codeLine="96" d="M2356.25,248.95 C2511.31,251.61 2762.53,255.92 2951.6,259.16 " fill="none" id="SourceFunction-SourceType" style="stroke:#181818;stroke-width:1.0;"/><polygon fill="none" points="2343.11,248.72,2349.0388,252.8249,2355.1081,248.931,2349.1794,244.8261,2343.11,248.72" style="stroke:#181818;stroke-width:1.0;"/><polygon fill="#181818" points="2964.81,259.38,2955.8771,255.2322,2959.8107,259.2976,2955.7453,263.2311,2964.81,259.38" style="stroke:#181818;stroke-width:1.0;"/><line style="stroke:#181818;stroke-width:1.0;" x1="2959.8107" x2="2951.815" y1="259.2976" y2="259.16"/></g><!--link SourceClass to SourceVariable--><g id="link_SourceClass_SourceVariable"><path codeLine="97" d="M2035.74,166.82 C2043.5,164.38 2051.28,162.24 2059,160.51 C2165.51,136.6 2285.49,132.64 2389.59,136.21 " fill="none" id="SourceClass-SourceVariable" style="stroke:#181818;stroke-width:1.0;"/><polygon fill="none" points="2023.15,171.06,2030.1116,172.9404,2034.5249,167.2376,2027.5633,165.3572,2023.15,171.06" style="stroke:#181818;stroke-width:1.0;"/><polygon fill="#181818" points="2402.86,136.71,2394.0156,132.3768,2397.8635,136.5233,2393.7169,140.3712,2402.86,136.71" style="stroke:#181818;stroke-width:1.0;"/><line style="stroke:#181818;stroke-width:1.0;" x1="2397.8635" x2="2389.87" y1="136.5233" y2="136.22"/></g><!--link SourceClass to SourceFunction--><g id="link_SourceClass_SourceFunction"><path codeLine="98" d="M2036.75,242.1 C2047.65,242.38 2058.65,242.65 2069.55,242.93 " fill="none" id="SourceClass-SourceFunction" style="stroke:#181818;stroke-width:1.0;"/><polygon fill="none" points="2023.34,241.76,2029.237,245.9103,2035.3362,242.0632,2029.4392,237.9129,2023.34,241.76" style="stroke:#181818;stroke-width:1.0;"/><polygon fill="#181818" points="2082.77,243.26,2073.8739,239.0339,2077.7716,243.1337,2073.6718,247.0313,2082.77,243.26" style="stroke:#181818;stroke-width:1.0;"/><line style="stroke:#181818;stroke-width:1.0;" x1="2077.7716" x2="2069.775" y1="243.1337" y2="242.93"/></g><!--link SourceVariable to SourceType--><g id="link_SourceVariable_SourceType"><path codeLine="99" d="M2918.26,210.29 C2929.37,212.35 2940.51,214.41 2951.61,216.47 " fill="none" id="SourceVariable-SourceType" style="stroke:#181818;stroke-width:1.0;"/><polygon fill="none" points="2905.28,207.88,2910.4554,212.9015,2917.0811,210.0556,2911.9058,205.0341,2905.28,207.88" style="stroke:#181818;stroke-width:1.0;"/><polygon fill="#181818" points="2964.61,218.88,2956.4904,213.3058,2959.6938,217.9682,2955.0315,221.1716,2964.61,218.88" style="stroke:#181818;stroke-width:1.0;"/><line style="stroke:#181818;stroke-width:1.0;" x1="2959.6938" x2="2951.83" y1="217.9682" y2="216.505"/></g><!--link UMLFile to SourceFile--><g id="link_UMLFile_SourceFile"><path codeLine="100" d="M766.2,248.57 C877.32,236.33 1013.17,221.37 1113.75,210.29 " fill="none" id="UMLFile-SourceFile" style="stroke:#181818;stroke-width:1.0;"/><polygon fill="none" points="753.27,249.99,759.6734,253.3061,765.1972,248.6706,758.7938,245.3546,753.27,249.99" style="stroke:#181818;stroke-width:1.0;"/><polygon fill="#181818" points="1126.77,208.85,1117.388,205.8535,1121.7997,209.3943,1118.2589,213.806,1126.77,208.85" style="stroke:#181818;stroke-width:1.0;"/><line style="stroke:#181818;stroke-width:1.0;" x1="1121.7997" x2="1113.845" y1="209.3943" y2="210.28"/></g><!--link annotation_to_type to SourceType--><g id="link_annotation_to_type_SourceType"><path codeLine="101" d="M1480.42,780 C1559.8,776.11 1649.74,769.09 1731,756.51 C2248.01,676.46 2827.39,435.02 3078.31,322.46 " fill="none" id="annotation_to_type-SourceType" style="stroke:#181818;stroke-width:1.0;"/><polygon fill="none" points="1467.26,780.62,1473.4423,784.332,1479.2466,780.053,1473.0643,776.341,1467.26,780.62" style="stroke:#181818;stroke-width:1.0;"/><polygon fill="#181818" points="3090.38,317.03,3080.5313,317.0805,3085.8214,319.0841,3083.8178,324.3743,3090.38,317.03" style="stroke:#181818;stroke-width:1.0;"/><line style="stroke:#181818;stroke-width:1.0;" x1="3085.8214" x2="3078.52" y1="319.0841" y2="322.37"/></g><!--link get_function to SourceFunction--><g id="link_get_function_SourceFunction"><path codeLine="102" d="M1439.2,739.86 C1553.15,742.5 1686.96,737.16 1731,701.51 C1741.39,693.1 1731.97,683.88 1739,672.51 C1829.34,526.28 1984.5,400.49 2092.37,324.28 " fill="none" id="get_function-SourceFunction" style="stroke:#181818;stroke-width:1.0;"/><polygon fill="none" points="1426.12,739.52,1432.0123,743.677,1438.1158,739.8367,1432.2235,735.6798,1426.12,739.52" style="stroke:#181818;stroke-width:1.0;"/><polygon fill="#181818" points="2103.31,316.6,2093.6439,318.4886,2099.2151,319.4692,2098.2346,325.0404,2103.31,316.6" style="stroke:#181818;stroke-width:1.0;"/><line style="stroke:#181818;stroke-width:1.0;" x1="2099.2151" x2="2092.67" y1="319.4692" y2="324.065"/></g><!--link get_class to SourceClass--><g id="link_get_class_SourceClass"><path codeLine="103" d="M1332,686.13 C1437.75,698.34 1631.74,702.39 1731,589.51 C1742.75,576.14 1732.69,446.15 1739,429.51 C1753.08,392.39 1777.27,356.93 1802.31,326.85 " fill="none" id="get_class-SourceClass" style="stroke:#181818;stroke-width:1.0;"/><polygon fill="none" points="1318.93,684.53,1324.3972,689.2321,1330.8404,685.9941,1325.3732,681.2919,1318.93,684.53" style="stroke:#181818;stroke-width:1.0;"/><polygon fill="#181818" points="1810.82,316.86,1801.94,321.1198,1807.5787,320.6671,1808.0314,326.3058,1810.82,316.86" style="stroke:#181818;stroke-width:1.0;"/><line style="stroke:#181818;stroke-width:1.0;" x1="1807.5787" x2="1802.385" y1="320.6671" y2="326.76"/></g><!--link get_module_info to SourceFile--><g id="link_get_module_info_SourceFile"><path codeLine="104" d="M1094.75,849.99 C976.83,853.93 830.61,850.13 785,811.51 C778.91,806.35 781.89,801.94 781,794.01 C777.94,766.85 777.94,329.17 781,302.01 C781.89,294.08 779.26,290.05 785,284.51 C871.21,201.41 1009.04,183.13 1113.73,183.14 " fill="none" id="get_module_info-SourceFile" style="stroke:#181818;stroke-width:1.0;"/><polygon fill="none" points="1107.88,849.52,1101.739,845.7401,1095.8879,849.9549,1102.0289,853.7348,1107.88,849.52" style="stroke:#181818;stroke-width:1.0;"/><polygon fill="#181818" points="1126.97,183.24,1118.001,179.1709,1121.9701,183.2015,1117.9395,187.1707,1126.97,183.24" style="stroke:#181818;stroke-width:1.0;"/><line style="stroke:#181818;stroke-width:1.0;" x1="1121.9701" x2="1113.975" y1="183.2015" y2="183.15"/></g><!--link ModuleParser to SourceVariable--><g id="link_ModuleParser_SourceVariable"><path codeLine="105" d="M1334.9613,892.5716 C1335.5094,892.6153 1336.0598,892.6589 1336.6126,892.7024 C1338.8237,892.8765 1341.0727,893.049 1343.3582,893.2195 C1347.9293,893.5605 1352.6465,893.8933 1357.4998,894.2138 C1376.913,895.4959 1398.5031,896.5809 1421.6225,897.2037 C1514.1,899.695 1631.045,894.79 1731,865.51 C2114.15,753.28 2456.79,392.7 2591.89,235.71 " fill="none" id="ModuleParser-to-SourceVariable" style="stroke:#181818;stroke-width:1.0;stroke-dasharray:7.0,7.0;"/><polygon fill="#181818" points="2595.44,231.58,2586.5459,235.8101,2592.186,235.3763,2592.6199,241.0165,2595.44,231.58" style="stroke:#181818;stroke-width:1.0;"/></g><!--SRC=[xLZDSjCm4BxdAJISogGrzqmdXxQK2-rqQE72T3IAlKv4PCaZhocPqYiFm2Fo9CX_YIB7ZcAOCZ2S6ikhtM_tssyjLK2C11NHVBv04d4D8N8bHzcIovHfbf2KXKisXrjS2I2nMO7sopEb8z3dIYXDvfgjB8jGi2mxCsPphN8PLJOF2uws6pNxPEBkjbhm20WaAQv80iaCT5OjXLo70aOr0X8aZ4loEAfSaHUdOU5ZSi7qyXr4qpb8q0o1veauVLM-cnvLwIgzcf3Q_8f7igZ4cSXXcg5kJ5-I7z- -xpDwGLX6x42ZfmsyY24BRbMkGxZaffAFex8oP6jfN9KBijs01C_mOxNXlB2xRoARZN4kI-RsRxsiBUtTF4cLnhwz9azxWpHziBTgnkupqvpDX4T67shBJHHAZGE7Hqgvv4ZfciCCHDpDphMIOA5fEJDWlNrj9zRgBwIXahAIJ-6NotasmFDJLzFKhBcDirds9wKKtH16naG3vhghoQfjTwiK_beE8qX1HY133jxiWQEEBWfBpJhyDMjZCcFzkdS4c00kL3HCxV_5-xp45ufmUA-NniIEE_4BKwYGHKMvzvFeJSEnlzFZ0q2JhyIcyVd9xkAawLY75slPNoSPCkJXRikPKi8oHSFxxn-UntvG3N6c0FGG3CVUoVtJEdv_zNRhrBPvDkoNHQCnzncKnQxx8GGFZ_A7DPSZ5rbmKptUcOR9-axfI1E6uS8SdcYYeboiyHrLZxvVI5CmoTCKyDUEzixuga_uBP0xyXLCuciPAdClwiuNIWFhFiBCxIdnqB4kUbptA7dGtQM2qqxcgapoXkciBnacfIfcXJd-eYgXhHEJnksaemKZk7xZ_PLe3wWIU3jqNuSrLoKFUCtfwG9YNt2NZlTrppHX-w2LqyK3LtbiF03KkUrtZQYCrgl5adWpa6Ar1gMLGeyEBGOLJHakF6oNKZr8UgZ07pWkA7n1q989klz8ulUnsWpGjkWtrJ0QgVxX40HJubpjhP-kKVtPQFvQhzj22zoGhh4zOe9Qka4t5g9EJgRj-uZz-x3jpL79UJpCIQCMvx7bnCxR-fG4kuQnX_-1sVWwAmQKzNFKM_LXM3pS-DIs8vHlIav3xy3W2c97exUdT-MdBtg7Nk8jIdngqU4et9IqNp7xXTl6ihycxbpfeEad]--></g></svg>