<?xml version="1.0" encoding="us-ascii" standalone="no"?><svg xmlns="http://www.w3.org/2000/svg" xmlns:xlink="http://www.w3.org/1999/xlink" contentStyleType="text/css" height="931px" preserveAspectRatio="none" style="width:3559px;height:931px;background:#FFFFFF;" version="1.1" viewBox="0 0 3559 931" width="3559px" zoomAndPan="magnify"><defs/><g><!--cluster pypu--><g id="cluster_pypu"><rect fill="none" height="106" rx="2.5" ry="2.5" style="stroke:#808080;stroke-width:1.5;" width="306" x="7" y="247.078"/><path d="M56,247.078 L56,256.3749 L46,266.3749 L7,266.3749 " fill="none" style="stroke:#808080;stroke-width:1.5;"/><text fill="#000000" font-family="sans-serif" font-size="14" font-weight="bold" lengthAdjust="spacing" textLength="39" x="10" y="261.0731">pypu</text></g><!--cluster data--><g id="cluster_data"><rect fill="none" height="343" rx="2.5" ry="2.5" style="stroke:#808080;stroke-width:1.5;" width="3208" x="345" y="14.078"/><path d="M393,14.078 L393,23.3749 L383,33.3749 L345,33.3749 " fill="none" style="stroke:#808080;stroke-width:1.5;"/><text fill="#000000" font-family="sans-serif" font-size="14" font-weight="bold" lengthAdjust="spacing" textLength="38" x="348" y="28.0731">data</text></g><!--cluster SourceFile--><g id="cluster_SourceFile"><rect fill="none" height="260" rx="2.5" ry="2.5" style="stroke:#808080;stroke-width:1.5;" width="319" x="1118" y="65.078"/><path d="M1211,65.078 L1211,74.3749 L1201,84.3749 L1118,84.3749 " fill="none" style="stroke:#808080;stroke-width:1.5;"/><text fill="#000000" font-family="sans-serif" font-size="14" font-weight="bold" lengthAdjust="spacing" textLength="83" x="1121" y="79.0731">SourceFile</text></g><!--cluster SourceFunction--><g id="cluster_SourceFunction"><rect fill="none" height="191" rx="2.5" ry="2.5" style="stroke:#808080;stroke-width:1.5;" width="300" x="2104" y="142.078"/><path d="M2240,142.078 L2240,151.3749 L2230,161.3749 L2104,161.3749 " fill="none" style="stroke:#808080;stroke-width:1.5;"/><text fill="#000000" font-family="sans-serif" font-size="14" font-weight="bold" lengthAdjust="spacing" textLength="126" x="2107" y="156.0731">SourceFunction</text></g><!--cluster SourceClass--><g id="cluster_SourceClass"><rect fill="none" height="207" rx="2.5" ry="2.5" style="stroke:#808080;stroke-width:1.5;" width="300" x="1776" y="126.078"/><path d="M1884,126.078 L1884,135.3749 L1874,145.3749 L1776,145.3749 " fill="none" style="stroke:#808080;stroke-width:1.5;"/><text fill="#000000" font-family="sans-serif" font-size="14" font-weight="bold" lengthAdjust="spacing" textLength="98" x="1779" y="140.0731">SourceClass</text></g><!--cluster SourceType--><g id="cluster_SourceType"><rect fill="none" height="159" rx="2.5" ry="2.5" style="stroke:#808080;stroke-width:1.5;" width="524" x="3005" y="174.078"/><path d="M3109,174.078 L3109,183.3749 L3099,193.3749 L3005,193.3749 " fill="none" style="stroke:#808080;stroke-width:1.5;"/><text fill="#000000" font-family="sans-serif" font-size="14" font-weight="bold" lengthAdjust="spacing" textLength="94" x="3008" y="188.0731">SourceType</text></g><!--cluster SourceVariable--><g id="cluster_SourceVariable"><rect fill="none" height="191" rx="2.5" ry="2.5" style="stroke:#808080;stroke-width:1.5;" width="545" x="2432" y="57.078"/><path d="M2564,57.078 L2564,66.3749 L2554,76.3749 L2432,76.3749 " fill="none" style="stroke:#808080;stroke-width:1.5;"/><text fill="#000000" font-family="sans-serif" font-size="14" font-weight="bold" lengthAdjust="spacing" textLength="122" x="2435" y="71.0731">SourceVariable</text></g><!--cluster UMLFile--><g id="cluster_UMLFile"><rect fill="none" height="143" rx="2.5" ry="2.5" style="stroke:#808080;stroke-width:1.5;" width="410" x="369" y="190.078"/><path d="M441,190.078 L441,199.3749 L431,209.3749 L369,209.3749 " fill="none" style="stroke:#808080;stroke-width:1.5;"/><text fill="#000000" font-family="sans-serif" font-size="14" font-weight="bold" lengthAdjust="spacing" textLength="62" x="372" y="204.0731">UMLFile</text></g><!--cluster utils--><g id="cluster_utils"><rect fill="none" height="544" rx="2.5" ry="2.5" style="stroke:#808080;stroke-width:1.5;" width="949" x="803" y="381.078"/><path d="M850,381.078 L850,390.3749 L840,400.3749 L803,400.3749 " fill="none" style="stroke:#808080;stroke-width:1.5;"/><text fill="#000000" font-family="sans-serif" font-size="14" font-weight="bold" lengthAdjust="spacing" textLength="37" x="806" y="395.0731">utils</text></g><!--cluster PackageTools--><g id="cluster_PackageTools"><rect fill="none" height="71" rx="2.5" ry="2.5" style="stroke:#808080;stroke-width:1.5;" width="520" x="1017.5" y="424.078"/><path d="M1139.5,424.078 L1139.5,433.3749 L1129.5,443.3749 L1017.5,443.3749 " fill="none" style="stroke:#808080;stroke-width:1.5;"/><text fill="#000000" font-family="sans-serif" font-size="14" font-weight="bold" lengthAdjust="spacing" textLength="112" x="1020.5" y="438.0731">PackageTools</text></g><!--cluster PlantEncoder--><g id="cluster_PlantEncoder"><rect fill="none" height="71" rx="2.5" ry="2.5" style="stroke:#808080;stroke-width:1.5;" width="362" x="1096.5" y="519.078"/><path d="M1213.5,519.078 L1213.5,528.3749 L1203.5,538.3749 L1096.5,538.3749 " fill="none" style="stroke:#808080;stroke-width:1.5;"/><text fill="#000000" font-family="sans-serif" font-size="14" font-weight="bold" lengthAdjust="spacing" textLength="107" x="1099.5" y="533.0731">PlantEncoder</text></g><!--cluster ModuleParser--><g id="cluster_ModuleParser"><rect fill="none" height="271" rx="2.5" ry="2.5" style="stroke:#808080;stroke-width:1.5;" width="885" x="835" y="622.078"/><path d="M955,622.078 L955,631.3749 L945,641.3749 L835,641.3749 " fill="none" style="stroke:#808080;stroke-width:1.5;"/><text fill="#000000" font-family="sans-serif" font-size="14" font-weight="bold" lengthAdjust="spacing" textLength="110" x="838" y="636.0731">ModuleParser</text></g><g id="elem_generate_uml"><rect fill="#FFFFFF" height="20.2969" style="stroke:#181818;stroke-width:0.5;" width="258" x="31" y="290.078"/><text fill="#8B0000" font-family="sans-serif" font-size="14" lengthAdjust="spacing" textLength="99" x="38" y="305.0731">generate_uml</text><text fill="#000000" font-family="sans-serif" font-size="14" lengthAdjust="spacing" textLength="76" x="137" y="305.0731">(directory:</text><text fill="#191970" font-family="sans-serif" font-size="14" lengthAdjust="spacing" textLength="20" x="217" y="305.0731">str</text><text fill="#000000" font-family="sans-serif" font-size="14" lengthAdjust="spacing" textLength="21" x="237" y="305.0731">) &#8594;</text><text fill="#191970" font-family="sans-serif" font-size="14" lengthAdjust="spacing" textLength="20" x="262" y="305.0731">str</text></g><!--class SourceFile--><g id="elem_SourceFile"><rect codeLine="12" fill="#FFFFFF" height="172.6719" id="SourceFile" rx="2.5" ry="2.5" style="stroke:#181818;stroke-width:0.5;" width="271" x="1142" y="108.578"/><text fill="#000000" font-family="sans-serif" font-size="14" lengthAdjust="spacing" textLength="74" x="1240.5" y="126.5731">SourceFile</text><line style="stroke:#181818;stroke-width:0.5;" x1="1143" x2="1412" y1="134.8749" y2="134.8749"/><ellipse cx="1153" cy="148.5233" fill="none" rx="3" ry="3" style="stroke:#038048;stroke-width:1.0;"/><text fill="#000000" font-family="sans-serif" font-size="14" lengthAdjust="spacing" textLength="55" x="1162" y="151.87">classes:</text><text fill="#191970" font-family="sans-serif" font-size="14" lengthAdjust="spacing" textLength="117" x="1221" y="151.87">list[SourceClass]</text><ellipse cx="1153" cy="164.8202" fill="none" rx="3" ry="3" style="stroke:#038048;stroke-width:1.0;"/><text fill="#000000" font-family="sans-serif" font-size="14" lengthAdjust="spacing" textLength="72" x="1162" y="168.1669">functions:</text><text fill="#191970" font-family="sans-serif" font-size="14" lengthAdjust="spacing" textLength="143" x="1238" y="168.1669">list[SourceFunction]</text><ellipse cx="1153" cy="181.1171" fill="none" rx="3" ry="3" style="stroke:#038048;stroke-width:1.0;"/><text fill="#000000" font-family="sans-serif" font-size="14" lengthAdjust="spacing" textLength="62" x="1162" y="184.4637">imports:</text><text fill="#191970" font-family="sans-serif" font-size="14" lengthAdjust="spacing" textLength="52" x="1228" y="184.4637">list[str]</text><ellipse cx="1153" cy="197.4139" fill="none" rx="3" ry="3" style="stroke:#038048;stroke-width:1.0;"/><text fill="#000000" font-family="sans-serif" font-size="14" lengthAdjust="spacing" textLength="45" x="1162" y="200.7606">name:</text><text fill="#191970" font-family="sans-serif" font-size="14" lengthAdjust="spacing" textLength="20" x="1211" y="200.7606">str</text><ellipse cx="1153" cy="213.7108" fill="none" rx="3" ry="3" style="stroke:#038048;stroke-width:1.0;"/><text fill="#000000" font-family="sans-serif" font-size="14" lengthAdjust="spacing" textLength="69" x="1162" y="217.0575">variables:</text><text fill="#191970" font-family="sans-serif" font-size="14" lengthAdjust="spacing" textLength="140" x="1235" y="217.0575">list[SourceVariable]</text><line style="stroke:#181818;stroke-width:0.5;" x1="1143" x2="1412" y1="224.3592" y2="224.3592"/><ellipse cx="1153" cy="238.0077" fill="#84BE84" rx="3" ry="3" style="stroke:#038048;stroke-width:1.0;"/><text fill="#8B0000" font-family="sans-serif" font-size="14" lengthAdjust="spacing" textLength="52" x="1162" y="241.3544">__init__</text><text fill="#000000" font-family="sans-serif" font-size="14" lengthAdjust="spacing" textLength="52" x="1214" y="241.3544">(self) &#8594;</text><text fill="#191970" font-family="sans-serif" font-size="14" lengthAdjust="spacing" textLength="37" x="1270" y="241.3544">None</text><ellipse cx="1153" cy="254.3046" fill="#84BE84" rx="3" ry="3" style="stroke:#038048;stroke-width:1.0;"/><text fill="#8B0000" font-family="sans-serif" font-size="14" lengthAdjust="spacing" textLength="48" x="1162" y="257.6512">__str__</text><text fill="#000000" font-family="sans-serif" font-size="14" lengthAdjust="spacing" textLength="52" x="1210" y="257.6512">(self) &#8594;</text><text fill="#191970" font-family="sans-serif" font-size="14" lengthAdjust="spacing" textLength="20" x="1266" y="257.6512">str</text><ellipse cx="1153" cy="270.6014" fill="#84BE84" rx="3" ry="3" style="stroke:#038048;stroke-width:1.0;"/><text fill="#8B0000" font-family="sans-serif" font-size="14" lengthAdjust="spacing" textLength="169" x="1162" y="273.9481">get_connection_strings</text><text fill="#000000" font-family="sans-serif" font-size="14" lengthAdjust="spacing" textLength="52" x="1331" y="273.9481">(self) &#8594;</text><text fill="#191970" font-family="sans-serif" font-size="14" lengthAdjust="spacing" textLength="20" x="1387" y="273.9481">str</text></g><!--class SourceFunction--><g id="elem_SourceFunction"><rect codeLine="25" fill="#FFFFFF" height="140.0781" id="SourceFunction" rx="2.5" ry="2.5" style="stroke:#181818;stroke-width:0.5;" width="268" x="2120" y="177.078"/><text fill="#000000" font-family="sans-serif" font-size="14" lengthAdjust="spacing" textLength="111" x="2198.5" y="195.0731">SourceFunction</text><line style="stroke:#181818;stroke-width:0.5;" x1="2121" x2="2387" y1="203.3749" y2="203.3749"/><ellipse cx="2131" cy="217.0233" fill="none" rx="3" ry="3" style="stroke:#038048;stroke-width:1.0;"/><text fill="#000000" font-family="sans-serif" font-size="14" lengthAdjust="spacing" textLength="45" x="2140" y="220.37">name:</text><text fill="#191970" font-family="sans-serif" font-size="14" lengthAdjust="spacing" textLength="20" x="2189" y="220.37">str</text><ellipse cx="2131" cy="233.3202" fill="none" rx="3" ry="3" style="stroke:#038048;stroke-width:1.0;"/><text fill="#000000" font-family="sans-serif" font-size="14" lengthAdjust="spacing" textLength="58" x="2140" y="236.6669">params:</text><text fill="#191970" font-family="sans-serif" font-size="14" lengthAdjust="spacing" textLength="140" x="2202" y="236.6669">list[SourceVariable]</text><ellipse cx="2131" cy="249.6171" fill="none" rx="3" ry="3" style="stroke:#038048;stroke-width:1.0;"/><text fill="#000000" font-family="sans-serif" font-size="14" lengthAdjust="spacing" textLength="57" x="2140" y="252.9637">returns:</text><text fill="#191970" font-family="sans-serif" font-size="14" lengthAdjust="spacing" textLength="85" x="2201" y="252.9637">SourceType</text><line style="stroke:#181818;stroke-width:0.5;" x1="2121" x2="2387" y1="260.2655" y2="260.2655"/><ellipse cx="2131" cy="273.9139" fill="#84BE84" rx="3" ry="3" style="stroke:#038048;stroke-width:1.0;"/><text fill="#8B0000" font-family="sans-serif" font-size="14" lengthAdjust="spacing" textLength="52" x="2140" y="277.2606">__init__</text><text fill="#000000" font-family="sans-serif" font-size="14" lengthAdjust="spacing" textLength="52" x="2192" y="277.2606">(self) &#8594;</text><text fill="#191970" font-family="sans-serif" font-size="14" lengthAdjust="spacing" textLength="37" x="2248" y="277.2606">None</text><ellipse cx="2131" cy="290.2108" fill="#84BE84" rx="3" ry="3" style="stroke:#038048;stroke-width:1.0;"/><text fill="#8B0000" font-family="sans-serif" font-size="14" lengthAdjust="spacing" textLength="48" x="2140" y="293.5575">__str__</text><text fill="#000000" font-family="sans-serif" font-size="14" lengthAdjust="spacing" textLength="52" x="2188" y="293.5575">(self) &#8594;</text><text fill="#191970" font-family="sans-serif" font-size="14" lengthAdjust="spacing" textLength="20" x="2244" y="293.5575">str</text><ellipse cx="2131" cy="306.5077" fill="#84BE84" rx="3" ry="3" style="stroke:#038048;stroke-width:1.0;"/><text fill="#8B0000" font-family="sans-serif" font-size="14" lengthAdjust="spacing" textLength="133" x="2140" y="309.8544">get_dependencies</text><text fill="#000000" font-family="sans-serif" font-size="14" lengthAdjust="spacing" textLength="52" x="2273" y="309.8544">(self) &#8594;</text><text fill="#191970" font-family="sans-serif" font-size="14" lengthAdjust="spacing" textLength="53" x="2329" y="309.8544">set[str]</text></g><!--class SourceClass--><g id="elem_SourceClass"><rect codeLine="36" fill="#FFFFFF" height="156.375" id="SourceClass" rx="2.5" ry="2.5" style="stroke:#181818;stroke-width:0.5;" width="268" x="1792" y="161.078"/><text fill="#000000" font-family="sans-serif" font-size="14" lengthAdjust="spacing" textLength="85" x="1883.5" y="179.0731">SourceClass</text><line style="stroke:#181818;stroke-width:0.5;" x1="1793" x2="2059" y1="187.3749" y2="187.3749"/><ellipse cx="1803" cy="201.0233" fill="none" rx="3" ry="3" style="stroke:#038048;stroke-width:1.0;"/><text fill="#000000" font-family="sans-serif" font-size="14" lengthAdjust="spacing" textLength="46" x="1812" y="204.37">bases:</text><text fill="#191970" font-family="sans-serif" font-size="14" lengthAdjust="spacing" textLength="52" x="1862" y="204.37">list[str]</text><ellipse cx="1803" cy="217.3202" fill="none" rx="3" ry="3" style="stroke:#038048;stroke-width:1.0;"/><text fill="#000000" font-family="sans-serif" font-size="14" lengthAdjust="spacing" textLength="69" x="1812" y="220.6669">methods:</text><text fill="#191970" font-family="sans-serif" font-size="14" lengthAdjust="spacing" textLength="143" x="1885" y="220.6669">list[SourceFunction]</text><ellipse cx="1803" cy="233.6171" fill="none" rx="3" ry="3" style="stroke:#038048;stroke-width:1.0;"/><text fill="#000000" font-family="sans-serif" font-size="14" lengthAdjust="spacing" textLength="45" x="1812" y="236.9637">name:</text><text fill="#191970" font-family="sans-serif" font-size="14" lengthAdjust="spacing" textLength="20" x="1861" y="236.9637">str</text><ellipse cx="1803" cy="249.9139" fill="none" rx="3" ry="3" style="stroke:#038048;stroke-width:1.0;"/><text fill="#000000" font-family="sans-serif" font-size="14" lengthAdjust="spacing" textLength="69" x="1812" y="253.2606">variables:</text><text fill="#191970" font-family="sans-serif" font-size="14" lengthAdjust="spacing" textLength="140" x="1885" y="253.2606">list[SourceVariable]</text><line style="stroke:#181818;stroke-width:0.5;" x1="1793" x2="2059" y1="260.5624" y2="260.5624"/><ellipse cx="1803" cy="274.2108" fill="#84BE84" rx="3" ry="3" style="stroke:#038048;stroke-width:1.0;"/><text fill="#8B0000" font-family="sans-serif" font-size="14" lengthAdjust="spacing" textLength="52" x="1812" y="277.5575">__init__</text><text fill="#000000" font-family="sans-serif" font-size="14" lengthAdjust="spacing" textLength="52" x="1864" y="277.5575">(self) &#8594;</text><text fill="#191970" font-family="sans-serif" font-size="14" lengthAdjust="spacing" textLength="37" x="1920" y="277.5575">None</text><ellipse cx="1803" cy="290.5077" fill="#84BE84" rx="3" ry="3" style="stroke:#038048;stroke-width:1.0;"/><text fill="#8B0000" font-family="sans-serif" font-size="14" lengthAdjust="spacing" textLength="48" x="1812" y="293.8544">__str__</text><text fill="#000000" font-family="sans-serif" font-size="14" lengthAdjust="spacing" textLength="52" x="1860" y="293.8544">(self) &#8594;</text><text fill="#191970" font-family="sans-serif" font-size="14" lengthAdjust="spacing" textLength="20" x="1916" y="293.8544">str</text><ellipse cx="1803" cy="306.8046" fill="#84BE84" rx="3" ry="3" style="stroke:#038048;stroke-width:1.0;"/><text fill="#8B0000" font-family="sans-serif" font-size="14" lengthAdjust="spacing" textLength="133" x="1812" y="310.1512">get_dependencies</text><text fill="#000000" font-family="sans-serif" font-size="14" lengthAdjust="spacing" textLength="52" x="1945" y="310.1512">(self) &#8594;</text><text fill="#191970" font-family="sans-serif" font-size="14" lengthAdjust="spacing" textLength="53" x="2001" y="310.1512">set[str]</text></g><!--class SourceType--><g id="elem_SourceType"><rect codeLine="48" fill="#FFFFFF" height="107.4844" id="SourceType" rx="2.5" ry="2.5" style="stroke:#181818;stroke-width:0.5;" width="492" x="3021" y="209.578"/><text fill="#000000" font-family="sans-serif" font-size="14" lengthAdjust="spacing" textLength="85" x="3224.5" y="227.5731">SourceType</text><line style="stroke:#181818;stroke-width:0.5;" x1="3022" x2="3512" y1="235.8749" y2="235.8749"/><ellipse cx="3032" cy="249.5233" fill="none" rx="3" ry="3" style="stroke:#038048;stroke-width:1.0;"/><text fill="#000000" font-family="sans-serif" font-size="14" lengthAdjust="spacing" textLength="106" x="3041" y="252.87">dependencies:</text><text fill="#191970" font-family="sans-serif" font-size="14" lengthAdjust="spacing" textLength="53" x="3151" y="252.87">set[str]</text><ellipse cx="3032" cy="265.8202" fill="none" rx="3" ry="3" style="stroke:#038048;stroke-width:1.0;"/><text fill="#000000" font-family="sans-serif" font-size="14" lengthAdjust="spacing" textLength="68" x="3041" y="269.1669">readable:</text><text fill="#191970" font-family="sans-serif" font-size="14" lengthAdjust="spacing" textLength="20" x="3113" y="269.1669">str</text><line style="stroke:#181818;stroke-width:0.5;" x1="3022" x2="3512" y1="276.4686" y2="276.4686"/><ellipse cx="3032" cy="290.1171" fill="#84BE84" rx="3" ry="3" style="stroke:#038048;stroke-width:1.0;"/><text fill="#8B0000" font-family="sans-serif" font-size="14" lengthAdjust="spacing" textLength="52" x="3041" y="293.4637">__init__</text><text fill="#000000" font-family="sans-serif" font-size="14" lengthAdjust="spacing" textLength="107" x="3093" y="293.4637">(self, readable:</text><text fill="#191970" font-family="sans-serif" font-size="14" lengthAdjust="spacing" textLength="20" x="3204" y="293.4637">str</text><text fill="#000000" font-family="sans-serif" font-size="14" lengthAdjust="spacing" textLength="114" x="3224" y="293.4637">, dependencies:</text><text fill="#191970" font-family="sans-serif" font-size="14" lengthAdjust="spacing" textLength="103" x="3342" y="293.4637">set[str] | None</text><text fill="#000000" font-family="sans-serif" font-size="14" lengthAdjust="spacing" textLength="21" x="3445" y="293.4637">) &#8594;</text><text fill="#191970" font-family="sans-serif" font-size="14" lengthAdjust="spacing" textLength="37" x="3470" y="293.4637">None</text><ellipse cx="3032" cy="306.4139" fill="#84BE84" rx="3" ry="3" style="stroke:#038048;stroke-width:1.0;"/><text fill="#8B0000" font-family="sans-serif" font-size="14" lengthAdjust="spacing" textLength="48" x="3041" y="309.7606">__str__</text><text fill="#000000" font-family="sans-serif" font-size="14" lengthAdjust="spacing" textLength="52" x="3089" y="309.7606">(self) &#8594;</text><text fill="#191970" font-family="sans-serif" font-size="14" lengthAdjust="spacing" textLength="20" x="3145" y="309.7606">str</text></g><!--class SourceVariable--><g id="elem_SourceVariable"><rect codeLine="57" fill="#FFFFFF" height="140.0781" id="SourceVariable" rx="2.5" ry="2.5" style="stroke:#181818;stroke-width:0.5;" width="513" x="2448" y="92.078"/><text fill="#000000" font-family="sans-serif" font-size="14" lengthAdjust="spacing" textLength="108" x="2650.5" y="110.0731">SourceVariable</text><line style="stroke:#181818;stroke-width:0.5;" x1="2449" x2="2960" y1="118.3749" y2="118.3749"/><ellipse cx="2459" cy="132.0233" fill="none" rx="3" ry="3" style="stroke:#038048;stroke-width:1.0;"/><text fill="#000000" font-family="sans-serif" font-size="14" lengthAdjust="spacing" textLength="45" x="2468" y="135.37">name:</text><text fill="#191970" font-family="sans-serif" font-size="14" lengthAdjust="spacing" textLength="20" x="2517" y="135.37">str</text><ellipse cx="2459" cy="148.3202" fill="none" rx="3" ry="3" style="stroke:#038048;stroke-width:1.0;"/><text fill="#000000" font-family="sans-serif" font-size="14" lengthAdjust="spacing" textLength="46" x="2468" y="151.6669">static:</text><text fill="#191970" font-family="sans-serif" font-size="14" lengthAdjust="spacing" textLength="32" x="2518" y="151.6669">bool</text><ellipse cx="2459" cy="164.6171" fill="none" rx="3" ry="3" style="stroke:#038048;stroke-width:1.0;"/><text fill="#000000" font-family="sans-serif" font-size="14" lengthAdjust="spacing" textLength="39" x="2468" y="167.9637">type:</text><text fill="#191970" font-family="sans-serif" font-size="14" lengthAdjust="spacing" textLength="85" x="2511" y="167.9637">SourceType</text><line style="stroke:#181818;stroke-width:0.5;" x1="2449" x2="2960" y1="175.2655" y2="175.2655"/><ellipse cx="2459" cy="188.9139" fill="#84BE84" rx="3" ry="3" style="stroke:#038048;stroke-width:1.0;"/><text fill="#8B0000" font-family="sans-serif" font-size="14" lengthAdjust="spacing" textLength="52" x="2468" y="192.2606">__init__</text><text fill="#000000" font-family="sans-serif" font-size="14" lengthAdjust="spacing" textLength="84" x="2520" y="192.2606">(self, name:</text><text fill="#191970" font-family="sans-serif" font-size="14" lengthAdjust="spacing" textLength="20" x="2608" y="192.2606">str</text><text fill="#000000" font-family="sans-serif" font-size="14" lengthAdjust="spacing" textLength="86" x="2628" y="192.2606">, data_type:</text><text fill="#191970" font-family="sans-serif" font-size="14" lengthAdjust="spacing" textLength="85" x="2718" y="192.2606">SourceType</text><text fill="#000000" font-family="sans-serif" font-size="14" lengthAdjust="spacing" textLength="54" x="2803" y="192.2606">, static:</text><text fill="#191970" font-family="sans-serif" font-size="14" lengthAdjust="spacing" textLength="32" x="2861" y="192.2606">bool</text><text fill="#000000" font-family="sans-serif" font-size="14" lengthAdjust="spacing" textLength="21" x="2893" y="192.2606">) &#8594;</text><text fill="#191970" font-family="sans-serif" font-size="14" lengthAdjust="spacing" textLength="37" x="2918" y="192.2606">None</text><ellipse cx="2459" cy="205.2108" fill="#84BE84" rx="3" ry="3" style="stroke:#038048;stroke-width:1.0;"/><text fill="#8B0000" font-family="sans-serif" font-size="14" lengthAdjust="spacing" textLength="48" x="2468" y="208.5575">__str__</text><text fill="#000000" font-family="sans-serif" font-size="14" lengthAdjust="spacing" textLength="52" x="2516" y="208.5575">(self) &#8594;</text><text fill="#191970" font-family="sans-serif" font-size="14" lengthAdjust="spacing" textLength="20" x="2572" y="208.5575">str</text><ellipse cx="2459" cy="221.5077" fill="#84BE84" rx="3" ry="3" style="stroke:#038048;stroke-width:1.0;"/><text fill="#8B0000" font-family="sans-serif" font-size="14" lengthAdjust="spacing" textLength="133" x="2468" y="224.8544">get_dependencies</text><text fill="#000000" font-family="sans-serif" font-size="14" lengthAdjust="spacing" textLength="52" x="2601" y="224.8544">(self) &#8594;</text><text fill="#191970" font-family="sans-serif" font-size="14" lengthAdjust="spacing" textLength="53" x="2657" y="224.8544">set[str]</text></g><!--class UMLFile--><g id="elem_UMLFile"><rect codeLine="68" fill="#FFFFFF" height="91.1875" id="UMLFile" rx="2.5" ry="2.5" style="stroke:#181818;stroke-width:0.5;" width="378" x="385" y="225.578"/><text fill="#000000" font-family="sans-serif" font-size="14" lengthAdjust="spacing" textLength="54" x="547" y="243.5731">UMLFile</text><line style="stroke:#181818;stroke-width:0.5;" x1="386" x2="762" y1="251.8749" y2="251.8749"/><ellipse cx="396" cy="265.5233" fill="none" rx="3" ry="3" style="stroke:#038048;stroke-width:1.0;"/><text fill="#000000" font-family="sans-serif" font-size="14" lengthAdjust="spacing" textLength="89" x="405" y="268.87">source_files:</text><text fill="#191970" font-family="sans-serif" font-size="14" lengthAdjust="spacing" textLength="106" x="498" y="268.87">list[SourceFile]</text><line style="stroke:#181818;stroke-width:0.5;" x1="386" x2="762" y1="276.1718" y2="276.1718"/><ellipse cx="396" cy="289.8202" fill="#84BE84" rx="3" ry="3" style="stroke:#038048;stroke-width:1.0;"/><text fill="#8B0000" font-family="sans-serif" font-size="14" lengthAdjust="spacing" textLength="52" x="405" y="293.1669">__init__</text><text fill="#000000" font-family="sans-serif" font-size="14" lengthAdjust="spacing" textLength="128" x="457" y="293.1669">(self, source_files:</text><text fill="#191970" font-family="sans-serif" font-size="14" lengthAdjust="spacing" textLength="106" x="589" y="293.1669">list[SourceFile]</text><text fill="#000000" font-family="sans-serif" font-size="14" lengthAdjust="spacing" textLength="21" x="695" y="293.1669">) &#8594;</text><text fill="#191970" font-family="sans-serif" font-size="14" lengthAdjust="spacing" textLength="37" x="720" y="293.1669">None</text><ellipse cx="396" cy="306.1171" fill="#84BE84" rx="3" ry="3" style="stroke:#038048;stroke-width:1.0;"/><text fill="#8B0000" font-family="sans-serif" font-size="14" lengthAdjust="spacing" textLength="48" x="405" y="309.4637">__str__</text><text fill="#000000" font-family="sans-serif" font-size="14" lengthAdjust="spacing" textLength="52" x="453" y="309.4637">(self) &#8594;</text><text fill="#191970" font-family="sans-serif" font-size="14" lengthAdjust="spacing" textLength="20" x="509" y="309.4637">str</text></g><g id="elem_get_matching_module"><rect fill="#FFFFFF" height="20.2969" style="stroke:#181818;stroke-width:0.5;" width="488" x="1033.5" y="459.078"/><text fill="#8B0000" font-family="sans-serif" font-size="14" lengthAdjust="spacing" textLength="160" x="1040.5" y="474.0731">get_matching_module</text><text fill="#000000" font-family="sans-serif" font-size="14" lengthAdjust="spacing" textLength="70" x="1200.5" y="474.0731">(modules:</text><text fill="#191970" font-family="sans-serif" font-size="14" lengthAdjust="spacing" textLength="52" x="1274.5" y="474.0731">list[str]</text><text fill="#000000" font-family="sans-serif" font-size="14" lengthAdjust="spacing" textLength="69" x="1326.5" y="474.0731">, snippet:</text><text fill="#191970" font-family="sans-serif" font-size="14" lengthAdjust="spacing" textLength="20" x="1399.5" y="474.0731">str</text><text fill="#000000" font-family="sans-serif" font-size="14" lengthAdjust="spacing" textLength="21" x="1419.5" y="474.0731">) &#8594;</text><text fill="#191970" font-family="sans-serif" font-size="14" lengthAdjust="spacing" textLength="70" x="1444.5" y="474.0731">str | None</text></g><g id="elem_encode"><rect fill="#FFFFFF" height="20.2969" style="stroke:#181818;stroke-width:0.5;" width="330" x="1112.5" y="554.078"/><text fill="#8B0000" font-family="sans-serif" font-size="14" lengthAdjust="spacing" textLength="53" x="1119.5" y="569.0731">encode</text><text fill="#000000" font-family="sans-serif" font-size="14" lengthAdjust="spacing" textLength="68" x="1172.5" y="569.0731">(diagram:</text><text fill="#191970" font-family="sans-serif" font-size="14" lengthAdjust="spacing" textLength="20" x="1244.5" y="569.0731">str</text><text fill="#000000" font-family="sans-serif" font-size="14" lengthAdjust="spacing" textLength="102" x="1264.5" y="569.0731">, render_type:</text><text fill="#191970" font-family="sans-serif" font-size="14" lengthAdjust="spacing" textLength="20" x="1370.5" y="569.0731">str</text><text fill="#000000" font-family="sans-serif" font-size="14" lengthAdjust="spacing" textLength="21" x="1390.5" y="569.0731">) &#8594;</text><text fill="#191970" font-family="sans-serif" font-size="14" lengthAdjust="spacing" textLength="20" x="1415.5" y="569.0731">str</text></g><g id="elem_annotation_to_type"><rect fill="#FFFFFF" height="20.2969" style="stroke:#181818;stroke-width:0.5;" width="425" x="1065" y="775.078"/><text fill="#8B0000" font-family="sans-serif" font-size="14" lengthAdjust="spacing" textLength="143" x="1072" y="790.0731">annotation_to_type</text><text fill="#000000" font-family="sans-serif" font-size="14" lengthAdjust="spacing" textLength="46" x="1215" y="790.0731">(node:</text><text fill="#191970" font-family="sans-serif" font-size="14" lengthAdjust="spacing" textLength="108" x="1265" y="790.0731">NodeNG | None</text><text fill="#000000" font-family="sans-serif" font-size="14" lengthAdjust="spacing" textLength="21" x="1373" y="790.0731">) &#8594;</text><text fill="#191970" font-family="sans-serif" font-size="14" lengthAdjust="spacing" textLength="85" x="1398" y="790.0731">SourceType</text></g><g id="elem_get_function"><rect fill="#FFFFFF" height="20.2969" style="stroke:#181818;stroke-width:0.5;" width="380" x="1087.5" y="720.078"/><text fill="#8B0000" font-family="sans-serif" font-size="14" lengthAdjust="spacing" textLength="92" x="1094.5" y="735.0731">get_function</text><text fill="#000000" font-family="sans-serif" font-size="14" lengthAdjust="spacing" textLength="46" x="1186.5" y="735.0731">(node:</text><text fill="#191970" font-family="sans-serif" font-size="14" lengthAdjust="spacing" textLength="88" x="1236.5" y="735.0731">FunctionDef</text><text fill="#000000" font-family="sans-serif" font-size="14" lengthAdjust="spacing" textLength="21" x="1324.5" y="735.0731">) &#8594;</text><text fill="#191970" font-family="sans-serif" font-size="14" lengthAdjust="spacing" textLength="111" x="1349.5" y="735.0731">SourceFunction</text></g><g id="elem_get_class"><rect fill="#FFFFFF" height="20.2969" style="stroke:#181818;stroke-width:0.5;" width="302" x="1126.5" y="665.078"/><text fill="#8B0000" font-family="sans-serif" font-size="14" lengthAdjust="spacing" textLength="66" x="1133.5" y="680.0731">get_class</text><text fill="#000000" font-family="sans-serif" font-size="14" lengthAdjust="spacing" textLength="46" x="1199.5" y="680.0731">(node:</text><text fill="#191970" font-family="sans-serif" font-size="14" lengthAdjust="spacing" textLength="62" x="1249.5" y="680.0731">ClassDef</text><text fill="#000000" font-family="sans-serif" font-size="14" lengthAdjust="spacing" textLength="21" x="1311.5" y="680.0731">) &#8594;</text><text fill="#191970" font-family="sans-serif" font-size="14" lengthAdjust="spacing" textLength="85" x="1336.5" y="680.0731">SourceClass</text></g><g id="elem_get_module_info"><rect fill="#FFFFFF" height="20.2969" style="stroke:#181818;stroke-width:0.5;" width="837" x="859" y="830.078"/><text fill="#8B0000" font-family="sans-serif" font-size="14" lengthAdjust="spacing" textLength="120" x="866" y="845.0731">get_module_info</text><text fill="#000000" font-family="sans-serif" font-size="14" lengthAdjust="spacing" textLength="41" x="986" y="845.0731">(root:</text><text fill="#191970" font-family="sans-serif" font-size="14" lengthAdjust="spacing" textLength="20" x="1031" y="845.0731">str</text><text fill="#000000" font-family="sans-serif" font-size="14" lengthAdjust="spacing" textLength="77" x="1051" y="845.0731">, file_path:</text><text fill="#191970" font-family="sans-serif" font-size="14" lengthAdjust="spacing" textLength="20" x="1132" y="845.0731">str</text><text fill="#000000" font-family="sans-serif" font-size="14" lengthAdjust="spacing" textLength="127" x="1152" y="845.0731">, known_modules:</text><text fill="#191970" font-family="sans-serif" font-size="14" lengthAdjust="spacing" textLength="52" x="1283" y="845.0731">list[str]</text><text fill="#000000" font-family="sans-serif" font-size="14" lengthAdjust="spacing" textLength="219" x="1335" y="845.0731">, with_external_dependencies:</text><text fill="#191970" font-family="sans-serif" font-size="14" lengthAdjust="spacing" textLength="32" x="1558" y="845.0731">bool</text><text fill="#000000" font-family="sans-serif" font-size="14" lengthAdjust="spacing" textLength="21" x="1590" y="845.0731">) &#8594;</text><text fill="#191970" font-family="sans-serif" font-size="14" lengthAdjust="spacing" textLength="74" x="1615" y="845.0731">SourceFile</text></g><!--link pypu to SourceFile--><g id="link_pypu_SourceFile"><path codeLine="87" d="M198.7222,353.1272 C198.9558,353.1622 199.1903,353.1971 199.4254,353.2319 C200.3661,353.3709 201.3184,353.5073 202.2818,353.6407 C209.989,354.7079 218.4038,355.582 227.1905,356.0303 C262.3373,357.8233 303.4345,352.803 329,326.078 C347.015,307.246 318.087,227.007 337,209.078 C551.216,6 931.992,83.013 1136.84,145.622 " fill="none" id="pypu-to-SourceFile" style="stroke:#181818;stroke-width:1.0;stroke-dasharray:7.0,7.0;"/><polygon fill="#181818" points="1141.65,147.098,1134.2251,140.6272,1136.8713,145.627,1131.8715,148.2731,1141.65,147.098" style="stroke:#181818;stroke-width:1.0;"/></g><!--link pypu to UMLFile--><g id="link_pypu_UMLFile"><path codeLine="88" d="M313.3677,328.5875 C313.9544,328.4978 314.5404,328.4077 315.1257,328.3173 C319.8078,327.5936 324.4414,326.8472 329,326.078 C345.492,323.295 362.544,320.105 379.616,316.692 " fill="none" id="pypu-to-UMLFile" style="stroke:#181818;stroke-width:1.0;stroke-dasharray:7.0,7.0;"/><polygon fill="#181818" points="384.914,315.627,375.302,313.48,380.0121,316.6128,376.8793,321.3229,384.914,315.627" style="stroke:#181818;stroke-width:1.0;"/></g><!--link pypu to get_module_info--><g id="link_pypu_get_module_info"><path codeLine="89" d="M168.0231,353.1396 C168.2238,353.367 168.4286,353.5989 168.6375,353.8353 C169.0555,354.3081 169.49,354.7989 169.9411,355.3074 C171.7454,357.3416 173.8139,359.6595 176.1384,362.2433 C185.4366,372.5785 198.8315,387.1682 215.8025,404.8708 C249.7443,440.2758 297.9901,488.1321 356.3738,539.3054 C473.141,641.652 630.4595,757.267 795,813.078 C917.026,854.4682 1066.35,855.8508 1166.06,850.3702 " fill="none" id="pypu-to-get_module_info" style="stroke:#181818;stroke-width:1.0;stroke-dasharray:7.0,7.0;"/><polygon fill="#181818" points="1171.06,850.0869,1161.8461,846.6077,1166.0682,850.3726,1162.3033,854.5946,1171.06,850.0869" style="stroke:#181818;stroke-width:1.0;"/></g><!--link pypu to encode--><g id="link_pypu_encode"><path codeLine="90" d="M190.7152,353.1177 C191.1389,353.2313 191.5669,353.346 191.9989,353.4618 C193.7272,353.9249 195.5217,354.4052 197.3809,354.9021 C204.8177,356.8898 213.2896,359.1439 222.6976,361.6315 C260.3296,371.5817 312.9404,385.2672 374.2035,400.5784 C496.7297,431.2007 653.8655,468.326 795,495.078 C929.902,520.649 1087.67,541.571 1184.85,553.436 " fill="none" id="pypu-to-encode" style="stroke:#181818;stroke-width:1.0;stroke-dasharray:7.0,7.0;"/><polygon fill="#181818" points="1190,554.064,1181.5452,549.0127,1185.0361,553.4639,1180.585,556.9549,1190,554.064" style="stroke:#181818;stroke-width:1.0;"/></g><!--link SourceFile to SourceClass--><g id="link_SourceFile_SourceClass"><path codeLine="91" d="M1426.47,205.148 C1532.12,212.339 1673.6,221.968 1778.84,229.131 " fill="none" id="SourceFile-SourceClass" style="stroke:#181818;stroke-width:1.0;"/><polygon fill="none" points="1413.24,204.248,1418.9535,208.6475,1425.2121,205.0656,1419.4986,200.6661,1413.24,204.248" style="stroke:#181818;stroke-width:1.0;"/><polygon fill="#181818" points="1791.82,230.014,1783.1134,225.4101,1786.8316,229.6733,1782.5684,233.3915,1791.82,230.014" style="stroke:#181818;stroke-width:1.0;"/><line style="stroke:#181818;stroke-width:1.0;" x1="1786.8316" x2="1778.85" y1="229.6733" y2="229.1305"/></g><!--link SourceFile to SourceVariable--><g id="link_SourceFile_SourceVariable"><path codeLine="92" d="M1425.99,166.109 C1522.79,148.603 1652.4,127.999 1768,119.078 C2053.51,97.046 2126.34,119.101 2412,139.078 C2419.54,139.605 2427.19,140.149 2434.92,140.706 " fill="none" id="SourceFile-SourceVariable" style="stroke:#181818;stroke-width:1.0;"/><polygon fill="none" points="1413.16,168.447,1419.7794,171.3076,1424.9659,166.2976,1418.3465,163.437,1413.16,168.447" style="stroke:#181818;stroke-width:1.0;"/><polygon fill="#181818" points="2447.97,141.655,2439.2838,137.0128,2442.9832,141.2924,2438.7036,144.9917,2447.97,141.655" style="stroke:#181818;stroke-width:1.0;"/><line style="stroke:#181818;stroke-width:1.0;" x1="2442.9832" x2="2435.01" y1="141.2924" y2="140.713"/></g><!--link SourceFile to SourceFunction--><g id="link_SourceFile_SourceFunction"><path codeLine="93" d="M1426.24,157.289 C1590.14,121.899 1860.91,82.973 2084,145.078 C2104.97,150.917 2125.95,160.14 2145.63,170.708 " fill="none" id="SourceFile-SourceFunction" style="stroke:#181818;stroke-width:1.0;"/><polygon fill="none" points="1413.16,160.154,1419.8777,162.7754,1424.8813,157.5827,1418.1635,154.9612,1413.16,160.154" style="stroke:#181818;stroke-width:1.0;"/><polygon fill="#181818" points="2157.05,177.069,2151.1348,169.1943,2152.6822,174.6354,2147.2411,176.1828,2157.05,177.069" style="stroke:#181818;stroke-width:1.0;"/><line style="stroke:#181818;stroke-width:1.0;" x1="2152.6822" x2="2145.695" y1="174.6354" y2="170.7465"/></g><!--link SourceFile to get_matching_module--><g id="link_SourceFile_get_matching_module"><path codeLine="94" d="M1277.5,325.607 C1277.5,325.7842 1277.5,325.9615 1277.5,326.1387 C1277.5,328.9743 1277.5,331.8098 1277.5,334.6454 C1277.5,340.3165 1277.5,345.9876 1277.5,351.6587 C1277.5,363.001 1277.5,374.3433 1277.5,385.6855 C1277.5,408.37 1277.5,431.0545 1277.5,453.739 " fill="none" id="SourceFile-to-get_matching_module" style="stroke:#181818;stroke-width:1.0;stroke-dasharray:7.0,7.0;"/><polygon fill="#181818" points="1277.5,458.984,1281.5,449.984,1277.5,453.984,1273.5,449.984,1277.5,458.984" style="stroke:#181818;stroke-width:1.0;"/></g><!--link SourceFunction to SourceVariable--><g id="link_SourceFunction_SourceVariable"><path codeLine="95" d="M2401.19,219.371 C2412.18,217.289 2423.46,215.151 2434.9,212.984 " fill="none" id="SourceFunction-SourceVariable" style="stroke:#181818;stroke-width:1.0;"/><polygon fill="none" points="2388.05,221.863,2394.6916,224.6717,2399.8388,219.6213,2393.1971,216.8126,2388.05,221.863" style="stroke:#181818;stroke-width:1.0;"/><polygon fill="#181818" points="2447.87,210.525,2438.2836,208.2663,2442.957,211.4537,2439.7696,216.1271,2447.87,210.525" style="stroke:#181818;stroke-width:1.0;"/><line style="stroke:#181818;stroke-width:1.0;" x1="2442.957" x2="2435.095" y1="211.4537" y2="212.946"/></g><!--link SourceFunction to SourceType--><g id="link_SourceFunction_SourceType"><path codeLine="96" d="M2401.63,249.399 C2560.04,251.906 2815.52,255.949 3007.74,258.991 " fill="none" id="SourceFunction-SourceType" style="stroke:#181818;stroke-width:1.0;"/><polygon fill="none" points="2388.21,249.186,2394.1477,253.2778,2400.2086,249.3706,2394.2708,245.2788,2388.21,249.186" style="stroke:#181818;stroke-width:1.0;"/><polygon fill="#181818" points="3020.88,259.199,3011.9472,255.0512,3015.8807,259.1166,3011.8153,263.0501,3020.88,259.199" style="stroke:#181818;stroke-width:1.0;"/><line style="stroke:#181818;stroke-width:1.0;" x1="3015.8807" x2="3007.885" y1="259.1166" y2="258.993"/></g><!--link SourceClass to SourceVariable--><g id="link_SourceClass_SourceVariable"><path codeLine="97" d="M2072.86,167.197 C2080.58,164.833 2088.33,162.764 2096,161.078 C2205.15,137.105 2328.01,133.148 2434.54,136.744 " fill="none" id="SourceClass-SourceVariable" style="stroke:#181818;stroke-width:1.0;"/><polygon fill="none" points="2060.32,171.29,2067.2663,173.2263,2071.7252,167.559,2064.779,165.6228,2060.32,171.29" style="stroke:#181818;stroke-width:1.0;"/><polygon fill="#181818" points="2447.79,137.233,2438.941,132.9093,2442.7933,137.0517,2438.6509,140.904,2447.79,137.233" style="stroke:#181818;stroke-width:1.0;"/><line style="stroke:#181818;stroke-width:1.0;" x1="2442.7933" x2="2434.795" y1="137.0517" y2="136.753"/></g><!--link SourceClass to SourceFunction--><g id="link_SourceClass_SourceFunction"><path codeLine="98" d="M2073.08,242.663 C2084.27,242.937 2095.57,243.215 2106.76,243.489 " fill="none" id="SourceClass-SourceFunction" style="stroke:#181818;stroke-width:1.0;"/><polygon fill="none" points="2060.07,242.343,2065.9715,246.4869,2072.0665,242.6331,2066.165,238.4892,2060.07,242.343" style="stroke:#181818;stroke-width:1.0;"/><polygon fill="#181818" points="2119.83,243.81,2110.934,239.5838,2114.8316,243.6836,2110.7318,247.5813,2119.83,243.81" style="stroke:#181818;stroke-width:1.0;"/><line style="stroke:#181818;stroke-width:1.0;" x1="2114.8316" x2="2106.835" y1="243.6836" y2="243.491"/></g><!--link SourceVariable to SourceType--><g id="link_SourceVariable_SourceType"><path codeLine="99" d="M2974.15,210.487 C2985.28,212.493 2996.44,214.504 3007.55,216.507 " fill="none" id="SourceVariable-SourceType" style="stroke:#181818;stroke-width:1.0;"/><polygon fill="none" points="2961.15,208.145,2966.3422,213.1491,2972.9584,210.2809,2967.7662,205.2768,2961.15,208.145" style="stroke:#181818;stroke-width:1.0;"/><polygon fill="#181818" points="3020.58,218.853,3012.4357,213.3149,3015.6598,217.963,3011.0117,221.1872,3020.58,218.853" style="stroke:#181818;stroke-width:1.0;"/><line style="stroke:#181818;stroke-width:1.0;" x1="3015.6598" x2="3007.78" y1="217.963" y2="216.548"/></g><!--link UMLFile to SourceFile--><g id="link_UMLFile_SourceFile"><path codeLine="100" d="M776.517,249.246 C888.955,237.064 1026.54,222.158 1128.9,211.069 " fill="none" id="UMLFile-SourceFile" style="stroke:#181818;stroke-width:1.0;"/><polygon fill="none" points="763.45,250.661,769.8459,253.9916,775.3802,249.3687,768.9843,246.0381,763.45,250.661" style="stroke:#181818;stroke-width:1.0;"/><polygon fill="#181818" points="1141.84,209.667,1132.4616,206.6595,1136.8691,210.2055,1133.3231,214.613,1141.84,209.667" style="stroke:#181818;stroke-width:1.0;"/><line style="stroke:#181818;stroke-width:1.0;" x1="1136.8691" x2="1128.91" y1="210.2055" y2="211.0675"/></g><!--link annotation_to_type to SourceType--><g id="link_annotation_to_type_SourceType"><path codeLine="101" d="M1503.24,781.273 C1584.48,777.583 1676.7,770.71 1760,758.078 C2288.01,678.008 2880.84,434.922 3136.85,321.952 " fill="none" id="annotation_to_type-SourceType" style="stroke:#181818;stroke-width:1.0;"/><polygon fill="none" points="1490.03,781.849,1496.2,785.5814,1502.0184,781.3215,1495.8484,777.5891,1490.03,781.849" style="stroke:#181818;stroke-width:1.0;"/><polygon fill="#181818" points="3148.79,316.672,3138.9412,316.6535,3144.2171,318.6941,3142.1766,323.9701,3148.79,316.672" style="stroke:#181818;stroke-width:1.0;"/><line style="stroke:#181818;stroke-width:1.0;" x1="3144.2171" x2="3136.9" y1="318.6941" y2="321.932"/></g><!--link get_function to SourceFunction--><g id="link_get_function_SourceFunction"><path codeLine="102" d="M1437.67,740.599 C1558.56,745.098 1711.95,742.181 1760,703.078 C1770.7,694.368 1760.72,684.804 1768,673.078 C1859.64,525.392 2018.24,400.302 2129.04,324.632 " fill="none" id="get_function-SourceFunction" style="stroke:#181818;stroke-width:1.0;"/><polygon fill="none" points="1424.59,740.079,1430.4271,744.3132,1436.5806,740.5537,1430.7435,736.3195,1424.59,740.079" style="stroke:#181818;stroke-width:1.0;"/><polygon fill="#181818" points="2139.95,317.238,2130.2566,318.9807,2135.8124,320.0451,2134.748,325.6009,2139.95,317.238" style="stroke:#181818;stroke-width:1.0;"/><line style="stroke:#181818;stroke-width:1.0;" x1="2135.8124" x2="2129.185" y1="320.0451" y2="324.533"/></g><!--link get_class to SourceClass--><g id="link_get_class_SourceClass"><path codeLine="103" d="M1349.53,686.819 C1456.55,699.981 1657.53,706.204 1760,590.078 C1771.78,576.731 1761.58,446.68 1768,430.078 C1782.47,392.67 1807.29,357.124 1832.98,327.065 " fill="none" id="get_class-SourceClass" style="stroke:#181818;stroke-width:1.0;"/><polygon fill="none" points="1336.33,685.101,1341.7659,689.8393,1348.2304,686.6439,1342.7945,681.9057,1336.33,685.101" style="stroke:#181818;stroke-width:1.0;"/><polygon fill="#181818" points="1841.71,317.087,1832.7738,321.2275,1838.418,320.8504,1838.7951,326.4946,1841.71,317.087" style="stroke:#181818;stroke-width:1.0;"/><line style="stroke:#181818;stroke-width:1.0;" x1="1838.418" x2="1833.145" y1="320.8504" y2="326.87"/></g><!--link get_module_info to SourceFile--><g id="link_get_module_info_SourceFile"><path codeLine="104" d="M1127.34,850.6962 C1004.61,856.0101 843.716,854.1935 795,813.078 C788.903,807.932 791.895,803.506 791,795.578 C787.935,768.417 787.935,330.739 791,303.578 C791.895,295.65 789.251,291.61 795,286.078 C882.557,201.812 1022.22,183.176 1128.8,183.207 " fill="none" id="get_module_info-SourceFile" style="stroke:#181818;stroke-width:1.0;"/><polygon fill="none" points="1140.6,850.0885,1134.4218,846.3697,1128.6128,850.6423,1134.791,854.3612,1140.6,850.0885" style="stroke:#181818;stroke-width:1.0;"/><polygon fill="#181818" points="1141.96,183.305,1132.9866,179.2457,1136.9601,183.272,1132.9338,187.2456,1141.96,183.305" style="stroke:#181818;stroke-width:1.0;"/><line style="stroke:#181818;stroke-width:1.0;" x1="1136.9601" x2="1128.96" y1="183.272" y2="183.208"/></g><!--link ModuleParser to SourceVariable--><g id="link_ModuleParser_SourceVariable"><path codeLine="105" d="M1355.916,893.1352 C1356.4746,893.1789 1357.0357,893.2225 1357.5992,893.266 C1359.8531,893.44 1362.1456,893.6125 1364.4754,893.7829 C1369.135,894.1238 1373.9437,894.4565 1378.8912,894.7769 C1398.6814,896.0585 1420.6931,897.1431 1444.2675,897.7656 C1538.565,900.2555 1657.865,895.3507 1760,866.078 C2149.48,754.45 2501.53,393.54 2640.57,236.368 " fill="none" id="ModuleParser-to-SourceVariable" style="stroke:#181818;stroke-width:1.0;stroke-dasharray:7.0,7.0;"/><polygon fill="#181818" points="2644.22,232.235,2635.2701,236.3458,2640.9156,235.9874,2641.274,241.6329,2644.22,232.235" style="stroke:#181818;stroke-width:1.0;"/></g><!--SRC=[xLZDRjGm4BxlKrYSYdORxgjg3sqf5rfLj711bULD9hjc7Jjo7CggzCe3y8Wy2OxpiwwpIRm15O4uTUECPxwPRxw9NGQnGaeWILThXI8g8LHKy4cseJmbaYGe9U66hE16RHcWMAz0- -Mfa178Cy64H2j9jfP5o4YMdMgpbHGvZqgR-pLLjXkn_AJZxhTQqmWG9AdQeWII9SYiN0gf31bCAWGetQOvUfYKdj2Bax1mCJydSlCEeiKAE4YY0ES9EtbbtYsEoco5tCvHPNv98ruKufJbiCYKh4rVeX_VlWyPlK0aGtQWoME3BYAA13SYbo5SK5t7Xucf2tgoD2sB1Tb-F8ncwcEvuQomkwi3wurnpWrlmrilAajxDqrI8LNVNfsclO7hBXWichRxJ2GbI-QHqOVASXS5O-t0eH5Zogd2kA4m0nPtatCbE5XeMiuqM6zVJnDhjPV2eU2y54_Xb_9LDiBpOqVFLAIvVRDRzkV4A6uC8LCaGUMogyVARRVR5FvQ2YD8WKV0GmhUv84ZZWu6ZM8T-kgrALgIVjKxyaj0hKKqJkl_fVkil1TwS6YlbgR83ZltYr9ea4H5jOSvz6PXvkzqTW1ez1NPB3u_rnsKrFtgq68j-wiaKqJHSB_bKWXccIfD- - -Vd3C_g3DJ07m8XfbtSl-oYjzVldroODizQ_9DpN1CVQPaiUjk3B_Ze_nPnUMAiYouBfzkTRjaVSTpXHEYmhK-Dk54H3bhu1sLZxvVHrqlJjCKrA-TwPtPLHtjMo3RwJB2rMiU2dqTwauNZ85r3o7wqfHuY5WM3IvxP3pgpbB2QULoQLAy9ZBhouLmBeeveO-zIXXaJLvSUvrtz5y4Ls-yFn3juMHmjqFtzLTzHVA0Lv-RpY7s1NVXU6ywfWxR1ysC5WzSvi1u0AWpss-3o4JhLQ8XNa-ZM3IWf13Aeq6BAOLJejOUjXikxZa-LDxtLAqnV54WEM5u-3JYzw7QJS-sv7VLA2HI_9iX21RkZTxwwTXKNupwx-vjMsM16y-njQTBKAcs6mSInyUBrXt4_dt8vlfuv3mUugBMYFFekh0JjhuUmRxvE-nzL2AUheg9PFsSzDLw38vX9nubxOZZbupJlEtuJkllwUdsb1uCtQ6Ck8k7hYfq-0dtbhAjZc61ZgY7EpmwwFa9]--></g></svg>