<?xml version="1.0" encoding="us-ascii" standalone="no"?><svg xmlns="http://www.w3.org/2000/svg" xmlns:xlink="http://www.w3.org/1999/xlink" contentStyleType="text/css" height="362px" preserveAspectRatio="none" style="width:2664px;height:362px;background:#FFFFFF;" version="1.1" viewBox="0 0 2664 362" width="2664px" zoomAndPan="magnify"><defs/><g><!--cluster SourceFile--><g id="cluster_SourceFile"><rect fill="none" height="225" rx="2.5" ry="2.5" style="stroke:#808080;stroke-width:1.5;" width="432" x="445" y="108"/><path d="M538,108 L538,117.2969 L528,127.2969 L445,127.2969 " fill="none" style="stroke:#808080;stroke-width:1.5;"/><text fill="#000000" font-family="sans-serif" font-size="14" font-weight="bold" lengthAdjust="spacing" textLength="83" x="448" y="121.9951">SourceFile</text></g><!--cluster SourceFunction--><g id="cluster_SourceFunction"><rect fill="none" height="191" rx="2.5" ry="2.5" style="stroke:#808080;stroke-width:1.5;" width="300" x="1233" y="7"/><path d="M1369,7 L1369,16.2969 L1359,26.2969 L1233,26.2969 " fill="none" style="stroke:#808080;stroke-width:1.5;"/><text fill="#000000" font-family="sans-serif" font-size="14" font-weight="bold" lengthAdjust="spacing" textLength="126" x="1236" y="20.9951">SourceFunction</text></g><!--cluster SourceClass--><g id="cluster_SourceClass"><rect fill="none" height="191" rx="2.5" ry="2.5" style="stroke:#808080;stroke-width:1.5;" width="300" x="905" y="125"/><path d="M1013,125 L1013,134.2969 L1003,144.2969 L905,144.2969 " fill="none" style="stroke:#808080;stroke-width:1.5;"/><text fill="#000000" font-family="sans-serif" font-size="14" font-weight="bold" lengthAdjust="spacing" textLength="98" x="908" y="138.9951">SourceClass</text></g><!--cluster SourceType--><g id="cluster_SourceType"><rect fill="none" height="159" rx="2.5" ry="2.5" style="stroke:#808080;stroke-width:1.5;" width="524" x="2134" y="89"/><path d="M2238,89 L2238,98.2969 L2228,108.2969 L2134,108.2969 " fill="none" style="stroke:#808080;stroke-width:1.5;"/><text fill="#000000" font-family="sans-serif" font-size="14" font-weight="bold" lengthAdjust="spacing" textLength="94" x="2137" y="102.9951">SourceType</text></g><!--cluster SourceVariable--><g id="cluster_SourceVariable"><rect fill="none" height="191" rx="2.5" ry="2.5" style="stroke:#808080;stroke-width:1.5;" width="545" x="1561" y="142"/><path d="M1693,142 L1693,151.2969 L1683,161.2969 L1561,161.2969 " fill="none" style="stroke:#808080;stroke-width:1.5;"/><text fill="#000000" font-family="sans-serif" font-size="14" font-weight="bold" lengthAdjust="spacing" textLength="122" x="1564" y="155.9951">SourceVariable</text></g><!--cluster UMLFile--><g id="cluster_UMLFile"><rect fill="none" height="159" rx="2.5" ry="2.5" style="stroke:#808080;stroke-width:1.5;" width="410" x="7" y="141"/><path d="M79,141 L79,150.2969 L69,160.2969 L7,160.2969 " fill="none" style="stroke:#808080;stroke-width:1.5;"/><text fill="#000000" font-family="sans-serif" font-size="14" font-weight="bold" lengthAdjust="spacing" textLength="62" x="10" y="154.9951">UMLFile</text></g><!--class SourceFile--><g id="elem_SourceFile"><rect codeLine="9" fill="#FFFFFF" height="172.6719" id="SourceFile" rx="2.5" ry="2.5" style="stroke:#181818;stroke-width:0.5;" width="400" x="461" y="143.5"/><text fill="#000000" font-family="sans-serif" font-size="14" lengthAdjust="spacing" textLength="74" x="624" y="161.4951">SourceFile</text><line style="stroke:#181818;stroke-width:0.5;" x1="462" x2="860" y1="169.7969" y2="169.7969"/><ellipse cx="472" cy="183.4453" fill="none" rx="3" ry="3" style="stroke:#038048;stroke-width:1.0;"/><text fill="#000000" font-family="sans-serif" font-size="14" lengthAdjust="spacing" textLength="55" x="481" y="186.792">classes:</text><text fill="#191970" font-family="sans-serif" font-size="14" lengthAdjust="spacing" textLength="117" x="540" y="186.792">list[SourceClass]</text><ellipse cx="472" cy="199.7422" fill="none" rx="3" ry="3" style="stroke:#038048;stroke-width:1.0;"/><text fill="#000000" font-family="sans-serif" font-size="14" lengthAdjust="spacing" textLength="72" x="481" y="203.0889">functions:</text><text fill="#191970" font-family="sans-serif" font-size="14" lengthAdjust="spacing" textLength="143" x="557" y="203.0889">list[SourceFunction]</text><ellipse cx="472" cy="216.0391" fill="none" rx="3" ry="3" style="stroke:#038048;stroke-width:1.0;"/><text fill="#000000" font-family="sans-serif" font-size="14" lengthAdjust="spacing" textLength="62" x="481" y="219.3857">imports:</text><text fill="#191970" font-family="sans-serif" font-size="14" lengthAdjust="spacing" textLength="52" x="547" y="219.3857">list[str]</text><ellipse cx="472" cy="232.3359" fill="none" rx="3" ry="3" style="stroke:#038048;stroke-width:1.0;"/><text fill="#000000" font-family="sans-serif" font-size="14" lengthAdjust="spacing" textLength="45" x="481" y="235.6826">name:</text><text fill="#191970" font-family="sans-serif" font-size="14" lengthAdjust="spacing" textLength="20" x="530" y="235.6826">str</text><ellipse cx="472" cy="248.6328" fill="none" rx="3" ry="3" style="stroke:#038048;stroke-width:1.0;"/><text fill="#000000" font-family="sans-serif" font-size="14" lengthAdjust="spacing" textLength="69" x="481" y="251.9795">variables:</text><text fill="#191970" font-family="sans-serif" font-size="14" lengthAdjust="spacing" textLength="140" x="554" y="251.9795">list[SourceVariable]</text><line style="stroke:#181818;stroke-width:0.5;" x1="462" x2="860" y1="259.2813" y2="259.2813"/><ellipse cx="472" cy="272.9297" fill="#84BE84" rx="3" ry="3" style="stroke:#038048;stroke-width:1.0;"/><text fill="#8B0000" font-family="sans-serif" font-size="14" lengthAdjust="spacing" textLength="52" x="481" y="276.2764">__init__</text><text fill="#000000" font-family="sans-serif" font-size="14" lengthAdjust="spacing" textLength="52" x="533" y="276.2764">(self) &#8594;</text><text fill="#191970" font-family="sans-serif" font-size="14" lengthAdjust="spacing" textLength="37" x="589" y="276.2764">None</text><ellipse cx="472" cy="289.2266" fill="#84BE84" rx="3" ry="3" style="stroke:#038048;stroke-width:1.0;"/><text fill="#8B0000" font-family="sans-serif" font-size="14" lengthAdjust="spacing" textLength="48" x="481" y="292.5732">__str__</text><text fill="#000000" font-family="sans-serif" font-size="14" lengthAdjust="spacing" textLength="52" x="529" y="292.5732">(self) &#8594;</text><text fill="#191970" font-family="sans-serif" font-size="14" lengthAdjust="spacing" textLength="20" x="585" y="292.5732">str</text><ellipse cx="472" cy="305.5234" fill="#84BE84" rx="3" ry="3" style="stroke:#038048;stroke-width:1.0;"/><text fill="#8B0000" font-family="sans-serif" font-size="14" lengthAdjust="spacing" textLength="169" x="481" y="308.8701">get_connection_strings</text><text fill="#000000" font-family="sans-serif" font-size="14" lengthAdjust="spacing" textLength="104" x="650" y="308.8701">(self, modules:</text><text fill="#191970" font-family="sans-serif" font-size="14" lengthAdjust="spacing" textLength="52" x="758" y="308.8701">list[str]</text><text fill="#000000" font-family="sans-serif" font-size="14" lengthAdjust="spacing" textLength="21" x="810" y="308.8701">) &#8594;</text><text fill="#191970" font-family="sans-serif" font-size="14" lengthAdjust="spacing" textLength="20" x="835" y="308.8701">str</text></g><!--class SourceFunction--><g id="elem_SourceFunction"><rect codeLine="22" fill="#FFFFFF" height="140.0781" id="SourceFunction" rx="2.5" ry="2.5" style="stroke:#181818;stroke-width:0.5;" width="268" x="1249" y="42"/><text fill="#000000" font-family="sans-serif" font-size="14" lengthAdjust="spacing" textLength="111" x="1327.5" y="59.9951">SourceFunction</text><line style="stroke:#181818;stroke-width:0.5;" x1="1250" x2="1516" y1="68.2969" y2="68.2969"/><ellipse cx="1260" cy="81.9453" fill="none" rx="3" ry="3" style="stroke:#038048;stroke-width:1.0;"/><text fill="#000000" font-family="sans-serif" font-size="14" lengthAdjust="spacing" textLength="45" x="1269" y="85.292">name:</text><text fill="#191970" font-family="sans-serif" font-size="14" lengthAdjust="spacing" textLength="20" x="1318" y="85.292">str</text><ellipse cx="1260" cy="98.2422" fill="none" rx="3" ry="3" style="stroke:#038048;stroke-width:1.0;"/><text fill="#000000" font-family="sans-serif" font-size="14" lengthAdjust="spacing" textLength="58" x="1269" y="101.5889">params:</text><text fill="#191970" font-family="sans-serif" font-size="14" lengthAdjust="spacing" textLength="140" x="1331" y="101.5889">list[SourceVariable]</text><ellipse cx="1260" cy="114.5391" fill="none" rx="3" ry="3" style="stroke:#038048;stroke-width:1.0;"/><text fill="#000000" font-family="sans-serif" font-size="14" lengthAdjust="spacing" textLength="57" x="1269" y="117.8857">returns:</text><text fill="#191970" font-family="sans-serif" font-size="14" lengthAdjust="spacing" textLength="85" x="1330" y="117.8857">SourceType</text><line style="stroke:#181818;stroke-width:0.5;" x1="1250" x2="1516" y1="125.1875" y2="125.1875"/><ellipse cx="1260" cy="138.8359" fill="#84BE84" rx="3" ry="3" style="stroke:#038048;stroke-width:1.0;"/><text fill="#8B0000" font-family="sans-serif" font-size="14" lengthAdjust="spacing" textLength="52" x="1269" y="142.1826">__init__</text><text fill="#000000" font-family="sans-serif" font-size="14" lengthAdjust="spacing" textLength="52" x="1321" y="142.1826">(self) &#8594;</text><text fill="#191970" font-family="sans-serif" font-size="14" lengthAdjust="spacing" textLength="37" x="1377" y="142.1826">None</text><ellipse cx="1260" cy="155.1328" fill="#84BE84" rx="3" ry="3" style="stroke:#038048;stroke-width:1.0;"/><text fill="#8B0000" font-family="sans-serif" font-size="14" lengthAdjust="spacing" textLength="48" x="1269" y="158.4795">__str__</text><text fill="#000000" font-family="sans-serif" font-size="14" lengthAdjust="spacing" textLength="52" x="1317" y="158.4795">(self) &#8594;</text><text fill="#191970" font-family="sans-serif" font-size="14" lengthAdjust="spacing" textLength="20" x="1373" y="158.4795">str</text><ellipse cx="1260" cy="171.4297" fill="#84BE84" rx="3" ry="3" style="stroke:#038048;stroke-width:1.0;"/><text fill="#8B0000" font-family="sans-serif" font-size="14" lengthAdjust="spacing" textLength="133" x="1269" y="174.7764">get_dependencies</text><text fill="#000000" font-family="sans-serif" font-size="14" lengthAdjust="spacing" textLength="52" x="1402" y="174.7764">(self) &#8594;</text><text fill="#191970" font-family="sans-serif" font-size="14" lengthAdjust="spacing" textLength="53" x="1458" y="174.7764">set[str]</text></g><!--class SourceClass--><g id="elem_SourceClass"><rect codeLine="33" fill="#FFFFFF" height="140.0781" id="SourceClass" rx="2.5" ry="2.5" style="stroke:#181818;stroke-width:0.5;" width="268" x="921" y="160"/><text fill="#000000" font-family="sans-serif" font-size="14" lengthAdjust="spacing" textLength="85" x="1012.5" y="177.9951">SourceClass</text><line style="stroke:#181818;stroke-width:0.5;" x1="922" x2="1188" y1="186.2969" y2="186.2969"/><ellipse cx="932" cy="199.9453" fill="none" rx="3" ry="3" style="stroke:#038048;stroke-width:1.0;"/><text fill="#000000" font-family="sans-serif" font-size="14" lengthAdjust="spacing" textLength="69" x="941" y="203.292">methods:</text><text fill="#191970" font-family="sans-serif" font-size="14" lengthAdjust="spacing" textLength="143" x="1014" y="203.292">list[SourceFunction]</text><ellipse cx="932" cy="216.2422" fill="none" rx="3" ry="3" style="stroke:#038048;stroke-width:1.0;"/><text fill="#000000" font-family="sans-serif" font-size="14" lengthAdjust="spacing" textLength="45" x="941" y="219.5889">name:</text><text fill="#191970" font-family="sans-serif" font-size="14" lengthAdjust="spacing" textLength="20" x="990" y="219.5889">str</text><ellipse cx="932" cy="232.5391" fill="none" rx="3" ry="3" style="stroke:#038048;stroke-width:1.0;"/><text fill="#000000" font-family="sans-serif" font-size="14" lengthAdjust="spacing" textLength="69" x="941" y="235.8857">variables:</text><text fill="#191970" font-family="sans-serif" font-size="14" lengthAdjust="spacing" textLength="140" x="1014" y="235.8857">list[SourceVariable]</text><line style="stroke:#181818;stroke-width:0.5;" x1="922" x2="1188" y1="243.1875" y2="243.1875"/><ellipse cx="932" cy="256.8359" fill="#84BE84" rx="3" ry="3" style="stroke:#038048;stroke-width:1.0;"/><text fill="#8B0000" font-family="sans-serif" font-size="14" lengthAdjust="spacing" textLength="52" x="941" y="260.1826">__init__</text><text fill="#000000" font-family="sans-serif" font-size="14" lengthAdjust="spacing" textLength="52" x="993" y="260.1826">(self) &#8594;</text><text fill="#191970" font-family="sans-serif" font-size="14" lengthAdjust="spacing" textLength="37" x="1049" y="260.1826">None</text><ellipse cx="932" cy="273.1328" fill="#84BE84" rx="3" ry="3" style="stroke:#038048;stroke-width:1.0;"/><text fill="#8B0000" font-family="sans-serif" font-size="14" lengthAdjust="spacing" textLength="48" x="941" y="276.4795">__str__</text><text fill="#000000" font-family="sans-serif" font-size="14" lengthAdjust="spacing" textLength="52" x="989" y="276.4795">(self) &#8594;</text><text fill="#191970" font-family="sans-serif" font-size="14" lengthAdjust="spacing" textLength="20" x="1045" y="276.4795">str</text><ellipse cx="932" cy="289.4297" fill="#84BE84" rx="3" ry="3" style="stroke:#038048;stroke-width:1.0;"/><text fill="#8B0000" font-family="sans-serif" font-size="14" lengthAdjust="spacing" textLength="133" x="941" y="292.7764">get_dependencies</text><text fill="#000000" font-family="sans-serif" font-size="14" lengthAdjust="spacing" textLength="52" x="1074" y="292.7764">(self) &#8594;</text><text fill="#191970" font-family="sans-serif" font-size="14" lengthAdjust="spacing" textLength="53" x="1130" y="292.7764">set[str]</text></g><!--class SourceType--><g id="elem_SourceType"><rect codeLine="44" fill="#FFFFFF" height="107.4844" id="SourceType" rx="2.5" ry="2.5" style="stroke:#181818;stroke-width:0.5;" width="492" x="2150" y="124.5"/><text fill="#000000" font-family="sans-serif" font-size="14" lengthAdjust="spacing" textLength="85" x="2353.5" y="142.4951">SourceType</text><line style="stroke:#181818;stroke-width:0.5;" x1="2151" x2="2641" y1="150.7969" y2="150.7969"/><ellipse cx="2161" cy="164.4453" fill="none" rx="3" ry="3" style="stroke:#038048;stroke-width:1.0;"/><text fill="#000000" font-family="sans-serif" font-size="14" lengthAdjust="spacing" textLength="106" x="2170" y="167.792">dependencies:</text><text fill="#191970" font-family="sans-serif" font-size="14" lengthAdjust="spacing" textLength="53" x="2280" y="167.792">set[str]</text><ellipse cx="2161" cy="180.7422" fill="none" rx="3" ry="3" style="stroke:#038048;stroke-width:1.0;"/><text fill="#000000" font-family="sans-serif" font-size="14" lengthAdjust="spacing" textLength="68" x="2170" y="184.0889">readable:</text><text fill="#191970" font-family="sans-serif" font-size="14" lengthAdjust="spacing" textLength="20" x="2242" y="184.0889">str</text><line style="stroke:#181818;stroke-width:0.5;" x1="2151" x2="2641" y1="191.3906" y2="191.3906"/><ellipse cx="2161" cy="205.0391" fill="#84BE84" rx="3" ry="3" style="stroke:#038048;stroke-width:1.0;"/><text fill="#8B0000" font-family="sans-serif" font-size="14" lengthAdjust="spacing" textLength="52" x="2170" y="208.3857">__init__</text><text fill="#000000" font-family="sans-serif" font-size="14" lengthAdjust="spacing" textLength="107" x="2222" y="208.3857">(self, readable:</text><text fill="#191970" font-family="sans-serif" font-size="14" lengthAdjust="spacing" textLength="20" x="2333" y="208.3857">str</text><text fill="#000000" font-family="sans-serif" font-size="14" lengthAdjust="spacing" textLength="114" x="2353" y="208.3857">, dependencies:</text><text fill="#191970" font-family="sans-serif" font-size="14" lengthAdjust="spacing" textLength="103" x="2471" y="208.3857">set[str] | None</text><text fill="#000000" font-family="sans-serif" font-size="14" lengthAdjust="spacing" textLength="21" x="2574" y="208.3857">) &#8594;</text><text fill="#191970" font-family="sans-serif" font-size="14" lengthAdjust="spacing" textLength="37" x="2599" y="208.3857">None</text><ellipse cx="2161" cy="221.3359" fill="#84BE84" rx="3" ry="3" style="stroke:#038048;stroke-width:1.0;"/><text fill="#8B0000" font-family="sans-serif" font-size="14" lengthAdjust="spacing" textLength="48" x="2170" y="224.6826">__str__</text><text fill="#000000" font-family="sans-serif" font-size="14" lengthAdjust="spacing" textLength="52" x="2218" y="224.6826">(self) &#8594;</text><text fill="#191970" font-family="sans-serif" font-size="14" lengthAdjust="spacing" textLength="20" x="2274" y="224.6826">str</text></g><!--class SourceVariable--><g id="elem_SourceVariable"><rect codeLine="53" fill="#FFFFFF" height="140.0781" id="SourceVariable" rx="2.5" ry="2.5" style="stroke:#181818;stroke-width:0.5;" width="513" x="1577" y="177"/><text fill="#000000" font-family="sans-serif" font-size="14" lengthAdjust="spacing" textLength="108" x="1779.5" y="194.9951">SourceVariable</text><line style="stroke:#181818;stroke-width:0.5;" x1="1578" x2="2089" y1="203.2969" y2="203.2969"/><ellipse cx="1588" cy="216.9453" fill="none" rx="3" ry="3" style="stroke:#038048;stroke-width:1.0;"/><text fill="#000000" font-family="sans-serif" font-size="14" lengthAdjust="spacing" textLength="45" x="1597" y="220.292">name:</text><text fill="#191970" font-family="sans-serif" font-size="14" lengthAdjust="spacing" textLength="20" x="1646" y="220.292">str</text><ellipse cx="1588" cy="233.2422" fill="none" rx="3" ry="3" style="stroke:#038048;stroke-width:1.0;"/><text fill="#000000" font-family="sans-serif" font-size="14" lengthAdjust="spacing" textLength="46" x="1597" y="236.5889">static:</text><text fill="#191970" font-family="sans-serif" font-size="14" lengthAdjust="spacing" textLength="32" x="1647" y="236.5889">bool</text><ellipse cx="1588" cy="249.5391" fill="none" rx="3" ry="3" style="stroke:#038048;stroke-width:1.0;"/><text fill="#000000" font-family="sans-serif" font-size="14" lengthAdjust="spacing" textLength="39" x="1597" y="252.8857">type:</text><text fill="#191970" font-family="sans-serif" font-size="14" lengthAdjust="spacing" textLength="85" x="1640" y="252.8857">SourceType</text><line style="stroke:#181818;stroke-width:0.5;" x1="1578" x2="2089" y1="260.1875" y2="260.1875"/><ellipse cx="1588" cy="273.8359" fill="#84BE84" rx="3" ry="3" style="stroke:#038048;stroke-width:1.0;"/><text fill="#8B0000" font-family="sans-serif" font-size="14" lengthAdjust="spacing" textLength="52" x="1597" y="277.1826">__init__</text><text fill="#000000" font-family="sans-serif" font-size="14" lengthAdjust="spacing" textLength="84" x="1649" y="277.1826">(self, name:</text><text fill="#191970" font-family="sans-serif" font-size="14" lengthAdjust="spacing" textLength="20" x="1737" y="277.1826">str</text><text fill="#000000" font-family="sans-serif" font-size="14" lengthAdjust="spacing" textLength="86" x="1757" y="277.1826">, data_type:</text><text fill="#191970" font-family="sans-serif" font-size="14" lengthAdjust="spacing" textLength="85" x="1847" y="277.1826">SourceType</text><text fill="#000000" font-family="sans-serif" font-size="14" lengthAdjust="spacing" textLength="54" x="1932" y="277.1826">, static:</text><text fill="#191970" font-family="sans-serif" font-size="14" lengthAdjust="spacing" textLength="32" x="1990" y="277.1826">bool</text><text fill="#000000" font-family="sans-serif" font-size="14" lengthAdjust="spacing" textLength="21" x="2022" y="277.1826">) &#8594;</text><text fill="#191970" font-family="sans-serif" font-size="14" lengthAdjust="spacing" textLength="37" x="2047" y="277.1826">None</text><ellipse cx="1588" cy="290.1328" fill="#84BE84" rx="3" ry="3" style="stroke:#038048;stroke-width:1.0;"/><text fill="#8B0000" font-family="sans-serif" font-size="14" lengthAdjust="spacing" textLength="48" x="1597" y="293.4795">__str__</text><text fill="#000000" font-family="sans-serif" font-size="14" lengthAdjust="spacing" textLength="52" x="1645" y="293.4795">(self) &#8594;</text><text fill="#191970" font-family="sans-serif" font-size="14" lengthAdjust="spacing" textLength="20" x="1701" y="293.4795">str</text><ellipse cx="1588" cy="306.4297" fill="#84BE84" rx="3" ry="3" style="stroke:#038048;stroke-width:1.0;"/><text fill="#8B0000" font-family="sans-serif" font-size="14" lengthAdjust="spacing" textLength="133" x="1597" y="309.7764">get_dependencies</text><text fill="#000000" font-family="sans-serif" font-size="14" lengthAdjust="spacing" textLength="52" x="1730" y="309.7764">(self) &#8594;</text><text fill="#191970" font-family="sans-serif" font-size="14" lengthAdjust="spacing" textLength="53" x="1786" y="309.7764">set[str]</text></g><!--class UMLFile--><g id="elem_UMLFile"><rect codeLine="64" fill="#FFFFFF" height="107.4844" id="UMLFile" rx="2.5" ry="2.5" style="stroke:#181818;stroke-width:0.5;" width="378" x="23" y="176.5"/><text fill="#000000" font-family="sans-serif" font-size="14" lengthAdjust="spacing" textLength="54" x="185" y="194.4951">UMLFile</text><line style="stroke:#181818;stroke-width:0.5;" x1="24" x2="400" y1="202.7969" y2="202.7969"/><ellipse cx="34" cy="216.4453" fill="none" rx="3" ry="3" style="stroke:#038048;stroke-width:1.0;"/><text fill="#000000" font-family="sans-serif" font-size="14" lengthAdjust="spacing" textLength="89" x="43" y="219.792">source_files:</text><text fill="#191970" font-family="sans-serif" font-size="14" lengthAdjust="spacing" textLength="106" x="136" y="219.792">list[SourceFile]</text><line style="stroke:#181818;stroke-width:0.5;" x1="24" x2="400" y1="227.0938" y2="227.0938"/><ellipse cx="34" cy="240.7422" fill="#84BE84" rx="3" ry="3" style="stroke:#038048;stroke-width:1.0;"/><text fill="#8B0000" font-family="sans-serif" font-size="14" lengthAdjust="spacing" textLength="52" x="43" y="244.0889">__init__</text><text fill="#000000" font-family="sans-serif" font-size="14" lengthAdjust="spacing" textLength="128" x="95" y="244.0889">(self, source_files:</text><text fill="#191970" font-family="sans-serif" font-size="14" lengthAdjust="spacing" textLength="106" x="227" y="244.0889">list[SourceFile]</text><text fill="#000000" font-family="sans-serif" font-size="14" lengthAdjust="spacing" textLength="21" x="333" y="244.0889">) &#8594;</text><text fill="#191970" font-family="sans-serif" font-size="14" lengthAdjust="spacing" textLength="37" x="358" y="244.0889">None</text><ellipse cx="34" cy="257.0391" fill="#84BE84" rx="3" ry="3" style="stroke:#038048;stroke-width:1.0;"/><text fill="#8B0000" font-family="sans-serif" font-size="14" lengthAdjust="spacing" textLength="48" x="43" y="260.3857">__str__</text><text fill="#000000" font-family="sans-serif" font-size="14" lengthAdjust="spacing" textLength="52" x="91" y="260.3857">(self) &#8594;</text><text fill="#191970" font-family="sans-serif" font-size="14" lengthAdjust="spacing" textLength="20" x="147" y="260.3857">str</text><ellipse cx="34" cy="273.3359" fill="#84BE84" rx="3" ry="3" style="stroke:#038048;stroke-width:1.0;"/><text fill="#8B0000" font-family="sans-serif" font-size="14" lengthAdjust="spacing" textLength="146" x="43" y="276.6826">get_known_modules</text><text fill="#000000" font-family="sans-serif" font-size="14" lengthAdjust="spacing" textLength="52" x="189" y="276.6826">(self) &#8594;</text><text fill="#191970" font-family="sans-serif" font-size="14" lengthAdjust="spacing" textLength="52" x="245" y="276.6826">list[str]</text></g><!--link SourceFile to SourceClass--><g id="link_SourceFile_SourceClass"><path codeLine="72" d="M874.437,230 C885.655,230 896.8,230 907.725,230 " fill="none" id="SourceFile-SourceClass" style="stroke:#181818;stroke-width:1.0;"/><polygon fill="none" points="861.158,230,867.158,234,873.158,230,867.158,226,861.158,230" style="stroke:#181818;stroke-width:1.0;"/><polygon fill="#181818" points="920.932,230,911.932,226,915.932,230,911.932,234,920.932,230" style="stroke:#181818;stroke-width:1.0;"/><line style="stroke:#181818;stroke-width:1.0;" x1="915.932" x2="907.9315" y1="230" y2="230"/></g><!--link SourceFile to SourceVariable--><g id="link_SourceFile_SourceVariable"><path codeLine="73" d="M873.72,311.2474 C881.526,313.0384 889.302,314.6358 897,316 C1119.59,355.4499 1375.84,331.8313 1563.8,301.9405 " fill="none" id="SourceFile-SourceVariable" style="stroke:#181818;stroke-width:1.0;"/><polygon fill="none" points="861.004,308.17,865.8945,313.4694,872.6672,310.9933,867.7767,305.6939,861.004,308.17" style="stroke:#181818;stroke-width:1.0;"/><polygon fill="#181818" points="1576.65,299.8708,1567.1276,297.3559,1571.7139,300.6675,1568.4023,305.2537,1576.65,299.8708" style="stroke:#181818;stroke-width:1.0;"/><line style="stroke:#181818;stroke-width:1.0;" x1="1571.7139" x2="1563.815" y1="300.6675" y2="301.9385"/></g><!--link SourceFile to SourceFunction--><g id="link_SourceFile_SourceFunction"><path codeLine="74" d="M873.847,149.408 C881.617,147.432 889.352,145.617 897,144 C1009.08,120.304 1138.68,112.741 1235.7,110.864 " fill="none" id="SourceFile-SourceFunction" style="stroke:#181818;stroke-width:1.0;"/><polygon fill="none" points="861.185,152.76,868.0086,155.0919,872.7857,149.6901,865.962,147.3581,861.185,152.76" style="stroke:#181818;stroke-width:1.0;"/><polygon fill="#181818" points="1248.87,110.64,1239.8011,106.7989,1243.8708,110.7279,1239.9417,114.7976,1248.87,110.64" style="stroke:#181818;stroke-width:1.0;"/><line style="stroke:#181818;stroke-width:1.0;" x1="1243.8708" x2="1235.87" y1="110.7279" y2="110.8615"/></g><!--link SourceFunction to SourceVariable--><g id="link_SourceFunction_SourceVariable"><path codeLine="75" d="M1529.79,155.883 C1548.35,161.469 1567.72,167.301 1587.32,173.199 " fill="none" id="SourceFunction-SourceVariable" style="stroke:#181818;stroke-width:1.0;"/><polygon fill="none" points="1517.05,152.048,1521.6383,157.611,1528.5382,155.5153,1523.9498,149.9523,1517.05,152.048" style="stroke:#181818;stroke-width:1.0;"/><polygon fill="#181818" points="1599.87,176.979,1592.4029,170.557,1595.0817,175.5393,1590.0994,178.2182,1599.87,176.979" style="stroke:#181818;stroke-width:1.0;"/><line style="stroke:#181818;stroke-width:1.0;" x1="1595.0817" x2="1587.43" y1="175.5393" y2="173.232"/></g><!--link SourceFunction to SourceType--><g id="link_SourceFunction_SourceType"><path codeLine="76" d="M1530.63,121.572 C1689.04,131.913 1944.52,148.592 2136.74,161.14 " fill="none" id="SourceFunction-SourceType" style="stroke:#181818;stroke-width:1.0;"/><polygon fill="none" points="1517.21,120.696,1522.938,125.0766,1529.1848,121.474,1523.4567,117.0934,1517.21,120.696" style="stroke:#181818;stroke-width:1.0;"/><polygon fill="#181818" points="2149.88,161.998,2141.1633,157.4133,2144.8909,161.6684,2140.6359,165.3959,2149.88,161.998" style="stroke:#181818;stroke-width:1.0;"/><line style="stroke:#181818;stroke-width:1.0;" x1="2144.8909" x2="2136.91" y1="161.6684" y2="161.1515"/></g><!--link SourceClass to SourceVariable--><g id="link_SourceClass_SourceVariable"><path codeLine="77" d="M1202.33,233.204 C1303.94,235.428 1442.31,238.457 1563.5,241.111 " fill="none" id="SourceClass-SourceVariable" style="stroke:#181818;stroke-width:1.0;"/><polygon fill="none" points="1189.04,232.913,1194.9506,237.0439,1201.0371,233.1767,1195.1265,229.0458,1189.04,232.913" style="stroke:#181818;stroke-width:1.0;"/><polygon fill="#181818" points="1576.67,241.399,1567.7601,237.2021,1571.6712,241.2891,1567.5843,245.2002,1576.67,241.399" style="stroke:#181818;stroke-width:1.0;"/><line style="stroke:#181818;stroke-width:1.0;" x1="1571.6712" x2="1563.68" y1="241.2891" y2="241.1145"/></g><!--link SourceClass to SourceFunction--><g id="link_SourceClass_SourceFunction"><path codeLine="78" d="M1201.61,177.293 C1213.16,173.115 1224.82,168.894 1236.36,164.716 " fill="none" id="SourceClass-SourceFunction" style="stroke:#181818;stroke-width:1.0;"/><polygon fill="none" points="1189.07,181.835,1196.0737,183.5519,1200.3523,177.7472,1193.3485,176.0303,1189.07,181.835" style="stroke:#181818;stroke-width:1.0;"/><polygon fill="#181818" points="1248.83,160.203,1239.0064,159.4976,1244.1272,161.9012,1241.7236,167.022,1248.83,160.203" style="stroke:#181818;stroke-width:1.0;"/><line style="stroke:#181818;stroke-width:1.0;" x1="1244.1272" x2="1236.605" y1="161.9012" y2="164.6275"/></g><!--link SourceVariable to SourceType--><g id="link_SourceVariable_SourceType"><path codeLine="79" d="M2103.15,213.929 C2114.28,212.558 2125.44,211.184 2136.55,209.816 " fill="none" id="SourceVariable-SourceType" style="stroke:#181818;stroke-width:1.0;"/><polygon fill="none" points="2090.15,215.529,2096.5966,218.7602,2102.0588,214.0523,2095.6122,210.821,2090.15,215.529" style="stroke:#181818;stroke-width:1.0;"/><polygon fill="#181818" points="2149.58,208.213,2140.1593,205.3407,2144.6173,208.8229,2141.1351,213.2809,2149.58,208.213" style="stroke:#181818;stroke-width:1.0;"/><line style="stroke:#181818;stroke-width:1.0;" x1="2144.6173" x2="2136.675" y1="208.8229" y2="209.801"/></g><!--link UMLFile to SourceFile--><g id="link_UMLFile_SourceFile"><path codeLine="80" d="M414.702,230 C425.601,230 436.57,230 447.504,230 " fill="none" id="UMLFile-SourceFile" style="stroke:#181818;stroke-width:1.0;"/><polygon fill="none" points="401.273,230,407.273,234,413.273,230,407.273,226,401.273,230" style="stroke:#181818;stroke-width:1.0;"/><polygon fill="#181818" points="460.816,230,451.816,226,455.816,230,451.816,234,460.816,230" style="stroke:#181818;stroke-width:1.0;"/><line style="stroke:#181818;stroke-width:1.0;" x1="455.816" x2="447.816" y1="230" y2="230"/></g><!--SRC=[xLRDZjCm4BxdANm4DGltQjL35-s9vS025xIoN7kIUklOaUsmge0h3y0ZyYJO-TawQPgwrMe52EKIJxxvPZpVZ6C1cKLM8StpjKMCQw2MAvcO3PSbqQH09Q4RaiEjtGf0cRF0_iUbqWpqbH9AeroJRO2WWXYpTB1Sgqgo1lEmvZQaKQjx5tSSjUOC41IbtQ82YXLeqvWerrH0qcQ0NjsgIbEuvYxBhqaT5VLCioOLC7DqIJt__8OpwRUz51Ki13VsS-DmvN5tbwzhrC8vPfMigtBSzRf5XjwyA9MsKxx6wj11kXgFenqmm7qXcfELYDZHfnQvYuAn8sYztX2zUGziWJ6Nt6BSWLuO4DbBzEl7pr7-Tqf2aCqUcKiscgk_iG5L3XPJ9MNJcfwNozpqc5DKA5PDboAiSbmctzqpxAzMu66FxSpn-jMzVuvuCwJ1LlfGFpPk7xOb_BLoCoX1Cf2KWudbXC4WZQXNJ_P0kiusSyUBNIjstf3_dzbd4z4tza33rZH3OSXvN0G_J8JvIX_NBrg1D9uqFI5fz0s52Zw_pYDoT7qwa2Gmnq-7iSHoEevSAIK2g7MIF_tnbyQbwZGZbk1JSaYZD_UlJk_7cxUzszbkxOIlwuKp7dCoUg-xSxGzFyeVeib6gWU9swjE9Ed-3TEh4boNmvkpkhXOz7wMuNkCKpVsWsMCQ_TR7IoJwSydHO-Wy3CRl2Q7Yd5At6dd8_i-m3sTT3jRZpFNYzVNu3S0]--></g></svg>