<?xml version="1.0" encoding="us-ascii" standalone="no"?><svg xmlns="http://www.w3.org/2000/svg" xmlns:xlink="http://www.w3.org/1999/xlink" contentStyleType="text/css" height="385px" preserveAspectRatio="none" style="width:2486px;height:385px;background:#FFFFFF;" version="1.1" viewBox="0 0 2486 385" width="2486px" zoomAndPan="magnify"><defs/><g><!--cluster SourceFile--><g id="cluster_SourceFile"><rect fill="none" height="225" rx="2.5" ry="2.5" style="stroke:#808080;stroke-width:1.5;" width="294" x="441" y="106"/><path d="M536,106 L536,115.2969 L526,125.2969 L441,125.2969 " fill="none" style="stroke:#808080;stroke-width:1.5;"/><text fill="#000000" font-family="sans-serif" font-size="14" font-weight="bold" lengthAdjust="spacing" textLength="85" x="444" y="119.9951">SourceFile</text></g><!--cluster SourceFunction--><g id="cluster_SourceFunction"><rect fill="none" height="191" rx="2.5" ry="2.5" style="stroke:#808080;stroke-width:1.5;" width="292" x="1083" y="7"/><path d="M1218,7 L1218,16.2969 L1208,26.2969 L1083,26.2969 " fill="none" style="stroke:#808080;stroke-width:1.5;"/><text fill="#000000" font-family="sans-serif" font-size="14" font-weight="bold" lengthAdjust="spacing" textLength="125" x="1086" y="20.9951">SourceFunction</text></g><!--cluster SourceClass--><g id="cluster_SourceClass"><rect fill="none" height="207" rx="2.5" ry="2.5" style="stroke:#808080;stroke-width:1.5;" width="292" x="763" y="115"/><path d="M868,115 L868,124.2969 L858,134.2969 L763,134.2969 " fill="none" style="stroke:#808080;stroke-width:1.5;"/><text fill="#000000" font-family="sans-serif" font-size="14" font-weight="bold" lengthAdjust="spacing" textLength="95" x="766" y="128.9951">SourceClass</text></g><!--cluster SourceType--><g id="cluster_SourceType"><rect fill="none" height="157" rx="2.5" ry="2.5" style="stroke:#808080;stroke-width:1.5;" width="515" x="1965" y="90"/><path d="M2069,90 L2069,99.2969 L2059,109.2969 L1965,109.2969 " fill="none" style="stroke:#808080;stroke-width:1.5;"/><text fill="#000000" font-family="sans-serif" font-size="14" font-weight="bold" lengthAdjust="spacing" textLength="94" x="1968" y="103.9951">SourceType</text></g><!--cluster SourceVariable--><g id="cluster_SourceVariable"><rect fill="none" height="191" rx="2.5" ry="2.5" style="stroke:#808080;stroke-width:1.5;" width="534" x="1403" y="142"/><path d="M1534,142 L1534,151.2969 L1524,161.2969 L1403,161.2969 " fill="none" style="stroke:#808080;stroke-width:1.5;"/><text fill="#000000" font-family="sans-serif" font-size="14" font-weight="bold" lengthAdjust="spacing" textLength="121" x="1406" y="155.9951">SourceVariable</text></g><!--cluster UMLFile--><g id="cluster_UMLFile"><rect fill="none" height="143" rx="2.5" ry="2.5" style="stroke:#808080;stroke-width:1.5;" width="406" x="7" y="147"/><path d="M81,147 L81,156.2969 L71,166.2969 L7,166.2969 " fill="none" style="stroke:#808080;stroke-width:1.5;"/><text fill="#000000" font-family="sans-serif" font-size="14" font-weight="bold" lengthAdjust="spacing" textLength="64" x="10" y="160.9951">UMLFile</text></g><!--class SourceFile--><g id="elem_SourceFile"><rect codeLine="9" fill="#FFFFFF" height="172.6719" id="SourceFile" rx="2.5" ry="2.5" style="stroke:#181818;stroke-width:0.5;" width="262" x="457" y="141.5"/><text fill="#000000" font-family="sans-serif" font-size="14" lengthAdjust="spacing" textLength="75" x="550.5" y="159.4951">SourceFile</text><line style="stroke:#181818;stroke-width:0.5;" x1="458" x2="718" y1="167.7969" y2="167.7969"/><ellipse cx="468" cy="181.4453" fill="none" rx="3" ry="3" style="stroke:#038048;stroke-width:1.0;"/><text fill="#000000" font-family="sans-serif" font-size="14" lengthAdjust="spacing" textLength="56" x="477" y="184.792">classes:</text><text fill="#191970" font-family="sans-serif" font-size="14" lengthAdjust="spacing" textLength="117" x="537" y="184.792">list[SourceClass]</text><ellipse cx="468" cy="197.7422" fill="none" rx="3" ry="3" style="stroke:#038048;stroke-width:1.0;"/><text fill="#000000" font-family="sans-serif" font-size="14" lengthAdjust="spacing" textLength="70" x="477" y="201.0889">functions:</text><text fill="#191970" font-family="sans-serif" font-size="14" lengthAdjust="spacing" textLength="141" x="551" y="201.0889">list[SourceFunction]</text><ellipse cx="468" cy="214.0391" fill="none" rx="3" ry="3" style="stroke:#038048;stroke-width:1.0;"/><text fill="#000000" font-family="sans-serif" font-size="14" lengthAdjust="spacing" textLength="59" x="477" y="217.3857">imports:</text><text fill="#191970" font-family="sans-serif" font-size="14" lengthAdjust="spacing" textLength="48" x="540" y="217.3857">list[str]</text><ellipse cx="468" cy="230.3359" fill="none" rx="3" ry="3" style="stroke:#038048;stroke-width:1.0;"/><text fill="#000000" font-family="sans-serif" font-size="14" lengthAdjust="spacing" textLength="46" x="477" y="233.6826">name:</text><text fill="#191970" font-family="sans-serif" font-size="14" lengthAdjust="spacing" textLength="18" x="527" y="233.6826">str</text><ellipse cx="468" cy="246.6328" fill="none" rx="3" ry="3" style="stroke:#038048;stroke-width:1.0;"/><text fill="#000000" font-family="sans-serif" font-size="14" lengthAdjust="spacing" textLength="70" x="477" y="249.9795">variables:</text><text fill="#191970" font-family="sans-serif" font-size="14" lengthAdjust="spacing" textLength="140" x="551" y="249.9795">list[SourceVariable]</text><line style="stroke:#181818;stroke-width:0.5;" x1="458" x2="718" y1="257.2813" y2="257.2813"/><ellipse cx="468" cy="270.9297" fill="#84BE84" rx="3" ry="3" style="stroke:#038048;stroke-width:1.0;"/><text fill="#8B0000" font-family="sans-serif" font-size="14" lengthAdjust="spacing" textLength="50" x="477" y="274.2764">__init__</text><text fill="#000000" font-family="sans-serif" font-size="14" lengthAdjust="spacing" textLength="51" x="527" y="274.2764">(self) &#8594;</text><text fill="#191970" font-family="sans-serif" font-size="14" lengthAdjust="spacing" textLength="37" x="582" y="274.2764">None</text><ellipse cx="468" cy="287.2266" fill="#84BE84" rx="3" ry="3" style="stroke:#038048;stroke-width:1.0;"/><text fill="#8B0000" font-family="sans-serif" font-size="14" lengthAdjust="spacing" textLength="46" x="477" y="290.5732">__str__</text><text fill="#000000" font-family="sans-serif" font-size="14" lengthAdjust="spacing" textLength="51" x="523" y="290.5732">(self) &#8594;</text><text fill="#191970" font-family="sans-serif" font-size="14" lengthAdjust="spacing" textLength="18" x="578" y="290.5732">str</text><ellipse cx="468" cy="303.5234" fill="#84BE84" rx="3" ry="3" style="stroke:#038048;stroke-width:1.0;"/><text fill="#8B0000" font-family="sans-serif" font-size="14" lengthAdjust="spacing" textLength="163" x="477" y="306.8701">get_connection_strings</text><text fill="#000000" font-family="sans-serif" font-size="14" lengthAdjust="spacing" textLength="51" x="640" y="306.8701">(self) &#8594;</text><text fill="#191970" font-family="sans-serif" font-size="14" lengthAdjust="spacing" textLength="18" x="695" y="306.8701">str</text></g><!--class SourceFunction--><g id="elem_SourceFunction"><rect codeLine="22" fill="#FFFFFF" height="140.0781" id="SourceFunction" rx="2.5" ry="2.5" style="stroke:#181818;stroke-width:0.5;" width="260" x="1099" y="42"/><text fill="#000000" font-family="sans-serif" font-size="14" lengthAdjust="spacing" textLength="111" x="1173.5" y="59.9951">SourceFunction</text><line style="stroke:#181818;stroke-width:0.5;" x1="1100" x2="1358" y1="68.2969" y2="68.2969"/><ellipse cx="1110" cy="81.9453" fill="none" rx="3" ry="3" style="stroke:#038048;stroke-width:1.0;"/><text fill="#000000" font-family="sans-serif" font-size="14" lengthAdjust="spacing" textLength="46" x="1119" y="85.292">name:</text><text fill="#191970" font-family="sans-serif" font-size="14" lengthAdjust="spacing" textLength="18" x="1169" y="85.292">str</text><ellipse cx="1110" cy="98.2422" fill="none" rx="3" ry="3" style="stroke:#038048;stroke-width:1.0;"/><text fill="#000000" font-family="sans-serif" font-size="14" lengthAdjust="spacing" textLength="59" x="1119" y="101.5889">params:</text><text fill="#191970" font-family="sans-serif" font-size="14" lengthAdjust="spacing" textLength="140" x="1182" y="101.5889">list[SourceVariable]</text><ellipse cx="1110" cy="114.5391" fill="none" rx="3" ry="3" style="stroke:#038048;stroke-width:1.0;"/><text fill="#000000" font-family="sans-serif" font-size="14" lengthAdjust="spacing" textLength="56" x="1119" y="117.8857">returns:</text><text fill="#191970" font-family="sans-serif" font-size="14" lengthAdjust="spacing" textLength="85" x="1179" y="117.8857">SourceType</text><line style="stroke:#181818;stroke-width:0.5;" x1="1100" x2="1358" y1="125.1875" y2="125.1875"/><ellipse cx="1110" cy="138.8359" fill="#84BE84" rx="3" ry="3" style="stroke:#038048;stroke-width:1.0;"/><text fill="#8B0000" font-family="sans-serif" font-size="14" lengthAdjust="spacing" textLength="50" x="1119" y="142.1826">__init__</text><text fill="#000000" font-family="sans-serif" font-size="14" lengthAdjust="spacing" textLength="51" x="1169" y="142.1826">(self) &#8594;</text><text fill="#191970" font-family="sans-serif" font-size="14" lengthAdjust="spacing" textLength="37" x="1224" y="142.1826">None</text><ellipse cx="1110" cy="155.1328" fill="#84BE84" rx="3" ry="3" style="stroke:#038048;stroke-width:1.0;"/><text fill="#8B0000" font-family="sans-serif" font-size="14" lengthAdjust="spacing" textLength="46" x="1119" y="158.4795">__str__</text><text fill="#000000" font-family="sans-serif" font-size="14" lengthAdjust="spacing" textLength="51" x="1165" y="158.4795">(self) &#8594;</text><text fill="#191970" font-family="sans-serif" font-size="14" lengthAdjust="spacing" textLength="18" x="1220" y="158.4795">str</text><ellipse cx="1110" cy="171.4297" fill="#84BE84" rx="3" ry="3" style="stroke:#038048;stroke-width:1.0;"/><text fill="#8B0000" font-family="sans-serif" font-size="14" lengthAdjust="spacing" textLength="130" x="1119" y="174.7764">get_dependencies</text><text fill="#000000" font-family="sans-serif" font-size="14" lengthAdjust="spacing" textLength="51" x="1249" y="174.7764">(self) &#8594;</text><text fill="#191970" font-family="sans-serif" font-size="14" lengthAdjust="spacing" textLength="49" x="1304" y="174.7764">set[str]</text></g><!--class SourceClass--><g id="elem_SourceClass"><rect codeLine="33" fill="#FFFFFF" height="156.375" id="SourceClass" rx="2.5" ry="2.5" style="stroke:#181818;stroke-width:0.5;" width="260" x="779" y="150"/><text fill="#000000" font-family="sans-serif" font-size="14" lengthAdjust="spacing" textLength="87" x="865.5" y="167.9951">SourceClass</text><line style="stroke:#181818;stroke-width:0.5;" x1="780" x2="1038" y1="176.2969" y2="176.2969"/><ellipse cx="790" cy="189.9453" fill="none" rx="3" ry="3" style="stroke:#038048;stroke-width:1.0;"/><text fill="#000000" font-family="sans-serif" font-size="14" lengthAdjust="spacing" textLength="46" x="799" y="193.292">bases:</text><text fill="#191970" font-family="sans-serif" font-size="14" lengthAdjust="spacing" textLength="48" x="849" y="193.292">list[str]</text><ellipse cx="790" cy="206.2422" fill="none" rx="3" ry="3" style="stroke:#038048;stroke-width:1.0;"/><text fill="#000000" font-family="sans-serif" font-size="14" lengthAdjust="spacing" textLength="67" x="799" y="209.5889">methods:</text><text fill="#191970" font-family="sans-serif" font-size="14" lengthAdjust="spacing" textLength="141" x="870" y="209.5889">list[SourceFunction]</text><ellipse cx="790" cy="222.5391" fill="none" rx="3" ry="3" style="stroke:#038048;stroke-width:1.0;"/><text fill="#000000" font-family="sans-serif" font-size="14" lengthAdjust="spacing" textLength="46" x="799" y="225.8857">name:</text><text fill="#191970" font-family="sans-serif" font-size="14" lengthAdjust="spacing" textLength="18" x="849" y="225.8857">str</text><ellipse cx="790" cy="238.8359" fill="none" rx="3" ry="3" style="stroke:#038048;stroke-width:1.0;"/><text fill="#000000" font-family="sans-serif" font-size="14" lengthAdjust="spacing" textLength="70" x="799" y="242.1826">variables:</text><text fill="#191970" font-family="sans-serif" font-size="14" lengthAdjust="spacing" textLength="140" x="873" y="242.1826">list[SourceVariable]</text><line style="stroke:#181818;stroke-width:0.5;" x1="780" x2="1038" y1="249.4844" y2="249.4844"/><ellipse cx="790" cy="263.1328" fill="#84BE84" rx="3" ry="3" style="stroke:#038048;stroke-width:1.0;"/><text fill="#8B0000" font-family="sans-serif" font-size="14" lengthAdjust="spacing" textLength="50" x="799" y="266.4795">__init__</text><text fill="#000000" font-family="sans-serif" font-size="14" lengthAdjust="spacing" textLength="51" x="849" y="266.4795">(self) &#8594;</text><text fill="#191970" font-family="sans-serif" font-size="14" lengthAdjust="spacing" textLength="37" x="904" y="266.4795">None</text><ellipse cx="790" cy="279.4297" fill="#84BE84" rx="3" ry="3" style="stroke:#038048;stroke-width:1.0;"/><text fill="#8B0000" font-family="sans-serif" font-size="14" lengthAdjust="spacing" textLength="46" x="799" y="282.7764">__str__</text><text fill="#000000" font-family="sans-serif" font-size="14" lengthAdjust="spacing" textLength="51" x="845" y="282.7764">(self) &#8594;</text><text fill="#191970" font-family="sans-serif" font-size="14" lengthAdjust="spacing" textLength="18" x="900" y="282.7764">str</text><ellipse cx="790" cy="295.7266" fill="#84BE84" rx="3" ry="3" style="stroke:#038048;stroke-width:1.0;"/><text fill="#8B0000" font-family="sans-serif" font-size="14" lengthAdjust="spacing" textLength="130" x="799" y="299.0732">get_dependencies</text><text fill="#000000" font-family="sans-serif" font-size="14" lengthAdjust="spacing" textLength="51" x="929" y="299.0732">(self) &#8594;</text><text fill="#191970" font-family="sans-serif" font-size="14" lengthAdjust="spacing" textLength="49" x="984" y="299.0732">set[str]</text></g><!--class SourceType--><g id="elem_SourceType"><rect codeLine="45" fill="#FFFFFF" height="107.4844" id="SourceType" rx="2.5" ry="2.5" style="stroke:#181818;stroke-width:0.5;" width="483" x="1981" y="124.5"/><text fill="#000000" font-family="sans-serif" font-size="14" lengthAdjust="spacing" textLength="85" x="2180" y="142.4951">SourceType</text><line style="stroke:#181818;stroke-width:0.5;" x1="1982" x2="2463" y1="150.7969" y2="150.7969"/><ellipse cx="1992" cy="164.4453" fill="none" rx="3" ry="3" style="stroke:#038048;stroke-width:1.0;"/><text fill="#000000" font-family="sans-serif" font-size="14" lengthAdjust="spacing" textLength="105" x="2001" y="167.792">dependencies:</text><text fill="#191970" font-family="sans-serif" font-size="14" lengthAdjust="spacing" textLength="49" x="2110" y="167.792">set[str]</text><ellipse cx="1992" cy="180.7422" fill="none" rx="3" ry="3" style="stroke:#038048;stroke-width:1.0;"/><text fill="#000000" font-family="sans-serif" font-size="14" lengthAdjust="spacing" textLength="69" x="2001" y="184.0889">readable:</text><text fill="#191970" font-family="sans-serif" font-size="14" lengthAdjust="spacing" textLength="18" x="2074" y="184.0889">str</text><line style="stroke:#181818;stroke-width:0.5;" x1="1982" x2="2463" y1="191.3906" y2="191.3906"/><ellipse cx="1992" cy="205.0391" fill="#84BE84" rx="3" ry="3" style="stroke:#038048;stroke-width:1.0;"/><text fill="#8B0000" font-family="sans-serif" font-size="14" lengthAdjust="spacing" textLength="50" x="2001" y="208.3857">__init__</text><text fill="#000000" font-family="sans-serif" font-size="14" lengthAdjust="spacing" textLength="107" x="2051" y="208.3857">(self, readable:</text><text fill="#191970" font-family="sans-serif" font-size="14" lengthAdjust="spacing" textLength="18" x="2162" y="208.3857">str</text><text fill="#000000" font-family="sans-serif" font-size="14" lengthAdjust="spacing" textLength="113" x="2180" y="208.3857">, dependencies:</text><text fill="#191970" font-family="sans-serif" font-size="14" lengthAdjust="spacing" textLength="99" x="2297" y="208.3857">set[str] | None</text><text fill="#000000" font-family="sans-serif" font-size="14" lengthAdjust="spacing" textLength="21" x="2396" y="208.3857">) &#8594;</text><text fill="#191970" font-family="sans-serif" font-size="14" lengthAdjust="spacing" textLength="37" x="2421" y="208.3857">None</text><ellipse cx="1992" cy="221.3359" fill="#84BE84" rx="3" ry="3" style="stroke:#038048;stroke-width:1.0;"/><text fill="#8B0000" font-family="sans-serif" font-size="14" lengthAdjust="spacing" textLength="46" x="2001" y="224.6826">__str__</text><text fill="#000000" font-family="sans-serif" font-size="14" lengthAdjust="spacing" textLength="51" x="2047" y="224.6826">(self) &#8594;</text><text fill="#191970" font-family="sans-serif" font-size="14" lengthAdjust="spacing" textLength="18" x="2102" y="224.6826">str</text></g><!--class SourceVariable--><g id="elem_SourceVariable"><rect codeLine="54" fill="#FFFFFF" height="140.0781" id="SourceVariable" rx="2.5" ry="2.5" style="stroke:#181818;stroke-width:0.5;" width="502" x="1419" y="177"/><text fill="#000000" font-family="sans-serif" font-size="14" lengthAdjust="spacing" textLength="110" x="1615" y="194.9951">SourceVariable</text><line style="stroke:#181818;stroke-width:0.5;" x1="1420" x2="1920" y1="203.2969" y2="203.2969"/><ellipse cx="1430" cy="216.9453" fill="none" rx="3" ry="3" style="stroke:#038048;stroke-width:1.0;"/><text fill="#000000" font-family="sans-serif" font-size="14" lengthAdjust="spacing" textLength="46" x="1439" y="220.292">name:</text><text fill="#191970" font-family="sans-serif" font-size="14" lengthAdjust="spacing" textLength="18" x="1489" y="220.292">str</text><ellipse cx="1430" cy="233.2422" fill="none" rx="3" ry="3" style="stroke:#038048;stroke-width:1.0;"/><text fill="#000000" font-family="sans-serif" font-size="14" lengthAdjust="spacing" textLength="43" x="1439" y="236.5889">static:</text><text fill="#191970" font-family="sans-serif" font-size="14" lengthAdjust="spacing" textLength="31" x="1486" y="236.5889">bool</text><ellipse cx="1430" cy="249.5391" fill="none" rx="3" ry="3" style="stroke:#038048;stroke-width:1.0;"/><text fill="#000000" font-family="sans-serif" font-size="14" lengthAdjust="spacing" textLength="36" x="1439" y="252.8857">type:</text><text fill="#191970" font-family="sans-serif" font-size="14" lengthAdjust="spacing" textLength="85" x="1479" y="252.8857">SourceType</text><line style="stroke:#181818;stroke-width:0.5;" x1="1420" x2="1920" y1="260.1875" y2="260.1875"/><ellipse cx="1430" cy="273.8359" fill="#84BE84" rx="3" ry="3" style="stroke:#038048;stroke-width:1.0;"/><text fill="#8B0000" font-family="sans-serif" font-size="14" lengthAdjust="spacing" textLength="50" x="1439" y="277.1826">__init__</text><text fill="#000000" font-family="sans-serif" font-size="14" lengthAdjust="spacing" textLength="84" x="1489" y="277.1826">(self, name:</text><text fill="#191970" font-family="sans-serif" font-size="14" lengthAdjust="spacing" textLength="18" x="1577" y="277.1826">str</text><text fill="#000000" font-family="sans-serif" font-size="14" lengthAdjust="spacing" textLength="83" x="1595" y="277.1826">, data_type:</text><text fill="#191970" font-family="sans-serif" font-size="14" lengthAdjust="spacing" textLength="85" x="1682" y="277.1826">SourceType</text><text fill="#000000" font-family="sans-serif" font-size="14" lengthAdjust="spacing" textLength="51" x="1767" y="277.1826">, static:</text><text fill="#191970" font-family="sans-serif" font-size="14" lengthAdjust="spacing" textLength="31" x="1822" y="277.1826">bool</text><text fill="#000000" font-family="sans-serif" font-size="14" lengthAdjust="spacing" textLength="21" x="1853" y="277.1826">) &#8594;</text><text fill="#191970" font-family="sans-serif" font-size="14" lengthAdjust="spacing" textLength="37" x="1878" y="277.1826">None</text><ellipse cx="1430" cy="290.1328" fill="#84BE84" rx="3" ry="3" style="stroke:#038048;stroke-width:1.0;"/><text fill="#8B0000" font-family="sans-serif" font-size="14" lengthAdjust="spacing" textLength="46" x="1439" y="293.4795">__str__</text><text fill="#000000" font-family="sans-serif" font-size="14" lengthAdjust="spacing" textLength="51" x="1485" y="293.4795">(self) &#8594;</text><text fill="#191970" font-family="sans-serif" font-size="14" lengthAdjust="spacing" textLength="18" x="1540" y="293.4795">str</text><ellipse cx="1430" cy="306.4297" fill="#84BE84" rx="3" ry="3" style="stroke:#038048;stroke-width:1.0;"/><text fill="#8B0000" font-family="sans-serif" font-size="14" lengthAdjust="spacing" textLength="130" x="1439" y="309.7764">get_dependencies</text><text fill="#000000" font-family="sans-serif" font-size="14" lengthAdjust="spacing" textLength="51" x="1569" y="309.7764">(self) &#8594;</text><text fill="#191970" font-family="sans-serif" font-size="14" lengthAdjust="spacing" textLength="49" x="1624" y="309.7764">set[str]</text></g><!--class UMLFile--><g id="elem_UMLFile"><rect codeLine="65" fill="#FFFFFF" height="91.1875" id="UMLFile" rx="2.5" ry="2.5" style="stroke:#181818;stroke-width:0.5;" width="374" x="23" y="182.5"/><text fill="#000000" font-family="sans-serif" font-size="14" lengthAdjust="spacing" textLength="55" x="182.5" y="200.4951">UMLFile</text><line style="stroke:#181818;stroke-width:0.5;" x1="24" x2="396" y1="208.7969" y2="208.7969"/><ellipse cx="34" cy="222.4453" fill="none" rx="3" ry="3" style="stroke:#038048;stroke-width:1.0;"/><text fill="#000000" font-family="sans-serif" font-size="14" lengthAdjust="spacing" textLength="89" x="43" y="225.792">source_files:</text><text fill="#191970" font-family="sans-serif" font-size="14" lengthAdjust="spacing" textLength="105" x="136" y="225.792">list[SourceFile]</text><line style="stroke:#181818;stroke-width:0.5;" x1="24" x2="396" y1="233.0938" y2="233.0938"/><ellipse cx="34" cy="246.7422" fill="#84BE84" rx="3" ry="3" style="stroke:#038048;stroke-width:1.0;"/><text fill="#8B0000" font-family="sans-serif" font-size="14" lengthAdjust="spacing" textLength="50" x="43" y="250.0889">__init__</text><text fill="#000000" font-family="sans-serif" font-size="14" lengthAdjust="spacing" textLength="127" x="93" y="250.0889">(self, source_files:</text><text fill="#191970" font-family="sans-serif" font-size="14" lengthAdjust="spacing" textLength="105" x="224" y="250.0889">list[SourceFile]</text><text fill="#000000" font-family="sans-serif" font-size="14" lengthAdjust="spacing" textLength="21" x="329" y="250.0889">) &#8594;</text><text fill="#191970" font-family="sans-serif" font-size="14" lengthAdjust="spacing" textLength="37" x="354" y="250.0889">None</text><ellipse cx="34" cy="263.0391" fill="#84BE84" rx="3" ry="3" style="stroke:#038048;stroke-width:1.0;"/><text fill="#8B0000" font-family="sans-serif" font-size="14" lengthAdjust="spacing" textLength="46" x="43" y="266.3857">__str__</text><text fill="#000000" font-family="sans-serif" font-size="14" lengthAdjust="spacing" textLength="51" x="89" y="266.3857">(self) &#8594;</text><text fill="#191970" font-family="sans-serif" font-size="14" lengthAdjust="spacing" textLength="18" x="144" y="266.3857">str</text></g><!--link SourceFile to SourceClass--><g id="link_SourceFile_SourceClass"><path codeLine="72" d="M732.23,228 C743.43,228 754.73,228 765.91,228 " fill="none" id="SourceFile-SourceClass" style="stroke:#181818;stroke-width:1.0;"/><polygon fill="none" points="719.21,228,725.21,232,731.21,228,725.21,224,719.21,228" style="stroke:#181818;stroke-width:1.0;"/><polygon fill="#181818" points="778.98,228,769.98,224,773.98,228,769.98,232,778.98,228" style="stroke:#181818;stroke-width:1.0;"/><line style="stroke:#181818;stroke-width:1.0;" x1="773.98" x2="765.98" y1="228" y2="228"/></g><!--link SourceFile to SourceVariable--><g id="link_SourceFile_SourceVariable"><path codeLine="73" d="M731.38,314.47 C739.22,317.37 747.12,319.92 755,322 C969.36,378.48 1220.9,351.34 1405.78,314.83 " fill="none" id="SourceFile-SourceVariable" style="stroke:#181818;stroke-width:1.0;"/><polygon fill="none" points="719.11,309.62,723.2219,315.5438,730.2716,314.0266,726.1597,308.1028,719.11,309.62" style="stroke:#181818;stroke-width:1.0;"/><polygon fill="#181818" points="1418.7,312.24,1409.0889,310.0889,1413.7977,313.2238,1410.6629,317.9326,1418.7,312.24" style="stroke:#181818;stroke-width:1.0;"/><line style="stroke:#181818;stroke-width:1.0;" x1="1413.7977" x2="1405.955" y1="313.2238" y2="314.79"/></g><!--link SourceFile to SourceFunction--><g id="link_SourceFile_SourceFunction"><path codeLine="74" d="M731.5,141.97 C739.31,138.95 747.17,136.26 755,134 C862.88,102.88 990.27,98.7 1085.66,101.58 " fill="none" id="SourceFile-SourceFunction" style="stroke:#181818;stroke-width:1.0;"/><polygon fill="none" points="719.28,146.98,726.3486,148.4065,730.384,142.4302,723.3154,141.0038,719.28,146.98" style="stroke:#181818;stroke-width:1.0;"/><polygon fill="#181818" points="1098.9,102.03,1090.0416,97.7256,1093.9029,101.8596,1089.7689,105.7209,1098.9,102.03" style="stroke:#181818;stroke-width:1.0;"/><line style="stroke:#181818;stroke-width:1.0;" x1="1093.9029" x2="1085.915" y1="101.8596" y2="101.585"/></g><!--link SourceFunction to SourceType--><g id="link_SourceFunction_SourceType"><path codeLine="75" d="M1372.25,121.47 C1527.31,131.79 1778.53,148.51 1967.6,161.1 " fill="none" id="SourceFunction-SourceType" style="stroke:#181818;stroke-width:1.0;"/><polygon fill="none" points="1359.11,120.59,1364.8284,124.9832,1371.083,121.3944,1365.3646,117.0012,1359.11,120.59" style="stroke:#181818;stroke-width:1.0;"/><polygon fill="#181818" points="1980.81,161.98,1972.0933,157.3953,1975.8209,161.6503,1971.5658,165.3779,1980.81,161.98" style="stroke:#181818;stroke-width:1.0;"/><line style="stroke:#181818;stroke-width:1.0;" x1="1975.8209" x2="1967.84" y1="161.6503" y2="161.11"/></g><!--link SourceFunction to SourceVariable--><g id="link_SourceFunction_SourceVariable"><path codeLine="76" d="M1371.65,155.56 C1390.02,161.21 1409.22,167.11 1428.64,173.08 " fill="none" id="SourceFunction-SourceVariable" style="stroke:#181818;stroke-width:1.0;"/><polygon fill="none" points="1359.04,151.68,1363.5965,157.2691,1370.5082,155.2127,1365.9517,149.6236,1359.04,151.68" style="stroke:#181818;stroke-width:1.0;"/><polygon fill="#181818" points="1441.1,176.91,1433.6764,170.4377,1436.3216,175.438,1431.3213,178.0832,1441.1,176.91" style="stroke:#181818;stroke-width:1.0;"/><line style="stroke:#181818;stroke-width:1.0;" x1="1436.3216" x2="1428.67" y1="175.438" y2="173.09"/></g><!--link SourceClass to SourceVariable--><g id="link_SourceClass_SourceVariable"><path codeLine="77" d="M1052.49,231.56 C1151.71,234.05 1286.97,237.43 1405.52,240.4 " fill="none" id="SourceClass-SourceVariable" style="stroke:#181818;stroke-width:1.0;"/><polygon fill="none" points="1039.18,231.23,1045.0815,235.374,1051.1765,231.5203,1045.275,227.3763,1039.18,231.23" style="stroke:#181818;stroke-width:1.0;"/><polygon fill="#181818" points="1418.78,240.73,1409.8839,236.5039,1413.7816,240.6037,1409.6818,244.5013,1418.78,240.73" style="stroke:#181818;stroke-width:1.0;"/><line style="stroke:#181818;stroke-width:1.0;" x1="1413.7816" x2="1405.785" y1="240.6037" y2="240.41"/></g><!--link SourceClass to SourceFunction--><g id="link_SourceClass_SourceFunction"><path codeLine="78" d="M1051.82,176.26 C1063.3,172.08 1074.9,167.85 1086.38,163.66 " fill="none" id="SourceClass-SourceFunction" style="stroke:#181818;stroke-width:1.0;"/><polygon fill="none" points="1039.34,180.82,1046.3465,182.5254,1050.6156,176.7138,1043.6091,175.0084,1039.34,180.82" style="stroke:#181818;stroke-width:1.0;"/><polygon fill="#181818" points="1098.77,159.14,1088.9441,158.4676,1094.073,160.854,1091.6865,165.9828,1098.77,159.14" style="stroke:#181818;stroke-width:1.0;"/><line style="stroke:#181818;stroke-width:1.0;" x1="1094.073" x2="1086.56" y1="160.854" y2="163.595"/></g><!--link SourceVariable to SourceType--><g id="link_SourceVariable_SourceType"><path codeLine="79" d="M1934.26,214 C1945.37,212.61 1956.51,211.21 1967.61,209.82 " fill="none" id="SourceVariable-SourceType" style="stroke:#181818;stroke-width:1.0;"/><polygon fill="none" points="1921.28,215.63,1927.7302,218.854,1933.1871,214.14,1926.7369,210.9159,1921.28,215.63" style="stroke:#181818;stroke-width:1.0;"/><polygon fill="#181818" points="1980.61,208.19,1971.1799,205.3488,1975.6494,208.8163,1972.1819,213.2858,1980.61,208.19" style="stroke:#181818;stroke-width:1.0;"/><line style="stroke:#181818;stroke-width:1.0;" x1="1975.6494" x2="1967.71" y1="208.8163" y2="209.805"/></g><!--link UMLFile to SourceFile--><g id="link_UMLFile_SourceFile"><path codeLine="80" d="M410.35,228 C421.57,228 432.74,228 443.7,228 " fill="none" id="UMLFile-SourceFile" style="stroke:#181818;stroke-width:1.0;"/><polygon fill="none" points="397.07,228,403.07,232,409.07,228,403.07,224,397.07,228" style="stroke:#181818;stroke-width:1.0;"/><polygon fill="#181818" points="456.94,228,447.94,224,451.94,228,447.94,232,456.94,228" style="stroke:#181818;stroke-width:1.0;"/><line style="stroke:#181818;stroke-width:1.0;" x1="451.94" x2="443.94" y1="228" y2="228"/></g><!--SRC=[xLRBZjCm5DttAxm4jGFxQjH51ysAOS406pIo7FicDNNio7P05R3b0_X4lWGxZwdZPbet6Wq2eMoIctFkmySdiO3S8gkGviN68iOrKCkLd9ajbnNHf4GLeLjImAtT2K2vYy3XoxNI3FIL4agZGfDTWA226BDsi4AhMh8MysN3RPX6PPzStN7KXZD0K5PsXqeeCz2c3L6kgO1Prm5wSQjgJU6Qkow_pfggQ12Qjws0MQ9BwlClRpYJVkorg64bkB4VMyALnzrTlcnGAqVCQzciocdgTOSCsRoibBR7kCRga23T6e-Z7J30VIQQaqmaJFIXG-whOEmITAnNH6_V0bjXp2Mt6FUWPmP4_Xpz-l5pDFyR9I7evY2PQpOvrt2mA5K15bCbPRirVLuk2pCXytTtnVkb4opUC_jmkXxDNfuYnXnfiBL-Q7-rj7Ux2lvQ-HXK81b8oY5PE8YCCQ9UuzH8kZusHnavxlR8TYNOZMBJFFxVia-ckVT197aNcgEmv3AjWlSUONwbJ-kNhC0YFUdYZARHDnGg-FGwZyZHxzD8aY2SxWvZYULq79af9GAeTP8__jToaTQgqunOWi_fOP4ytB_gtlSthmU7i_sp4xvPBvppb2-ZPzrDqNPwbJ_ZjE186vvkrSN5Ql033EzJIBqteySKQl_lYnvdnryFKdXN1BVdK4yqVh0OZqS-CVS3kO_FtHdWtXY3UaCDVWC0]--></g></svg>