<?xml version="1.0" encoding="us-ascii" standalone="no"?><svg xmlns="http://www.w3.org/2000/svg" xmlns:xlink="http://www.w3.org/1999/xlink" contentStyleType="text/css" height="385px" preserveAspectRatio="none" style="width:2535px;height:385px;background:#FFFFFF;" version="1.1" viewBox="0 0 2535 385" width="2535px" zoomAndPan="magnify"><defs/><g><!--cluster SourceFile--><g id="cluster_SourceFile"><rect fill="none" height="225.0005" rx="2.5" ry="2.5" style="stroke:#808080;stroke-width:1.5;" width="303" x="445" y="106"/><path d="M538,106 L538,115.2969 L528,125.2969 L445,125.2969 " fill="none" style="stroke:#808080;stroke-width:1.5;"/><text fill="#000000" font-family="sans-serif" font-size="14" font-weight="bold" lengthAdjust="spacing" textLength="83" x="448" y="119.9951">SourceFile</text></g><!--cluster SourceFunction--><g id="cluster_SourceFunction"><rect fill="none" height="191" rx="2.5" ry="2.5" style="stroke:#808080;stroke-width:1.5;" width="300" x="1104" y="7"/><path d="M1240,7 L1240,16.2969 L1230,26.2969 L1104,26.2969 " fill="none" style="stroke:#808080;stroke-width:1.5;"/><text fill="#000000" font-family="sans-serif" font-size="14" font-weight="bold" lengthAdjust="spacing" textLength="126" x="1107" y="20.9951">SourceFunction</text></g><!--cluster SourceClass--><g id="cluster_SourceClass"><rect fill="none" height="207.0005" rx="2.5" ry="2.5" style="stroke:#808080;stroke-width:1.5;" width="300" x="776" y="115"/><path d="M884,115 L884,124.2969 L874,134.2969 L776,134.2969 " fill="none" style="stroke:#808080;stroke-width:1.5;"/><text fill="#000000" font-family="sans-serif" font-size="14" font-weight="bold" lengthAdjust="spacing" textLength="98" x="779" y="128.9951">SourceClass</text></g><!--cluster SourceType--><g id="cluster_SourceType"><rect fill="none" height="159" rx="2.5" ry="2.5" style="stroke:#808080;stroke-width:1.5;" width="524" x="2005" y="89"/><path d="M2109,89 L2109,98.2969 L2099,108.2969 L2005,108.2969 " fill="none" style="stroke:#808080;stroke-width:1.5;"/><text fill="#000000" font-family="sans-serif" font-size="14" font-weight="bold" lengthAdjust="spacing" textLength="94" x="2008" y="102.9951">SourceType</text></g><!--cluster SourceVariable--><g id="cluster_SourceVariable"><rect fill="none" height="191.0005" rx="2.5" ry="2.5" style="stroke:#808080;stroke-width:1.5;" width="545" x="1432" y="142"/><path d="M1564,142 L1564,151.2969 L1554,161.2969 L1432,161.2969 " fill="none" style="stroke:#808080;stroke-width:1.5;"/><text fill="#000000" font-family="sans-serif" font-size="14" font-weight="bold" lengthAdjust="spacing" textLength="122" x="1435" y="155.9951">SourceVariable</text></g><!--cluster UMLFile--><g id="cluster_UMLFile"><rect fill="none" height="143.0005" rx="2.5" ry="2.5" style="stroke:#808080;stroke-width:1.5;" width="410" x="7" y="147"/><path d="M79,147 L79,156.2969 L69,166.2969 L7,166.2969 " fill="none" style="stroke:#808080;stroke-width:1.5;"/><text fill="#000000" font-family="sans-serif" font-size="14" font-weight="bold" lengthAdjust="spacing" textLength="62" x="10" y="160.9951">UMLFile</text></g><!--class SourceFile--><g id="elem_SourceFile"><rect codeLine="9" fill="#FFFFFF" height="172.6719" id="SourceFile" rx="2.5" ry="2.5" style="stroke:#181818;stroke-width:0.5;" width="271" x="461" y="141.5"/><text fill="#000000" font-family="sans-serif" font-size="14" lengthAdjust="spacing" textLength="74" x="559.5" y="159.4951">SourceFile</text><line style="stroke:#181818;stroke-width:0.5;" x1="462" x2="731" y1="167.7969" y2="167.7969"/><ellipse cx="472" cy="181.4453" fill="none" rx="3" ry="3" style="stroke:#038048;stroke-width:1.0;"/><text fill="#000000" font-family="sans-serif" font-size="14" lengthAdjust="spacing" textLength="55" x="481" y="184.792">classes:</text><text fill="#191970" font-family="sans-serif" font-size="14" lengthAdjust="spacing" textLength="117" x="540" y="184.792">list[SourceClass]</text><ellipse cx="472" cy="197.7422" fill="none" rx="3" ry="3" style="stroke:#038048;stroke-width:1.0;"/><text fill="#000000" font-family="sans-serif" font-size="14" lengthAdjust="spacing" textLength="72" x="481" y="201.0889">functions:</text><text fill="#191970" font-family="sans-serif" font-size="14" lengthAdjust="spacing" textLength="143" x="557" y="201.0889">list[SourceFunction]</text><ellipse cx="472" cy="214.0391" fill="none" rx="3" ry="3" style="stroke:#038048;stroke-width:1.0;"/><text fill="#000000" font-family="sans-serif" font-size="14" lengthAdjust="spacing" textLength="62" x="481" y="217.3857">imports:</text><text fill="#191970" font-family="sans-serif" font-size="14" lengthAdjust="spacing" textLength="52" x="547" y="217.3857">list[str]</text><ellipse cx="472" cy="230.3359" fill="none" rx="3" ry="3" style="stroke:#038048;stroke-width:1.0;"/><text fill="#000000" font-family="sans-serif" font-size="14" lengthAdjust="spacing" textLength="45" x="481" y="233.6826">name:</text><text fill="#191970" font-family="sans-serif" font-size="14" lengthAdjust="spacing" textLength="20" x="530" y="233.6826">str</text><ellipse cx="472" cy="246.6328" fill="none" rx="3" ry="3" style="stroke:#038048;stroke-width:1.0;"/><text fill="#000000" font-family="sans-serif" font-size="14" lengthAdjust="spacing" textLength="69" x="481" y="249.9795">variables:</text><text fill="#191970" font-family="sans-serif" font-size="14" lengthAdjust="spacing" textLength="140" x="554" y="249.9795">list[SourceVariable]</text><line style="stroke:#181818;stroke-width:0.5;" x1="462" x2="731" y1="257.2813" y2="257.2813"/><ellipse cx="472" cy="270.9297" fill="#84BE84" rx="3" ry="3" style="stroke:#038048;stroke-width:1.0;"/><text fill="#8B0000" font-family="sans-serif" font-size="14" lengthAdjust="spacing" textLength="52" x="481" y="274.2764">__init__</text><text fill="#000000" font-family="sans-serif" font-size="14" lengthAdjust="spacing" textLength="52" x="533" y="274.2764">(self) &#8594;</text><text fill="#191970" font-family="sans-serif" font-size="14" lengthAdjust="spacing" textLength="37" x="589" y="274.2764">None</text><ellipse cx="472" cy="287.2266" fill="#84BE84" rx="3" ry="3" style="stroke:#038048;stroke-width:1.0;"/><text fill="#8B0000" font-family="sans-serif" font-size="14" lengthAdjust="spacing" textLength="48" x="481" y="290.5732">__str__</text><text fill="#000000" font-family="sans-serif" font-size="14" lengthAdjust="spacing" textLength="52" x="529" y="290.5732">(self) &#8594;</text><text fill="#191970" font-family="sans-serif" font-size="14" lengthAdjust="spacing" textLength="20" x="585" y="290.5732">str</text><ellipse cx="472" cy="303.5234" fill="#84BE84" rx="3" ry="3" style="stroke:#038048;stroke-width:1.0;"/><text fill="#8B0000" font-family="sans-serif" font-size="14" lengthAdjust="spacing" textLength="169" x="481" y="306.8701">get_connection_strings</text><text fill="#000000" font-family="sans-serif" font-size="14" lengthAdjust="spacing" textLength="52" x="650" y="306.8701">(self) &#8594;</text><text fill="#191970" font-family="sans-serif" font-size="14" lengthAdjust="spacing" textLength="20" x="706" y="306.8701">str</text></g><!--class SourceFunction--><g id="elem_SourceFunction"><rect codeLine="22" fill="#FFFFFF" height="140.0781" id="SourceFunction" rx="2.5" ry="2.5" style="stroke:#181818;stroke-width:0.5;" width="268" x="1120" y="42"/><text fill="#000000" font-family="sans-serif" font-size="14" lengthAdjust="spacing" textLength="111" x="1198.5" y="59.9951">SourceFunction</text><line style="stroke:#181818;stroke-width:0.5;" x1="1121" x2="1387" y1="68.2969" y2="68.2969"/><ellipse cx="1131" cy="81.9453" fill="none" rx="3" ry="3" style="stroke:#038048;stroke-width:1.0;"/><text fill="#000000" font-family="sans-serif" font-size="14" lengthAdjust="spacing" textLength="45" x="1140" y="85.292">name:</text><text fill="#191970" font-family="sans-serif" font-size="14" lengthAdjust="spacing" textLength="20" x="1189" y="85.292">str</text><ellipse cx="1131" cy="98.2422" fill="none" rx="3" ry="3" style="stroke:#038048;stroke-width:1.0;"/><text fill="#000000" font-family="sans-serif" font-size="14" lengthAdjust="spacing" textLength="58" x="1140" y="101.5889">params:</text><text fill="#191970" font-family="sans-serif" font-size="14" lengthAdjust="spacing" textLength="140" x="1202" y="101.5889">list[SourceVariable]</text><ellipse cx="1131" cy="114.5391" fill="none" rx="3" ry="3" style="stroke:#038048;stroke-width:1.0;"/><text fill="#000000" font-family="sans-serif" font-size="14" lengthAdjust="spacing" textLength="57" x="1140" y="117.8857">returns:</text><text fill="#191970" font-family="sans-serif" font-size="14" lengthAdjust="spacing" textLength="85" x="1201" y="117.8857">SourceType</text><line style="stroke:#181818;stroke-width:0.5;" x1="1121" x2="1387" y1="125.1875" y2="125.1875"/><ellipse cx="1131" cy="138.8359" fill="#84BE84" rx="3" ry="3" style="stroke:#038048;stroke-width:1.0;"/><text fill="#8B0000" font-family="sans-serif" font-size="14" lengthAdjust="spacing" textLength="52" x="1140" y="142.1826">__init__</text><text fill="#000000" font-family="sans-serif" font-size="14" lengthAdjust="spacing" textLength="52" x="1192" y="142.1826">(self) &#8594;</text><text fill="#191970" font-family="sans-serif" font-size="14" lengthAdjust="spacing" textLength="37" x="1248" y="142.1826">None</text><ellipse cx="1131" cy="155.1328" fill="#84BE84" rx="3" ry="3" style="stroke:#038048;stroke-width:1.0;"/><text fill="#8B0000" font-family="sans-serif" font-size="14" lengthAdjust="spacing" textLength="48" x="1140" y="158.4795">__str__</text><text fill="#000000" font-family="sans-serif" font-size="14" lengthAdjust="spacing" textLength="52" x="1188" y="158.4795">(self) &#8594;</text><text fill="#191970" font-family="sans-serif" font-size="14" lengthAdjust="spacing" textLength="20" x="1244" y="158.4795">str</text><ellipse cx="1131" cy="171.4297" fill="#84BE84" rx="3" ry="3" style="stroke:#038048;stroke-width:1.0;"/><text fill="#8B0000" font-family="sans-serif" font-size="14" lengthAdjust="spacing" textLength="133" x="1140" y="174.7764">get_dependencies</text><text fill="#000000" font-family="sans-serif" font-size="14" lengthAdjust="spacing" textLength="52" x="1273" y="174.7764">(self) &#8594;</text><text fill="#191970" font-family="sans-serif" font-size="14" lengthAdjust="spacing" textLength="53" x="1329" y="174.7764">set[str]</text></g><!--class SourceClass--><g id="elem_SourceClass"><rect codeLine="33" fill="#FFFFFF" height="156.375" id="SourceClass" rx="2.5" ry="2.5" style="stroke:#181818;stroke-width:0.5;" width="268" x="792" y="150"/><text fill="#000000" font-family="sans-serif" font-size="14" lengthAdjust="spacing" textLength="85" x="883.5" y="167.9951">SourceClass</text><line style="stroke:#181818;stroke-width:0.5;" x1="793" x2="1059" y1="176.2969" y2="176.2969"/><ellipse cx="803" cy="189.9453" fill="none" rx="3" ry="3" style="stroke:#038048;stroke-width:1.0;"/><text fill="#000000" font-family="sans-serif" font-size="14" lengthAdjust="spacing" textLength="46" x="812" y="193.292">bases:</text><text fill="#191970" font-family="sans-serif" font-size="14" lengthAdjust="spacing" textLength="52" x="862" y="193.292">list[str]</text><ellipse cx="803" cy="206.2422" fill="none" rx="3" ry="3" style="stroke:#038048;stroke-width:1.0;"/><text fill="#000000" font-family="sans-serif" font-size="14" lengthAdjust="spacing" textLength="69" x="812" y="209.5889">methods:</text><text fill="#191970" font-family="sans-serif" font-size="14" lengthAdjust="spacing" textLength="143" x="885" y="209.5889">list[SourceFunction]</text><ellipse cx="803" cy="222.5391" fill="none" rx="3" ry="3" style="stroke:#038048;stroke-width:1.0;"/><text fill="#000000" font-family="sans-serif" font-size="14" lengthAdjust="spacing" textLength="45" x="812" y="225.8857">name:</text><text fill="#191970" font-family="sans-serif" font-size="14" lengthAdjust="spacing" textLength="20" x="861" y="225.8857">str</text><ellipse cx="803" cy="238.8359" fill="none" rx="3" ry="3" style="stroke:#038048;stroke-width:1.0;"/><text fill="#000000" font-family="sans-serif" font-size="14" lengthAdjust="spacing" textLength="69" x="812" y="242.1826">variables:</text><text fill="#191970" font-family="sans-serif" font-size="14" lengthAdjust="spacing" textLength="140" x="885" y="242.1826">list[SourceVariable]</text><line style="stroke:#181818;stroke-width:0.5;" x1="793" x2="1059" y1="249.4844" y2="249.4844"/><ellipse cx="803" cy="263.1328" fill="#84BE84" rx="3" ry="3" style="stroke:#038048;stroke-width:1.0;"/><text fill="#8B0000" font-family="sans-serif" font-size="14" lengthAdjust="spacing" textLength="52" x="812" y="266.4795">__init__</text><text fill="#000000" font-family="sans-serif" font-size="14" lengthAdjust="spacing" textLength="52" x="864" y="266.4795">(self) &#8594;</text><text fill="#191970" font-family="sans-serif" font-size="14" lengthAdjust="spacing" textLength="37" x="920" y="266.4795">None</text><ellipse cx="803" cy="279.4297" fill="#84BE84" rx="3" ry="3" style="stroke:#038048;stroke-width:1.0;"/><text fill="#8B0000" font-family="sans-serif" font-size="14" lengthAdjust="spacing" textLength="48" x="812" y="282.7764">__str__</text><text fill="#000000" font-family="sans-serif" font-size="14" lengthAdjust="spacing" textLength="52" x="860" y="282.7764">(self) &#8594;</text><text fill="#191970" font-family="sans-serif" font-size="14" lengthAdjust="spacing" textLength="20" x="916" y="282.7764">str</text><ellipse cx="803" cy="295.7266" fill="#84BE84" rx="3" ry="3" style="stroke:#038048;stroke-width:1.0;"/><text fill="#8B0000" font-family="sans-serif" font-size="14" lengthAdjust="spacing" textLength="133" x="812" y="299.0732">get_dependencies</text><text fill="#000000" font-family="sans-serif" font-size="14" lengthAdjust="spacing" textLength="52" x="945" y="299.0732">(self) &#8594;</text><text fill="#191970" font-family="sans-serif" font-size="14" lengthAdjust="spacing" textLength="53" x="1001" y="299.0732">set[str]</text></g><!--class SourceType--><g id="elem_SourceType"><rect codeLine="45" fill="#FFFFFF" height="107.4844" id="SourceType" rx="2.5" ry="2.5" style="stroke:#181818;stroke-width:0.5;" width="492" x="2021" y="124.5"/><text fill="#000000" font-family="sans-serif" font-size="14" lengthAdjust="spacing" textLength="85" x="2224.5" y="142.4951">SourceType</text><line style="stroke:#181818;stroke-width:0.5;" x1="2022" x2="2512" y1="150.7969" y2="150.7969"/><ellipse cx="2032" cy="164.4453" fill="none" rx="3" ry="3" style="stroke:#038048;stroke-width:1.0;"/><text fill="#000000" font-family="sans-serif" font-size="14" lengthAdjust="spacing" textLength="106" x="2041" y="167.792">dependencies:</text><text fill="#191970" font-family="sans-serif" font-size="14" lengthAdjust="spacing" textLength="53" x="2151" y="167.792">set[str]</text><ellipse cx="2032" cy="180.7422" fill="none" rx="3" ry="3" style="stroke:#038048;stroke-width:1.0;"/><text fill="#000000" font-family="sans-serif" font-size="14" lengthAdjust="spacing" textLength="68" x="2041" y="184.0889">readable:</text><text fill="#191970" font-family="sans-serif" font-size="14" lengthAdjust="spacing" textLength="20" x="2113" y="184.0889">str</text><line style="stroke:#181818;stroke-width:0.5;" x1="2022" x2="2512" y1="191.3906" y2="191.3906"/><ellipse cx="2032" cy="205.0391" fill="#84BE84" rx="3" ry="3" style="stroke:#038048;stroke-width:1.0;"/><text fill="#8B0000" font-family="sans-serif" font-size="14" lengthAdjust="spacing" textLength="52" x="2041" y="208.3857">__init__</text><text fill="#000000" font-family="sans-serif" font-size="14" lengthAdjust="spacing" textLength="107" x="2093" y="208.3857">(self, readable:</text><text fill="#191970" font-family="sans-serif" font-size="14" lengthAdjust="spacing" textLength="20" x="2204" y="208.3857">str</text><text fill="#000000" font-family="sans-serif" font-size="14" lengthAdjust="spacing" textLength="114" x="2224" y="208.3857">, dependencies:</text><text fill="#191970" font-family="sans-serif" font-size="14" lengthAdjust="spacing" textLength="103" x="2342" y="208.3857">set[str] | None</text><text fill="#000000" font-family="sans-serif" font-size="14" lengthAdjust="spacing" textLength="21" x="2445" y="208.3857">) &#8594;</text><text fill="#191970" font-family="sans-serif" font-size="14" lengthAdjust="spacing" textLength="37" x="2470" y="208.3857">None</text><ellipse cx="2032" cy="221.3359" fill="#84BE84" rx="3" ry="3" style="stroke:#038048;stroke-width:1.0;"/><text fill="#8B0000" font-family="sans-serif" font-size="14" lengthAdjust="spacing" textLength="48" x="2041" y="224.6826">__str__</text><text fill="#000000" font-family="sans-serif" font-size="14" lengthAdjust="spacing" textLength="52" x="2089" y="224.6826">(self) &#8594;</text><text fill="#191970" font-family="sans-serif" font-size="14" lengthAdjust="spacing" textLength="20" x="2145" y="224.6826">str</text></g><!--class SourceVariable--><g id="elem_SourceVariable"><rect codeLine="54" fill="#FFFFFF" height="140.0781" id="SourceVariable" rx="2.5" ry="2.5" style="stroke:#181818;stroke-width:0.5;" width="513" x="1448" y="177"/><text fill="#000000" font-family="sans-serif" font-size="14" lengthAdjust="spacing" textLength="108" x="1650.5" y="194.9951">SourceVariable</text><line style="stroke:#181818;stroke-width:0.5;" x1="1449" x2="1960" y1="203.2969" y2="203.2969"/><ellipse cx="1459" cy="216.9453" fill="none" rx="3" ry="3" style="stroke:#038048;stroke-width:1.0;"/><text fill="#000000" font-family="sans-serif" font-size="14" lengthAdjust="spacing" textLength="45" x="1468" y="220.292">name:</text><text fill="#191970" font-family="sans-serif" font-size="14" lengthAdjust="spacing" textLength="20" x="1517" y="220.292">str</text><ellipse cx="1459" cy="233.2422" fill="none" rx="3" ry="3" style="stroke:#038048;stroke-width:1.0;"/><text fill="#000000" font-family="sans-serif" font-size="14" lengthAdjust="spacing" textLength="46" x="1468" y="236.5889">static:</text><text fill="#191970" font-family="sans-serif" font-size="14" lengthAdjust="spacing" textLength="32" x="1518" y="236.5889">bool</text><ellipse cx="1459" cy="249.5391" fill="none" rx="3" ry="3" style="stroke:#038048;stroke-width:1.0;"/><text fill="#000000" font-family="sans-serif" font-size="14" lengthAdjust="spacing" textLength="39" x="1468" y="252.8857">type:</text><text fill="#191970" font-family="sans-serif" font-size="14" lengthAdjust="spacing" textLength="85" x="1511" y="252.8857">SourceType</text><line style="stroke:#181818;stroke-width:0.5;" x1="1449" x2="1960" y1="260.1875" y2="260.1875"/><ellipse cx="1459" cy="273.8359" fill="#84BE84" rx="3" ry="3" style="stroke:#038048;stroke-width:1.0;"/><text fill="#8B0000" font-family="sans-serif" font-size="14" lengthAdjust="spacing" textLength="52" x="1468" y="277.1826">__init__</text><text fill="#000000" font-family="sans-serif" font-size="14" lengthAdjust="spacing" textLength="84" x="1520" y="277.1826">(self, name:</text><text fill="#191970" font-family="sans-serif" font-size="14" lengthAdjust="spacing" textLength="20" x="1608" y="277.1826">str</text><text fill="#000000" font-family="sans-serif" font-size="14" lengthAdjust="spacing" textLength="86" x="1628" y="277.1826">, data_type:</text><text fill="#191970" font-family="sans-serif" font-size="14" lengthAdjust="spacing" textLength="85" x="1718" y="277.1826">SourceType</text><text fill="#000000" font-family="sans-serif" font-size="14" lengthAdjust="spacing" textLength="54" x="1803" y="277.1826">, static:</text><text fill="#191970" font-family="sans-serif" font-size="14" lengthAdjust="spacing" textLength="32" x="1861" y="277.1826">bool</text><text fill="#000000" font-family="sans-serif" font-size="14" lengthAdjust="spacing" textLength="21" x="1893" y="277.1826">) &#8594;</text><text fill="#191970" font-family="sans-serif" font-size="14" lengthAdjust="spacing" textLength="37" x="1918" y="277.1826">None</text><ellipse cx="1459" cy="290.1328" fill="#84BE84" rx="3" ry="3" style="stroke:#038048;stroke-width:1.0;"/><text fill="#8B0000" font-family="sans-serif" font-size="14" lengthAdjust="spacing" textLength="48" x="1468" y="293.4795">__str__</text><text fill="#000000" font-family="sans-serif" font-size="14" lengthAdjust="spacing" textLength="52" x="1516" y="293.4795">(self) &#8594;</text><text fill="#191970" font-family="sans-serif" font-size="14" lengthAdjust="spacing" textLength="20" x="1572" y="293.4795">str</text><ellipse cx="1459" cy="306.4297" fill="#84BE84" rx="3" ry="3" style="stroke:#038048;stroke-width:1.0;"/><text fill="#8B0000" font-family="sans-serif" font-size="14" lengthAdjust="spacing" textLength="133" x="1468" y="309.7764">get_dependencies</text><text fill="#000000" font-family="sans-serif" font-size="14" lengthAdjust="spacing" textLength="52" x="1601" y="309.7764">(self) &#8594;</text><text fill="#191970" font-family="sans-serif" font-size="14" lengthAdjust="spacing" textLength="53" x="1657" y="309.7764">set[str]</text></g><!--class UMLFile--><g id="elem_UMLFile"><rect codeLine="65" fill="#FFFFFF" height="91.1875" id="UMLFile" rx="2.5" ry="2.5" style="stroke:#181818;stroke-width:0.5;" width="378" x="23" y="182.5"/><text fill="#000000" font-family="sans-serif" font-size="14" lengthAdjust="spacing" textLength="54" x="185" y="200.4951">UMLFile</text><line style="stroke:#181818;stroke-width:0.5;" x1="24" x2="400" y1="208.7969" y2="208.7969"/><ellipse cx="34" cy="222.4453" fill="none" rx="3" ry="3" style="stroke:#038048;stroke-width:1.0;"/><text fill="#000000" font-family="sans-serif" font-size="14" lengthAdjust="spacing" textLength="89" x="43" y="225.792">source_files:</text><text fill="#191970" font-family="sans-serif" font-size="14" lengthAdjust="spacing" textLength="106" x="136" y="225.792">list[SourceFile]</text><line style="stroke:#181818;stroke-width:0.5;" x1="24" x2="400" y1="233.0937" y2="233.0937"/><ellipse cx="34" cy="246.7422" fill="#84BE84" rx="3" ry="3" style="stroke:#038048;stroke-width:1.0;"/><text fill="#8B0000" font-family="sans-serif" font-size="14" lengthAdjust="spacing" textLength="52" x="43" y="250.0889">__init__</text><text fill="#000000" font-family="sans-serif" font-size="14" lengthAdjust="spacing" textLength="128" x="95" y="250.0889">(self, source_files:</text><text fill="#191970" font-family="sans-serif" font-size="14" lengthAdjust="spacing" textLength="106" x="227" y="250.0889">list[SourceFile]</text><text fill="#000000" font-family="sans-serif" font-size="14" lengthAdjust="spacing" textLength="21" x="333" y="250.0889">) &#8594;</text><text fill="#191970" font-family="sans-serif" font-size="14" lengthAdjust="spacing" textLength="37" x="358" y="250.0889">None</text><ellipse cx="34" cy="263.0391" fill="#84BE84" rx="3" ry="3" style="stroke:#038048;stroke-width:1.0;"/><text fill="#8B0000" font-family="sans-serif" font-size="14" lengthAdjust="spacing" textLength="48" x="43" y="266.3857">__str__</text><text fill="#000000" font-family="sans-serif" font-size="14" lengthAdjust="spacing" textLength="52" x="91" y="266.3857">(self) &#8594;</text><text fill="#191970" font-family="sans-serif" font-size="14" lengthAdjust="spacing" textLength="20" x="147" y="266.3857">str</text></g><!--link SourceFile to SourceFunction--><g id="link_SourceFile_SourceFunction"><path codeLine="72" d="M744.592,141.727 C752.379,138.803 760.207,136.196 768,134 C878.627,102.836 1009,98.629 1106.71,101.504 " fill="none" id="SourceFile-SourceFunction" style="stroke:#181818;stroke-width:1.0;"/><polygon fill="none" points="732.399,146.566,739.4514,148.0704,743.5526,142.1391,736.5002,140.6347,732.399,146.566" style="stroke:#181818;stroke-width:1.0;"/><polygon fill="#181818" points="1119.97,101.943,1111.1068,97.6485,1114.9727,101.7782,1110.843,105.6441,1119.97,101.943" style="stroke:#181818;stroke-width:1.0;"/><line style="stroke:#181818;stroke-width:1.0;" x1="1114.9727" x2="1106.97" y1="101.7782" y2="101.5125"/></g><!--link SourceFile to SourceVariable--><g id="link_SourceFile_SourceVariable"><path codeLine="73" d="M744.475,314.711 C752.293,317.5188 760.159,319.9823 768,322.0005 C987.995,378.6264 1245.84,351.3282 1435.05,314.723 " fill="none" id="SourceFile-SourceVariable" style="stroke:#181818;stroke-width:1.0;"/><polygon fill="none" points="732.239,310.03,736.414,315.9096,743.4471,314.3171,739.2721,308.4375,732.239,310.03" style="stroke:#181818;stroke-width:1.0;"/><polygon fill="#181818" points="1447.99,312.1859,1438.3864,310.0018,1443.0844,313.1528,1439.9334,317.8508,1447.99,312.1859" style="stroke:#181818;stroke-width:1.0;"/><line style="stroke:#181818;stroke-width:1.0;" x1="1443.0844" x2="1435.23" y1="313.1528" y2="314.6886"/></g><!--link SourceFile to SourceClass--><g id="link_SourceFile_SourceClass"><path codeLine="74" d="M745.163,228 C756.37,228 767.678,228 778.875,228 " fill="none" id="SourceFile-SourceClass" style="stroke:#181818;stroke-width:1.0;"/><polygon fill="none" points="732.125,228,738.125,232,744.125,228,738.125,224,732.125,228" style="stroke:#181818;stroke-width:1.0;"/><polygon fill="#181818" points="791.956,228,782.956,224,786.956,228,782.956,232,791.956,228" style="stroke:#181818;stroke-width:1.0;"/><line style="stroke:#181818;stroke-width:1.0;" x1="786.956" x2="778.9555" y1="228" y2="228"/></g><!--link SourceFunction to SourceType--><g id="link_SourceFunction_SourceType"><path codeLine="75" d="M1401.63,121.573 C1560.04,131.914 1815.52,148.593 2007.74,161.141 " fill="none" id="SourceFunction-SourceType" style="stroke:#181818;stroke-width:1.0;"/><polygon fill="none" points="1388.21,120.697,1393.938,125.0776,1400.1848,121.475,1394.4567,117.0944,1388.21,120.697" style="stroke:#181818;stroke-width:1.0;"/><polygon fill="#181818" points="2020.88,161.999,2012.1633,157.4143,2015.8909,161.6693,2011.6358,165.3969,2020.88,161.999" style="stroke:#181818;stroke-width:1.0;"/><line style="stroke:#181818;stroke-width:1.0;" x1="2015.8909" x2="2007.91" y1="161.6693" y2="161.152"/></g><!--link SourceFunction to SourceVariable--><g id="link_SourceFunction_SourceVariable"><path codeLine="76" d="M1400.79,155.883 C1419.35,161.469 1438.72,167.302 1458.32,173.199 " fill="none" id="SourceFunction-SourceVariable" style="stroke:#181818;stroke-width:1.0;"/><polygon fill="none" points="1388.05,152.048,1392.6383,157.611,1399.5382,155.5153,1394.9498,149.9523,1388.05,152.048" style="stroke:#181818;stroke-width:1.0;"/><polygon fill="#181818" points="1470.87,176.98,1463.4031,170.5578,1466.0818,175.5402,1461.0994,178.2189,1470.87,176.98" style="stroke:#181818;stroke-width:1.0;"/><line style="stroke:#181818;stroke-width:1.0;" x1="1466.0818" x2="1458.43" y1="175.5402" y2="173.2325"/></g><!--link SourceClass to SourceFunction--><g id="link_SourceClass_SourceFunction"><path codeLine="77" d="M1072.61,176.187 C1084.16,172.079 1095.82,167.93 1107.36,163.823 " fill="none" id="SourceClass-SourceFunction" style="stroke:#181818;stroke-width:1.0;"/><polygon fill="none" points="1060.07,180.652,1067.0637,182.4095,1071.3758,176.6298,1064.3822,174.8723,1060.07,180.652" style="stroke:#181818;stroke-width:1.0;"/><polygon fill="#181818" points="1119.83,159.386,1110.0099,158.6337,1115.1192,161.0618,1112.6911,166.171,1119.83,159.386" style="stroke:#181818;stroke-width:1.0;"/><line style="stroke:#181818;stroke-width:1.0;" x1="1115.1192" x2="1107.585" y1="161.0618" y2="163.744"/></g><!--link SourceClass to SourceVariable--><g id="link_SourceClass_SourceVariable"><path codeLine="78" d="M1073.33,231.581 C1174.94,234.067 1313.31,237.453 1434.5,240.418 " fill="none" id="SourceClass-SourceVariable" style="stroke:#181818;stroke-width:1.0;"/><polygon fill="none" points="1060.04,231.256,1065.9416,235.3999,1072.0365,231.5461,1066.1349,227.4022,1060.04,231.256" style="stroke:#181818;stroke-width:1.0;"/><polygon fill="#181818" points="1447.67,240.741,1438.7693,236.5246,1442.6715,240.6201,1438.5759,244.5222,1447.67,240.741" style="stroke:#181818;stroke-width:1.0;"/><line style="stroke:#181818;stroke-width:1.0;" x1="1442.6715" x2="1434.68" y1="240.6201" y2="240.4225"/></g><!--link SourceVariable to SourceType--><g id="link_SourceVariable_SourceType"><path codeLine="79" d="M1974.15,213.929 C1985.28,212.558 1996.44,211.184 2007.55,209.816 " fill="none" id="SourceVariable-SourceType" style="stroke:#181818;stroke-width:1.0;"/><polygon fill="none" points="1961.15,215.529,1967.5966,218.7602,1973.0588,214.0523,1966.6122,210.821,1961.15,215.529" style="stroke:#181818;stroke-width:1.0;"/><polygon fill="#181818" points="2020.58,208.213,2011.1593,205.3407,2015.6173,208.8229,2012.1351,213.2809,2020.58,208.213" style="stroke:#181818;stroke-width:1.0;"/><line style="stroke:#181818;stroke-width:1.0;" x1="2015.6173" x2="2007.675" y1="208.8229" y2="209.802"/></g><!--link UMLFile to SourceFile--><g id="link_UMLFile_SourceFile"><path codeLine="80" d="M414.42,228 C425.624,228 436.782,228 447.739,228 " fill="none" id="UMLFile-SourceFile" style="stroke:#181818;stroke-width:1.0;"/><polygon fill="none" points="401.168,228,407.168,232,413.168,228,407.168,224,401.168,228" style="stroke:#181818;stroke-width:1.0;"/><polygon fill="#181818" points="460.994,228,451.994,224,455.994,228,451.994,232,460.994,228" style="stroke:#181818;stroke-width:1.0;"/><line style="stroke:#181818;stroke-width:1.0;" x1="455.994" x2="447.994" y1="228" y2="228"/></g><!--SRC=[xLRBRjim4BpxAtXiOSUv6u4FJf5JaqFIzb840aMkPDOKAP1K2wFjjH_GJ-oNbDG3fYX7eOKWHOf05t4rixlax4ZYa1ba958itnf4cG9Yc1GplMEYn0eNgCHaXtEuCtiEABCH63xSI4L1NKek5SeLtdi8mh7M6mlBbQm4RJ3VjipuQMJwnTOzZjeo2WYAqknH0KKAIZSXmXJXC6ixG7UoKWIkc6to-wmksW_Dcqv0hz05SUbNrumAj-iDhs3DcJQV6yAbmzrVdDUejILcbQWFvN7gLOlqsQmefJ9ZN6sKJn3sY8-ZBT33VSMAuPH7xEXJYpnKIHARe6Mzmsft2tIT94mmaoGTw8q6dhr5VtxzFfh_HWhmkXaaiyr6v-flB4YLWqc85AAPJ9UNYLnFoFpJNi6uj7g58tC8nyjHJ_8KBUP8WQdKG-FLq3xiItYnwb4eGL0GX46qRX3uOYXUxTD0kIusHoaUztfWkWBCLj9f3dyrx7D9xbmGADw6viYlk8ehu9o7gJlen-MB5c0HdtHnGjFe1_85V7wPXsfqKneeueNZlQ4DDemSHwPISWzghE9F_wfSnBLg9SC69wVqi8ZUt7_gtO_Nxtl_POUrrRq-hYHZCQz5nxgV8ktqAl_6PuT6bjvFh3mxMwDb_piKB2EOdJs3PGIp_hZwzxFHNdfSPmZlzWJcUB-3dauufN7kUDq7dexkkPtxPJV_lKxxv_uN]--></g></svg>